%TF.GenerationSoftware,KiCad,Pcbnew,(5.1.4)-1*%
%TF.CreationDate,2021-05-17T23:16:03+08:00*%
%TF.ProjectId,power,706f7765-722e-46b6-9963-61645f706362,rev?*%
%TF.SameCoordinates,Original*%
%TF.FileFunction,Copper,L1,Top*%
%TF.FilePolarity,Positive*%
%FSLAX46Y46*%
G04 Gerber Fmt 4.6, Leading zero omitted, Abs format (unit mm)*
G04 Created by KiCad (PCBNEW (5.1.4)-1) date 2021-05-17 23:16:03*
%MOMM*%
%LPD*%
G04 APERTURE LIST*
%ADD10C,0.254000*%
%ADD11R,1.160000X1.470000*%
%ADD12R,1.500000X0.900000*%
%ADD13R,2.743000X2.159000*%
%ADD14R,1.800000X1.130000*%
%ADD15R,1.130000X1.800000*%
%ADD16R,1.600000X3.000000*%
%ADD17R,1.000000X5.500000*%
%ADD18R,3.810000X2.794000*%
%ADD19R,3.000000X1.600000*%
%ADD20R,5.500000X1.000000*%
%ADD21C,1.600000*%
%ADD22R,1.600000X1.600000*%
%ADD23R,1.250000X0.700000*%
%ADD24R,2.500000X10.000000*%
%ADD25R,1.600000X10.000000*%
%ADD26O,9.000000X6.000000*%
%ADD27R,1.500000X1.500000*%
%ADD28C,1.500000*%
%ADD29C,0.800000*%
%ADD30C,0.800000*%
%ADD31R,1.650000X2.380000*%
%ADD32R,1.450000X0.300000*%
%ADD33O,1.800000X0.700000*%
%ADD34O,0.700000X1.800000*%
%ADD35C,6.000000*%
%ADD36R,1.470000X1.160000*%
%ADD37R,0.700000X1.250000*%
%ADD38R,2.200000X1.200000*%
%ADD39R,6.499990X6.000000*%
%ADD40R,1.200000X2.200000*%
%ADD41R,6.000000X6.499990*%
%ADD42R,3.900000X5.400000*%
%ADD43O,3.600000X1.800000*%
%ADD44R,3.600000X1.800000*%
%ADD45R,11.000000X8.000000*%
%ADD46R,8.000000X11.000000*%
%ADD47R,1.000000X1.250000*%
%ADD48R,1.250000X1.000000*%
%ADD49R,2.794000X3.810000*%
%ADD50C,2.000000*%
%ADD51R,2.000000X2.000000*%
%ADD52R,1.600000X3.500000*%
%ADD53R,2.720000X1.160000*%
%ADD54C,0.381000*%
%ADD55C,0.508000*%
%ADD56C,0.762000*%
%ADD57C,0.228600*%
%ADD58C,1.016000*%
%ADD59C,0.350000*%
%ADD60O,6.000000X2.000000*%
G04 APERTURE END LIST*
D10*
X43500000Y-73000000D02*
X42250000Y-73000000D01*
D11*
X91140000Y-61135011D03*
X89360000Y-61135011D03*
X108390000Y-51500000D03*
X106610000Y-51500000D03*
X114310000Y-49000000D03*
X116090000Y-49000000D03*
D12*
X32250000Y-30500000D03*
X32250000Y-27000000D03*
D13*
X28800000Y-34390000D03*
X28800000Y-38810000D03*
D14*
X28750000Y-24260000D03*
X28750000Y-27240000D03*
D15*
X25760000Y-30250000D03*
X28740000Y-30250000D03*
D16*
X60350000Y-51875000D03*
X67150000Y-51875000D03*
D17*
X62750000Y-49625000D03*
X64750000Y-49625000D03*
D18*
X114250000Y-37181500D03*
X114250000Y-44318500D03*
D19*
X72875000Y-50600000D03*
X72875000Y-59400000D03*
D20*
X75125000Y-53000000D03*
X75125000Y-55000000D03*
X75125000Y-57000000D03*
D19*
X99625000Y-62600000D03*
X99625000Y-69400000D03*
D20*
X101875000Y-65000000D03*
X101875000Y-67000000D03*
D19*
X99675000Y-48400000D03*
X99675000Y-59200000D03*
D20*
X101925000Y-50800000D03*
X101925000Y-52800000D03*
X101925000Y-54800000D03*
X101925000Y-56800000D03*
D21*
X42500000Y-46250000D03*
D22*
X42500000Y-43750000D03*
D23*
X37750000Y-81250000D03*
X40250000Y-80300000D03*
X40250000Y-82200000D03*
D24*
X45050000Y-26000000D03*
D25*
X42000000Y-26000000D03*
D24*
X38950000Y-26000000D03*
D26*
X77910000Y-25600000D03*
X87910000Y-25600000D03*
D27*
X81000000Y-47000000D03*
D28*
X84820000Y-47000000D03*
X82910000Y-47000000D03*
D29*
X81860000Y-24970000D03*
D30*
X81860000Y-24970000D02*
X81860000Y-24970000D01*
D29*
X81860000Y-26230000D03*
D30*
X81860000Y-26230000D02*
X81860000Y-26230000D01*
D29*
X81110000Y-27260000D03*
X81110000Y-23940000D03*
X73960000Y-24970000D03*
X73960000Y-26230000D03*
X74710000Y-27260000D03*
X74710000Y-23940000D03*
X78580000Y-27650000D03*
X77240000Y-27650000D03*
X79910000Y-27650000D03*
X75910000Y-27650000D03*
X78580000Y-23550000D03*
X77240000Y-23550000D03*
X75910000Y-23550000D03*
X79910000Y-23550000D03*
X84710000Y-27260000D03*
X84710000Y-23940000D03*
X83960000Y-26230000D03*
D30*
X83960000Y-26230000D02*
X83960000Y-26230000D01*
D29*
X83960000Y-24970000D03*
D30*
X83960000Y-24970000D02*
X83960000Y-24970000D01*
D29*
X91110000Y-27260000D03*
X91110000Y-23940000D03*
X91860000Y-24970000D03*
X89910000Y-27650000D03*
X88580000Y-27650000D03*
X87240000Y-27650000D03*
X85910000Y-27650000D03*
X89910000Y-23550000D03*
X88580000Y-23550000D03*
X87240000Y-23550000D03*
X85910000Y-23550000D03*
X91860000Y-26230000D03*
D31*
X49000000Y-73500000D03*
D32*
X51200000Y-72500000D03*
X51200000Y-73000000D03*
X51200000Y-73500000D03*
X51200000Y-74000000D03*
X46800000Y-74500000D03*
X46800000Y-74000000D03*
X46800000Y-73500000D03*
X46800000Y-73000000D03*
X51200000Y-74500000D03*
X46800000Y-72500000D03*
D33*
X111150000Y-54905000D03*
X111150000Y-53635000D03*
X111150000Y-52365000D03*
X111150000Y-51095000D03*
X116350000Y-51095000D03*
X116350000Y-52365000D03*
X116350000Y-53635000D03*
X116350000Y-54905000D03*
D34*
X88045000Y-50650000D03*
X89315000Y-50650000D03*
X90585000Y-50650000D03*
X91855000Y-50650000D03*
X91855000Y-55850000D03*
X90585000Y-55850000D03*
X89315000Y-55850000D03*
X88045000Y-55850000D03*
D29*
X112306810Y-62312500D03*
X112306810Y-64687500D03*
X110250000Y-65875000D03*
X108193190Y-64687500D03*
X108193190Y-62312500D03*
X110250000Y-61125000D03*
D35*
X110250000Y-63500000D03*
D29*
X51056810Y-44812500D03*
X51056810Y-47187500D03*
X49000000Y-48375000D03*
X46943190Y-47187500D03*
X46943190Y-44812500D03*
X49000000Y-43625000D03*
D35*
X49000000Y-46000000D03*
D36*
X23750000Y-51860000D03*
X23750000Y-53640000D03*
D11*
X51780000Y-81890000D03*
X50000000Y-81890000D03*
D36*
X46500000Y-81890000D03*
X46500000Y-80110000D03*
D11*
X34390000Y-80750000D03*
X32610000Y-80750000D03*
X92360000Y-47500000D03*
X94140000Y-47500000D03*
X93610000Y-60750000D03*
X95390000Y-60750000D03*
X89360000Y-58500000D03*
X91140000Y-58500000D03*
D36*
X85200000Y-54220000D03*
X85200000Y-56000000D03*
D11*
X90610000Y-44750000D03*
X92390000Y-44750000D03*
X88110000Y-47600000D03*
X89890000Y-47600000D03*
X63040000Y-59600000D03*
X61260000Y-59600000D03*
X63040000Y-56600000D03*
X61260000Y-56600000D03*
X71360000Y-42000000D03*
X73140000Y-42000000D03*
X71360000Y-44750000D03*
X73140000Y-44750000D03*
X79860000Y-53500000D03*
X81640000Y-53500000D03*
X79860000Y-57000000D03*
X81640000Y-57000000D03*
X106750000Y-68750000D03*
X108530000Y-68750000D03*
D36*
X35250000Y-30390000D03*
X35250000Y-28610000D03*
X35250000Y-24110000D03*
X35250000Y-25890000D03*
D11*
X33180000Y-43400000D03*
X31400000Y-43400000D03*
X28890000Y-43400000D03*
X27110000Y-43400000D03*
D36*
X56700000Y-49290000D03*
X56700000Y-47510000D03*
X41750000Y-76640000D03*
X41750000Y-74860000D03*
X54100000Y-49290000D03*
X54100000Y-47510000D03*
X59000000Y-72860000D03*
X59000000Y-74640000D03*
X61750000Y-74640000D03*
X61750000Y-72860000D03*
X61750000Y-70390000D03*
X61750000Y-68610000D03*
D11*
X53710000Y-44800000D03*
X55490000Y-44800000D03*
X48640000Y-76750000D03*
X46860000Y-76750000D03*
X55890000Y-77000000D03*
X54110000Y-77000000D03*
D36*
X47250000Y-34500000D03*
X47250000Y-32720000D03*
X50000000Y-36360000D03*
X50000000Y-38140000D03*
X39000000Y-76640000D03*
X39000000Y-74860000D03*
X36250000Y-76640000D03*
X36250000Y-74860000D03*
D11*
X106610000Y-54250000D03*
X108390000Y-54250000D03*
X106610000Y-57000000D03*
X108390000Y-57000000D03*
X63890000Y-36250000D03*
X62110000Y-36250000D03*
X66110000Y-44500000D03*
X67890000Y-44500000D03*
X63890000Y-38750000D03*
X62110000Y-38750000D03*
X62110000Y-33750000D03*
X63890000Y-33750000D03*
D36*
X63000000Y-43390000D03*
X63000000Y-41610000D03*
X95000000Y-44640000D03*
X95000000Y-42860000D03*
X95000000Y-39640000D03*
X95000000Y-37860000D03*
D37*
X72000000Y-37250000D03*
X72950000Y-39750000D03*
X71050000Y-39750000D03*
D38*
X33004170Y-39111270D03*
D39*
X40000000Y-36749980D03*
D38*
X33000000Y-34388720D03*
D37*
X46750000Y-37250000D03*
X47700000Y-39750000D03*
X45800000Y-39750000D03*
D40*
X56611290Y-32745830D03*
D41*
X54250000Y-25750000D03*
D40*
X51888740Y-32750000D03*
D24*
X67050000Y-26000000D03*
D25*
X64000000Y-26000000D03*
D24*
X60950000Y-26000000D03*
D37*
X67000000Y-37250000D03*
X67950000Y-39750000D03*
X66050000Y-39750000D03*
D42*
X55250000Y-57500000D03*
X43250000Y-57500000D03*
D43*
X28250000Y-76930000D03*
X28250000Y-73120000D03*
X28250000Y-69310000D03*
D44*
X28250000Y-65500000D03*
D45*
X73600000Y-68000000D03*
X73600000Y-78000000D03*
X88750000Y-68000000D03*
X88750000Y-78000000D03*
D46*
X113000000Y-28000000D03*
X103000000Y-28000000D03*
X112000000Y-77750000D03*
X102000000Y-77750000D03*
D14*
X58250000Y-35760000D03*
X58250000Y-38740000D03*
D36*
X23750000Y-58890000D03*
X23750000Y-57110000D03*
D47*
X94200000Y-55525000D03*
X94200000Y-58475000D03*
X94200000Y-53275000D03*
X94200000Y-50325000D03*
D11*
X67790000Y-59600000D03*
X66010000Y-59600000D03*
X67789999Y-56600000D03*
X66009999Y-56600000D03*
D48*
X34375000Y-46150000D03*
X31425000Y-46150000D03*
X29374999Y-46150000D03*
X26424999Y-46150000D03*
D47*
X59750000Y-44725000D03*
X59750000Y-41775000D03*
X57600000Y-41775000D03*
X57600000Y-44725000D03*
D49*
X56568500Y-68000000D03*
X49431500Y-68000000D03*
D13*
X54000000Y-36290000D03*
X54000000Y-40710000D03*
D36*
X32500000Y-68860000D03*
X32500000Y-70640000D03*
X32500000Y-65490000D03*
X32500000Y-63710000D03*
D11*
X110110000Y-49000000D03*
X111890000Y-49000000D03*
X86890000Y-58500000D03*
X85110000Y-58500000D03*
D36*
X85000000Y-52030000D03*
X85000000Y-50250000D03*
D14*
X48500000Y-28740000D03*
X48500000Y-25760000D03*
D11*
X111360000Y-57500000D03*
X113140000Y-57500000D03*
D50*
X103250000Y-42750000D03*
D51*
X103250000Y-37750000D03*
D11*
X90610000Y-42250000D03*
X92390000Y-42250000D03*
D36*
X32500000Y-74360000D03*
X32500000Y-76140000D03*
D52*
X37750000Y-65200000D03*
X37750000Y-59800000D03*
D36*
X44500000Y-71890000D03*
X44500000Y-70110000D03*
X44500000Y-76640000D03*
X44500000Y-74860000D03*
X56250000Y-72860000D03*
X56250000Y-74640000D03*
X53750000Y-72860000D03*
X53750000Y-74640000D03*
D11*
X78640000Y-47000000D03*
X76860000Y-47000000D03*
D14*
X37250000Y-44740000D03*
X37250000Y-41760000D03*
D53*
X38250000Y-69550000D03*
X38250000Y-72500000D03*
D14*
X41750000Y-69510000D03*
X41750000Y-72490000D03*
D36*
X43000000Y-81890000D03*
X43000000Y-80110000D03*
D11*
X66110000Y-42000000D03*
X67890000Y-42000000D03*
D29*
X115470000Y-31910000D03*
X112930000Y-31910000D03*
X110390000Y-31910000D03*
X105310000Y-31910000D03*
X102770000Y-31910000D03*
X100230000Y-31910000D03*
X100230000Y-29370000D03*
X102770000Y-29370000D03*
X105310000Y-29370000D03*
X112930000Y-29370000D03*
X110390000Y-29370000D03*
X115470000Y-29370000D03*
X115470000Y-26830000D03*
X112930000Y-26830000D03*
X110390000Y-26830000D03*
X105310000Y-26830000D03*
X102770000Y-26830000D03*
X100230000Y-26830000D03*
X100230000Y-24290000D03*
X102770000Y-24290000D03*
X105310000Y-24290000D03*
X110390000Y-24290000D03*
X112930000Y-24290000D03*
X115470000Y-24290000D03*
X49500000Y-72500000D03*
X49500000Y-73500000D03*
X49500000Y-74500000D03*
X48500000Y-74500000D03*
X48500000Y-73500000D03*
X48500000Y-72500000D03*
X105250000Y-50750000D03*
X116250000Y-50250000D03*
X111250000Y-46500000D03*
X112750000Y-46500000D03*
X114250000Y-46500000D03*
X116750000Y-46500000D03*
X118250000Y-46500000D03*
X118250000Y-45000000D03*
X118250000Y-43250000D03*
X109750000Y-45000000D03*
X109750000Y-43250000D03*
X109750000Y-41750000D03*
X109750000Y-40500000D03*
X118250000Y-40500000D03*
X118250000Y-41750000D03*
X109750000Y-46500000D03*
X111250000Y-45000000D03*
X116750000Y-45000000D03*
X115500000Y-46500000D03*
X111250000Y-43250000D03*
X111250000Y-41750000D03*
X112750000Y-41750000D03*
X114250000Y-41750000D03*
X115500000Y-41750000D03*
X116750000Y-41750000D03*
X116750000Y-40500000D03*
X115500000Y-40500000D03*
X114250000Y-40500000D03*
X112750000Y-40500000D03*
X111250000Y-40500000D03*
X116750000Y-43250000D03*
X96250000Y-44750000D03*
X93500000Y-42250000D03*
X93500000Y-44750000D03*
X105250000Y-65000000D03*
X114500000Y-57500000D03*
X92500000Y-58250000D03*
X85000000Y-60250000D03*
X83500000Y-50250000D03*
X78676702Y-53000000D03*
X76750000Y-48250000D03*
X69000000Y-44500000D03*
X69000000Y-41750000D03*
X68000000Y-38000000D03*
X59250000Y-40500000D03*
X48750000Y-39750000D03*
X33250000Y-41500000D03*
X25000000Y-51750000D03*
X58000000Y-49250000D03*
X92750000Y-55750000D03*
X36500000Y-81250000D03*
X44500000Y-82000000D03*
X53000000Y-82000000D03*
X113000000Y-49000000D03*
X32500000Y-62500000D03*
X32500000Y-71750000D03*
X32500000Y-73250000D03*
X61250000Y-61000000D03*
X61250000Y-57999998D03*
X48500000Y-75500000D03*
X49500000Y-75500000D03*
X67750000Y-63250000D03*
X70290000Y-63250000D03*
X72830000Y-63250000D03*
X75370000Y-63250000D03*
X77910000Y-63250000D03*
X80450000Y-63250000D03*
X82990000Y-63250000D03*
X85530000Y-63250000D03*
X88070000Y-63250000D03*
X90610000Y-63250000D03*
X93150000Y-63250000D03*
X95690000Y-63250000D03*
X67750000Y-65790000D03*
X70290000Y-65790000D03*
X72830000Y-65790000D03*
X75370000Y-65790000D03*
X77910000Y-65790000D03*
X80450000Y-65790000D03*
X82990000Y-65790000D03*
X85530000Y-65790000D03*
X88070000Y-65790000D03*
X90610000Y-65790000D03*
X93150000Y-65790000D03*
X95690000Y-65790000D03*
X67750000Y-68330000D03*
X70290000Y-68330000D03*
X72830000Y-68330000D03*
X75370000Y-68330000D03*
X77910000Y-68330000D03*
X80450000Y-68330000D03*
X82990000Y-68330000D03*
X85530000Y-68330000D03*
X88070000Y-68330000D03*
X90610000Y-68330000D03*
X93150000Y-68330000D03*
X95690000Y-68330000D03*
X67750000Y-70870000D03*
X70290000Y-70870000D03*
X72830000Y-70870000D03*
X75370000Y-70870000D03*
X77910000Y-70870000D03*
X80450000Y-70870000D03*
X82990000Y-70870000D03*
X85530000Y-70870000D03*
X88070000Y-70870000D03*
X90610000Y-70870000D03*
X93150000Y-70870000D03*
X95690000Y-70870000D03*
X67750000Y-73410000D03*
X70290000Y-73410000D03*
X72830000Y-73410000D03*
X75370000Y-73410000D03*
X77910000Y-73410000D03*
X80450000Y-73410000D03*
X82990000Y-73410000D03*
X85530000Y-73410000D03*
X88070000Y-73410000D03*
X90610000Y-73410000D03*
X93150000Y-73410000D03*
X95690000Y-73410000D03*
X67750000Y-75950000D03*
X70290000Y-75950000D03*
X72830000Y-75950000D03*
X75370000Y-75950000D03*
X77910000Y-75950000D03*
X80450000Y-75950000D03*
X82990000Y-75950000D03*
X85530000Y-75950000D03*
X88070000Y-75950000D03*
X90610000Y-75950000D03*
X93150000Y-75950000D03*
X95690000Y-75950000D03*
X67750000Y-78490000D03*
X70290000Y-78490000D03*
X72830000Y-78490000D03*
X75370000Y-78490000D03*
X77910000Y-78490000D03*
X80450000Y-78490000D03*
X82990000Y-78490000D03*
X85530000Y-78490000D03*
X88070000Y-78490000D03*
X90610000Y-78490000D03*
X93150000Y-78490000D03*
X95690000Y-78490000D03*
X67750000Y-81030000D03*
X70290000Y-81030000D03*
X72830000Y-81030000D03*
X75370000Y-81030000D03*
X77910000Y-81030000D03*
X80450000Y-81030000D03*
X82990000Y-81030000D03*
X85530000Y-81030000D03*
X88070000Y-81030000D03*
X90610000Y-81030000D03*
X93150000Y-81030000D03*
X95690000Y-81030000D03*
X67750000Y-83570000D03*
X70290000Y-83570000D03*
X72830000Y-83570000D03*
X75370000Y-83570000D03*
X77910000Y-83570000D03*
X80450000Y-83570000D03*
X82990000Y-83570000D03*
X85530000Y-83570000D03*
X88070000Y-83570000D03*
X90610000Y-83570000D03*
X93150000Y-83570000D03*
X95690000Y-83570000D03*
X97000000Y-72000000D03*
X99540000Y-72000000D03*
X102080000Y-72000000D03*
X104620000Y-72000000D03*
X107160000Y-72000000D03*
X109700000Y-72000000D03*
X112240000Y-72000000D03*
X114780000Y-72000000D03*
X117320000Y-72000000D03*
X97000000Y-74540000D03*
X99540000Y-74540000D03*
X102080000Y-74540000D03*
X104620000Y-74540000D03*
X107160000Y-74540000D03*
X109700000Y-74540000D03*
X112240000Y-74540000D03*
X114780000Y-74540000D03*
X117320000Y-74540000D03*
X97000000Y-77080000D03*
X99540000Y-77080000D03*
X102080000Y-77080000D03*
X104620000Y-77080000D03*
X107160000Y-77080000D03*
X109700000Y-77080000D03*
X112240000Y-77080000D03*
X114780000Y-77080000D03*
X117320000Y-77080000D03*
X97000000Y-79620000D03*
X99540000Y-79620000D03*
X102080000Y-79620000D03*
X104620000Y-79620000D03*
X107160000Y-79620000D03*
X109700000Y-79620000D03*
X112240000Y-79620000D03*
X114780000Y-79620000D03*
X117320000Y-79620000D03*
X97000000Y-82160000D03*
X99540000Y-82160000D03*
X102080000Y-82160000D03*
X104620000Y-82160000D03*
X107160000Y-82160000D03*
X109700000Y-82160000D03*
X112240000Y-82160000D03*
X114780000Y-82160000D03*
X117320000Y-82160000D03*
X37250000Y-46250000D03*
X48500000Y-29750000D03*
X33500000Y-24000002D03*
X32500000Y-24000000D03*
X31500000Y-24000000D03*
X30500000Y-24000000D03*
X53000000Y-42000000D03*
X54000000Y-42000000D03*
X55000000Y-42000000D03*
X56000000Y-41750000D03*
X52250000Y-41500000D03*
X87749990Y-60500000D03*
X74000000Y-39500008D03*
X83000004Y-59499996D03*
X111000000Y-59000008D03*
X46250000Y-70500000D03*
X51250000Y-70999994D03*
X60000000Y-54749994D03*
X40750000Y-55249998D03*
X33750000Y-76250018D03*
X31500000Y-80750000D03*
X84990000Y-21750000D03*
X87530000Y-21750000D03*
X90070000Y-21750000D03*
X90070000Y-21750000D03*
X92610000Y-21750000D03*
X95150000Y-21750000D03*
X97690000Y-21750000D03*
X100230000Y-21750000D03*
X102770000Y-21750000D03*
X105310000Y-21750000D03*
X107850000Y-21750000D03*
X110390000Y-21750000D03*
X112930000Y-21750000D03*
X115470000Y-21750000D03*
X118010000Y-21750000D03*
X118010000Y-24290000D03*
X107850000Y-24290000D03*
X97690000Y-24290000D03*
X95150000Y-24290000D03*
X92610000Y-24290000D03*
X92610000Y-26830000D03*
X95150000Y-26830000D03*
X97690000Y-26830000D03*
X107850000Y-26830000D03*
X118010000Y-26830000D03*
X118010000Y-29370000D03*
X107850000Y-29370000D03*
X97690000Y-29370000D03*
X95150000Y-29370000D03*
X92610000Y-29370000D03*
X90070000Y-29370000D03*
X87530000Y-29370000D03*
X84990000Y-29370000D03*
X84990000Y-31910000D03*
X87530000Y-31910000D03*
X90070000Y-31910000D03*
X92610000Y-31910000D03*
X95150000Y-31910000D03*
X97690000Y-31910000D03*
X107850000Y-31910000D03*
X118010000Y-31910000D03*
X118010000Y-34450000D03*
X110390000Y-34450000D03*
X112930000Y-34450000D03*
X115470000Y-34450000D03*
X107850000Y-34450000D03*
X105310000Y-34450000D03*
X102770000Y-34450000D03*
X100230000Y-34450000D03*
X97690000Y-34450000D03*
X95150000Y-34450000D03*
X90070000Y-34450000D03*
X92610000Y-34450000D03*
X87530000Y-34450000D03*
X84990000Y-34450000D03*
X100230000Y-36990000D03*
X105310000Y-36990000D03*
X107850000Y-36990000D03*
X110390000Y-36990000D03*
X118010000Y-36990000D03*
X64500000Y-40500000D03*
X69100000Y-40300000D03*
X98250000Y-52750000D03*
X69750000Y-46250000D03*
X81067240Y-51048269D03*
X75883716Y-49881701D03*
X109750000Y-57499996D03*
X107000000Y-58392790D03*
X108750000Y-55750000D03*
X114250000Y-55750000D03*
X105000000Y-60750000D03*
X107250000Y-60250000D03*
X88750000Y-45500000D03*
X91259805Y-46084165D03*
X35000000Y-63000000D03*
X35000000Y-54750000D03*
X34000000Y-54750000D03*
X33000000Y-54750000D03*
X35000000Y-62000000D03*
X35000000Y-64000000D03*
X45400000Y-41700000D03*
X49764658Y-41666938D03*
X26750000Y-35500000D03*
X27110004Y-41360004D03*
X31500000Y-41500000D03*
X31250000Y-34500000D03*
X82750000Y-49000000D03*
X89250000Y-49000000D03*
X74750000Y-44000000D03*
X77500000Y-49250006D03*
X81346883Y-54923434D03*
X69200002Y-56600000D03*
X81500000Y-58250000D03*
X72379000Y-46500000D03*
X80750000Y-52000000D03*
X83250000Y-52250000D03*
X74948396Y-48981069D03*
X69600000Y-59800000D03*
X88340492Y-56535589D03*
X69750000Y-21750000D03*
X69750000Y-24290000D03*
X69750000Y-26830000D03*
X69750000Y-29370000D03*
X69750000Y-31910000D03*
X69750000Y-34450000D03*
X72290000Y-34450000D03*
X72290000Y-31910000D03*
X72290000Y-29370000D03*
X72290000Y-26830000D03*
X72290000Y-24290000D03*
X72290000Y-21750000D03*
X74830000Y-21750000D03*
X74830000Y-29370000D03*
X74830000Y-31910000D03*
X74830000Y-34450000D03*
X77370000Y-34450000D03*
X77370000Y-31910000D03*
X77370000Y-29370000D03*
X79910000Y-29370000D03*
X79910000Y-31910000D03*
X79910000Y-34450000D03*
X77370000Y-21750000D03*
X79910000Y-21750000D03*
X67210000Y-34450000D03*
X67210000Y-31910000D03*
D54*
X65319000Y-39250000D02*
X63750000Y-39250000D01*
X66050000Y-39250000D02*
X65319000Y-39250000D01*
X66050000Y-41700000D02*
X66000000Y-41750000D01*
X66050000Y-39250000D02*
X66050000Y-41700000D01*
X66110000Y-41750000D02*
X66110000Y-44250000D01*
X63000000Y-40649000D02*
X63800000Y-39849000D01*
X63000000Y-41610000D02*
X63000000Y-40649000D01*
X63800000Y-39849000D02*
X63800000Y-38800000D01*
X101925000Y-50800000D02*
X105200000Y-50800000D01*
X105200000Y-50800000D02*
X105250000Y-50750000D01*
X116350000Y-51095000D02*
X116350000Y-50350000D01*
X116350000Y-50350000D02*
X116250000Y-50250000D01*
D10*
X95000000Y-44640000D02*
X96140000Y-44640000D01*
X96140000Y-44640000D02*
X96250000Y-44750000D01*
X92390000Y-42250000D02*
X93500000Y-42250000D01*
X92390000Y-44750000D02*
X93500000Y-44750000D01*
X101875000Y-65000000D02*
X105250000Y-65000000D01*
X113140000Y-57500000D02*
X114500000Y-57500000D01*
X91140000Y-58500000D02*
X91250000Y-58500000D01*
X91250000Y-58500000D02*
X91500000Y-58250000D01*
X91500000Y-58250000D02*
X92500000Y-58250000D01*
X85000000Y-49416000D02*
X82750000Y-47166000D01*
X85000000Y-50250000D02*
X85000000Y-49416000D01*
X85110000Y-58500000D02*
X85110000Y-60140000D01*
X85110000Y-60140000D02*
X85000000Y-60250000D01*
X85000000Y-50250000D02*
X83500000Y-50250000D01*
D54*
X83500000Y-50250000D02*
X84750000Y-50250000D01*
X92500000Y-58250000D02*
X91250000Y-58250000D01*
X85000000Y-60250000D02*
X85000000Y-59684315D01*
X85000000Y-59684315D02*
X85000000Y-58750000D01*
X75125000Y-53000000D02*
X78676702Y-53000000D01*
X76860000Y-47000000D02*
X76860000Y-48140000D01*
X76860000Y-48140000D02*
X76750000Y-48250000D01*
X67890000Y-44500000D02*
X69000000Y-44500000D01*
X67890000Y-41750000D02*
X69000000Y-41750000D01*
D10*
X67950000Y-39250000D02*
X67950000Y-38050000D01*
X67950000Y-38050000D02*
X68000000Y-38000000D01*
X59750000Y-41775000D02*
X59525000Y-41775000D01*
X59525000Y-41775000D02*
X59250000Y-41500000D01*
X59250000Y-41500000D02*
X59250000Y-40500000D01*
X47700000Y-39750000D02*
X48750000Y-39750000D01*
X33180000Y-43400000D02*
X33180000Y-41570000D01*
X33180000Y-41570000D02*
X33250000Y-41500000D01*
X23750000Y-51860000D02*
X24890000Y-51860000D01*
X24890000Y-51860000D02*
X25000000Y-51750000D01*
X57960000Y-49290000D02*
X58000000Y-49250000D01*
X56700000Y-49290000D02*
X57960000Y-49290000D01*
X91855000Y-55850000D02*
X92650000Y-55850000D01*
X92650000Y-55850000D02*
X92750000Y-55750000D01*
X43000000Y-81890000D02*
X44390000Y-81890000D01*
X44390000Y-81890000D02*
X44500000Y-82000000D01*
X51780000Y-81890000D02*
X52890000Y-81890000D01*
X52890000Y-81890000D02*
X53000000Y-82000000D01*
X116250000Y-50250000D02*
X116250000Y-49050000D01*
D54*
X116250000Y-49684315D02*
X116200000Y-49634315D01*
X116250000Y-50250000D02*
X116250000Y-49684315D01*
X111890000Y-49000000D02*
X113000000Y-49000000D01*
D10*
X51200000Y-73000000D02*
X53500000Y-73000000D01*
X51200000Y-73000000D02*
X59000000Y-73000000D01*
D54*
X32400000Y-63710000D02*
X32400000Y-62600000D01*
X32400000Y-62600000D02*
X32500000Y-62500000D01*
X41750000Y-76640000D02*
X41750000Y-77601000D01*
X44500000Y-76640000D02*
X44500000Y-77750000D01*
D55*
X44500000Y-76640000D02*
X44500000Y-78000000D01*
X41750000Y-76640000D02*
X41750000Y-78250000D01*
X44500000Y-76640000D02*
X44500000Y-78250000D01*
X32500000Y-70640000D02*
X32500000Y-71750000D01*
X32500000Y-74360000D02*
X32500000Y-73250000D01*
X37750000Y-81250000D02*
X36500000Y-81250000D01*
X53750000Y-72860000D02*
X59000000Y-72860000D01*
D10*
X61260000Y-59600000D02*
X61260000Y-60990000D01*
X61260000Y-60990000D02*
X61250000Y-61000000D01*
X61260000Y-57989998D02*
X61250000Y-57999998D01*
X61260000Y-56600000D02*
X61260000Y-57989998D01*
X51200000Y-73000000D02*
X49750000Y-73000000D01*
X37250000Y-44740000D02*
X37250000Y-46250000D01*
X48500000Y-28740000D02*
X48500000Y-29750000D01*
D55*
X48500000Y-29750000D02*
X48500000Y-28750000D01*
X33609998Y-24110000D02*
X33500000Y-24000002D01*
X35250000Y-24110000D02*
X33609998Y-24110000D01*
X37750000Y-67458000D02*
X38000000Y-67708000D01*
X37750000Y-65200000D02*
X37750000Y-67458000D01*
D10*
X105649999Y-51149999D02*
X106100001Y-51149999D01*
X105250000Y-50750000D02*
X105649999Y-51149999D01*
X106100001Y-51149999D02*
X106200002Y-51250000D01*
X106200002Y-51250000D02*
X106250000Y-51250000D01*
X88149989Y-60899999D02*
X87749990Y-60500000D01*
X88385001Y-61135011D02*
X88149989Y-60899999D01*
X89360000Y-61135011D02*
X88385001Y-61135011D01*
D54*
X72950000Y-39250000D02*
X73200008Y-39500008D01*
X73434315Y-39500008D02*
X74000000Y-39500008D01*
X73200008Y-39500008D02*
X73434315Y-39500008D01*
X78640000Y-47000000D02*
X81000000Y-47000000D01*
D56*
X81000000Y-47000000D02*
X79488000Y-47000000D01*
X79488000Y-47000000D02*
X78500000Y-47000000D01*
X40250000Y-80250000D02*
X46000000Y-80250000D01*
X46000000Y-80250000D02*
X46250000Y-80000000D01*
D55*
X85200000Y-54220000D02*
X85200000Y-51800000D01*
X85200000Y-51800000D02*
X87450000Y-51800000D01*
X87450000Y-51800000D02*
X88000000Y-51250000D01*
X88045000Y-50650000D02*
X88045000Y-47795000D01*
X88045000Y-47795000D02*
X88000000Y-47750000D01*
X85750000Y-45250000D02*
X88000000Y-47500000D01*
X79147000Y-45250000D02*
X85750000Y-45250000D01*
X78640000Y-45757000D02*
X79147000Y-45250000D01*
X78640000Y-47000000D02*
X78640000Y-45757000D01*
X111360000Y-57500000D02*
X111360000Y-55000000D01*
X111360000Y-55000000D02*
X111250000Y-55000000D01*
X66500000Y-61500000D02*
X81000000Y-61500000D01*
X64500000Y-78250000D02*
X64500000Y-63500000D01*
X81000000Y-61500000D02*
X82600005Y-59899995D01*
X82600005Y-59899995D02*
X83000004Y-59499996D01*
X62640000Y-80110000D02*
X64500000Y-78250000D01*
X64500000Y-63500000D02*
X66500000Y-61500000D01*
X46500000Y-80110000D02*
X62640000Y-80110000D01*
X83000004Y-55176996D02*
X83000004Y-58934311D01*
X83000004Y-58934311D02*
X83000004Y-59499996D01*
X85200000Y-54220000D02*
X83957000Y-54220000D01*
X83957000Y-54220000D02*
X83000004Y-55176996D01*
X111000000Y-57750000D02*
X111000000Y-59000008D01*
X40250000Y-80300000D02*
X34300000Y-80300000D01*
X34300000Y-80300000D02*
X34250000Y-80250000D01*
X53750000Y-74640000D02*
X53750000Y-75728000D01*
X53750000Y-75728000D02*
X53750000Y-76750000D01*
D10*
X51200000Y-73500000D02*
X52500000Y-73500000D01*
X52500000Y-73500000D02*
X53250000Y-74250000D01*
D55*
X56250000Y-74640000D02*
X56250000Y-76750000D01*
D10*
X45896601Y-74000000D02*
X45146601Y-74750000D01*
X45146601Y-74750000D02*
X44750000Y-74750000D01*
X46800000Y-74000000D02*
X45896601Y-74000000D01*
X46800000Y-72500000D02*
X46250000Y-72500000D01*
X46250000Y-72500000D02*
X46000000Y-72250000D01*
X46000000Y-72250000D02*
X44750000Y-72250000D01*
X44500000Y-70110000D02*
X44610000Y-70110000D01*
X44610000Y-70110000D02*
X45000000Y-70500000D01*
X45000000Y-70500000D02*
X46250000Y-70500000D01*
X51250000Y-70999994D02*
X51250000Y-72500000D01*
X51250000Y-70999994D02*
X52250006Y-70999994D01*
X52250006Y-70999994D02*
X53500000Y-69750000D01*
D54*
X23720000Y-59000000D02*
X29250000Y-59000000D01*
X28250000Y-65500000D02*
X32250000Y-65500000D01*
X28250000Y-69310000D02*
X32310000Y-69310000D01*
D10*
X60000000Y-66026000D02*
X60000000Y-55315679D01*
X61750000Y-68610000D02*
X61750000Y-67776000D01*
X60000000Y-55315679D02*
X60000000Y-54749994D01*
X61750000Y-67776000D02*
X60000000Y-66026000D01*
X41750006Y-55249994D02*
X41750002Y-55249998D01*
X41315685Y-55249998D02*
X40750000Y-55249998D01*
X41750002Y-55249998D02*
X41315685Y-55249998D01*
D55*
X40750000Y-55249998D02*
X41499998Y-55249998D01*
X32500000Y-76140000D02*
X33743000Y-76140000D01*
X33750000Y-76147000D02*
X33750000Y-76250018D01*
X33743000Y-76140000D02*
X33750000Y-76147000D01*
X32750000Y-80750000D02*
X31500000Y-80750000D01*
X33750000Y-76250018D02*
X32750018Y-76250018D01*
D10*
X33750000Y-69660598D02*
X33089402Y-69000000D01*
X33750000Y-76250018D02*
X33750000Y-69660598D01*
D54*
X55490000Y-43684000D02*
X56874000Y-42300000D01*
X55490000Y-44800000D02*
X55490000Y-43684000D01*
X56874000Y-42300000D02*
X57400000Y-42300000D01*
D10*
X54555000Y-49000000D02*
X53400000Y-49000000D01*
D57*
X54255000Y-49290000D02*
X55545000Y-48000000D01*
X54100000Y-49290000D02*
X54255000Y-49290000D01*
X55545000Y-48000000D02*
X56500000Y-48000000D01*
X55490000Y-44800000D02*
X55550000Y-44800000D01*
X55550000Y-44800000D02*
X56000000Y-45250000D01*
X55490000Y-44800000D02*
X55800000Y-44800000D01*
X56000000Y-46500000D02*
X56000000Y-47000000D01*
X56000000Y-45250000D02*
X56000000Y-46500000D01*
X56000000Y-46500000D02*
X56000000Y-47500000D01*
X56000000Y-47000000D02*
X56250000Y-47250000D01*
D54*
X57600000Y-44725000D02*
X59725000Y-44725000D01*
X59725000Y-44725000D02*
X59800000Y-44800000D01*
D56*
X64750000Y-48750000D02*
X65500000Y-48000000D01*
X64750000Y-49625000D02*
X64750000Y-48750000D01*
X65500000Y-48000000D02*
X64750000Y-48000000D01*
X65500000Y-48000000D02*
X65000000Y-47500000D01*
X65539001Y-48039001D02*
X72960999Y-48039001D01*
X65500000Y-48000000D02*
X65539001Y-48039001D01*
X72960999Y-48039001D02*
X84000000Y-37000000D01*
X84000000Y-37000000D02*
X84000000Y-34500000D01*
D55*
X84000000Y-37000000D02*
X94250000Y-37000000D01*
X94250000Y-37000000D02*
X95000000Y-37750000D01*
D54*
X62750000Y-43390000D02*
X62905000Y-43390000D01*
X64500000Y-42045000D02*
X64500000Y-40500000D01*
X63000000Y-43390000D02*
X63155000Y-43390000D01*
X63155000Y-43390000D02*
X64500000Y-42045000D01*
D10*
X101925000Y-52800000D02*
X98300000Y-52800000D01*
X98300000Y-52800000D02*
X98250000Y-52750000D01*
X65750000Y-46250000D02*
X69184315Y-46250000D01*
X69184315Y-46250000D02*
X69750000Y-46250000D01*
X63000000Y-43500000D02*
X65750000Y-46250000D01*
X76283715Y-50281700D02*
X75883716Y-49881701D01*
X77050284Y-51048269D02*
X76283715Y-50281700D01*
X81067240Y-51048269D02*
X77050284Y-51048269D01*
X69100000Y-39734315D02*
X69100000Y-40300000D01*
X69100000Y-39546000D02*
X69100000Y-39734315D01*
X71396000Y-37250000D02*
X69100000Y-39546000D01*
X72000000Y-37250000D02*
X71396000Y-37250000D01*
X108390000Y-54250000D02*
X108390000Y-54110000D01*
X108390000Y-54110000D02*
X108750000Y-53750000D01*
X108390000Y-54250000D02*
X108390000Y-53860000D01*
X109365000Y-53635000D02*
X108615000Y-53635000D01*
X109365000Y-53635000D02*
X108250000Y-53635000D01*
X108615000Y-53635000D02*
X108250000Y-54000000D01*
X106600001Y-58792789D02*
X107000000Y-58392790D01*
X106122999Y-59269791D02*
X106600001Y-58792789D01*
X109750000Y-55250000D02*
X109750000Y-56934311D01*
X108750000Y-54250000D02*
X109750000Y-55250000D01*
X109750000Y-56934311D02*
X109750000Y-57499996D01*
X106122999Y-66187999D02*
X106122999Y-64372999D01*
X108530000Y-68595000D02*
X106122999Y-66187999D01*
X108530000Y-68750000D02*
X108530000Y-68595000D01*
X106122999Y-64372999D02*
X106122999Y-59269791D01*
X94140000Y-47500000D02*
X96353408Y-47500000D01*
X96353408Y-47500000D02*
X97560618Y-46292789D01*
X97560618Y-46292789D02*
X105042789Y-46292789D01*
X109615000Y-50865000D02*
X108875000Y-50125000D01*
X105042789Y-46292789D02*
X108875000Y-50125000D01*
X111150000Y-53635000D02*
X109615000Y-53635000D01*
X109615000Y-53635000D02*
X109365000Y-53635000D01*
X109635000Y-52365000D02*
X109615000Y-52385000D01*
X111150000Y-52365000D02*
X109635000Y-52365000D01*
X109615000Y-53635000D02*
X109615000Y-52385000D01*
X109615000Y-52385000D02*
X109615000Y-50865000D01*
X108390000Y-57000000D02*
X108390000Y-56110000D01*
X108390000Y-56110000D02*
X108750000Y-55750000D01*
X114250000Y-55750000D02*
X115750000Y-55750000D01*
X115750000Y-55750000D02*
X116000000Y-55500000D01*
X116000000Y-55500000D02*
X116000000Y-55000000D01*
X95390000Y-60750000D02*
X105000000Y-60750000D01*
X114750000Y-53750000D02*
X114250000Y-54250000D01*
X114250000Y-55750000D02*
X114250000Y-54250000D01*
X114750000Y-53750000D02*
X116000000Y-53750000D01*
X108500000Y-59000000D02*
X107649999Y-59850001D01*
X107649999Y-59850001D02*
X107250000Y-60250000D01*
X108500000Y-57250000D02*
X108500000Y-59000000D01*
D54*
X67000000Y-36750000D02*
X64000000Y-36750000D01*
X64000000Y-36750000D02*
X64000000Y-36500000D01*
X62110000Y-33750000D02*
X62110000Y-38860000D01*
X62110000Y-33595000D02*
X61000000Y-32485000D01*
X62110000Y-33750000D02*
X62110000Y-33595000D01*
X61000000Y-32485000D02*
X61000000Y-26250000D01*
D10*
X36928002Y-76640000D02*
X37000000Y-76568002D01*
X36250000Y-76640000D02*
X36928002Y-76640000D01*
X37000000Y-76568002D02*
X37181998Y-76568002D01*
X37181998Y-76568002D02*
X38500000Y-75250000D01*
X44500000Y-73500000D02*
X47000000Y-73500000D01*
X44383991Y-73616009D02*
X44500000Y-73500000D01*
X40398991Y-73616009D02*
X44383991Y-73616009D01*
X39155000Y-74860000D02*
X40398991Y-73616009D01*
X39000000Y-74860000D02*
X39155000Y-74860000D01*
D54*
X39000000Y-76640000D02*
X39000000Y-76750000D01*
D10*
X46800000Y-74500000D02*
X46800000Y-76700000D01*
X46800000Y-76700000D02*
X46750000Y-76750000D01*
D54*
X61750000Y-72860000D02*
X61750000Y-70500000D01*
D55*
X59000000Y-74640000D02*
X61750000Y-74640000D01*
D10*
X52684799Y-74505799D02*
X52684799Y-77684799D01*
X51200000Y-74000000D02*
X52179000Y-74000000D01*
X52179000Y-74000000D02*
X52684799Y-74505799D01*
X52684799Y-77684799D02*
X53500000Y-78500000D01*
X56299362Y-78500000D02*
X58500000Y-76299362D01*
X53500000Y-78500000D02*
X56299362Y-78500000D01*
X58500000Y-76299362D02*
X58500000Y-74500000D01*
D54*
X88750000Y-45500000D02*
X88750000Y-44000000D01*
X88750000Y-44000000D02*
X90500000Y-42250000D01*
X110110000Y-50116000D02*
X110400000Y-50406000D01*
X110110000Y-49000000D02*
X110110000Y-50116000D01*
X110400000Y-50406000D02*
X110400000Y-51000000D01*
D10*
X97122649Y-46084165D02*
X91825490Y-46084165D01*
X91825490Y-46084165D02*
X91259805Y-46084165D01*
X97371236Y-45835578D02*
X97122649Y-46084165D01*
X106111578Y-45835578D02*
X97371236Y-45835578D01*
X109276000Y-49000000D02*
X106111578Y-45835578D01*
X110110000Y-49000000D02*
X109276000Y-49000000D01*
D55*
X41750000Y-72490000D02*
X38290000Y-72490000D01*
D56*
X38250000Y-72500000D02*
X41700000Y-72500000D01*
X41700000Y-72500000D02*
X41800000Y-72600000D01*
D54*
X36250000Y-73899000D02*
X37000000Y-73149000D01*
X36250000Y-74860000D02*
X36250000Y-73899000D01*
X37000000Y-73149000D02*
X37000000Y-72750000D01*
D58*
X23000000Y-33345000D02*
X23000000Y-45678803D01*
X25760000Y-30250000D02*
X25760000Y-30585000D01*
X25760000Y-30585000D02*
X23000000Y-33345000D01*
D56*
X35000000Y-70030000D02*
X35000000Y-63000000D01*
D58*
X32071197Y-54750000D02*
X33000000Y-54750000D01*
X23000000Y-45678803D02*
X32071197Y-54750000D01*
X34000000Y-54750000D02*
X35000000Y-54750000D01*
X33000000Y-54750000D02*
X34000000Y-54750000D01*
X37470000Y-72500000D02*
X35000000Y-70030000D01*
X38250000Y-72500000D02*
X37470000Y-72500000D01*
X35000000Y-70030000D02*
X35000000Y-64000000D01*
X35000000Y-64000000D02*
X35000000Y-62000000D01*
D55*
X45340000Y-41760000D02*
X45400000Y-41700000D01*
X43640000Y-41760000D02*
X45340000Y-41760000D01*
X37250000Y-41760000D02*
X43640000Y-41760000D01*
X43640000Y-41760000D02*
X44040000Y-41760000D01*
X45400000Y-41700000D02*
X45400000Y-40100000D01*
X45400000Y-40100000D02*
X45700000Y-39800000D01*
X50732623Y-41666938D02*
X50330343Y-41666938D01*
X50330343Y-41666938D02*
X49764658Y-41666938D01*
X53700000Y-44634315D02*
X50732623Y-41666938D01*
X53700000Y-44800000D02*
X53700000Y-44634315D01*
D56*
X54000000Y-36290000D02*
X54000000Y-34448500D01*
X54000000Y-33995120D02*
X54000000Y-34448500D01*
X55249290Y-32745830D02*
X54000000Y-33995120D01*
X56611290Y-32745830D02*
X55249290Y-32745830D01*
D54*
X51116000Y-38140000D02*
X51750000Y-37506000D01*
X50000000Y-38140000D02*
X51116000Y-38140000D01*
X51750000Y-37506000D02*
X51750000Y-36000000D01*
X51750000Y-36000000D02*
X52000000Y-35750000D01*
X52000000Y-35750000D02*
X52750000Y-35750000D01*
X46988559Y-41809499D02*
X47959161Y-41809499D01*
X45048058Y-43750000D02*
X46988559Y-41809499D01*
X42500000Y-43750000D02*
X45048058Y-43750000D01*
X50000000Y-39768660D02*
X48634330Y-41134330D01*
X50000000Y-38140000D02*
X50000000Y-39768660D01*
X47959161Y-41809499D02*
X48634330Y-41134330D01*
D57*
X44114301Y-50114301D02*
X50885699Y-50114301D01*
X41000000Y-47000000D02*
X44114301Y-50114301D01*
X41000000Y-44221400D02*
X41000000Y-47000000D01*
X41471400Y-43750000D02*
X41000000Y-44221400D01*
X42500000Y-43750000D02*
X41471400Y-43750000D01*
X50885699Y-50114301D02*
X51385699Y-50114301D01*
X51385699Y-50114301D02*
X53750000Y-47750000D01*
D58*
X54250000Y-25750000D02*
X45000000Y-25750000D01*
X45050000Y-32016000D02*
X42816000Y-34250000D01*
X45050000Y-26000000D02*
X45050000Y-32016000D01*
X42816000Y-34250000D02*
X41750000Y-34250000D01*
X29092000Y-34390000D02*
X31202000Y-36500000D01*
X28800000Y-34390000D02*
X29092000Y-34390000D01*
X31202000Y-36500000D02*
X39750000Y-36500000D01*
D54*
X27149999Y-35100001D02*
X28100001Y-35100001D01*
X26750000Y-35500000D02*
X27149999Y-35100001D01*
X28100001Y-35100001D02*
X28250000Y-35250000D01*
X27110000Y-43400000D02*
X27110000Y-41360008D01*
X27110000Y-41360008D02*
X27110004Y-41360004D01*
D10*
X89315000Y-55850000D02*
X89315000Y-58500000D01*
X86189000Y-56000000D02*
X87000000Y-56811000D01*
X85200000Y-56000000D02*
X86189000Y-56000000D01*
X87000000Y-56811000D02*
X87000000Y-58250000D01*
X86890000Y-58345000D02*
X87724000Y-57511000D01*
X87724000Y-57511000D02*
X88511000Y-57511000D01*
X88511000Y-57511000D02*
X89500000Y-58500000D01*
X86890000Y-58500000D02*
X86890000Y-58345000D01*
X95000000Y-42860000D02*
X95000000Y-42026000D01*
X95000000Y-42026000D02*
X95000000Y-39500000D01*
X95500000Y-43000000D02*
X95250000Y-42750000D01*
X96000000Y-43000000D02*
X95500000Y-43000000D01*
X98000000Y-45000000D02*
X96000000Y-43000000D01*
X107000000Y-45000000D02*
X98000000Y-45000000D01*
X115800000Y-52365000D02*
X114200000Y-50765000D01*
X114200000Y-50765000D02*
X114200000Y-48800000D01*
X95250000Y-42750000D02*
X95000000Y-42750000D01*
X116350000Y-52365000D02*
X115800000Y-52365000D01*
X114200000Y-48800000D02*
X112900000Y-47500000D01*
X112900000Y-47500000D02*
X109500000Y-47500000D01*
X109500000Y-47500000D02*
X107000000Y-45000000D01*
D55*
X95000000Y-39640000D02*
X95000000Y-42750000D01*
D54*
X29374999Y-46150000D02*
X31400000Y-46150000D01*
X28890000Y-43400000D02*
X31250000Y-43400000D01*
X31250000Y-43400000D02*
X31250000Y-43500000D01*
X26424999Y-46150000D02*
X26549999Y-46150000D01*
X26549999Y-46150000D02*
X28974999Y-43725000D01*
X31400000Y-43400000D02*
X31400000Y-41600000D01*
X31400000Y-41600000D02*
X31500000Y-41500000D01*
X31250000Y-34500000D02*
X32250000Y-34500000D01*
D10*
X94200000Y-53275000D02*
X91275000Y-53275000D01*
X91275000Y-53275000D02*
X89250000Y-51250000D01*
X81640000Y-52511000D02*
X82750000Y-51401000D01*
X81640000Y-53500000D02*
X81640000Y-52511000D01*
X82750000Y-51401000D02*
X82750000Y-49000000D01*
X89250000Y-49000000D02*
X89250000Y-50750000D01*
X73974000Y-42000000D02*
X74750000Y-42776000D01*
X73140000Y-42000000D02*
X73974000Y-42000000D01*
X74750000Y-42776000D02*
X74750000Y-44000000D01*
X82750000Y-49000000D02*
X77750006Y-49000000D01*
X77750006Y-49000000D02*
X77500000Y-49250006D01*
X81346883Y-53903117D02*
X81346883Y-54357749D01*
X81500000Y-53750000D02*
X81346883Y-53903117D01*
X81346883Y-54357749D02*
X81346883Y-54923434D01*
X69200002Y-56600000D02*
X68000000Y-56600000D01*
D54*
X62790001Y-56600000D02*
X65900000Y-56600000D01*
D10*
X88045000Y-54696000D02*
X88491000Y-54250000D01*
X88045000Y-55850000D02*
X88045000Y-54696000D01*
X93804000Y-54250000D02*
X92750000Y-54250000D01*
X94200000Y-54646000D02*
X93804000Y-54250000D01*
X94200000Y-55525000D02*
X94200000Y-54646000D01*
X88491000Y-54250000D02*
X92750000Y-54250000D01*
X81640000Y-57000000D02*
X81640000Y-58110000D01*
X81640000Y-58110000D02*
X81500000Y-58250000D01*
X73140000Y-45739000D02*
X72379000Y-46500000D01*
X73140000Y-44750000D02*
X73140000Y-45739000D01*
X82850001Y-52649999D02*
X82850001Y-54399999D01*
X83250000Y-52250000D02*
X82850001Y-52649999D01*
X82850001Y-54399999D02*
X82000000Y-55250000D01*
X82000000Y-55250000D02*
X82000000Y-56750000D01*
X74948396Y-50027081D02*
X74948396Y-49546754D01*
X76921315Y-52000000D02*
X74948396Y-50027081D01*
X74948396Y-49546754D02*
X74948396Y-48981069D01*
X80750000Y-52000000D02*
X76921315Y-52000000D01*
X68000000Y-59800000D02*
X69600000Y-59800000D01*
X88000000Y-56000000D02*
X87940493Y-56059507D01*
X87940493Y-56135590D02*
X88340492Y-56535589D01*
X87940493Y-56059507D02*
X87940493Y-56135590D01*
D54*
X66010000Y-59600000D02*
X63150000Y-59599999D01*
D10*
X91855000Y-50650000D02*
X91855000Y-47895000D01*
X91855000Y-47895000D02*
X92250000Y-47500000D01*
X91855000Y-50650000D02*
X94000000Y-50650000D01*
X94000000Y-50650000D02*
X94000000Y-50500000D01*
X90585000Y-55850000D02*
X90585000Y-56400000D01*
X90585000Y-56400000D02*
X91619799Y-57434799D01*
X93434799Y-57434799D02*
X94250000Y-58250000D01*
X93610000Y-60750000D02*
X93610000Y-60640000D01*
X93610000Y-60640000D02*
X93750000Y-60500000D01*
X93750000Y-60500000D02*
X93750000Y-58500000D01*
X92565201Y-57434799D02*
X92565201Y-57519799D01*
X91619799Y-57434799D02*
X92565201Y-57434799D01*
X92565201Y-57434799D02*
X93434799Y-57434799D01*
D54*
X23750000Y-57110000D02*
X23750000Y-53750000D01*
D56*
X61139001Y-40438799D02*
X59450202Y-38750000D01*
X61139001Y-44502001D02*
X61139001Y-40438799D01*
X62750000Y-49625000D02*
X62750000Y-46113000D01*
X62750000Y-46113000D02*
X61139001Y-44502001D01*
X59450202Y-38750000D02*
X58250000Y-38750000D01*
D10*
X105155000Y-67000000D02*
X106500000Y-68345000D01*
X101875000Y-67000000D02*
X105155000Y-67000000D01*
X106500000Y-68345000D02*
X106500000Y-68750000D01*
D54*
X78256000Y-55000000D02*
X79750000Y-53506000D01*
X75125000Y-55000000D02*
X78256000Y-55000000D01*
X79750000Y-53506000D02*
X79750000Y-53500000D01*
X75125000Y-57000000D02*
X79750000Y-57000000D01*
D10*
X101925000Y-54800000D02*
X106450000Y-54800000D01*
X106450000Y-54800000D02*
X106750000Y-54500000D01*
X101925000Y-56800000D02*
X106550000Y-56800000D01*
X106550000Y-56800000D02*
X106750000Y-57000000D01*
D54*
X63890000Y-33750000D02*
X66000000Y-33750000D01*
X48366000Y-32720000D02*
X50000000Y-34354000D01*
X47250000Y-32720000D02*
X48366000Y-32720000D01*
X50000000Y-34354000D02*
X50000000Y-36250000D01*
X50000000Y-34354000D02*
X50646000Y-34354000D01*
X50646000Y-34354000D02*
X51750000Y-33250000D01*
X46750000Y-37250000D02*
X46750000Y-34500000D01*
X71050000Y-39250000D02*
X71050000Y-41550000D01*
X71050000Y-41550000D02*
X71500000Y-42000000D01*
X71500000Y-42000000D02*
X71250000Y-42000000D01*
X71050000Y-39250000D02*
X71050000Y-44750000D01*
X71050000Y-44750000D02*
X71100000Y-44800000D01*
X41750000Y-74860000D02*
X41750000Y-75000000D01*
D10*
X39155000Y-76640000D02*
X39265000Y-76750000D01*
X39000000Y-76640000D02*
X39155000Y-76640000D01*
X41595000Y-74860000D02*
X40205000Y-76250000D01*
X41750000Y-74860000D02*
X41595000Y-74860000D01*
X40205000Y-76250000D02*
X39500000Y-76250000D01*
X90585000Y-49496000D02*
X90250000Y-49161000D01*
X90585000Y-50650000D02*
X90585000Y-49496000D01*
X90250000Y-49161000D02*
X90250000Y-47750000D01*
X90250000Y-45750000D02*
X90250000Y-45000000D01*
X89890000Y-47600000D02*
X89890000Y-46110000D01*
X89890000Y-46110000D02*
X90250000Y-45750000D01*
D54*
X40525000Y-82200000D02*
X41575000Y-83250000D01*
X40250000Y-82200000D02*
X40525000Y-82200000D01*
X41575000Y-83250000D02*
X45250000Y-83250000D01*
X45250000Y-83250000D02*
X46500000Y-82000000D01*
X46500000Y-81890000D02*
X49860000Y-81890000D01*
X49860000Y-81890000D02*
X50000000Y-81750000D01*
D58*
X33004170Y-38611270D02*
X29250000Y-38611270D01*
X29250000Y-38611270D02*
X29250000Y-38500000D01*
X28750000Y-30250000D02*
X29000000Y-30500000D01*
X26412500Y-38810000D02*
X25500000Y-37897500D01*
X28800000Y-38810000D02*
X26412500Y-38810000D01*
X25500000Y-33803802D02*
X28500000Y-30803802D01*
X25500000Y-37897500D02*
X25500000Y-33803802D01*
X28500000Y-30803802D02*
X28500000Y-30250000D01*
X32250000Y-30500000D02*
X30484000Y-30500000D01*
X30484000Y-30500000D02*
X28750000Y-30500000D01*
X32250000Y-31966000D02*
X32284000Y-32000000D01*
X32250000Y-30500000D02*
X32250000Y-31966000D01*
X41750000Y-32000000D02*
X41750000Y-26750000D01*
D55*
X35250000Y-31750000D02*
X35500000Y-32000000D01*
X35250000Y-30390000D02*
X35250000Y-31750000D01*
D58*
X32284000Y-32000000D02*
X35500000Y-32000000D01*
X35500000Y-32000000D02*
X41750000Y-32000000D01*
X28750000Y-27240000D02*
X28750000Y-28821000D01*
X28750000Y-28821000D02*
X28750000Y-30250000D01*
D54*
X34375000Y-46150000D02*
X34375000Y-40625000D01*
X34375000Y-40625000D02*
X33000000Y-39250000D01*
X35250000Y-28610000D02*
X35250000Y-27649000D01*
X35250000Y-27649000D02*
X35250000Y-25750000D01*
X35250000Y-25890000D02*
X38250000Y-25890000D01*
X38250000Y-25890000D02*
X38250000Y-26000000D01*
D58*
X32250000Y-27000000D02*
X32250000Y-26750000D01*
X32250000Y-26750000D02*
X33000000Y-26000000D01*
X33000000Y-26000000D02*
X38250000Y-26000000D01*
D10*
X46800000Y-73000000D02*
X42980201Y-73000000D01*
X108390000Y-51500000D02*
X108390000Y-50511000D01*
X108390000Y-50511000D02*
X104629000Y-46750000D01*
X104629000Y-46750000D02*
X97750000Y-46750000D01*
X97750000Y-46750000D02*
X94250000Y-50250000D01*
X93610000Y-60750000D02*
X91250000Y-60750000D01*
G36*
X118623000Y-38873000D02*
G01*
X98627000Y-38873000D01*
X98627000Y-35400000D01*
X98624560Y-35375224D01*
X98617333Y-35351399D01*
X98605597Y-35329443D01*
X98589803Y-35310197D01*
X98570557Y-35294403D01*
X98548601Y-35282667D01*
X98524776Y-35275440D01*
X98500000Y-35273000D01*
X83627000Y-35273000D01*
X83627000Y-21377000D01*
X118623000Y-21377000D01*
X118623000Y-38873000D01*
X118623000Y-38873000D01*
G37*
X118623000Y-38873000D02*
X98627000Y-38873000D01*
X98627000Y-35400000D01*
X98624560Y-35375224D01*
X98617333Y-35351399D01*
X98605597Y-35329443D01*
X98589803Y-35310197D01*
X98570557Y-35294403D01*
X98548601Y-35282667D01*
X98524776Y-35275440D01*
X98500000Y-35273000D01*
X83627000Y-35273000D01*
X83627000Y-21377000D01*
X118623000Y-21377000D01*
X118623000Y-38873000D01*
G36*
X82373000Y-24691131D02*
G01*
X82342715Y-24790967D01*
X82263032Y-25600000D01*
X82342715Y-26409033D01*
X82373000Y-26508869D01*
X82373000Y-35373000D01*
X65877000Y-35373000D01*
X65877000Y-31332002D01*
X65910693Y-31220931D01*
X65932453Y-31000000D01*
X65932453Y-21377000D01*
X82373000Y-21377000D01*
X82373000Y-24691131D01*
X82373000Y-24691131D01*
G37*
X82373000Y-24691131D02*
X82342715Y-24790967D01*
X82263032Y-25600000D01*
X82342715Y-26409033D01*
X82373000Y-26508869D01*
X82373000Y-35373000D01*
X65877000Y-35373000D01*
X65877000Y-31332002D01*
X65910693Y-31220931D01*
X65932453Y-31000000D01*
X65932453Y-21377000D01*
X82373000Y-21377000D01*
X82373000Y-24691131D01*
G36*
X59123000Y-37373000D02*
G01*
X52627000Y-37373000D01*
X52627000Y-35127000D01*
X59123000Y-35127000D01*
X59123000Y-37373000D01*
X59123000Y-37373000D01*
G37*
X59123000Y-37373000D02*
X52627000Y-37373000D01*
X52627000Y-35127000D01*
X59123000Y-35127000D01*
X59123000Y-37373000D01*
G36*
X45073000Y-60073000D02*
G01*
X30750000Y-60073000D01*
X30725224Y-60075440D01*
X30701399Y-60082667D01*
X30679443Y-60094403D01*
X30660197Y-60110197D01*
X30644403Y-60129443D01*
X30632667Y-60151399D01*
X30625440Y-60175224D01*
X30623000Y-60200000D01*
X30623000Y-70873000D01*
X25877000Y-70873000D01*
X25877000Y-69634842D01*
X26110872Y-69634842D01*
X26117909Y-69682885D01*
X26214330Y-69916089D01*
X26354394Y-70126001D01*
X26532718Y-70304555D01*
X26742450Y-70444889D01*
X26975530Y-70541609D01*
X27223000Y-70591000D01*
X28123000Y-70591000D01*
X28123000Y-69437000D01*
X28377000Y-69437000D01*
X28377000Y-70591000D01*
X29277000Y-70591000D01*
X29524470Y-70541609D01*
X29757550Y-70444889D01*
X29967282Y-70304555D01*
X30145606Y-70126001D01*
X30285670Y-69916089D01*
X30382091Y-69682885D01*
X30389128Y-69634842D01*
X30328929Y-69437000D01*
X28377000Y-69437000D01*
X28123000Y-69437000D01*
X26171071Y-69437000D01*
X26110872Y-69634842D01*
X25877000Y-69634842D01*
X25877000Y-68985158D01*
X26110872Y-68985158D01*
X26171071Y-69183000D01*
X28123000Y-69183000D01*
X28123000Y-68029000D01*
X28377000Y-68029000D01*
X28377000Y-69183000D01*
X30328929Y-69183000D01*
X30389128Y-68985158D01*
X30382091Y-68937115D01*
X30285670Y-68703911D01*
X30145606Y-68493999D01*
X29967282Y-68315445D01*
X29757550Y-68175111D01*
X29524470Y-68078391D01*
X29277000Y-68029000D01*
X28377000Y-68029000D01*
X28123000Y-68029000D01*
X27223000Y-68029000D01*
X26975530Y-68078391D01*
X26742450Y-68175111D01*
X26532718Y-68315445D01*
X26354394Y-68493999D01*
X26214330Y-68703911D01*
X26117909Y-68937115D01*
X26110872Y-68985158D01*
X25877000Y-68985158D01*
X25877000Y-66400000D01*
X26067157Y-66400000D01*
X26074513Y-66474689D01*
X26096299Y-66546508D01*
X26131678Y-66612696D01*
X26179289Y-66670711D01*
X26237304Y-66718322D01*
X26303492Y-66753701D01*
X26375311Y-66775487D01*
X26450000Y-66782843D01*
X28027750Y-66781000D01*
X28123000Y-66685750D01*
X28123000Y-65627000D01*
X28377000Y-65627000D01*
X28377000Y-66685750D01*
X28472250Y-66781000D01*
X30050000Y-66782843D01*
X30124689Y-66775487D01*
X30196508Y-66753701D01*
X30262696Y-66718322D01*
X30320711Y-66670711D01*
X30368322Y-66612696D01*
X30403701Y-66546508D01*
X30425487Y-66474689D01*
X30432843Y-66400000D01*
X30431000Y-65722250D01*
X30335750Y-65627000D01*
X28377000Y-65627000D01*
X28123000Y-65627000D01*
X26164250Y-65627000D01*
X26069000Y-65722250D01*
X26067157Y-66400000D01*
X25877000Y-66400000D01*
X25877000Y-64600000D01*
X26067157Y-64600000D01*
X26069000Y-65277750D01*
X26164250Y-65373000D01*
X28123000Y-65373000D01*
X28123000Y-64314250D01*
X28377000Y-64314250D01*
X28377000Y-65373000D01*
X30335750Y-65373000D01*
X30431000Y-65277750D01*
X30432843Y-64600000D01*
X30425487Y-64525311D01*
X30403701Y-64453492D01*
X30368322Y-64387304D01*
X30320711Y-64329289D01*
X30262696Y-64281678D01*
X30196508Y-64246299D01*
X30124689Y-64224513D01*
X30050000Y-64217157D01*
X28472250Y-64219000D01*
X28377000Y-64314250D01*
X28123000Y-64314250D01*
X28027750Y-64219000D01*
X26450000Y-64217157D01*
X26375311Y-64224513D01*
X26303492Y-64246299D01*
X26237304Y-64281678D01*
X26179289Y-64329289D01*
X26131678Y-64387304D01*
X26096299Y-64453492D01*
X26074513Y-64525311D01*
X26067157Y-64600000D01*
X25877000Y-64600000D01*
X25877000Y-57127000D01*
X45073000Y-57127000D01*
X45073000Y-60073000D01*
X45073000Y-60073000D01*
G37*
X45073000Y-60073000D02*
X30750000Y-60073000D01*
X30725224Y-60075440D01*
X30701399Y-60082667D01*
X30679443Y-60094403D01*
X30660197Y-60110197D01*
X30644403Y-60129443D01*
X30632667Y-60151399D01*
X30625440Y-60175224D01*
X30623000Y-60200000D01*
X30623000Y-70873000D01*
X25877000Y-70873000D01*
X25877000Y-69634842D01*
X26110872Y-69634842D01*
X26117909Y-69682885D01*
X26214330Y-69916089D01*
X26354394Y-70126001D01*
X26532718Y-70304555D01*
X26742450Y-70444889D01*
X26975530Y-70541609D01*
X27223000Y-70591000D01*
X28123000Y-70591000D01*
X28123000Y-69437000D01*
X28377000Y-69437000D01*
X28377000Y-70591000D01*
X29277000Y-70591000D01*
X29524470Y-70541609D01*
X29757550Y-70444889D01*
X29967282Y-70304555D01*
X30145606Y-70126001D01*
X30285670Y-69916089D01*
X30382091Y-69682885D01*
X30389128Y-69634842D01*
X30328929Y-69437000D01*
X28377000Y-69437000D01*
X28123000Y-69437000D01*
X26171071Y-69437000D01*
X26110872Y-69634842D01*
X25877000Y-69634842D01*
X25877000Y-68985158D01*
X26110872Y-68985158D01*
X26171071Y-69183000D01*
X28123000Y-69183000D01*
X28123000Y-68029000D01*
X28377000Y-68029000D01*
X28377000Y-69183000D01*
X30328929Y-69183000D01*
X30389128Y-68985158D01*
X30382091Y-68937115D01*
X30285670Y-68703911D01*
X30145606Y-68493999D01*
X29967282Y-68315445D01*
X29757550Y-68175111D01*
X29524470Y-68078391D01*
X29277000Y-68029000D01*
X28377000Y-68029000D01*
X28123000Y-68029000D01*
X27223000Y-68029000D01*
X26975530Y-68078391D01*
X26742450Y-68175111D01*
X26532718Y-68315445D01*
X26354394Y-68493999D01*
X26214330Y-68703911D01*
X26117909Y-68937115D01*
X26110872Y-68985158D01*
X25877000Y-68985158D01*
X25877000Y-66400000D01*
X26067157Y-66400000D01*
X26074513Y-66474689D01*
X26096299Y-66546508D01*
X26131678Y-66612696D01*
X26179289Y-66670711D01*
X26237304Y-66718322D01*
X26303492Y-66753701D01*
X26375311Y-66775487D01*
X26450000Y-66782843D01*
X28027750Y-66781000D01*
X28123000Y-66685750D01*
X28123000Y-65627000D01*
X28377000Y-65627000D01*
X28377000Y-66685750D01*
X28472250Y-66781000D01*
X30050000Y-66782843D01*
X30124689Y-66775487D01*
X30196508Y-66753701D01*
X30262696Y-66718322D01*
X30320711Y-66670711D01*
X30368322Y-66612696D01*
X30403701Y-66546508D01*
X30425487Y-66474689D01*
X30432843Y-66400000D01*
X30431000Y-65722250D01*
X30335750Y-65627000D01*
X28377000Y-65627000D01*
X28123000Y-65627000D01*
X26164250Y-65627000D01*
X26069000Y-65722250D01*
X26067157Y-66400000D01*
X25877000Y-66400000D01*
X25877000Y-64600000D01*
X26067157Y-64600000D01*
X26069000Y-65277750D01*
X26164250Y-65373000D01*
X28123000Y-65373000D01*
X28123000Y-64314250D01*
X28377000Y-64314250D01*
X28377000Y-65373000D01*
X30335750Y-65373000D01*
X30431000Y-65277750D01*
X30432843Y-64600000D01*
X30425487Y-64525311D01*
X30403701Y-64453492D01*
X30368322Y-64387304D01*
X30320711Y-64329289D01*
X30262696Y-64281678D01*
X30196508Y-64246299D01*
X30124689Y-64224513D01*
X30050000Y-64217157D01*
X28472250Y-64219000D01*
X28377000Y-64314250D01*
X28123000Y-64314250D01*
X28027750Y-64219000D01*
X26450000Y-64217157D01*
X26375311Y-64224513D01*
X26303492Y-64246299D01*
X26237304Y-64281678D01*
X26179289Y-64329289D01*
X26131678Y-64387304D01*
X26096299Y-64453492D01*
X26074513Y-64525311D01*
X26067157Y-64600000D01*
X25877000Y-64600000D01*
X25877000Y-57127000D01*
X45073000Y-57127000D01*
X45073000Y-60073000D01*
G36*
X118873000Y-46873000D02*
G01*
X113337145Y-46873000D01*
X113325392Y-46863355D01*
X113193015Y-46792598D01*
X113049378Y-46749026D01*
X112937426Y-46738000D01*
X112937423Y-46738000D01*
X112900000Y-46734314D01*
X112862577Y-46738000D01*
X109917606Y-46738000D01*
X107589803Y-44410197D01*
X107570557Y-44394403D01*
X107548601Y-44382667D01*
X107524776Y-44375440D01*
X107500000Y-44373000D01*
X107437145Y-44373000D01*
X107425392Y-44363355D01*
X107293015Y-44292598D01*
X107149378Y-44249026D01*
X107037426Y-44238000D01*
X107037423Y-44238000D01*
X107000000Y-44234314D01*
X106962577Y-44238000D01*
X98377000Y-44238000D01*
X98377000Y-40127000D01*
X118873000Y-40127000D01*
X118873000Y-46873000D01*
X118873000Y-46873000D01*
G37*
X118873000Y-46873000D02*
X113337145Y-46873000D01*
X113325392Y-46863355D01*
X113193015Y-46792598D01*
X113049378Y-46749026D01*
X112937426Y-46738000D01*
X112937423Y-46738000D01*
X112900000Y-46734314D01*
X112862577Y-46738000D01*
X109917606Y-46738000D01*
X107589803Y-44410197D01*
X107570557Y-44394403D01*
X107548601Y-44382667D01*
X107524776Y-44375440D01*
X107500000Y-44373000D01*
X107437145Y-44373000D01*
X107425392Y-44363355D01*
X107293015Y-44292598D01*
X107149378Y-44249026D01*
X107037426Y-44238000D01*
X107037423Y-44238000D01*
X107000000Y-44234314D01*
X106962577Y-44238000D01*
X98377000Y-44238000D01*
X98377000Y-40127000D01*
X118873000Y-40127000D01*
X118873000Y-46873000D01*
G36*
X55873000Y-53623000D02*
G01*
X53250000Y-53623000D01*
X53030133Y-53644655D01*
X52818716Y-53708788D01*
X52623872Y-53812934D01*
X52453091Y-53953091D01*
X52312934Y-54123872D01*
X52208788Y-54318716D01*
X52144655Y-54530133D01*
X52123000Y-54750000D01*
X52123000Y-64373000D01*
X50000000Y-64373000D01*
X49975224Y-64375440D01*
X49951399Y-64382667D01*
X49929443Y-64394403D01*
X49910197Y-64410197D01*
X49894403Y-64429443D01*
X49882667Y-64451399D01*
X49875440Y-64475224D01*
X49873000Y-64500000D01*
X49873000Y-66000000D01*
X49875440Y-66024776D01*
X49882667Y-66048601D01*
X49894403Y-66070557D01*
X49910197Y-66089803D01*
X49929443Y-66105597D01*
X49951399Y-66117333D01*
X49975224Y-66124560D01*
X50000000Y-66127000D01*
X50873000Y-66127000D01*
X50873000Y-69873000D01*
X50000000Y-69873000D01*
X49975224Y-69875440D01*
X49951399Y-69882667D01*
X49929443Y-69894403D01*
X49910197Y-69910197D01*
X49894403Y-69929443D01*
X49882667Y-69951399D01*
X49875440Y-69975224D01*
X49873000Y-70000000D01*
X49873000Y-79123000D01*
X41627000Y-79123000D01*
X41627000Y-77877000D01*
X48000000Y-77877000D01*
X48024776Y-77874560D01*
X48048601Y-77867333D01*
X48070557Y-77855597D01*
X48089803Y-77839803D01*
X48105597Y-77820557D01*
X48117333Y-77798601D01*
X48124560Y-77774776D01*
X48127000Y-77750000D01*
X48127000Y-70000000D01*
X48124560Y-69975224D01*
X48117333Y-69951399D01*
X48105597Y-69929443D01*
X48089803Y-69910197D01*
X48070557Y-69894403D01*
X48048601Y-69882667D01*
X48024776Y-69875440D01*
X48000000Y-69873000D01*
X46717391Y-69873000D01*
X46619942Y-69807887D01*
X46477809Y-69749013D01*
X46326922Y-69719000D01*
X46173078Y-69719000D01*
X46022191Y-69749013D01*
X45880058Y-69807887D01*
X45782609Y-69873000D01*
X45617843Y-69873000D01*
X45617843Y-69530000D01*
X45610487Y-69455311D01*
X45588701Y-69383492D01*
X45553322Y-69317304D01*
X45505711Y-69259289D01*
X45447696Y-69211678D01*
X45381508Y-69176299D01*
X45309689Y-69154513D01*
X45235000Y-69147157D01*
X43765000Y-69147157D01*
X43690311Y-69154513D01*
X43618492Y-69176299D01*
X43552304Y-69211678D01*
X43494289Y-69259289D01*
X43446678Y-69317304D01*
X43411299Y-69383492D01*
X43389513Y-69455311D01*
X43382157Y-69530000D01*
X43382157Y-69873000D01*
X36877000Y-69873000D01*
X36877000Y-66127000D01*
X48000000Y-66127000D01*
X48024776Y-66124560D01*
X48048601Y-66117333D01*
X48070557Y-66105597D01*
X48089803Y-66089803D01*
X48105597Y-66070557D01*
X48117333Y-66048601D01*
X48124560Y-66024776D01*
X48127000Y-66000000D01*
X48127000Y-64500000D01*
X48124560Y-64475224D01*
X48117333Y-64451399D01*
X48105597Y-64429443D01*
X48089803Y-64410197D01*
X48070557Y-64394403D01*
X48048601Y-64382667D01*
X48024776Y-64375440D01*
X48000000Y-64373000D01*
X42627000Y-64373000D01*
X42627000Y-61332453D01*
X45200000Y-61332453D01*
X45420931Y-61310693D01*
X45633371Y-61246250D01*
X45829157Y-61141600D01*
X46000765Y-61000765D01*
X46141600Y-60829157D01*
X46246250Y-60633371D01*
X46310693Y-60420931D01*
X46332453Y-60200000D01*
X46332453Y-54800000D01*
X46310693Y-54579069D01*
X46246250Y-54366629D01*
X46141600Y-54170843D01*
X46000765Y-53999235D01*
X45829157Y-53858400D01*
X45633371Y-53753750D01*
X45420931Y-53689307D01*
X45200000Y-53667547D01*
X42627000Y-53667547D01*
X42627000Y-50877000D01*
X55873000Y-50877000D01*
X55873000Y-53623000D01*
X55873000Y-53623000D01*
G37*
X55873000Y-53623000D02*
X53250000Y-53623000D01*
X53030133Y-53644655D01*
X52818716Y-53708788D01*
X52623872Y-53812934D01*
X52453091Y-53953091D01*
X52312934Y-54123872D01*
X52208788Y-54318716D01*
X52144655Y-54530133D01*
X52123000Y-54750000D01*
X52123000Y-64373000D01*
X50000000Y-64373000D01*
X49975224Y-64375440D01*
X49951399Y-64382667D01*
X49929443Y-64394403D01*
X49910197Y-64410197D01*
X49894403Y-64429443D01*
X49882667Y-64451399D01*
X49875440Y-64475224D01*
X49873000Y-64500000D01*
X49873000Y-66000000D01*
X49875440Y-66024776D01*
X49882667Y-66048601D01*
X49894403Y-66070557D01*
X49910197Y-66089803D01*
X49929443Y-66105597D01*
X49951399Y-66117333D01*
X49975224Y-66124560D01*
X50000000Y-66127000D01*
X50873000Y-66127000D01*
X50873000Y-69873000D01*
X50000000Y-69873000D01*
X49975224Y-69875440D01*
X49951399Y-69882667D01*
X49929443Y-69894403D01*
X49910197Y-69910197D01*
X49894403Y-69929443D01*
X49882667Y-69951399D01*
X49875440Y-69975224D01*
X49873000Y-70000000D01*
X49873000Y-79123000D01*
X41627000Y-79123000D01*
X41627000Y-77877000D01*
X48000000Y-77877000D01*
X48024776Y-77874560D01*
X48048601Y-77867333D01*
X48070557Y-77855597D01*
X48089803Y-77839803D01*
X48105597Y-77820557D01*
X48117333Y-77798601D01*
X48124560Y-77774776D01*
X48127000Y-77750000D01*
X48127000Y-70000000D01*
X48124560Y-69975224D01*
X48117333Y-69951399D01*
X48105597Y-69929443D01*
X48089803Y-69910197D01*
X48070557Y-69894403D01*
X48048601Y-69882667D01*
X48024776Y-69875440D01*
X48000000Y-69873000D01*
X46717391Y-69873000D01*
X46619942Y-69807887D01*
X46477809Y-69749013D01*
X46326922Y-69719000D01*
X46173078Y-69719000D01*
X46022191Y-69749013D01*
X45880058Y-69807887D01*
X45782609Y-69873000D01*
X45617843Y-69873000D01*
X45617843Y-69530000D01*
X45610487Y-69455311D01*
X45588701Y-69383492D01*
X45553322Y-69317304D01*
X45505711Y-69259289D01*
X45447696Y-69211678D01*
X45381508Y-69176299D01*
X45309689Y-69154513D01*
X45235000Y-69147157D01*
X43765000Y-69147157D01*
X43690311Y-69154513D01*
X43618492Y-69176299D01*
X43552304Y-69211678D01*
X43494289Y-69259289D01*
X43446678Y-69317304D01*
X43411299Y-69383492D01*
X43389513Y-69455311D01*
X43382157Y-69530000D01*
X43382157Y-69873000D01*
X36877000Y-69873000D01*
X36877000Y-66127000D01*
X48000000Y-66127000D01*
X48024776Y-66124560D01*
X48048601Y-66117333D01*
X48070557Y-66105597D01*
X48089803Y-66089803D01*
X48105597Y-66070557D01*
X48117333Y-66048601D01*
X48124560Y-66024776D01*
X48127000Y-66000000D01*
X48127000Y-64500000D01*
X48124560Y-64475224D01*
X48117333Y-64451399D01*
X48105597Y-64429443D01*
X48089803Y-64410197D01*
X48070557Y-64394403D01*
X48048601Y-64382667D01*
X48024776Y-64375440D01*
X48000000Y-64373000D01*
X42627000Y-64373000D01*
X42627000Y-61332453D01*
X45200000Y-61332453D01*
X45420931Y-61310693D01*
X45633371Y-61246250D01*
X45829157Y-61141600D01*
X46000765Y-61000765D01*
X46141600Y-60829157D01*
X46246250Y-60633371D01*
X46310693Y-60420931D01*
X46332453Y-60200000D01*
X46332453Y-54800000D01*
X46310693Y-54579069D01*
X46246250Y-54366629D01*
X46141600Y-54170843D01*
X46000765Y-53999235D01*
X45829157Y-53858400D01*
X45633371Y-53753750D01*
X45420931Y-53689307D01*
X45200000Y-53667547D01*
X42627000Y-53667547D01*
X42627000Y-50877000D01*
X55873000Y-50877000D01*
X55873000Y-53623000D01*
G36*
X58123000Y-69873000D02*
G01*
X53377000Y-69873000D01*
X53377000Y-54877000D01*
X58123000Y-54877000D01*
X58123000Y-69873000D01*
X58123000Y-69873000D01*
G37*
X58123000Y-69873000D02*
X53377000Y-69873000D01*
X53377000Y-54877000D01*
X58123000Y-54877000D01*
X58123000Y-69873000D01*
G36*
X96123000Y-71250000D02*
G01*
X96125440Y-71274776D01*
X96132667Y-71298601D01*
X96144403Y-71320557D01*
X96160197Y-71339803D01*
X96179443Y-71355597D01*
X96201399Y-71367333D01*
X96225224Y-71374560D01*
X96250000Y-71377000D01*
X118123000Y-71377000D01*
X118123000Y-84115000D01*
X67127000Y-84115000D01*
X67127000Y-62627000D01*
X96123000Y-62627000D01*
X96123000Y-71250000D01*
X96123000Y-71250000D01*
G37*
X96123000Y-71250000D02*
X96125440Y-71274776D01*
X96132667Y-71298601D01*
X96144403Y-71320557D01*
X96160197Y-71339803D01*
X96179443Y-71355597D01*
X96201399Y-71367333D01*
X96225224Y-71374560D01*
X96250000Y-71377000D01*
X118123000Y-71377000D01*
X118123000Y-84115000D01*
X67127000Y-84115000D01*
X67127000Y-62627000D01*
X96123000Y-62627000D01*
X96123000Y-71250000D01*
G36*
X36123000Y-24623000D02*
G01*
X27877000Y-24623000D01*
X27877000Y-23377000D01*
X36123000Y-23377000D01*
X36123000Y-24623000D01*
X36123000Y-24623000D01*
G37*
X36123000Y-24623000D02*
X27877000Y-24623000D01*
X27877000Y-23377000D01*
X36123000Y-23377000D01*
X36123000Y-24623000D01*
G36*
X56123000Y-41883566D02*
G01*
X55633567Y-42373000D01*
X52695920Y-42373000D01*
X51877000Y-41554080D01*
X51877000Y-39627000D01*
X56123000Y-39627000D01*
X56123000Y-41883566D01*
X56123000Y-41883566D01*
G37*
X56123000Y-41883566D02*
X55633567Y-42373000D01*
X52695920Y-42373000D01*
X51877000Y-41554080D01*
X51877000Y-39627000D01*
X56123000Y-39627000D01*
X56123000Y-41883566D01*
G36*
X30623000Y-77750000D02*
G01*
X30625440Y-77774776D01*
X30632667Y-77798601D01*
X30644403Y-77820557D01*
X30660197Y-77839803D01*
X30679443Y-77855597D01*
X30701399Y-77867333D01*
X30725224Y-77874560D01*
X30750000Y-77877000D01*
X42123000Y-77877000D01*
X42123000Y-79123000D01*
X25877000Y-79123000D01*
X25877000Y-77254842D01*
X26110872Y-77254842D01*
X26117909Y-77302885D01*
X26214330Y-77536089D01*
X26354394Y-77746001D01*
X26532718Y-77924555D01*
X26742450Y-78064889D01*
X26975530Y-78161609D01*
X27223000Y-78211000D01*
X28123000Y-78211000D01*
X28123000Y-77057000D01*
X28377000Y-77057000D01*
X28377000Y-78211000D01*
X29277000Y-78211000D01*
X29524470Y-78161609D01*
X29757550Y-78064889D01*
X29967282Y-77924555D01*
X30145606Y-77746001D01*
X30285670Y-77536089D01*
X30382091Y-77302885D01*
X30389128Y-77254842D01*
X30328929Y-77057000D01*
X28377000Y-77057000D01*
X28123000Y-77057000D01*
X26171071Y-77057000D01*
X26110872Y-77254842D01*
X25877000Y-77254842D01*
X25877000Y-76605158D01*
X26110872Y-76605158D01*
X26171071Y-76803000D01*
X28123000Y-76803000D01*
X28123000Y-75649000D01*
X28377000Y-75649000D01*
X28377000Y-76803000D01*
X30328929Y-76803000D01*
X30389128Y-76605158D01*
X30382091Y-76557115D01*
X30285670Y-76323911D01*
X30145606Y-76113999D01*
X29967282Y-75935445D01*
X29757550Y-75795111D01*
X29524470Y-75698391D01*
X29277000Y-75649000D01*
X28377000Y-75649000D01*
X28123000Y-75649000D01*
X27223000Y-75649000D01*
X26975530Y-75698391D01*
X26742450Y-75795111D01*
X26532718Y-75935445D01*
X26354394Y-76113999D01*
X26214330Y-76323911D01*
X26117909Y-76557115D01*
X26110872Y-76605158D01*
X25877000Y-76605158D01*
X25877000Y-73444842D01*
X26110872Y-73444842D01*
X26117909Y-73492885D01*
X26214330Y-73726089D01*
X26354394Y-73936001D01*
X26532718Y-74114555D01*
X26742450Y-74254889D01*
X26975530Y-74351609D01*
X27223000Y-74401000D01*
X28123000Y-74401000D01*
X28123000Y-73247000D01*
X28377000Y-73247000D01*
X28377000Y-74401000D01*
X29277000Y-74401000D01*
X29524470Y-74351609D01*
X29757550Y-74254889D01*
X29967282Y-74114555D01*
X30145606Y-73936001D01*
X30285670Y-73726089D01*
X30382091Y-73492885D01*
X30389128Y-73444842D01*
X30328929Y-73247000D01*
X28377000Y-73247000D01*
X28123000Y-73247000D01*
X26171071Y-73247000D01*
X26110872Y-73444842D01*
X25877000Y-73444842D01*
X25877000Y-72795158D01*
X26110872Y-72795158D01*
X26171071Y-72993000D01*
X28123000Y-72993000D01*
X28123000Y-71839000D01*
X28377000Y-71839000D01*
X28377000Y-72993000D01*
X30328929Y-72993000D01*
X30389128Y-72795158D01*
X30382091Y-72747115D01*
X30285670Y-72513911D01*
X30145606Y-72303999D01*
X29967282Y-72125445D01*
X29757550Y-71985111D01*
X29524470Y-71888391D01*
X29277000Y-71839000D01*
X28377000Y-71839000D01*
X28123000Y-71839000D01*
X27223000Y-71839000D01*
X26975530Y-71888391D01*
X26742450Y-71985111D01*
X26532718Y-72125445D01*
X26354394Y-72303999D01*
X26214330Y-72513911D01*
X26117909Y-72747115D01*
X26110872Y-72795158D01*
X25877000Y-72795158D01*
X25877000Y-71508000D01*
X30623000Y-71508000D01*
X30623000Y-77750000D01*
X30623000Y-77750000D01*
G37*
X30623000Y-77750000D02*
X30625440Y-77774776D01*
X30632667Y-77798601D01*
X30644403Y-77820557D01*
X30660197Y-77839803D01*
X30679443Y-77855597D01*
X30701399Y-77867333D01*
X30725224Y-77874560D01*
X30750000Y-77877000D01*
X42123000Y-77877000D01*
X42123000Y-79123000D01*
X25877000Y-79123000D01*
X25877000Y-77254842D01*
X26110872Y-77254842D01*
X26117909Y-77302885D01*
X26214330Y-77536089D01*
X26354394Y-77746001D01*
X26532718Y-77924555D01*
X26742450Y-78064889D01*
X26975530Y-78161609D01*
X27223000Y-78211000D01*
X28123000Y-78211000D01*
X28123000Y-77057000D01*
X28377000Y-77057000D01*
X28377000Y-78211000D01*
X29277000Y-78211000D01*
X29524470Y-78161609D01*
X29757550Y-78064889D01*
X29967282Y-77924555D01*
X30145606Y-77746001D01*
X30285670Y-77536089D01*
X30382091Y-77302885D01*
X30389128Y-77254842D01*
X30328929Y-77057000D01*
X28377000Y-77057000D01*
X28123000Y-77057000D01*
X26171071Y-77057000D01*
X26110872Y-77254842D01*
X25877000Y-77254842D01*
X25877000Y-76605158D01*
X26110872Y-76605158D01*
X26171071Y-76803000D01*
X28123000Y-76803000D01*
X28123000Y-75649000D01*
X28377000Y-75649000D01*
X28377000Y-76803000D01*
X30328929Y-76803000D01*
X30389128Y-76605158D01*
X30382091Y-76557115D01*
X30285670Y-76323911D01*
X30145606Y-76113999D01*
X29967282Y-75935445D01*
X29757550Y-75795111D01*
X29524470Y-75698391D01*
X29277000Y-75649000D01*
X28377000Y-75649000D01*
X28123000Y-75649000D01*
X27223000Y-75649000D01*
X26975530Y-75698391D01*
X26742450Y-75795111D01*
X26532718Y-75935445D01*
X26354394Y-76113999D01*
X26214330Y-76323911D01*
X26117909Y-76557115D01*
X26110872Y-76605158D01*
X25877000Y-76605158D01*
X25877000Y-73444842D01*
X26110872Y-73444842D01*
X26117909Y-73492885D01*
X26214330Y-73726089D01*
X26354394Y-73936001D01*
X26532718Y-74114555D01*
X26742450Y-74254889D01*
X26975530Y-74351609D01*
X27223000Y-74401000D01*
X28123000Y-74401000D01*
X28123000Y-73247000D01*
X28377000Y-73247000D01*
X28377000Y-74401000D01*
X29277000Y-74401000D01*
X29524470Y-74351609D01*
X29757550Y-74254889D01*
X29967282Y-74114555D01*
X30145606Y-73936001D01*
X30285670Y-73726089D01*
X30382091Y-73492885D01*
X30389128Y-73444842D01*
X30328929Y-73247000D01*
X28377000Y-73247000D01*
X28123000Y-73247000D01*
X26171071Y-73247000D01*
X26110872Y-73444842D01*
X25877000Y-73444842D01*
X25877000Y-72795158D01*
X26110872Y-72795158D01*
X26171071Y-72993000D01*
X28123000Y-72993000D01*
X28123000Y-71839000D01*
X28377000Y-71839000D01*
X28377000Y-72993000D01*
X30328929Y-72993000D01*
X30389128Y-72795158D01*
X30382091Y-72747115D01*
X30285670Y-72513911D01*
X30145606Y-72303999D01*
X29967282Y-72125445D01*
X29757550Y-71985111D01*
X29524470Y-71888391D01*
X29277000Y-71839000D01*
X28377000Y-71839000D01*
X28123000Y-71839000D01*
X27223000Y-71839000D01*
X26975530Y-71888391D01*
X26742450Y-71985111D01*
X26532718Y-72125445D01*
X26354394Y-72303999D01*
X26214330Y-72513911D01*
X26117909Y-72747115D01*
X26110872Y-72795158D01*
X25877000Y-72795158D01*
X25877000Y-71508000D01*
X30623000Y-71508000D01*
X30623000Y-77750000D01*
D59*
X115470000Y-31910000D03*
X112930000Y-31910000D03*
X110390000Y-31910000D03*
X105310000Y-31910000D03*
X102770000Y-31910000D03*
X100230000Y-31910000D03*
X100230000Y-29370000D03*
X102770000Y-29370000D03*
X105310000Y-29370000D03*
X112930000Y-29370000D03*
X110390000Y-29370000D03*
X115470000Y-29370000D03*
X115470000Y-26830000D03*
X112930000Y-26830000D03*
X110390000Y-26830000D03*
X105310000Y-26830000D03*
X102770000Y-26830000D03*
X100230000Y-26830000D03*
X100230000Y-24290000D03*
X102770000Y-24290000D03*
X105310000Y-24290000D03*
X110390000Y-24290000D03*
X112930000Y-24290000D03*
X115470000Y-24290000D03*
X49500000Y-72500000D03*
X49500000Y-73500000D03*
X49500000Y-74500000D03*
X48500000Y-74500000D03*
X48500000Y-73500000D03*
X48500000Y-72500000D03*
X105250000Y-50750000D03*
X116250000Y-50250000D03*
X111250000Y-46500000D03*
X112750000Y-46500000D03*
X114250000Y-46500000D03*
X116750000Y-46500000D03*
X118250000Y-46500000D03*
X118250000Y-45000000D03*
X118250000Y-43250000D03*
X109750000Y-45000000D03*
X109750000Y-43250000D03*
X109750000Y-41750000D03*
X109750000Y-40500000D03*
X118250000Y-40500000D03*
X118250000Y-41750000D03*
X109750000Y-46500000D03*
X111250000Y-45000000D03*
X116750000Y-45000000D03*
X115500000Y-46500000D03*
X111250000Y-43250000D03*
X111250000Y-41750000D03*
X112750000Y-41750000D03*
X114250000Y-41750000D03*
X115500000Y-41750000D03*
X116750000Y-41750000D03*
X116750000Y-40500000D03*
X115500000Y-40500000D03*
X114250000Y-40500000D03*
X112750000Y-40500000D03*
X111250000Y-40500000D03*
X116750000Y-43250000D03*
X96250000Y-44750000D03*
X93500000Y-42250000D03*
X93500000Y-44750000D03*
X105250000Y-65000000D03*
X114500000Y-57500000D03*
X92500000Y-58250000D03*
X85000000Y-60250000D03*
X83500000Y-50250000D03*
X78676702Y-53000000D03*
X76750000Y-48250000D03*
X69000000Y-44500000D03*
X69000000Y-41750000D03*
X68000000Y-38000000D03*
X59250000Y-40500000D03*
X48750000Y-39750000D03*
X33250000Y-41500000D03*
X25000000Y-51750000D03*
X58000000Y-49250000D03*
X92750000Y-55750000D03*
X36500000Y-81250000D03*
X44500000Y-82000000D03*
X53000000Y-82000000D03*
X113000000Y-49000000D03*
X32500000Y-62500000D03*
X32500000Y-71750000D03*
X32500000Y-73250000D03*
X61250000Y-61000000D03*
X61250000Y-57999998D03*
X48500000Y-75500000D03*
X49500000Y-75500000D03*
X67750000Y-63250000D03*
X70290000Y-63250000D03*
X72830000Y-63250000D03*
X75370000Y-63250000D03*
X77910000Y-63250000D03*
X80450000Y-63250000D03*
X82990000Y-63250000D03*
X85530000Y-63250000D03*
X88070000Y-63250000D03*
X90610000Y-63250000D03*
X93150000Y-63250000D03*
X95690000Y-63250000D03*
X67750000Y-65790000D03*
X70290000Y-65790000D03*
X72830000Y-65790000D03*
X75370000Y-65790000D03*
X77910000Y-65790000D03*
X80450000Y-65790000D03*
X82990000Y-65790000D03*
X85530000Y-65790000D03*
X88070000Y-65790000D03*
X90610000Y-65790000D03*
X93150000Y-65790000D03*
X95690000Y-65790000D03*
X67750000Y-68330000D03*
X70290000Y-68330000D03*
X72830000Y-68330000D03*
X75370000Y-68330000D03*
X77910000Y-68330000D03*
X80450000Y-68330000D03*
X82990000Y-68330000D03*
X85530000Y-68330000D03*
X88070000Y-68330000D03*
X90610000Y-68330000D03*
X93150000Y-68330000D03*
X95690000Y-68330000D03*
X67750000Y-70870000D03*
X70290000Y-70870000D03*
X72830000Y-70870000D03*
X75370000Y-70870000D03*
X77910000Y-70870000D03*
X80450000Y-70870000D03*
X82990000Y-70870000D03*
X85530000Y-70870000D03*
X88070000Y-70870000D03*
X90610000Y-70870000D03*
X93150000Y-70870000D03*
X95690000Y-70870000D03*
X67750000Y-73410000D03*
X70290000Y-73410000D03*
X72830000Y-73410000D03*
X75370000Y-73410000D03*
X77910000Y-73410000D03*
X80450000Y-73410000D03*
X82990000Y-73410000D03*
X85530000Y-73410000D03*
X88070000Y-73410000D03*
X90610000Y-73410000D03*
X93150000Y-73410000D03*
X95690000Y-73410000D03*
X67750000Y-75950000D03*
X70290000Y-75950000D03*
X72830000Y-75950000D03*
X75370000Y-75950000D03*
X77910000Y-75950000D03*
X80450000Y-75950000D03*
X82990000Y-75950000D03*
X85530000Y-75950000D03*
X88070000Y-75950000D03*
X90610000Y-75950000D03*
X93150000Y-75950000D03*
X95690000Y-75950000D03*
X67750000Y-78490000D03*
X70290000Y-78490000D03*
X72830000Y-78490000D03*
X75370000Y-78490000D03*
X77910000Y-78490000D03*
X80450000Y-78490000D03*
X82990000Y-78490000D03*
X85530000Y-78490000D03*
X88070000Y-78490000D03*
X90610000Y-78490000D03*
X93150000Y-78490000D03*
X95690000Y-78490000D03*
X67750000Y-81030000D03*
X70290000Y-81030000D03*
X72830000Y-81030000D03*
X75370000Y-81030000D03*
X77910000Y-81030000D03*
X80450000Y-81030000D03*
X82990000Y-81030000D03*
X85530000Y-81030000D03*
X88070000Y-81030000D03*
X90610000Y-81030000D03*
X93150000Y-81030000D03*
X95690000Y-81030000D03*
X67750000Y-83570000D03*
X70290000Y-83570000D03*
X72830000Y-83570000D03*
X75370000Y-83570000D03*
X77910000Y-83570000D03*
X80450000Y-83570000D03*
X82990000Y-83570000D03*
X85530000Y-83570000D03*
X88070000Y-83570000D03*
X90610000Y-83570000D03*
X93150000Y-83570000D03*
X95690000Y-83570000D03*
X97000000Y-72000000D03*
X99540000Y-72000000D03*
X102080000Y-72000000D03*
X104620000Y-72000000D03*
X107160000Y-72000000D03*
X109700000Y-72000000D03*
X112240000Y-72000000D03*
X114780000Y-72000000D03*
X117320000Y-72000000D03*
X97000000Y-74540000D03*
X99540000Y-74540000D03*
X102080000Y-74540000D03*
X104620000Y-74540000D03*
X107160000Y-74540000D03*
X109700000Y-74540000D03*
X112240000Y-74540000D03*
X114780000Y-74540000D03*
X117320000Y-74540000D03*
X97000000Y-77080000D03*
X99540000Y-77080000D03*
X102080000Y-77080000D03*
X104620000Y-77080000D03*
X107160000Y-77080000D03*
X109700000Y-77080000D03*
X112240000Y-77080000D03*
X114780000Y-77080000D03*
X117320000Y-77080000D03*
X97000000Y-79620000D03*
X99540000Y-79620000D03*
X102080000Y-79620000D03*
X104620000Y-79620000D03*
X107160000Y-79620000D03*
X109700000Y-79620000D03*
X112240000Y-79620000D03*
X114780000Y-79620000D03*
X117320000Y-79620000D03*
X97000000Y-82160000D03*
X99540000Y-82160000D03*
X102080000Y-82160000D03*
X104620000Y-82160000D03*
X107160000Y-82160000D03*
X109700000Y-82160000D03*
X112240000Y-82160000D03*
X114780000Y-82160000D03*
X117320000Y-82160000D03*
X37250000Y-46250000D03*
X48500000Y-29750000D03*
X33500000Y-24000002D03*
X32500000Y-24000000D03*
X31500000Y-24000000D03*
X30500000Y-24000000D03*
X53000000Y-42000000D03*
X54000000Y-42000000D03*
X55000000Y-42000000D03*
X56000000Y-41750000D03*
X52250000Y-41500000D03*
X87749990Y-60500000D03*
X74000000Y-39500008D03*
X83000004Y-59499996D03*
X111000000Y-59000008D03*
X46250000Y-70500000D03*
X51250000Y-70999994D03*
X60000000Y-54749994D03*
X40750000Y-55249998D03*
X33750000Y-76250018D03*
X31500000Y-80750000D03*
X84990000Y-21750000D03*
X87530000Y-21750000D03*
X90070000Y-21750000D03*
X90070000Y-21750000D03*
X92610000Y-21750000D03*
X95150000Y-21750000D03*
X97690000Y-21750000D03*
X100230000Y-21750000D03*
X102770000Y-21750000D03*
X105310000Y-21750000D03*
X107850000Y-21750000D03*
X110390000Y-21750000D03*
X112930000Y-21750000D03*
X115470000Y-21750000D03*
X118010000Y-21750000D03*
X118010000Y-24290000D03*
X107850000Y-24290000D03*
X97690000Y-24290000D03*
X95150000Y-24290000D03*
X92610000Y-24290000D03*
X92610000Y-26830000D03*
X95150000Y-26830000D03*
X97690000Y-26830000D03*
X107850000Y-26830000D03*
X118010000Y-26830000D03*
X118010000Y-29370000D03*
X107850000Y-29370000D03*
X97690000Y-29370000D03*
X95150000Y-29370000D03*
X92610000Y-29370000D03*
X90070000Y-29370000D03*
X87530000Y-29370000D03*
X84990000Y-29370000D03*
X84990000Y-31910000D03*
X87530000Y-31910000D03*
X90070000Y-31910000D03*
X92610000Y-31910000D03*
X95150000Y-31910000D03*
X97690000Y-31910000D03*
X107850000Y-31910000D03*
X118010000Y-31910000D03*
X118010000Y-34450000D03*
X110390000Y-34450000D03*
X112930000Y-34450000D03*
X115470000Y-34450000D03*
X107850000Y-34450000D03*
X105310000Y-34450000D03*
X102770000Y-34450000D03*
X100230000Y-34450000D03*
X97690000Y-34450000D03*
X95150000Y-34450000D03*
X90070000Y-34450000D03*
X92610000Y-34450000D03*
X87530000Y-34450000D03*
X84990000Y-34450000D03*
X100230000Y-36990000D03*
X105310000Y-36990000D03*
X107850000Y-36990000D03*
X110390000Y-36990000D03*
X118010000Y-36990000D03*
X64500000Y-40500000D03*
X69100000Y-40300000D03*
X98250000Y-52750000D03*
X69750000Y-46250000D03*
X81067240Y-51048269D03*
X75883716Y-49881701D03*
X109750000Y-57499996D03*
X107000000Y-58392790D03*
X108750000Y-55750000D03*
X114250000Y-55750000D03*
X105000000Y-60750000D03*
X107250000Y-60250000D03*
X88750000Y-45500000D03*
X91259805Y-46084165D03*
X35000000Y-63000000D03*
X35000000Y-54750000D03*
X34000000Y-54750000D03*
X33000000Y-54750000D03*
X35000000Y-62000000D03*
X35000000Y-64000000D03*
X45400000Y-41700000D03*
X49764658Y-41666938D03*
X26750000Y-35500000D03*
X27110004Y-41360004D03*
X31500000Y-41500000D03*
X31250000Y-34500000D03*
X82750000Y-49000000D03*
X89250000Y-49000000D03*
X74750000Y-44000000D03*
X77500000Y-49250006D03*
X81346883Y-54923434D03*
X69200002Y-56600000D03*
X81500000Y-58250000D03*
X72379000Y-46500000D03*
X80750000Y-52000000D03*
X83250000Y-52250000D03*
X74948396Y-48981069D03*
X69600000Y-59800000D03*
X88340492Y-56535589D03*
X69750000Y-21750000D03*
X69750000Y-24290000D03*
X69750000Y-26830000D03*
X69750000Y-29370000D03*
X69750000Y-31910000D03*
X69750000Y-34450000D03*
X72290000Y-34450000D03*
X72290000Y-31910000D03*
X72290000Y-29370000D03*
X72290000Y-26830000D03*
X72290000Y-24290000D03*
X72290000Y-21750000D03*
X74830000Y-21750000D03*
X74830000Y-29370000D03*
X74830000Y-31910000D03*
X74830000Y-34450000D03*
X77370000Y-34450000D03*
X77370000Y-31910000D03*
X77370000Y-29370000D03*
X79910000Y-29370000D03*
X79910000Y-31910000D03*
X79910000Y-34450000D03*
X77370000Y-21750000D03*
X79910000Y-21750000D03*
X67210000Y-34450000D03*
X67210000Y-31910000D03*
X42500000Y-46250000D03*
X42500000Y-43750000D03*
D60*
X77910000Y-25600000D03*
X87910000Y-25600000D03*
D59*
X81000000Y-47000000D03*
X84820000Y-47000000D03*
X82910000Y-47000000D03*
X81860000Y-24970000D03*
X81860000Y-26230000D03*
X81110000Y-27260000D03*
X81110000Y-23940000D03*
X73960000Y-24970000D03*
X73960000Y-26230000D03*
X74710000Y-27260000D03*
X74710000Y-23940000D03*
X78580000Y-27650000D03*
X77240000Y-27650000D03*
X79910000Y-27650000D03*
X75910000Y-27650000D03*
X78580000Y-23550000D03*
X77240000Y-23550000D03*
X75910000Y-23550000D03*
X79910000Y-23550000D03*
X84710000Y-27260000D03*
X84710000Y-23940000D03*
X83960000Y-26230000D03*
X83960000Y-24970000D03*
X91110000Y-27260000D03*
X91110000Y-23940000D03*
X91860000Y-24970000D03*
X89910000Y-27650000D03*
X88580000Y-27650000D03*
X87240000Y-27650000D03*
X85910000Y-27650000D03*
X89910000Y-23550000D03*
X88580000Y-23550000D03*
X87240000Y-23550000D03*
X85910000Y-23550000D03*
X91860000Y-26230000D03*
X112306810Y-62312500D03*
X112306810Y-64687500D03*
X110250000Y-65875000D03*
X108193190Y-64687500D03*
X108193190Y-62312500D03*
X110250000Y-61125000D03*
X110250000Y-63500000D03*
X51056810Y-44812500D03*
X51056810Y-47187500D03*
X49000000Y-48375000D03*
X46943190Y-47187500D03*
X46943190Y-44812500D03*
X49000000Y-43625000D03*
X49000000Y-46000000D03*
X28250000Y-76930000D03*
X28250000Y-73120000D03*
X28250000Y-69310000D03*
X28250000Y-65500000D03*
X103250000Y-42750000D03*
X103250000Y-37750000D03*
M02*
