M48
; DRILL file {KiCad (5.1.4)-1} date 2021/5/17 23:16:04
; FORMAT={-:-/ absolute / metric / decimal}
; #@! TF.CreationDate,2021-05-17T23:16:04+08:00
; #@! TF.GenerationSoftware,Kicad,Pcbnew,(5.1.4)-1
; #@! TF.FileFunction,Plated,1,2,PTH
FMAT,2
METRIC
T1C0.400
T2C0.500
T3C0.800
T4C1.000
T5C1.200
T6C2.000
T7C3.500
%
G90
G05
T1
X25.0Y-51.75
X26.75Y-35.5
X27.11Y-41.36
X30.5Y-24.0
X31.25Y-34.5
X31.5Y-24.0
X31.5Y-41.5
X31.5Y-80.75
X32.5Y-24.0
X32.5Y-62.5
X32.5Y-71.75
X32.5Y-73.25
X33.0Y-54.75
X33.25Y-41.5
X33.5Y-24.0
X33.75Y-76.25
X34.0Y-54.75
X35.0Y-54.75
X35.0Y-62.0
X35.0Y-63.0
X35.0Y-64.0
X36.5Y-81.25
X37.25Y-46.25
X40.75Y-55.25
X44.5Y-82.0
X45.4Y-41.7
X46.25Y-70.5
X48.5Y-29.75
X48.5Y-72.5
X48.5Y-73.5
X48.5Y-74.5
X48.5Y-75.5
X48.75Y-39.75
X49.5Y-72.5
X49.5Y-73.5
X49.5Y-74.5
X49.5Y-75.5
X49.765Y-41.667
X51.25Y-71.0
X52.25Y-41.5
X53.0Y-42.0
X53.0Y-82.0
X54.0Y-42.0
X55.0Y-42.0
X56.0Y-41.75
X58.0Y-49.25
X59.25Y-40.5
X60.0Y-54.75
X61.25Y-58.0
X61.25Y-61.0
X64.5Y-40.5
X67.21Y-31.91
X67.21Y-34.45
X67.75Y-63.25
X67.75Y-65.79
X67.75Y-68.33
X67.75Y-70.87
X67.75Y-73.41
X67.75Y-75.95
X67.75Y-78.49
X67.75Y-81.03
X67.75Y-83.57
X68.0Y-38.0
X69.0Y-41.75
X69.0Y-44.5
X69.1Y-40.3
X69.2Y-56.6
X69.6Y-59.8
X69.75Y-21.75
X69.75Y-24.29
X69.75Y-26.83
X69.75Y-29.37
X69.75Y-31.91
X69.75Y-34.45
X69.75Y-46.25
X70.29Y-63.25
X70.29Y-65.79
X70.29Y-68.33
X70.29Y-70.87
X70.29Y-73.41
X70.29Y-75.95
X70.29Y-78.49
X70.29Y-81.03
X70.29Y-83.57
X72.29Y-21.75
X72.29Y-24.29
X72.29Y-26.83
X72.29Y-29.37
X72.29Y-31.91
X72.29Y-34.45
X72.379Y-46.5
X72.83Y-63.25
X72.83Y-65.79
X72.83Y-68.33
X72.83Y-70.87
X72.83Y-73.41
X72.83Y-75.95
X72.83Y-78.49
X72.83Y-81.03
X72.83Y-83.57
X74.0Y-39.5
X74.75Y-44.0
X74.83Y-21.75
X74.83Y-29.37
X74.83Y-31.91
X74.83Y-34.45
X74.948Y-48.981
X75.37Y-63.25
X75.37Y-65.79
X75.37Y-68.33
X75.37Y-70.87
X75.37Y-73.41
X75.37Y-75.95
X75.37Y-78.49
X75.37Y-81.03
X75.37Y-83.57
X75.884Y-49.882
X76.75Y-48.25
X77.37Y-21.75
X77.37Y-29.37
X77.37Y-31.91
X77.37Y-34.45
X77.5Y-49.25
X77.91Y-63.25
X77.91Y-65.79
X77.91Y-68.33
X77.91Y-70.87
X77.91Y-73.41
X77.91Y-75.95
X77.91Y-78.49
X77.91Y-81.03
X77.91Y-83.57
X78.677Y-53.0
X79.91Y-21.75
X79.91Y-29.37
X79.91Y-31.91
X79.91Y-34.45
X80.45Y-63.25
X80.45Y-65.79
X80.45Y-68.33
X80.45Y-70.87
X80.45Y-73.41
X80.45Y-75.95
X80.45Y-78.49
X80.45Y-81.03
X80.45Y-83.57
X80.75Y-52.0
X81.067Y-51.048
X81.347Y-54.923
X81.5Y-58.25
X82.75Y-49.0
X82.99Y-63.25
X82.99Y-65.79
X82.99Y-68.33
X82.99Y-70.87
X82.99Y-73.41
X82.99Y-75.95
X82.99Y-78.49
X82.99Y-81.03
X82.99Y-83.57
X83.0Y-59.5
X83.25Y-52.25
X83.5Y-50.25
X84.99Y-21.75
X84.99Y-29.37
X84.99Y-31.91
X84.99Y-34.45
X85.0Y-60.25
X85.53Y-63.25
X85.53Y-65.79
X85.53Y-68.33
X85.53Y-70.87
X85.53Y-73.41
X85.53Y-75.95
X85.53Y-78.49
X85.53Y-81.03
X85.53Y-83.57
X87.53Y-21.75
X87.53Y-29.37
X87.53Y-31.91
X87.53Y-34.45
X87.75Y-60.5
X88.07Y-63.25
X88.07Y-65.79
X88.07Y-68.33
X88.07Y-70.87
X88.07Y-73.41
X88.07Y-75.95
X88.07Y-78.49
X88.07Y-81.03
X88.07Y-83.57
X88.34Y-56.536
X88.75Y-45.5
X89.25Y-49.0
X90.07Y-21.75
X90.07Y-21.75
X90.07Y-29.37
X90.07Y-31.91
X90.07Y-34.45
X90.61Y-63.25
X90.61Y-65.79
X90.61Y-68.33
X90.61Y-70.87
X90.61Y-73.41
X90.61Y-75.95
X90.61Y-78.49
X90.61Y-81.03
X90.61Y-83.57
X91.26Y-46.084
X92.5Y-58.25
X92.61Y-21.75
X92.61Y-24.29
X92.61Y-26.83
X92.61Y-29.37
X92.61Y-31.91
X92.61Y-34.45
X92.75Y-55.75
X93.15Y-63.25
X93.15Y-65.79
X93.15Y-68.33
X93.15Y-70.87
X93.15Y-73.41
X93.15Y-75.95
X93.15Y-78.49
X93.15Y-81.03
X93.15Y-83.57
X93.5Y-42.25
X93.5Y-44.75
X95.15Y-21.75
X95.15Y-24.29
X95.15Y-26.83
X95.15Y-29.37
X95.15Y-31.91
X95.15Y-34.45
X95.69Y-63.25
X95.69Y-65.79
X95.69Y-68.33
X95.69Y-70.87
X95.69Y-73.41
X95.69Y-75.95
X95.69Y-78.49
X95.69Y-81.03
X95.69Y-83.57
X96.25Y-44.75
X97.0Y-72.0
X97.0Y-74.54
X97.0Y-77.08
X97.0Y-79.62
X97.0Y-82.16
X97.69Y-21.75
X97.69Y-24.29
X97.69Y-26.83
X97.69Y-29.37
X97.69Y-31.91
X97.69Y-34.45
X98.25Y-52.75
X99.54Y-72.0
X99.54Y-74.54
X99.54Y-77.08
X99.54Y-79.62
X99.54Y-82.16
X100.23Y-21.75
X100.23Y-24.29
X100.23Y-26.83
X100.23Y-29.37
X100.23Y-31.91
X100.23Y-34.45
X100.23Y-36.99
X102.08Y-72.0
X102.08Y-74.54
X102.08Y-77.08
X102.08Y-79.62
X102.08Y-82.16
X102.77Y-21.75
X102.77Y-24.29
X102.77Y-26.83
X102.77Y-29.37
X102.77Y-31.91
X102.77Y-34.45
X104.62Y-72.0
X104.62Y-74.54
X104.62Y-77.08
X104.62Y-79.62
X104.62Y-82.16
X105.0Y-60.75
X105.25Y-50.75
X105.25Y-65.0
X105.31Y-21.75
X105.31Y-24.29
X105.31Y-26.83
X105.31Y-29.37
X105.31Y-31.91
X105.31Y-34.45
X105.31Y-36.99
X107.0Y-58.393
X107.16Y-72.0
X107.16Y-74.54
X107.16Y-77.08
X107.16Y-79.62
X107.16Y-82.16
X107.25Y-60.25
X107.85Y-21.75
X107.85Y-24.29
X107.85Y-26.83
X107.85Y-29.37
X107.85Y-31.91
X107.85Y-34.45
X107.85Y-36.99
X108.75Y-55.75
X109.7Y-72.0
X109.7Y-74.54
X109.7Y-77.08
X109.7Y-79.62
X109.7Y-82.16
X109.75Y-40.5
X109.75Y-41.75
X109.75Y-43.25
X109.75Y-45.0
X109.75Y-46.5
X109.75Y-57.5
X110.39Y-21.75
X110.39Y-24.29
X110.39Y-26.83
X110.39Y-29.37
X110.39Y-31.91
X110.39Y-34.45
X110.39Y-36.99
X111.0Y-59.0
X111.25Y-40.5
X111.25Y-41.75
X111.25Y-43.25
X111.25Y-45.0
X111.25Y-46.5
X112.24Y-72.0
X112.24Y-74.54
X112.24Y-77.08
X112.24Y-79.62
X112.24Y-82.16
X112.75Y-40.5
X112.75Y-41.75
X112.75Y-46.5
X112.93Y-21.75
X112.93Y-24.29
X112.93Y-26.83
X112.93Y-29.37
X112.93Y-31.91
X112.93Y-34.45
X113.0Y-49.0
X114.25Y-40.5
X114.25Y-41.75
X114.25Y-46.5
X114.25Y-55.75
X114.5Y-57.5
X114.78Y-72.0
X114.78Y-74.54
X114.78Y-77.08
X114.78Y-79.62
X114.78Y-82.16
X115.47Y-21.75
X115.47Y-24.29
X115.47Y-26.83
X115.47Y-29.37
X115.47Y-31.91
X115.47Y-34.45
X115.5Y-40.5
X115.5Y-41.75
X115.5Y-46.5
X116.25Y-50.25
X116.75Y-40.5
X116.75Y-41.75
X116.75Y-43.25
X116.75Y-45.0
X116.75Y-46.5
X117.32Y-72.0
X117.32Y-74.54
X117.32Y-77.08
X117.32Y-79.62
X117.32Y-82.16
X118.01Y-21.75
X118.01Y-24.29
X118.01Y-26.83
X118.01Y-29.37
X118.01Y-31.91
X118.01Y-34.45
X118.01Y-36.99
X118.25Y-40.5
X118.25Y-41.75
X118.25Y-43.25
X118.25Y-45.0
X118.25Y-46.5
X108.193Y-62.312
X108.193Y-64.688
X110.25Y-61.125
X110.25Y-65.875
X112.307Y-62.312
X112.307Y-64.688
X46.943Y-44.812
X46.943Y-47.188
X49.0Y-43.625
X49.0Y-48.375
X51.057Y-44.812
X51.057Y-47.188
T2
X73.96Y-24.97
X73.96Y-26.23
X74.71Y-23.94
X74.71Y-27.26
X75.91Y-23.55
X75.91Y-27.65
X77.24Y-23.55
X77.24Y-27.65
X78.58Y-23.55
X78.58Y-27.65
X79.91Y-23.55
X79.91Y-27.65
X81.11Y-23.94
X81.11Y-27.26
X81.86Y-24.97
X81.86Y-26.23
X83.96Y-24.97
X83.96Y-26.23
X84.71Y-23.94
X84.71Y-27.26
X85.91Y-23.55
X85.91Y-27.65
X87.24Y-23.55
X87.24Y-27.65
X88.58Y-23.55
X88.58Y-27.65
X89.91Y-23.55
X89.91Y-27.65
X91.11Y-23.94
X91.11Y-27.26
X91.86Y-24.97
X91.86Y-26.23
T3
X42.5Y-43.75
X42.5Y-46.25
X81.0Y-47.0
X82.91Y-47.0
X84.82Y-47.0
T4
X103.25Y-37.75
X103.25Y-42.75
T5
X28.25Y-65.5
X28.25Y-69.31
X28.25Y-73.12
X28.25Y-76.93
T7
X110.25Y-63.5
X49.0Y-46.0
T6
G00X75.91Y-25.6
M15
G01X79.91Y-25.6
M16
G05
G00X85.91Y-25.6
M15
G01X89.91Y-25.6
M16
G05
T0
M30
