%TF.GenerationSoftware,KiCad,Pcbnew,(5.1.4)-1*%
%TF.CreationDate,2021-05-17T23:16:04+08:00*%
%TF.ProjectId,power,706f7765-722e-46b6-9963-61645f706362,rev?*%
%TF.SameCoordinates,Original*%
%TF.FileFunction,Soldermask,Top*%
%TF.FilePolarity,Negative*%
%FSLAX46Y46*%
G04 Gerber Fmt 4.6, Leading zero omitted, Abs format (unit mm)*
G04 Created by KiCad (PCBNEW (5.1.4)-1) date 2021-05-17 23:16:04*
%MOMM*%
%LPD*%
G04 APERTURE LIST*
%ADD10C,0.350000*%
G04 APERTURE END LIST*
D10*
G36*
X116051000Y-83301000D02*
G01*
X107949000Y-83301000D01*
X107949000Y-72199000D01*
X116051000Y-72199000D01*
X116051000Y-83301000D01*
X116051000Y-83301000D01*
G37*
G36*
X106051000Y-83301000D02*
G01*
X97949000Y-83301000D01*
X97949000Y-72199000D01*
X106051000Y-72199000D01*
X106051000Y-83301000D01*
X106051000Y-83301000D01*
G37*
G36*
X50631000Y-82676000D02*
G01*
X49369000Y-82676000D01*
X49369000Y-81104000D01*
X50631000Y-81104000D01*
X50631000Y-82676000D01*
X50631000Y-82676000D01*
G37*
G36*
X52411000Y-82676000D02*
G01*
X51149000Y-82676000D01*
X51149000Y-81104000D01*
X52411000Y-81104000D01*
X52411000Y-82676000D01*
X52411000Y-82676000D01*
G37*
G36*
X40926000Y-82601000D02*
G01*
X39574000Y-82601000D01*
X39574000Y-81799000D01*
X40926000Y-81799000D01*
X40926000Y-82601000D01*
X40926000Y-82601000D01*
G37*
G36*
X43786000Y-82521000D02*
G01*
X42214000Y-82521000D01*
X42214000Y-81259000D01*
X43786000Y-81259000D01*
X43786000Y-82521000D01*
X43786000Y-82521000D01*
G37*
G36*
X47286000Y-82521000D02*
G01*
X45714000Y-82521000D01*
X45714000Y-81259000D01*
X47286000Y-81259000D01*
X47286000Y-82521000D01*
X47286000Y-82521000D01*
G37*
G36*
X94301000Y-82051000D02*
G01*
X83199000Y-82051000D01*
X83199000Y-73949000D01*
X94301000Y-73949000D01*
X94301000Y-82051000D01*
X94301000Y-82051000D01*
G37*
G36*
X79151000Y-82051000D02*
G01*
X68049000Y-82051000D01*
X68049000Y-73949000D01*
X79151000Y-73949000D01*
X79151000Y-82051000D01*
X79151000Y-82051000D01*
G37*
G36*
X38426000Y-81651000D02*
G01*
X37074000Y-81651000D01*
X37074000Y-80849000D01*
X38426000Y-80849000D01*
X38426000Y-81651000D01*
X38426000Y-81651000D01*
G37*
G36*
X35021000Y-81536000D02*
G01*
X33759000Y-81536000D01*
X33759000Y-79964000D01*
X35021000Y-79964000D01*
X35021000Y-81536000D01*
X35021000Y-81536000D01*
G37*
G36*
X33241000Y-81536000D02*
G01*
X31979000Y-81536000D01*
X31979000Y-79964000D01*
X33241000Y-79964000D01*
X33241000Y-81536000D01*
X33241000Y-81536000D01*
G37*
G36*
X43786000Y-80741000D02*
G01*
X42214000Y-80741000D01*
X42214000Y-79479000D01*
X43786000Y-79479000D01*
X43786000Y-80741000D01*
X43786000Y-80741000D01*
G37*
G36*
X47286000Y-80741000D02*
G01*
X45714000Y-80741000D01*
X45714000Y-79479000D01*
X47286000Y-79479000D01*
X47286000Y-80741000D01*
X47286000Y-80741000D01*
G37*
G36*
X40926000Y-80701000D02*
G01*
X39574000Y-80701000D01*
X39574000Y-79899000D01*
X40926000Y-79899000D01*
X40926000Y-80701000D01*
X40926000Y-80701000D01*
G37*
G36*
X29336425Y-75992760D02*
G01*
X29336428Y-75992761D01*
X29336429Y-75992761D01*
X29515693Y-76047140D01*
X29515696Y-76047142D01*
X29515697Y-76047142D01*
X29680903Y-76135446D01*
X29825712Y-76254288D01*
X29944554Y-76399097D01*
X30032858Y-76564303D01*
X30032860Y-76564307D01*
X30087239Y-76743571D01*
X30087240Y-76743575D01*
X30105601Y-76930000D01*
X30087240Y-77116425D01*
X30087239Y-77116428D01*
X30087239Y-77116429D01*
X30032860Y-77295693D01*
X30032858Y-77295696D01*
X30032858Y-77295697D01*
X29944554Y-77460903D01*
X29825712Y-77605712D01*
X29680903Y-77724554D01*
X29515697Y-77812858D01*
X29515693Y-77812860D01*
X29336429Y-77867239D01*
X29336428Y-77867239D01*
X29336425Y-77867240D01*
X29196718Y-77881000D01*
X27303282Y-77881000D01*
X27163575Y-77867240D01*
X27163572Y-77867239D01*
X27163571Y-77867239D01*
X26984307Y-77812860D01*
X26984303Y-77812858D01*
X26819097Y-77724554D01*
X26674288Y-77605712D01*
X26555446Y-77460903D01*
X26467142Y-77295697D01*
X26467142Y-77295696D01*
X26467140Y-77295693D01*
X26412761Y-77116429D01*
X26412761Y-77116428D01*
X26412760Y-77116425D01*
X26394399Y-76930000D01*
X26412760Y-76743575D01*
X26412761Y-76743571D01*
X26467140Y-76564307D01*
X26467142Y-76564303D01*
X26555446Y-76399097D01*
X26674288Y-76254288D01*
X26819097Y-76135446D01*
X26984303Y-76047142D01*
X26984304Y-76047142D01*
X26984307Y-76047140D01*
X27163571Y-75992761D01*
X27163572Y-75992761D01*
X27163575Y-75992760D01*
X27303282Y-75979000D01*
X29196718Y-75979000D01*
X29336425Y-75992760D01*
X29336425Y-75992760D01*
G37*
G36*
X56521000Y-77786000D02*
G01*
X55259000Y-77786000D01*
X55259000Y-76214000D01*
X56521000Y-76214000D01*
X56521000Y-77786000D01*
X56521000Y-77786000D01*
G37*
G36*
X54741000Y-77786000D02*
G01*
X53479000Y-77786000D01*
X53479000Y-76214000D01*
X54741000Y-76214000D01*
X54741000Y-77786000D01*
X54741000Y-77786000D01*
G37*
G36*
X47491000Y-77536000D02*
G01*
X46229000Y-77536000D01*
X46229000Y-75964000D01*
X47491000Y-75964000D01*
X47491000Y-77536000D01*
X47491000Y-77536000D01*
G37*
G36*
X49271000Y-77536000D02*
G01*
X48009000Y-77536000D01*
X48009000Y-75964000D01*
X49271000Y-75964000D01*
X49271000Y-77536000D01*
X49271000Y-77536000D01*
G37*
G36*
X45286000Y-77271000D02*
G01*
X43714000Y-77271000D01*
X43714000Y-76009000D01*
X45286000Y-76009000D01*
X45286000Y-77271000D01*
X45286000Y-77271000D01*
G37*
G36*
X37036000Y-77271000D02*
G01*
X35464000Y-77271000D01*
X35464000Y-76009000D01*
X37036000Y-76009000D01*
X37036000Y-77271000D01*
X37036000Y-77271000D01*
G37*
G36*
X42536000Y-77271000D02*
G01*
X40964000Y-77271000D01*
X40964000Y-76009000D01*
X42536000Y-76009000D01*
X42536000Y-77271000D01*
X42536000Y-77271000D01*
G37*
G36*
X39786000Y-77271000D02*
G01*
X38214000Y-77271000D01*
X38214000Y-76009000D01*
X39786000Y-76009000D01*
X39786000Y-77271000D01*
X39786000Y-77271000D01*
G37*
G36*
X33286000Y-76771000D02*
G01*
X31714000Y-76771000D01*
X31714000Y-75509000D01*
X33286000Y-75509000D01*
X33286000Y-76771000D01*
X33286000Y-76771000D01*
G37*
G36*
X45286000Y-75491000D02*
G01*
X43714000Y-75491000D01*
X43714000Y-74229000D01*
X45286000Y-74229000D01*
X45286000Y-75491000D01*
X45286000Y-75491000D01*
G37*
G36*
X42536000Y-75491000D02*
G01*
X40964000Y-75491000D01*
X40964000Y-74229000D01*
X42536000Y-74229000D01*
X42536000Y-75491000D01*
X42536000Y-75491000D01*
G37*
G36*
X39786000Y-75491000D02*
G01*
X38214000Y-75491000D01*
X38214000Y-74229000D01*
X39786000Y-74229000D01*
X39786000Y-75491000D01*
X39786000Y-75491000D01*
G37*
G36*
X37036000Y-75491000D02*
G01*
X35464000Y-75491000D01*
X35464000Y-74229000D01*
X37036000Y-74229000D01*
X37036000Y-75491000D01*
X37036000Y-75491000D01*
G37*
G36*
X62536000Y-75271000D02*
G01*
X60964000Y-75271000D01*
X60964000Y-74009000D01*
X62536000Y-74009000D01*
X62536000Y-75271000D01*
X62536000Y-75271000D01*
G37*
G36*
X57036000Y-75271000D02*
G01*
X55464000Y-75271000D01*
X55464000Y-74009000D01*
X57036000Y-74009000D01*
X57036000Y-75271000D01*
X57036000Y-75271000D01*
G37*
G36*
X54536000Y-75271000D02*
G01*
X52964000Y-75271000D01*
X52964000Y-74009000D01*
X54536000Y-74009000D01*
X54536000Y-75271000D01*
X54536000Y-75271000D01*
G37*
G36*
X59786000Y-75271000D02*
G01*
X58214000Y-75271000D01*
X58214000Y-74009000D01*
X59786000Y-74009000D01*
X59786000Y-75271000D01*
X59786000Y-75271000D01*
G37*
G36*
X33286000Y-74991000D02*
G01*
X31714000Y-74991000D01*
X31714000Y-73729000D01*
X33286000Y-73729000D01*
X33286000Y-74991000D01*
X33286000Y-74991000D01*
G37*
G36*
X49876000Y-74741000D02*
G01*
X48124000Y-74741000D01*
X48124000Y-72259000D01*
X49876000Y-72259000D01*
X49876000Y-74741000D01*
X49876000Y-74741000D01*
G37*
G36*
X51975000Y-74700000D02*
G01*
X50425000Y-74700000D01*
X50425000Y-72300000D01*
X51975000Y-72300000D01*
X51975000Y-74700000D01*
X51975000Y-74700000D01*
G37*
G36*
X47575000Y-74700000D02*
G01*
X46025000Y-74700000D01*
X46025000Y-72300000D01*
X47575000Y-72300000D01*
X47575000Y-74700000D01*
X47575000Y-74700000D01*
G37*
G36*
X29336425Y-72182760D02*
G01*
X29336428Y-72182761D01*
X29336429Y-72182761D01*
X29515693Y-72237140D01*
X29515696Y-72237142D01*
X29515697Y-72237142D01*
X29680903Y-72325446D01*
X29825712Y-72444288D01*
X29944554Y-72589097D01*
X30032858Y-72754303D01*
X30032860Y-72754307D01*
X30087239Y-72933571D01*
X30087240Y-72933575D01*
X30105601Y-73120000D01*
X30087240Y-73306425D01*
X30087239Y-73306428D01*
X30087239Y-73306429D01*
X30032860Y-73485693D01*
X30032858Y-73485696D01*
X30032858Y-73485697D01*
X29944554Y-73650903D01*
X29825712Y-73795712D01*
X29680903Y-73914554D01*
X29515697Y-74002858D01*
X29515693Y-74002860D01*
X29336429Y-74057239D01*
X29336428Y-74057239D01*
X29336425Y-74057240D01*
X29196718Y-74071000D01*
X27303282Y-74071000D01*
X27163575Y-74057240D01*
X27163572Y-74057239D01*
X27163571Y-74057239D01*
X26984307Y-74002860D01*
X26984303Y-74002858D01*
X26819097Y-73914554D01*
X26674288Y-73795712D01*
X26555446Y-73650903D01*
X26467142Y-73485697D01*
X26467142Y-73485696D01*
X26467140Y-73485693D01*
X26412761Y-73306429D01*
X26412761Y-73306428D01*
X26412760Y-73306425D01*
X26394399Y-73120000D01*
X26412760Y-72933575D01*
X26412761Y-72933571D01*
X26467140Y-72754307D01*
X26467142Y-72754303D01*
X26555446Y-72589097D01*
X26674288Y-72444288D01*
X26819097Y-72325446D01*
X26984303Y-72237142D01*
X26984304Y-72237142D01*
X26984307Y-72237140D01*
X27163571Y-72182761D01*
X27163572Y-72182761D01*
X27163575Y-72182760D01*
X27303282Y-72169000D01*
X29196718Y-72169000D01*
X29336425Y-72182760D01*
X29336425Y-72182760D01*
G37*
G36*
X59786000Y-73491000D02*
G01*
X58214000Y-73491000D01*
X58214000Y-72229000D01*
X59786000Y-72229000D01*
X59786000Y-73491000D01*
X59786000Y-73491000D01*
G37*
G36*
X57036000Y-73491000D02*
G01*
X55464000Y-73491000D01*
X55464000Y-72229000D01*
X57036000Y-72229000D01*
X57036000Y-73491000D01*
X57036000Y-73491000D01*
G37*
G36*
X62536000Y-73491000D02*
G01*
X60964000Y-73491000D01*
X60964000Y-72229000D01*
X62536000Y-72229000D01*
X62536000Y-73491000D01*
X62536000Y-73491000D01*
G37*
G36*
X54536000Y-73491000D02*
G01*
X52964000Y-73491000D01*
X52964000Y-72229000D01*
X54536000Y-72229000D01*
X54536000Y-73491000D01*
X54536000Y-73491000D01*
G37*
G36*
X39661000Y-73131000D02*
G01*
X36839000Y-73131000D01*
X36839000Y-71869000D01*
X39661000Y-71869000D01*
X39661000Y-73131000D01*
X39661000Y-73131000D01*
G37*
G36*
X42701000Y-73106000D02*
G01*
X40799000Y-73106000D01*
X40799000Y-71874000D01*
X42701000Y-71874000D01*
X42701000Y-73106000D01*
X42701000Y-73106000D01*
G37*
G36*
X45286000Y-72521000D02*
G01*
X43714000Y-72521000D01*
X43714000Y-71259000D01*
X45286000Y-71259000D01*
X45286000Y-72521000D01*
X45286000Y-72521000D01*
G37*
G36*
X94301000Y-72051000D02*
G01*
X83199000Y-72051000D01*
X83199000Y-63949000D01*
X94301000Y-63949000D01*
X94301000Y-72051000D01*
X94301000Y-72051000D01*
G37*
G36*
X79151000Y-72051000D02*
G01*
X68049000Y-72051000D01*
X68049000Y-63949000D01*
X79151000Y-63949000D01*
X79151000Y-72051000D01*
X79151000Y-72051000D01*
G37*
G36*
X33286000Y-71271000D02*
G01*
X31714000Y-71271000D01*
X31714000Y-70009000D01*
X33286000Y-70009000D01*
X33286000Y-71271000D01*
X33286000Y-71271000D01*
G37*
G36*
X62536000Y-71021000D02*
G01*
X60964000Y-71021000D01*
X60964000Y-69759000D01*
X62536000Y-69759000D01*
X62536000Y-71021000D01*
X62536000Y-71021000D01*
G37*
G36*
X45286000Y-70741000D02*
G01*
X43714000Y-70741000D01*
X43714000Y-69479000D01*
X45286000Y-69479000D01*
X45286000Y-70741000D01*
X45286000Y-70741000D01*
G37*
G36*
X29336425Y-68372760D02*
G01*
X29336428Y-68372761D01*
X29336429Y-68372761D01*
X29515693Y-68427140D01*
X29515696Y-68427142D01*
X29515697Y-68427142D01*
X29680903Y-68515446D01*
X29825712Y-68634288D01*
X29944554Y-68779097D01*
X30019333Y-68919000D01*
X30032860Y-68944307D01*
X30087239Y-69123571D01*
X30087240Y-69123575D01*
X30105601Y-69310000D01*
X30087240Y-69496425D01*
X30087239Y-69496428D01*
X30087239Y-69496429D01*
X30032860Y-69675693D01*
X30032858Y-69675696D01*
X30032858Y-69675697D01*
X29944554Y-69840903D01*
X29825712Y-69985712D01*
X29680903Y-70104554D01*
X29515697Y-70192858D01*
X29515693Y-70192860D01*
X29336429Y-70247239D01*
X29336428Y-70247239D01*
X29336425Y-70247240D01*
X29196718Y-70261000D01*
X27303282Y-70261000D01*
X27163575Y-70247240D01*
X27163572Y-70247239D01*
X27163571Y-70247239D01*
X26984307Y-70192860D01*
X26984303Y-70192858D01*
X26819097Y-70104554D01*
X26674288Y-69985712D01*
X26555446Y-69840903D01*
X26467142Y-69675697D01*
X26467142Y-69675696D01*
X26467140Y-69675693D01*
X26412761Y-69496429D01*
X26412761Y-69496428D01*
X26412760Y-69496425D01*
X26394399Y-69310000D01*
X26412760Y-69123575D01*
X26412761Y-69123571D01*
X26467140Y-68944307D01*
X26480667Y-68919000D01*
X26555446Y-68779097D01*
X26674288Y-68634288D01*
X26819097Y-68515446D01*
X26984303Y-68427142D01*
X26984304Y-68427142D01*
X26984307Y-68427140D01*
X27163571Y-68372761D01*
X27163572Y-68372761D01*
X27163575Y-68372760D01*
X27303282Y-68359000D01*
X29196718Y-68359000D01*
X29336425Y-68372760D01*
X29336425Y-68372760D01*
G37*
G36*
X101176000Y-70251000D02*
G01*
X98074000Y-70251000D01*
X98074000Y-68549000D01*
X101176000Y-68549000D01*
X101176000Y-70251000D01*
X101176000Y-70251000D01*
G37*
G36*
X39661000Y-70181000D02*
G01*
X36839000Y-70181000D01*
X36839000Y-68919000D01*
X39661000Y-68919000D01*
X39661000Y-70181000D01*
X39661000Y-70181000D01*
G37*
G36*
X42701000Y-70126000D02*
G01*
X40799000Y-70126000D01*
X40799000Y-68894000D01*
X42701000Y-68894000D01*
X42701000Y-70126000D01*
X42701000Y-70126000D01*
G37*
G36*
X58016500Y-69956000D02*
G01*
X55120500Y-69956000D01*
X55120500Y-66044000D01*
X58016500Y-66044000D01*
X58016500Y-69956000D01*
X58016500Y-69956000D01*
G37*
G36*
X50879500Y-69956000D02*
G01*
X47983500Y-69956000D01*
X47983500Y-66044000D01*
X50879500Y-66044000D01*
X50879500Y-69956000D01*
X50879500Y-69956000D01*
G37*
G36*
X107381000Y-69536000D02*
G01*
X106119000Y-69536000D01*
X106119000Y-67964000D01*
X107381000Y-67964000D01*
X107381000Y-69536000D01*
X107381000Y-69536000D01*
G37*
G36*
X109161000Y-69536000D02*
G01*
X107899000Y-69536000D01*
X107899000Y-67964000D01*
X109161000Y-67964000D01*
X109161000Y-69536000D01*
X109161000Y-69536000D01*
G37*
G36*
X33286000Y-69491000D02*
G01*
X31714000Y-69491000D01*
X31714000Y-68229000D01*
X33286000Y-68229000D01*
X33286000Y-69491000D01*
X33286000Y-69491000D01*
G37*
G36*
X62536000Y-69241000D02*
G01*
X60964000Y-69241000D01*
X60964000Y-67979000D01*
X62536000Y-67979000D01*
X62536000Y-69241000D01*
X62536000Y-69241000D01*
G37*
G36*
X104676000Y-67551000D02*
G01*
X99074000Y-67551000D01*
X99074000Y-66449000D01*
X104676000Y-66449000D01*
X104676000Y-67551000D01*
X104676000Y-67551000D01*
G37*
G36*
X38601000Y-67001000D02*
G01*
X36899000Y-67001000D01*
X36899000Y-63399000D01*
X38601000Y-63399000D01*
X38601000Y-67001000D01*
X38601000Y-67001000D01*
G37*
G36*
X111139943Y-60566248D02*
G01*
X111695189Y-60796238D01*
X111867497Y-60911371D01*
X112194899Y-61130134D01*
X112619866Y-61555101D01*
X112749425Y-61749000D01*
X112953762Y-62054811D01*
X113183752Y-62610057D01*
X113301000Y-63199501D01*
X113301000Y-63800499D01*
X113183752Y-64389943D01*
X112953762Y-64945189D01*
X112891872Y-65037814D01*
X112619866Y-65444899D01*
X112194899Y-65869866D01*
X112120736Y-65919420D01*
X111695189Y-66203762D01*
X111139943Y-66433752D01*
X110550499Y-66551000D01*
X109949501Y-66551000D01*
X109360057Y-66433752D01*
X108804811Y-66203762D01*
X108379264Y-65919420D01*
X108305101Y-65869866D01*
X107880134Y-65444899D01*
X107608128Y-65037814D01*
X107546238Y-64945189D01*
X107316248Y-64389943D01*
X107199000Y-63800499D01*
X107199000Y-63199501D01*
X107316248Y-62610057D01*
X107546238Y-62054811D01*
X107750575Y-61749000D01*
X107880134Y-61555101D01*
X108305101Y-61130134D01*
X108632503Y-60911371D01*
X108804811Y-60796238D01*
X109360057Y-60566248D01*
X109949501Y-60449000D01*
X110550499Y-60449000D01*
X111139943Y-60566248D01*
X111139943Y-60566248D01*
G37*
G36*
X30101000Y-66451000D02*
G01*
X26399000Y-66451000D01*
X26399000Y-64549000D01*
X30101000Y-64549000D01*
X30101000Y-66451000D01*
X30101000Y-66451000D01*
G37*
G36*
X33286000Y-66121000D02*
G01*
X31714000Y-66121000D01*
X31714000Y-64859000D01*
X33286000Y-64859000D01*
X33286000Y-66121000D01*
X33286000Y-66121000D01*
G37*
G36*
X104676000Y-65551000D02*
G01*
X99074000Y-65551000D01*
X99074000Y-64449000D01*
X104676000Y-64449000D01*
X104676000Y-65551000D01*
X104676000Y-65551000D01*
G37*
G36*
X33286000Y-64341000D02*
G01*
X31714000Y-64341000D01*
X31714000Y-63079000D01*
X33286000Y-63079000D01*
X33286000Y-64341000D01*
X33286000Y-64341000D01*
G37*
G36*
X101176000Y-63451000D02*
G01*
X98074000Y-63451000D01*
X98074000Y-61749000D01*
X101176000Y-61749000D01*
X101176000Y-63451000D01*
X101176000Y-63451000D01*
G37*
G36*
X91771000Y-61921011D02*
G01*
X90509000Y-61921011D01*
X90509000Y-60349011D01*
X91771000Y-60349011D01*
X91771000Y-61921011D01*
X91771000Y-61921011D01*
G37*
G36*
X89991000Y-61921011D02*
G01*
X88729000Y-61921011D01*
X88729000Y-60349011D01*
X89991000Y-60349011D01*
X89991000Y-61921011D01*
X89991000Y-61921011D01*
G37*
G36*
X38601000Y-61601000D02*
G01*
X36899000Y-61601000D01*
X36899000Y-57999000D01*
X38601000Y-57999000D01*
X38601000Y-61601000D01*
X38601000Y-61601000D01*
G37*
G36*
X94241000Y-61536000D02*
G01*
X92979000Y-61536000D01*
X92979000Y-59964000D01*
X94241000Y-59964000D01*
X94241000Y-61536000D01*
X94241000Y-61536000D01*
G37*
G36*
X96021000Y-61536000D02*
G01*
X94759000Y-61536000D01*
X94759000Y-59964000D01*
X96021000Y-59964000D01*
X96021000Y-61536000D01*
X96021000Y-61536000D01*
G37*
G36*
X63671000Y-60386000D02*
G01*
X62409000Y-60386000D01*
X62409000Y-58814000D01*
X63671000Y-58814000D01*
X63671000Y-60386000D01*
X63671000Y-60386000D01*
G37*
G36*
X61891000Y-60386000D02*
G01*
X60629000Y-60386000D01*
X60629000Y-58814000D01*
X61891000Y-58814000D01*
X61891000Y-60386000D01*
X61891000Y-60386000D01*
G37*
G36*
X68421000Y-60386000D02*
G01*
X67159000Y-60386000D01*
X67159000Y-58814000D01*
X68421000Y-58814000D01*
X68421000Y-60386000D01*
X68421000Y-60386000D01*
G37*
G36*
X66641000Y-60386000D02*
G01*
X65379000Y-60386000D01*
X65379000Y-58814000D01*
X66641000Y-58814000D01*
X66641000Y-60386000D01*
X66641000Y-60386000D01*
G37*
G36*
X57251000Y-60251000D02*
G01*
X53249000Y-60251000D01*
X53249000Y-54749000D01*
X57251000Y-54749000D01*
X57251000Y-60251000D01*
X57251000Y-60251000D01*
G37*
G36*
X45251000Y-60251000D02*
G01*
X41249000Y-60251000D01*
X41249000Y-54749000D01*
X45251000Y-54749000D01*
X45251000Y-60251000D01*
X45251000Y-60251000D01*
G37*
G36*
X74426000Y-60251000D02*
G01*
X71324000Y-60251000D01*
X71324000Y-58549000D01*
X74426000Y-58549000D01*
X74426000Y-60251000D01*
X74426000Y-60251000D01*
G37*
G36*
X101226000Y-60051000D02*
G01*
X98124000Y-60051000D01*
X98124000Y-58349000D01*
X101226000Y-58349000D01*
X101226000Y-60051000D01*
X101226000Y-60051000D01*
G37*
G36*
X24536000Y-59521000D02*
G01*
X22964000Y-59521000D01*
X22964000Y-58259000D01*
X24536000Y-58259000D01*
X24536000Y-59521000D01*
X24536000Y-59521000D01*
G37*
G36*
X91771000Y-59286000D02*
G01*
X90509000Y-59286000D01*
X90509000Y-57714000D01*
X91771000Y-57714000D01*
X91771000Y-59286000D01*
X91771000Y-59286000D01*
G37*
G36*
X89991000Y-59286000D02*
G01*
X88729000Y-59286000D01*
X88729000Y-57714000D01*
X89991000Y-57714000D01*
X89991000Y-59286000D01*
X89991000Y-59286000D01*
G37*
G36*
X87521000Y-59286000D02*
G01*
X86259000Y-59286000D01*
X86259000Y-57714000D01*
X87521000Y-57714000D01*
X87521000Y-59286000D01*
X87521000Y-59286000D01*
G37*
G36*
X85741000Y-59286000D02*
G01*
X84479000Y-59286000D01*
X84479000Y-57714000D01*
X85741000Y-57714000D01*
X85741000Y-59286000D01*
X85741000Y-59286000D01*
G37*
G36*
X94751000Y-59151000D02*
G01*
X93649000Y-59151000D01*
X93649000Y-57799000D01*
X94751000Y-57799000D01*
X94751000Y-59151000D01*
X94751000Y-59151000D01*
G37*
G36*
X111991000Y-58286000D02*
G01*
X110729000Y-58286000D01*
X110729000Y-56714000D01*
X111991000Y-56714000D01*
X111991000Y-58286000D01*
X111991000Y-58286000D01*
G37*
G36*
X113771000Y-58286000D02*
G01*
X112509000Y-58286000D01*
X112509000Y-56714000D01*
X113771000Y-56714000D01*
X113771000Y-58286000D01*
X113771000Y-58286000D01*
G37*
G36*
X80491000Y-57786000D02*
G01*
X79229000Y-57786000D01*
X79229000Y-56214000D01*
X80491000Y-56214000D01*
X80491000Y-57786000D01*
X80491000Y-57786000D01*
G37*
G36*
X82271000Y-57786000D02*
G01*
X81009000Y-57786000D01*
X81009000Y-56214000D01*
X82271000Y-56214000D01*
X82271000Y-57786000D01*
X82271000Y-57786000D01*
G37*
G36*
X109021000Y-57786000D02*
G01*
X107759000Y-57786000D01*
X107759000Y-56214000D01*
X109021000Y-56214000D01*
X109021000Y-57786000D01*
X109021000Y-57786000D01*
G37*
G36*
X107241000Y-57786000D02*
G01*
X105979000Y-57786000D01*
X105979000Y-56214000D01*
X107241000Y-56214000D01*
X107241000Y-57786000D01*
X107241000Y-57786000D01*
G37*
G36*
X24536000Y-57741000D02*
G01*
X22964000Y-57741000D01*
X22964000Y-56479000D01*
X24536000Y-56479000D01*
X24536000Y-57741000D01*
X24536000Y-57741000D01*
G37*
G36*
X77926000Y-57551000D02*
G01*
X72324000Y-57551000D01*
X72324000Y-56449000D01*
X77926000Y-56449000D01*
X77926000Y-57551000D01*
X77926000Y-57551000D01*
G37*
G36*
X68420999Y-57386000D02*
G01*
X67158999Y-57386000D01*
X67158999Y-55814000D01*
X68420999Y-55814000D01*
X68420999Y-57386000D01*
X68420999Y-57386000D01*
G37*
G36*
X61891000Y-57386000D02*
G01*
X60629000Y-57386000D01*
X60629000Y-55814000D01*
X61891000Y-55814000D01*
X61891000Y-57386000D01*
X61891000Y-57386000D01*
G37*
G36*
X63671000Y-57386000D02*
G01*
X62409000Y-57386000D01*
X62409000Y-55814000D01*
X63671000Y-55814000D01*
X63671000Y-57386000D01*
X63671000Y-57386000D01*
G37*
G36*
X66640999Y-57386000D02*
G01*
X65378999Y-57386000D01*
X65378999Y-55814000D01*
X66640999Y-55814000D01*
X66640999Y-57386000D01*
X66640999Y-57386000D01*
G37*
G36*
X104726000Y-57351000D02*
G01*
X99124000Y-57351000D01*
X99124000Y-56249000D01*
X104726000Y-56249000D01*
X104726000Y-57351000D01*
X104726000Y-57351000D01*
G37*
G36*
X90663610Y-54904802D02*
G01*
X90714002Y-54920089D01*
X90739199Y-54927732D01*
X90808862Y-54964968D01*
X90869922Y-55015078D01*
X90920032Y-55076138D01*
X90957268Y-55145801D01*
X90957268Y-55145802D01*
X90980198Y-55221390D01*
X90986000Y-55280302D01*
X90986000Y-56419698D01*
X90980198Y-56478610D01*
X90964911Y-56529002D01*
X90957268Y-56554199D01*
X90920032Y-56623862D01*
X90869922Y-56684922D01*
X90808860Y-56735033D01*
X90739200Y-56772267D01*
X90739197Y-56772268D01*
X90663609Y-56795198D01*
X90585000Y-56802940D01*
X90506390Y-56795198D01*
X90455998Y-56779911D01*
X90430801Y-56772268D01*
X90361138Y-56735032D01*
X90300078Y-56684922D01*
X90249967Y-56623860D01*
X90212733Y-56554200D01*
X90189921Y-56479000D01*
X90189802Y-56478609D01*
X90184000Y-56419697D01*
X90184001Y-55280302D01*
X90189803Y-55221390D01*
X90212733Y-55145802D01*
X90212733Y-55145801D01*
X90249969Y-55076138D01*
X90300079Y-55015078D01*
X90361139Y-54964968D01*
X90430802Y-54927732D01*
X90455999Y-54920089D01*
X90506391Y-54904802D01*
X90585000Y-54897060D01*
X90663610Y-54904802D01*
X90663610Y-54904802D01*
G37*
G36*
X91933610Y-54904802D02*
G01*
X91984002Y-54920089D01*
X92009199Y-54927732D01*
X92078862Y-54964968D01*
X92139922Y-55015078D01*
X92190032Y-55076138D01*
X92227268Y-55145801D01*
X92227268Y-55145802D01*
X92250198Y-55221390D01*
X92256000Y-55280302D01*
X92256000Y-56419698D01*
X92250198Y-56478610D01*
X92234911Y-56529002D01*
X92227268Y-56554199D01*
X92190032Y-56623862D01*
X92139922Y-56684922D01*
X92078860Y-56735033D01*
X92009200Y-56772267D01*
X92009197Y-56772268D01*
X91933609Y-56795198D01*
X91855000Y-56802940D01*
X91776390Y-56795198D01*
X91725998Y-56779911D01*
X91700801Y-56772268D01*
X91631138Y-56735032D01*
X91570078Y-56684922D01*
X91519967Y-56623860D01*
X91482733Y-56554200D01*
X91459921Y-56479000D01*
X91459802Y-56478609D01*
X91454000Y-56419697D01*
X91454001Y-55280302D01*
X91459803Y-55221390D01*
X91482733Y-55145802D01*
X91482733Y-55145801D01*
X91519969Y-55076138D01*
X91570079Y-55015078D01*
X91631139Y-54964968D01*
X91700802Y-54927732D01*
X91725999Y-54920089D01*
X91776391Y-54904802D01*
X91855000Y-54897060D01*
X91933610Y-54904802D01*
X91933610Y-54904802D01*
G37*
G36*
X88123610Y-54904802D02*
G01*
X88174002Y-54920089D01*
X88199199Y-54927732D01*
X88268862Y-54964968D01*
X88329922Y-55015078D01*
X88380032Y-55076138D01*
X88417268Y-55145801D01*
X88417268Y-55145802D01*
X88440198Y-55221390D01*
X88446000Y-55280302D01*
X88446000Y-56419698D01*
X88440198Y-56478610D01*
X88424911Y-56529002D01*
X88417268Y-56554199D01*
X88380032Y-56623862D01*
X88329922Y-56684922D01*
X88268860Y-56735033D01*
X88199200Y-56772267D01*
X88199197Y-56772268D01*
X88123609Y-56795198D01*
X88045000Y-56802940D01*
X87966390Y-56795198D01*
X87915998Y-56779911D01*
X87890801Y-56772268D01*
X87821138Y-56735032D01*
X87760078Y-56684922D01*
X87709967Y-56623860D01*
X87672733Y-56554200D01*
X87649921Y-56479000D01*
X87649802Y-56478609D01*
X87644000Y-56419697D01*
X87644001Y-55280302D01*
X87649803Y-55221390D01*
X87672733Y-55145802D01*
X87672733Y-55145801D01*
X87709969Y-55076138D01*
X87760079Y-55015078D01*
X87821139Y-54964968D01*
X87890802Y-54927732D01*
X87915999Y-54920089D01*
X87966391Y-54904802D01*
X88045000Y-54897060D01*
X88123610Y-54904802D01*
X88123610Y-54904802D01*
G37*
G36*
X89393610Y-54904802D02*
G01*
X89444002Y-54920089D01*
X89469199Y-54927732D01*
X89538862Y-54964968D01*
X89599922Y-55015078D01*
X89650032Y-55076138D01*
X89687268Y-55145801D01*
X89687268Y-55145802D01*
X89710198Y-55221390D01*
X89716000Y-55280302D01*
X89716000Y-56419698D01*
X89710198Y-56478610D01*
X89694911Y-56529002D01*
X89687268Y-56554199D01*
X89650032Y-56623862D01*
X89599922Y-56684922D01*
X89538860Y-56735033D01*
X89469200Y-56772267D01*
X89469197Y-56772268D01*
X89393609Y-56795198D01*
X89315000Y-56802940D01*
X89236390Y-56795198D01*
X89185998Y-56779911D01*
X89160801Y-56772268D01*
X89091138Y-56735032D01*
X89030078Y-56684922D01*
X88979967Y-56623860D01*
X88942733Y-56554200D01*
X88919921Y-56479000D01*
X88919802Y-56478609D01*
X88914000Y-56419697D01*
X88914001Y-55280302D01*
X88919803Y-55221390D01*
X88942733Y-55145802D01*
X88942733Y-55145801D01*
X88979969Y-55076138D01*
X89030079Y-55015078D01*
X89091139Y-54964968D01*
X89160802Y-54927732D01*
X89185999Y-54920089D01*
X89236391Y-54904802D01*
X89315000Y-54897060D01*
X89393610Y-54904802D01*
X89393610Y-54904802D01*
G37*
G36*
X85986000Y-56631000D02*
G01*
X84414000Y-56631000D01*
X84414000Y-55369000D01*
X85986000Y-55369000D01*
X85986000Y-56631000D01*
X85986000Y-56631000D01*
G37*
G36*
X94751000Y-56201000D02*
G01*
X93649000Y-56201000D01*
X93649000Y-54849000D01*
X94751000Y-54849000D01*
X94751000Y-56201000D01*
X94751000Y-56201000D01*
G37*
G36*
X77926000Y-55551000D02*
G01*
X72324000Y-55551000D01*
X72324000Y-54449000D01*
X77926000Y-54449000D01*
X77926000Y-55551000D01*
X77926000Y-55551000D01*
G37*
G36*
X104726000Y-55351000D02*
G01*
X99124000Y-55351000D01*
X99124000Y-54249000D01*
X104726000Y-54249000D01*
X104726000Y-55351000D01*
X104726000Y-55351000D01*
G37*
G36*
X116939335Y-54505934D02*
G01*
X116978610Y-54509802D01*
X117029002Y-54525089D01*
X117054199Y-54532732D01*
X117123862Y-54569968D01*
X117184922Y-54620078D01*
X117235032Y-54681138D01*
X117272268Y-54750801D01*
X117272268Y-54750802D01*
X117295198Y-54826390D01*
X117302940Y-54905000D01*
X117295198Y-54983610D01*
X117285652Y-55015078D01*
X117272268Y-55059199D01*
X117235032Y-55128862D01*
X117184922Y-55189922D01*
X117123862Y-55240032D01*
X117054199Y-55277268D01*
X117044200Y-55280301D01*
X116978610Y-55300198D01*
X116939335Y-55304066D01*
X116919699Y-55306000D01*
X115780301Y-55306000D01*
X115760665Y-55304066D01*
X115721390Y-55300198D01*
X115655800Y-55280301D01*
X115645801Y-55277268D01*
X115576138Y-55240032D01*
X115515078Y-55189922D01*
X115464968Y-55128862D01*
X115427732Y-55059199D01*
X115414348Y-55015078D01*
X115404802Y-54983610D01*
X115397060Y-54905000D01*
X115404802Y-54826390D01*
X115427732Y-54750802D01*
X115427732Y-54750801D01*
X115464968Y-54681138D01*
X115515078Y-54620078D01*
X115576138Y-54569968D01*
X115645801Y-54532732D01*
X115670998Y-54525089D01*
X115721390Y-54509802D01*
X115760665Y-54505934D01*
X115780301Y-54504000D01*
X116919699Y-54504000D01*
X116939335Y-54505934D01*
X116939335Y-54505934D01*
G37*
G36*
X111739335Y-54505934D02*
G01*
X111778610Y-54509802D01*
X111829002Y-54525089D01*
X111854199Y-54532732D01*
X111923862Y-54569968D01*
X111984922Y-54620078D01*
X112035032Y-54681138D01*
X112072268Y-54750801D01*
X112072268Y-54750802D01*
X112095198Y-54826390D01*
X112102940Y-54905000D01*
X112095198Y-54983610D01*
X112085652Y-55015078D01*
X112072268Y-55059199D01*
X112035032Y-55128862D01*
X111984922Y-55189922D01*
X111923862Y-55240032D01*
X111854199Y-55277268D01*
X111844200Y-55280301D01*
X111778610Y-55300198D01*
X111739335Y-55304066D01*
X111719699Y-55306000D01*
X110580301Y-55306000D01*
X110560665Y-55304066D01*
X110521390Y-55300198D01*
X110455800Y-55280301D01*
X110445801Y-55277268D01*
X110376138Y-55240032D01*
X110315078Y-55189922D01*
X110264968Y-55128862D01*
X110227732Y-55059199D01*
X110214348Y-55015078D01*
X110204802Y-54983610D01*
X110197060Y-54905000D01*
X110204802Y-54826390D01*
X110227732Y-54750802D01*
X110227732Y-54750801D01*
X110264968Y-54681138D01*
X110315078Y-54620078D01*
X110376138Y-54569968D01*
X110445801Y-54532732D01*
X110470998Y-54525089D01*
X110521390Y-54509802D01*
X110560665Y-54505934D01*
X110580301Y-54504000D01*
X111719699Y-54504000D01*
X111739335Y-54505934D01*
X111739335Y-54505934D01*
G37*
G36*
X109021000Y-55036000D02*
G01*
X107759000Y-55036000D01*
X107759000Y-53464000D01*
X109021000Y-53464000D01*
X109021000Y-55036000D01*
X109021000Y-55036000D01*
G37*
G36*
X107241000Y-55036000D02*
G01*
X105979000Y-55036000D01*
X105979000Y-53464000D01*
X107241000Y-53464000D01*
X107241000Y-55036000D01*
X107241000Y-55036000D01*
G37*
G36*
X85986000Y-54851000D02*
G01*
X84414000Y-54851000D01*
X84414000Y-53589000D01*
X85986000Y-53589000D01*
X85986000Y-54851000D01*
X85986000Y-54851000D01*
G37*
G36*
X80491000Y-54286000D02*
G01*
X79229000Y-54286000D01*
X79229000Y-52714000D01*
X80491000Y-52714000D01*
X80491000Y-54286000D01*
X80491000Y-54286000D01*
G37*
G36*
X82271000Y-54286000D02*
G01*
X81009000Y-54286000D01*
X81009000Y-52714000D01*
X82271000Y-52714000D01*
X82271000Y-54286000D01*
X82271000Y-54286000D01*
G37*
G36*
X24536000Y-54271000D02*
G01*
X22964000Y-54271000D01*
X22964000Y-53009000D01*
X24536000Y-53009000D01*
X24536000Y-54271000D01*
X24536000Y-54271000D01*
G37*
G36*
X116939335Y-53235934D02*
G01*
X116978610Y-53239802D01*
X117029002Y-53255089D01*
X117054199Y-53262732D01*
X117123862Y-53299968D01*
X117184922Y-53350078D01*
X117235032Y-53411138D01*
X117272268Y-53480801D01*
X117272268Y-53480802D01*
X117295198Y-53556390D01*
X117302940Y-53635000D01*
X117295198Y-53713610D01*
X117279911Y-53764002D01*
X117272268Y-53789199D01*
X117235032Y-53858862D01*
X117184922Y-53919922D01*
X117123862Y-53970032D01*
X117054199Y-54007268D01*
X117029002Y-54014911D01*
X116978610Y-54030198D01*
X116939335Y-54034066D01*
X116919699Y-54036000D01*
X115780301Y-54036000D01*
X115760665Y-54034066D01*
X115721390Y-54030198D01*
X115670998Y-54014911D01*
X115645801Y-54007268D01*
X115576138Y-53970032D01*
X115515078Y-53919922D01*
X115464968Y-53858862D01*
X115427732Y-53789199D01*
X115420089Y-53764002D01*
X115404802Y-53713610D01*
X115397060Y-53635000D01*
X115404802Y-53556390D01*
X115427732Y-53480802D01*
X115427732Y-53480801D01*
X115464968Y-53411138D01*
X115515078Y-53350078D01*
X115576138Y-53299968D01*
X115645801Y-53262732D01*
X115670998Y-53255089D01*
X115721390Y-53239802D01*
X115760665Y-53235934D01*
X115780301Y-53234000D01*
X116919699Y-53234000D01*
X116939335Y-53235934D01*
X116939335Y-53235934D01*
G37*
G36*
X111739335Y-53235934D02*
G01*
X111778610Y-53239802D01*
X111829002Y-53255089D01*
X111854199Y-53262732D01*
X111923862Y-53299968D01*
X111984922Y-53350078D01*
X112035032Y-53411138D01*
X112072268Y-53480801D01*
X112072268Y-53480802D01*
X112095198Y-53556390D01*
X112102940Y-53635000D01*
X112095198Y-53713610D01*
X112079911Y-53764002D01*
X112072268Y-53789199D01*
X112035032Y-53858862D01*
X111984922Y-53919922D01*
X111923862Y-53970032D01*
X111854199Y-54007268D01*
X111829002Y-54014911D01*
X111778610Y-54030198D01*
X111739335Y-54034066D01*
X111719699Y-54036000D01*
X110580301Y-54036000D01*
X110560665Y-54034066D01*
X110521390Y-54030198D01*
X110470998Y-54014911D01*
X110445801Y-54007268D01*
X110376138Y-53970032D01*
X110315078Y-53919922D01*
X110264968Y-53858862D01*
X110227732Y-53789199D01*
X110220089Y-53764002D01*
X110204802Y-53713610D01*
X110197060Y-53635000D01*
X110204802Y-53556390D01*
X110227732Y-53480802D01*
X110227732Y-53480801D01*
X110264968Y-53411138D01*
X110315078Y-53350078D01*
X110376138Y-53299968D01*
X110445801Y-53262732D01*
X110470998Y-53255089D01*
X110521390Y-53239802D01*
X110560665Y-53235934D01*
X110580301Y-53234000D01*
X111719699Y-53234000D01*
X111739335Y-53235934D01*
X111739335Y-53235934D01*
G37*
G36*
X94751000Y-53951000D02*
G01*
X93649000Y-53951000D01*
X93649000Y-52599000D01*
X94751000Y-52599000D01*
X94751000Y-53951000D01*
X94751000Y-53951000D01*
G37*
G36*
X77926000Y-53551000D02*
G01*
X72324000Y-53551000D01*
X72324000Y-52449000D01*
X77926000Y-52449000D01*
X77926000Y-53551000D01*
X77926000Y-53551000D01*
G37*
G36*
X61201000Y-53426000D02*
G01*
X59499000Y-53426000D01*
X59499000Y-50324000D01*
X61201000Y-50324000D01*
X61201000Y-53426000D01*
X61201000Y-53426000D01*
G37*
G36*
X68001000Y-53426000D02*
G01*
X66299000Y-53426000D01*
X66299000Y-50324000D01*
X68001000Y-50324000D01*
X68001000Y-53426000D01*
X68001000Y-53426000D01*
G37*
G36*
X104726000Y-53351000D02*
G01*
X99124000Y-53351000D01*
X99124000Y-52249000D01*
X104726000Y-52249000D01*
X104726000Y-53351000D01*
X104726000Y-53351000D01*
G37*
G36*
X116939335Y-51965934D02*
G01*
X116978610Y-51969802D01*
X117029002Y-51985089D01*
X117054199Y-51992732D01*
X117123862Y-52029968D01*
X117184922Y-52080078D01*
X117235032Y-52141138D01*
X117272268Y-52210801D01*
X117272268Y-52210802D01*
X117295198Y-52286390D01*
X117302940Y-52365000D01*
X117295198Y-52443610D01*
X117280822Y-52491000D01*
X117272268Y-52519199D01*
X117235032Y-52588862D01*
X117184922Y-52649922D01*
X117123862Y-52700032D01*
X117054199Y-52737268D01*
X117029002Y-52744911D01*
X116978610Y-52760198D01*
X116939335Y-52764066D01*
X116919699Y-52766000D01*
X115780301Y-52766000D01*
X115760665Y-52764066D01*
X115721390Y-52760198D01*
X115670998Y-52744911D01*
X115645801Y-52737268D01*
X115576138Y-52700032D01*
X115515078Y-52649922D01*
X115464968Y-52588862D01*
X115427732Y-52519199D01*
X115419178Y-52491000D01*
X115404802Y-52443610D01*
X115397060Y-52365000D01*
X115404802Y-52286390D01*
X115427732Y-52210802D01*
X115427732Y-52210801D01*
X115464968Y-52141138D01*
X115515078Y-52080078D01*
X115576138Y-52029968D01*
X115645801Y-51992732D01*
X115670998Y-51985089D01*
X115721390Y-51969802D01*
X115760665Y-51965934D01*
X115780301Y-51964000D01*
X116919699Y-51964000D01*
X116939335Y-51965934D01*
X116939335Y-51965934D01*
G37*
G36*
X111739335Y-51965934D02*
G01*
X111778610Y-51969802D01*
X111829002Y-51985089D01*
X111854199Y-51992732D01*
X111923862Y-52029968D01*
X111984922Y-52080078D01*
X112035032Y-52141138D01*
X112072268Y-52210801D01*
X112072268Y-52210802D01*
X112095198Y-52286390D01*
X112102940Y-52365000D01*
X112095198Y-52443610D01*
X112080822Y-52491000D01*
X112072268Y-52519199D01*
X112035032Y-52588862D01*
X111984922Y-52649922D01*
X111923862Y-52700032D01*
X111854199Y-52737268D01*
X111829002Y-52744911D01*
X111778610Y-52760198D01*
X111739335Y-52764066D01*
X111719699Y-52766000D01*
X110580301Y-52766000D01*
X110560665Y-52764066D01*
X110521390Y-52760198D01*
X110470998Y-52744911D01*
X110445801Y-52737268D01*
X110376138Y-52700032D01*
X110315078Y-52649922D01*
X110264968Y-52588862D01*
X110227732Y-52519199D01*
X110219178Y-52491000D01*
X110204802Y-52443610D01*
X110197060Y-52365000D01*
X110204802Y-52286390D01*
X110227732Y-52210802D01*
X110227732Y-52210801D01*
X110264968Y-52141138D01*
X110315078Y-52080078D01*
X110376138Y-52029968D01*
X110445801Y-51992732D01*
X110470998Y-51985089D01*
X110521390Y-51969802D01*
X110560665Y-51965934D01*
X110580301Y-51964000D01*
X111719699Y-51964000D01*
X111739335Y-51965934D01*
X111739335Y-51965934D01*
G37*
G36*
X85786000Y-52661000D02*
G01*
X84214000Y-52661000D01*
X84214000Y-51399000D01*
X85786000Y-51399000D01*
X85786000Y-52661000D01*
X85786000Y-52661000D01*
G37*
G36*
X24536000Y-52491000D02*
G01*
X22964000Y-52491000D01*
X22964000Y-51229000D01*
X24536000Y-51229000D01*
X24536000Y-52491000D01*
X24536000Y-52491000D01*
G37*
G36*
X63301000Y-52426000D02*
G01*
X62199000Y-52426000D01*
X62199000Y-46824000D01*
X63301000Y-46824000D01*
X63301000Y-52426000D01*
X63301000Y-52426000D01*
G37*
G36*
X65301000Y-52426000D02*
G01*
X64199000Y-52426000D01*
X64199000Y-46824000D01*
X65301000Y-46824000D01*
X65301000Y-52426000D01*
X65301000Y-52426000D01*
G37*
G36*
X107241000Y-52286000D02*
G01*
X105979000Y-52286000D01*
X105979000Y-50714000D01*
X107241000Y-50714000D01*
X107241000Y-52286000D01*
X107241000Y-52286000D01*
G37*
G36*
X109021000Y-52286000D02*
G01*
X107759000Y-52286000D01*
X107759000Y-50714000D01*
X109021000Y-50714000D01*
X109021000Y-52286000D01*
X109021000Y-52286000D01*
G37*
G36*
X88123610Y-49704802D02*
G01*
X88174002Y-49720089D01*
X88199199Y-49727732D01*
X88268862Y-49764968D01*
X88329922Y-49815078D01*
X88380032Y-49876138D01*
X88417268Y-49945801D01*
X88417268Y-49945802D01*
X88440198Y-50021390D01*
X88446000Y-50080302D01*
X88446000Y-51219698D01*
X88440198Y-51278610D01*
X88427988Y-51318861D01*
X88417268Y-51354199D01*
X88380032Y-51423862D01*
X88329922Y-51484922D01*
X88268860Y-51535033D01*
X88199200Y-51572267D01*
X88199197Y-51572268D01*
X88123609Y-51595198D01*
X88045000Y-51602940D01*
X87966390Y-51595198D01*
X87915998Y-51579911D01*
X87890801Y-51572268D01*
X87821138Y-51535032D01*
X87760078Y-51484922D01*
X87709967Y-51423860D01*
X87672733Y-51354200D01*
X87662013Y-51318861D01*
X87649802Y-51278609D01*
X87644000Y-51219697D01*
X87644001Y-50080302D01*
X87649803Y-50021390D01*
X87672733Y-49945802D01*
X87672733Y-49945801D01*
X87709969Y-49876138D01*
X87760079Y-49815078D01*
X87821139Y-49764968D01*
X87890802Y-49727732D01*
X87915999Y-49720089D01*
X87966391Y-49704802D01*
X88045000Y-49697060D01*
X88123610Y-49704802D01*
X88123610Y-49704802D01*
G37*
G36*
X89393610Y-49704802D02*
G01*
X89444002Y-49720089D01*
X89469199Y-49727732D01*
X89538862Y-49764968D01*
X89599922Y-49815078D01*
X89650032Y-49876138D01*
X89687268Y-49945801D01*
X89687268Y-49945802D01*
X89710198Y-50021390D01*
X89716000Y-50080302D01*
X89716000Y-51219698D01*
X89710198Y-51278610D01*
X89697988Y-51318861D01*
X89687268Y-51354199D01*
X89650032Y-51423862D01*
X89599922Y-51484922D01*
X89538860Y-51535033D01*
X89469200Y-51572267D01*
X89469197Y-51572268D01*
X89393609Y-51595198D01*
X89315000Y-51602940D01*
X89236390Y-51595198D01*
X89185998Y-51579911D01*
X89160801Y-51572268D01*
X89091138Y-51535032D01*
X89030078Y-51484922D01*
X88979967Y-51423860D01*
X88942733Y-51354200D01*
X88932013Y-51318861D01*
X88919802Y-51278609D01*
X88914000Y-51219697D01*
X88914001Y-50080302D01*
X88919803Y-50021390D01*
X88942733Y-49945802D01*
X88942733Y-49945801D01*
X88979969Y-49876138D01*
X89030079Y-49815078D01*
X89091139Y-49764968D01*
X89160802Y-49727732D01*
X89185999Y-49720089D01*
X89236391Y-49704802D01*
X89315000Y-49697060D01*
X89393610Y-49704802D01*
X89393610Y-49704802D01*
G37*
G36*
X90663610Y-49704802D02*
G01*
X90714002Y-49720089D01*
X90739199Y-49727732D01*
X90808862Y-49764968D01*
X90869922Y-49815078D01*
X90920032Y-49876138D01*
X90957268Y-49945801D01*
X90957268Y-49945802D01*
X90980198Y-50021390D01*
X90986000Y-50080302D01*
X90986000Y-51219698D01*
X90980198Y-51278610D01*
X90967988Y-51318861D01*
X90957268Y-51354199D01*
X90920032Y-51423862D01*
X90869922Y-51484922D01*
X90808860Y-51535033D01*
X90739200Y-51572267D01*
X90739197Y-51572268D01*
X90663609Y-51595198D01*
X90585000Y-51602940D01*
X90506390Y-51595198D01*
X90455998Y-51579911D01*
X90430801Y-51572268D01*
X90361138Y-51535032D01*
X90300078Y-51484922D01*
X90249967Y-51423860D01*
X90212733Y-51354200D01*
X90202013Y-51318861D01*
X90189802Y-51278609D01*
X90184000Y-51219697D01*
X90184001Y-50080302D01*
X90189803Y-50021390D01*
X90212733Y-49945802D01*
X90212733Y-49945801D01*
X90249969Y-49876138D01*
X90300079Y-49815078D01*
X90361139Y-49764968D01*
X90430802Y-49727732D01*
X90455999Y-49720089D01*
X90506391Y-49704802D01*
X90585000Y-49697060D01*
X90663610Y-49704802D01*
X90663610Y-49704802D01*
G37*
G36*
X91933610Y-49704802D02*
G01*
X91984002Y-49720089D01*
X92009199Y-49727732D01*
X92078862Y-49764968D01*
X92139922Y-49815078D01*
X92190032Y-49876138D01*
X92227268Y-49945801D01*
X92227268Y-49945802D01*
X92250198Y-50021390D01*
X92256000Y-50080302D01*
X92256000Y-51219698D01*
X92250198Y-51278610D01*
X92237988Y-51318861D01*
X92227268Y-51354199D01*
X92190032Y-51423862D01*
X92139922Y-51484922D01*
X92078860Y-51535033D01*
X92009200Y-51572267D01*
X92009197Y-51572268D01*
X91933609Y-51595198D01*
X91855000Y-51602940D01*
X91776390Y-51595198D01*
X91725998Y-51579911D01*
X91700801Y-51572268D01*
X91631138Y-51535032D01*
X91570078Y-51484922D01*
X91519967Y-51423860D01*
X91482733Y-51354200D01*
X91472013Y-51318861D01*
X91459802Y-51278609D01*
X91454000Y-51219697D01*
X91454001Y-50080302D01*
X91459803Y-50021390D01*
X91482733Y-49945802D01*
X91482733Y-49945801D01*
X91519969Y-49876138D01*
X91570079Y-49815078D01*
X91631139Y-49764968D01*
X91700802Y-49727732D01*
X91725999Y-49720089D01*
X91776391Y-49704802D01*
X91855000Y-49697060D01*
X91933610Y-49704802D01*
X91933610Y-49704802D01*
G37*
G36*
X111739335Y-50695934D02*
G01*
X111778610Y-50699802D01*
X111825413Y-50714000D01*
X111854199Y-50722732D01*
X111923862Y-50759968D01*
X111984922Y-50810078D01*
X112035032Y-50871138D01*
X112072268Y-50940801D01*
X112072268Y-50940802D01*
X112095198Y-51016390D01*
X112102940Y-51095000D01*
X112095198Y-51173610D01*
X112081217Y-51219697D01*
X112072268Y-51249199D01*
X112035032Y-51318862D01*
X111984922Y-51379922D01*
X111923862Y-51430032D01*
X111854199Y-51467268D01*
X111829002Y-51474911D01*
X111778610Y-51490198D01*
X111739335Y-51494066D01*
X111719699Y-51496000D01*
X110580301Y-51496000D01*
X110560665Y-51494066D01*
X110521390Y-51490198D01*
X110470998Y-51474911D01*
X110445801Y-51467268D01*
X110376138Y-51430032D01*
X110315078Y-51379922D01*
X110264968Y-51318862D01*
X110227732Y-51249199D01*
X110218783Y-51219697D01*
X110204802Y-51173610D01*
X110197060Y-51095000D01*
X110204802Y-51016390D01*
X110227732Y-50940802D01*
X110227732Y-50940801D01*
X110264968Y-50871138D01*
X110315078Y-50810078D01*
X110376138Y-50759968D01*
X110445801Y-50722732D01*
X110474587Y-50714000D01*
X110521390Y-50699802D01*
X110560665Y-50695934D01*
X110580301Y-50694000D01*
X111719699Y-50694000D01*
X111739335Y-50695934D01*
X111739335Y-50695934D01*
G37*
G36*
X116939335Y-50695934D02*
G01*
X116978610Y-50699802D01*
X117025413Y-50714000D01*
X117054199Y-50722732D01*
X117123862Y-50759968D01*
X117184922Y-50810078D01*
X117235032Y-50871138D01*
X117272268Y-50940801D01*
X117272268Y-50940802D01*
X117295198Y-51016390D01*
X117302940Y-51095000D01*
X117295198Y-51173610D01*
X117281217Y-51219697D01*
X117272268Y-51249199D01*
X117235032Y-51318862D01*
X117184922Y-51379922D01*
X117123862Y-51430032D01*
X117054199Y-51467268D01*
X117029002Y-51474911D01*
X116978610Y-51490198D01*
X116939335Y-51494066D01*
X116919699Y-51496000D01*
X115780301Y-51496000D01*
X115760665Y-51494066D01*
X115721390Y-51490198D01*
X115670998Y-51474911D01*
X115645801Y-51467268D01*
X115576138Y-51430032D01*
X115515078Y-51379922D01*
X115464968Y-51318862D01*
X115427732Y-51249199D01*
X115418783Y-51219697D01*
X115404802Y-51173610D01*
X115397060Y-51095000D01*
X115404802Y-51016390D01*
X115427732Y-50940802D01*
X115427732Y-50940801D01*
X115464968Y-50871138D01*
X115515078Y-50810078D01*
X115576138Y-50759968D01*
X115645801Y-50722732D01*
X115674587Y-50714000D01*
X115721390Y-50699802D01*
X115760665Y-50695934D01*
X115780301Y-50694000D01*
X116919699Y-50694000D01*
X116939335Y-50695934D01*
X116939335Y-50695934D01*
G37*
G36*
X74426000Y-51451000D02*
G01*
X71324000Y-51451000D01*
X71324000Y-49749000D01*
X74426000Y-49749000D01*
X74426000Y-51451000D01*
X74426000Y-51451000D01*
G37*
G36*
X104726000Y-51351000D02*
G01*
X99124000Y-51351000D01*
X99124000Y-50249000D01*
X104726000Y-50249000D01*
X104726000Y-51351000D01*
X104726000Y-51351000D01*
G37*
G36*
X94751000Y-51001000D02*
G01*
X93649000Y-51001000D01*
X93649000Y-49649000D01*
X94751000Y-49649000D01*
X94751000Y-51001000D01*
X94751000Y-51001000D01*
G37*
G36*
X85786000Y-50881000D02*
G01*
X84214000Y-50881000D01*
X84214000Y-49619000D01*
X85786000Y-49619000D01*
X85786000Y-50881000D01*
X85786000Y-50881000D01*
G37*
G36*
X57486000Y-49921000D02*
G01*
X55914000Y-49921000D01*
X55914000Y-48659000D01*
X57486000Y-48659000D01*
X57486000Y-49921000D01*
X57486000Y-49921000D01*
G37*
G36*
X54886000Y-49921000D02*
G01*
X53314000Y-49921000D01*
X53314000Y-48659000D01*
X54886000Y-48659000D01*
X54886000Y-49921000D01*
X54886000Y-49921000D01*
G37*
G36*
X116721000Y-49786000D02*
G01*
X115459000Y-49786000D01*
X115459000Y-48214000D01*
X116721000Y-48214000D01*
X116721000Y-49786000D01*
X116721000Y-49786000D01*
G37*
G36*
X110741000Y-49786000D02*
G01*
X109479000Y-49786000D01*
X109479000Y-48214000D01*
X110741000Y-48214000D01*
X110741000Y-49786000D01*
X110741000Y-49786000D01*
G37*
G36*
X114941000Y-49786000D02*
G01*
X113679000Y-49786000D01*
X113679000Y-48214000D01*
X114941000Y-48214000D01*
X114941000Y-49786000D01*
X114941000Y-49786000D01*
G37*
G36*
X112521000Y-49786000D02*
G01*
X111259000Y-49786000D01*
X111259000Y-48214000D01*
X112521000Y-48214000D01*
X112521000Y-49786000D01*
X112521000Y-49786000D01*
G37*
G36*
X101226000Y-49251000D02*
G01*
X98124000Y-49251000D01*
X98124000Y-47549000D01*
X101226000Y-47549000D01*
X101226000Y-49251000D01*
X101226000Y-49251000D01*
G37*
G36*
X49889943Y-43066248D02*
G01*
X50445189Y-43296238D01*
X50617497Y-43411371D01*
X50944899Y-43630134D01*
X51369866Y-44055101D01*
X51369867Y-44055103D01*
X51703762Y-44554811D01*
X51933752Y-45110057D01*
X52051000Y-45699501D01*
X52051000Y-46300499D01*
X51933752Y-46889943D01*
X51703762Y-47445189D01*
X51608892Y-47587171D01*
X51369866Y-47944899D01*
X50944899Y-48369866D01*
X50870736Y-48419420D01*
X50445189Y-48703762D01*
X49889943Y-48933752D01*
X49300499Y-49051000D01*
X48699501Y-49051000D01*
X48110057Y-48933752D01*
X47554811Y-48703762D01*
X47129264Y-48419420D01*
X47055101Y-48369866D01*
X46630134Y-47944899D01*
X46391108Y-47587171D01*
X46296238Y-47445189D01*
X46066248Y-46889943D01*
X45949000Y-46300499D01*
X45949000Y-45699501D01*
X46066248Y-45110057D01*
X46296238Y-44554811D01*
X46630133Y-44055103D01*
X46630134Y-44055101D01*
X47055101Y-43630134D01*
X47382503Y-43411371D01*
X47554811Y-43296238D01*
X48110057Y-43066248D01*
X48699501Y-42949000D01*
X49300499Y-42949000D01*
X49889943Y-43066248D01*
X49889943Y-43066248D01*
G37*
G36*
X90521000Y-48386000D02*
G01*
X89259000Y-48386000D01*
X89259000Y-46814000D01*
X90521000Y-46814000D01*
X90521000Y-48386000D01*
X90521000Y-48386000D01*
G37*
G36*
X88741000Y-48386000D02*
G01*
X87479000Y-48386000D01*
X87479000Y-46814000D01*
X88741000Y-46814000D01*
X88741000Y-48386000D01*
X88741000Y-48386000D01*
G37*
G36*
X94771000Y-48286000D02*
G01*
X93509000Y-48286000D01*
X93509000Y-46714000D01*
X94771000Y-46714000D01*
X94771000Y-48286000D01*
X94771000Y-48286000D01*
G37*
G36*
X92991000Y-48286000D02*
G01*
X91729000Y-48286000D01*
X91729000Y-46714000D01*
X92991000Y-46714000D01*
X92991000Y-48286000D01*
X92991000Y-48286000D01*
G37*
G36*
X57486000Y-48141000D02*
G01*
X55914000Y-48141000D01*
X55914000Y-46879000D01*
X57486000Y-46879000D01*
X57486000Y-48141000D01*
X57486000Y-48141000D01*
G37*
G36*
X54886000Y-48141000D02*
G01*
X53314000Y-48141000D01*
X53314000Y-46879000D01*
X54886000Y-46879000D01*
X54886000Y-48141000D01*
X54886000Y-48141000D01*
G37*
G36*
X83143642Y-46229781D02*
G01*
X83289414Y-46290162D01*
X83289416Y-46290163D01*
X83420608Y-46377822D01*
X83532178Y-46489392D01*
X83619837Y-46620584D01*
X83619838Y-46620586D01*
X83680219Y-46766358D01*
X83711000Y-46921107D01*
X83711000Y-47078893D01*
X83680219Y-47233642D01*
X83644841Y-47319052D01*
X83619837Y-47379416D01*
X83532178Y-47510608D01*
X83420608Y-47622178D01*
X83289416Y-47709837D01*
X83289415Y-47709838D01*
X83289414Y-47709838D01*
X83143642Y-47770219D01*
X82988893Y-47801000D01*
X82831107Y-47801000D01*
X82676358Y-47770219D01*
X82530586Y-47709838D01*
X82530585Y-47709838D01*
X82530584Y-47709837D01*
X82399392Y-47622178D01*
X82287822Y-47510608D01*
X82200163Y-47379416D01*
X82175159Y-47319052D01*
X82139781Y-47233642D01*
X82109000Y-47078893D01*
X82109000Y-46921107D01*
X82139781Y-46766358D01*
X82200162Y-46620586D01*
X82200163Y-46620584D01*
X82287822Y-46489392D01*
X82399392Y-46377822D01*
X82530584Y-46290163D01*
X82530586Y-46290162D01*
X82676358Y-46229781D01*
X82831107Y-46199000D01*
X82988893Y-46199000D01*
X83143642Y-46229781D01*
X83143642Y-46229781D01*
G37*
G36*
X81801000Y-47801000D02*
G01*
X80199000Y-47801000D01*
X80199000Y-46199000D01*
X81801000Y-46199000D01*
X81801000Y-47801000D01*
X81801000Y-47801000D01*
G37*
G36*
X85053642Y-46229781D02*
G01*
X85199414Y-46290162D01*
X85199416Y-46290163D01*
X85330608Y-46377822D01*
X85442178Y-46489392D01*
X85529837Y-46620584D01*
X85529838Y-46620586D01*
X85590219Y-46766358D01*
X85621000Y-46921107D01*
X85621000Y-47078893D01*
X85590219Y-47233642D01*
X85554841Y-47319052D01*
X85529837Y-47379416D01*
X85442178Y-47510608D01*
X85330608Y-47622178D01*
X85199416Y-47709837D01*
X85199415Y-47709838D01*
X85199414Y-47709838D01*
X85053642Y-47770219D01*
X84898893Y-47801000D01*
X84741107Y-47801000D01*
X84586358Y-47770219D01*
X84440586Y-47709838D01*
X84440585Y-47709838D01*
X84440584Y-47709837D01*
X84309392Y-47622178D01*
X84197822Y-47510608D01*
X84110163Y-47379416D01*
X84085159Y-47319052D01*
X84049781Y-47233642D01*
X84019000Y-47078893D01*
X84019000Y-46921107D01*
X84049781Y-46766358D01*
X84110162Y-46620586D01*
X84110163Y-46620584D01*
X84197822Y-46489392D01*
X84309392Y-46377822D01*
X84440584Y-46290163D01*
X84440586Y-46290162D01*
X84586358Y-46229781D01*
X84741107Y-46199000D01*
X84898893Y-46199000D01*
X85053642Y-46229781D01*
X85053642Y-46229781D01*
G37*
G36*
X79271000Y-47786000D02*
G01*
X78009000Y-47786000D01*
X78009000Y-46214000D01*
X79271000Y-46214000D01*
X79271000Y-47786000D01*
X79271000Y-47786000D01*
G37*
G36*
X77491000Y-47786000D02*
G01*
X76229000Y-47786000D01*
X76229000Y-46214000D01*
X77491000Y-46214000D01*
X77491000Y-47786000D01*
X77491000Y-47786000D01*
G37*
G36*
X42748228Y-45431703D02*
G01*
X42903100Y-45495853D01*
X43042481Y-45588985D01*
X43161015Y-45707519D01*
X43254147Y-45846900D01*
X43318297Y-46001772D01*
X43351000Y-46166184D01*
X43351000Y-46333816D01*
X43318297Y-46498228D01*
X43254147Y-46653100D01*
X43161015Y-46792481D01*
X43042481Y-46911015D01*
X42903100Y-47004147D01*
X42748228Y-47068297D01*
X42583816Y-47101000D01*
X42416184Y-47101000D01*
X42251772Y-47068297D01*
X42096900Y-47004147D01*
X41957519Y-46911015D01*
X41838985Y-46792481D01*
X41745853Y-46653100D01*
X41681703Y-46498228D01*
X41649000Y-46333816D01*
X41649000Y-46166184D01*
X41681703Y-46001772D01*
X41745853Y-45846900D01*
X41838985Y-45707519D01*
X41957519Y-45588985D01*
X42096900Y-45495853D01*
X42251772Y-45431703D01*
X42416184Y-45399000D01*
X42583816Y-45399000D01*
X42748228Y-45431703D01*
X42748228Y-45431703D01*
G37*
G36*
X27100999Y-46701000D02*
G01*
X25748999Y-46701000D01*
X25748999Y-45599000D01*
X27100999Y-45599000D01*
X27100999Y-46701000D01*
X27100999Y-46701000D01*
G37*
G36*
X30050999Y-46701000D02*
G01*
X28698999Y-46701000D01*
X28698999Y-45599000D01*
X30050999Y-45599000D01*
X30050999Y-46701000D01*
X30050999Y-46701000D01*
G37*
G36*
X32101000Y-46701000D02*
G01*
X30749000Y-46701000D01*
X30749000Y-45599000D01*
X32101000Y-45599000D01*
X32101000Y-46701000D01*
X32101000Y-46701000D01*
G37*
G36*
X35051000Y-46701000D02*
G01*
X33699000Y-46701000D01*
X33699000Y-45599000D01*
X35051000Y-45599000D01*
X35051000Y-46701000D01*
X35051000Y-46701000D01*
G37*
G36*
X116206000Y-45766500D02*
G01*
X112294000Y-45766500D01*
X112294000Y-42870500D01*
X116206000Y-42870500D01*
X116206000Y-45766500D01*
X116206000Y-45766500D01*
G37*
G36*
X54341000Y-45586000D02*
G01*
X53079000Y-45586000D01*
X53079000Y-44014000D01*
X54341000Y-44014000D01*
X54341000Y-45586000D01*
X54341000Y-45586000D01*
G37*
G36*
X56121000Y-45586000D02*
G01*
X54859000Y-45586000D01*
X54859000Y-44014000D01*
X56121000Y-44014000D01*
X56121000Y-45586000D01*
X56121000Y-45586000D01*
G37*
G36*
X71991000Y-45536000D02*
G01*
X70729000Y-45536000D01*
X70729000Y-43964000D01*
X71991000Y-43964000D01*
X71991000Y-45536000D01*
X71991000Y-45536000D01*
G37*
G36*
X73771000Y-45536000D02*
G01*
X72509000Y-45536000D01*
X72509000Y-43964000D01*
X73771000Y-43964000D01*
X73771000Y-45536000D01*
X73771000Y-45536000D01*
G37*
G36*
X91241000Y-45536000D02*
G01*
X89979000Y-45536000D01*
X89979000Y-43964000D01*
X91241000Y-43964000D01*
X91241000Y-45536000D01*
X91241000Y-45536000D01*
G37*
G36*
X93021000Y-45536000D02*
G01*
X91759000Y-45536000D01*
X91759000Y-43964000D01*
X93021000Y-43964000D01*
X93021000Y-45536000D01*
X93021000Y-45536000D01*
G37*
G36*
X58151000Y-45401000D02*
G01*
X57049000Y-45401000D01*
X57049000Y-44049000D01*
X58151000Y-44049000D01*
X58151000Y-45401000D01*
X58151000Y-45401000D01*
G37*
G36*
X60301000Y-45401000D02*
G01*
X59199000Y-45401000D01*
X59199000Y-44049000D01*
X60301000Y-44049000D01*
X60301000Y-45401000D01*
X60301000Y-45401000D01*
G37*
G36*
X38201000Y-45356000D02*
G01*
X36299000Y-45356000D01*
X36299000Y-44124000D01*
X38201000Y-44124000D01*
X38201000Y-45356000D01*
X38201000Y-45356000D01*
G37*
G36*
X66741000Y-45286000D02*
G01*
X65479000Y-45286000D01*
X65479000Y-43714000D01*
X66741000Y-43714000D01*
X66741000Y-45286000D01*
X66741000Y-45286000D01*
G37*
G36*
X68521000Y-45286000D02*
G01*
X67259000Y-45286000D01*
X67259000Y-43714000D01*
X68521000Y-43714000D01*
X68521000Y-45286000D01*
X68521000Y-45286000D01*
G37*
G36*
X95786000Y-45271000D02*
G01*
X94214000Y-45271000D01*
X94214000Y-44009000D01*
X95786000Y-44009000D01*
X95786000Y-45271000D01*
X95786000Y-45271000D01*
G37*
G36*
X43351000Y-44601000D02*
G01*
X41649000Y-44601000D01*
X41649000Y-42899000D01*
X43351000Y-42899000D01*
X43351000Y-44601000D01*
X43351000Y-44601000D01*
G37*
G36*
X33811000Y-44186000D02*
G01*
X32549000Y-44186000D01*
X32549000Y-42614000D01*
X33811000Y-42614000D01*
X33811000Y-44186000D01*
X33811000Y-44186000D01*
G37*
G36*
X27741000Y-44186000D02*
G01*
X26479000Y-44186000D01*
X26479000Y-42614000D01*
X27741000Y-42614000D01*
X27741000Y-44186000D01*
X27741000Y-44186000D01*
G37*
G36*
X29521000Y-44186000D02*
G01*
X28259000Y-44186000D01*
X28259000Y-42614000D01*
X29521000Y-42614000D01*
X29521000Y-44186000D01*
X29521000Y-44186000D01*
G37*
G36*
X32031000Y-44186000D02*
G01*
X30769000Y-44186000D01*
X30769000Y-42614000D01*
X32031000Y-42614000D01*
X32031000Y-44186000D01*
X32031000Y-44186000D01*
G37*
G36*
X63786000Y-44021000D02*
G01*
X62214000Y-44021000D01*
X62214000Y-42759000D01*
X63786000Y-42759000D01*
X63786000Y-44021000D01*
X63786000Y-44021000D01*
G37*
G36*
X103556564Y-41739389D02*
G01*
X103747833Y-41818615D01*
X103747835Y-41818616D01*
X103919973Y-41933635D01*
X104066365Y-42080027D01*
X104173924Y-42241000D01*
X104181385Y-42252167D01*
X104260611Y-42443436D01*
X104301000Y-42646484D01*
X104301000Y-42853516D01*
X104260611Y-43056564D01*
X104204788Y-43191332D01*
X104181384Y-43247835D01*
X104066365Y-43419973D01*
X103919973Y-43566365D01*
X103747835Y-43681384D01*
X103747834Y-43681385D01*
X103747833Y-43681385D01*
X103556564Y-43760611D01*
X103353516Y-43801000D01*
X103146484Y-43801000D01*
X102943436Y-43760611D01*
X102752167Y-43681385D01*
X102752166Y-43681385D01*
X102752165Y-43681384D01*
X102580027Y-43566365D01*
X102433635Y-43419973D01*
X102318616Y-43247835D01*
X102295212Y-43191332D01*
X102239389Y-43056564D01*
X102199000Y-42853516D01*
X102199000Y-42646484D01*
X102239389Y-42443436D01*
X102318615Y-42252167D01*
X102326077Y-42241000D01*
X102433635Y-42080027D01*
X102580027Y-41933635D01*
X102752165Y-41818616D01*
X102752167Y-41818615D01*
X102943436Y-41739389D01*
X103146484Y-41699000D01*
X103353516Y-41699000D01*
X103556564Y-41739389D01*
X103556564Y-41739389D01*
G37*
G36*
X95786000Y-43491000D02*
G01*
X94214000Y-43491000D01*
X94214000Y-42229000D01*
X95786000Y-42229000D01*
X95786000Y-43491000D01*
X95786000Y-43491000D01*
G37*
G36*
X93021000Y-43036000D02*
G01*
X91759000Y-43036000D01*
X91759000Y-41464000D01*
X93021000Y-41464000D01*
X93021000Y-43036000D01*
X93021000Y-43036000D01*
G37*
G36*
X91241000Y-43036000D02*
G01*
X89979000Y-43036000D01*
X89979000Y-41464000D01*
X91241000Y-41464000D01*
X91241000Y-43036000D01*
X91241000Y-43036000D01*
G37*
G36*
X71991000Y-42786000D02*
G01*
X70729000Y-42786000D01*
X70729000Y-41214000D01*
X71991000Y-41214000D01*
X71991000Y-42786000D01*
X71991000Y-42786000D01*
G37*
G36*
X68521000Y-42786000D02*
G01*
X67259000Y-42786000D01*
X67259000Y-41214000D01*
X68521000Y-41214000D01*
X68521000Y-42786000D01*
X68521000Y-42786000D01*
G37*
G36*
X66741000Y-42786000D02*
G01*
X65479000Y-42786000D01*
X65479000Y-41214000D01*
X66741000Y-41214000D01*
X66741000Y-42786000D01*
X66741000Y-42786000D01*
G37*
G36*
X73771000Y-42786000D02*
G01*
X72509000Y-42786000D01*
X72509000Y-41214000D01*
X73771000Y-41214000D01*
X73771000Y-42786000D01*
X73771000Y-42786000D01*
G37*
G36*
X60301000Y-42451000D02*
G01*
X59199000Y-42451000D01*
X59199000Y-41099000D01*
X60301000Y-41099000D01*
X60301000Y-42451000D01*
X60301000Y-42451000D01*
G37*
G36*
X58151000Y-42451000D02*
G01*
X57049000Y-42451000D01*
X57049000Y-41099000D01*
X58151000Y-41099000D01*
X58151000Y-42451000D01*
X58151000Y-42451000D01*
G37*
G36*
X38201000Y-42376000D02*
G01*
X36299000Y-42376000D01*
X36299000Y-41144000D01*
X38201000Y-41144000D01*
X38201000Y-42376000D01*
X38201000Y-42376000D01*
G37*
G36*
X63786000Y-42241000D02*
G01*
X62214000Y-42241000D01*
X62214000Y-40979000D01*
X63786000Y-40979000D01*
X63786000Y-42241000D01*
X63786000Y-42241000D01*
G37*
G36*
X55422500Y-41840500D02*
G01*
X52577500Y-41840500D01*
X52577500Y-39579500D01*
X55422500Y-39579500D01*
X55422500Y-41840500D01*
X55422500Y-41840500D01*
G37*
G36*
X68351000Y-40426000D02*
G01*
X67549000Y-40426000D01*
X67549000Y-39074000D01*
X68351000Y-39074000D01*
X68351000Y-40426000D01*
X68351000Y-40426000D01*
G37*
G36*
X46201000Y-40426000D02*
G01*
X45399000Y-40426000D01*
X45399000Y-39074000D01*
X46201000Y-39074000D01*
X46201000Y-40426000D01*
X46201000Y-40426000D01*
G37*
G36*
X73351000Y-40426000D02*
G01*
X72549000Y-40426000D01*
X72549000Y-39074000D01*
X73351000Y-39074000D01*
X73351000Y-40426000D01*
X73351000Y-40426000D01*
G37*
G36*
X71451000Y-40426000D02*
G01*
X70649000Y-40426000D01*
X70649000Y-39074000D01*
X71451000Y-39074000D01*
X71451000Y-40426000D01*
X71451000Y-40426000D01*
G37*
G36*
X48101000Y-40426000D02*
G01*
X47299000Y-40426000D01*
X47299000Y-39074000D01*
X48101000Y-39074000D01*
X48101000Y-40426000D01*
X48101000Y-40426000D01*
G37*
G36*
X66451000Y-40426000D02*
G01*
X65649000Y-40426000D01*
X65649000Y-39074000D01*
X66451000Y-39074000D01*
X66451000Y-40426000D01*
X66451000Y-40426000D01*
G37*
G36*
X95786000Y-40271000D02*
G01*
X94214000Y-40271000D01*
X94214000Y-39009000D01*
X95786000Y-39009000D01*
X95786000Y-40271000D01*
X95786000Y-40271000D01*
G37*
G36*
X30222500Y-39940500D02*
G01*
X27377500Y-39940500D01*
X27377500Y-37679500D01*
X30222500Y-37679500D01*
X30222500Y-39940500D01*
X30222500Y-39940500D01*
G37*
G36*
X43300995Y-39800980D02*
G01*
X36699005Y-39800980D01*
X36699005Y-33698980D01*
X43300995Y-33698980D01*
X43300995Y-39800980D01*
X43300995Y-39800980D01*
G37*
G36*
X34155170Y-39762270D02*
G01*
X31853170Y-39762270D01*
X31853170Y-38460270D01*
X34155170Y-38460270D01*
X34155170Y-39762270D01*
X34155170Y-39762270D01*
G37*
G36*
X62741000Y-39536000D02*
G01*
X61479000Y-39536000D01*
X61479000Y-37964000D01*
X62741000Y-37964000D01*
X62741000Y-39536000D01*
X62741000Y-39536000D01*
G37*
G36*
X64521000Y-39536000D02*
G01*
X63259000Y-39536000D01*
X63259000Y-37964000D01*
X64521000Y-37964000D01*
X64521000Y-39536000D01*
X64521000Y-39536000D01*
G37*
G36*
X59201000Y-39356000D02*
G01*
X57299000Y-39356000D01*
X57299000Y-38124000D01*
X59201000Y-38124000D01*
X59201000Y-39356000D01*
X59201000Y-39356000D01*
G37*
G36*
X104301000Y-38801000D02*
G01*
X102199000Y-38801000D01*
X102199000Y-36699000D01*
X104301000Y-36699000D01*
X104301000Y-38801000D01*
X104301000Y-38801000D01*
G37*
G36*
X50786000Y-38771000D02*
G01*
X49214000Y-38771000D01*
X49214000Y-37509000D01*
X50786000Y-37509000D01*
X50786000Y-38771000D01*
X50786000Y-38771000D01*
G37*
G36*
X116206000Y-38629500D02*
G01*
X112294000Y-38629500D01*
X112294000Y-35733500D01*
X116206000Y-35733500D01*
X116206000Y-38629500D01*
X116206000Y-38629500D01*
G37*
G36*
X95786000Y-38491000D02*
G01*
X94214000Y-38491000D01*
X94214000Y-37229000D01*
X95786000Y-37229000D01*
X95786000Y-38491000D01*
X95786000Y-38491000D01*
G37*
G36*
X67401000Y-37926000D02*
G01*
X66599000Y-37926000D01*
X66599000Y-36574000D01*
X67401000Y-36574000D01*
X67401000Y-37926000D01*
X67401000Y-37926000D01*
G37*
G36*
X72401000Y-37926000D02*
G01*
X71599000Y-37926000D01*
X71599000Y-36574000D01*
X72401000Y-36574000D01*
X72401000Y-37926000D01*
X72401000Y-37926000D01*
G37*
G36*
X47151000Y-37926000D02*
G01*
X46349000Y-37926000D01*
X46349000Y-36574000D01*
X47151000Y-36574000D01*
X47151000Y-37926000D01*
X47151000Y-37926000D01*
G37*
G36*
X55422500Y-37420500D02*
G01*
X52577500Y-37420500D01*
X52577500Y-35159500D01*
X55422500Y-35159500D01*
X55422500Y-37420500D01*
X55422500Y-37420500D01*
G37*
G36*
X64521000Y-37036000D02*
G01*
X63259000Y-37036000D01*
X63259000Y-35464000D01*
X64521000Y-35464000D01*
X64521000Y-37036000D01*
X64521000Y-37036000D01*
G37*
G36*
X62741000Y-37036000D02*
G01*
X61479000Y-37036000D01*
X61479000Y-35464000D01*
X62741000Y-35464000D01*
X62741000Y-37036000D01*
X62741000Y-37036000D01*
G37*
G36*
X50786000Y-36991000D02*
G01*
X49214000Y-36991000D01*
X49214000Y-35729000D01*
X50786000Y-35729000D01*
X50786000Y-36991000D01*
X50786000Y-36991000D01*
G37*
G36*
X59201000Y-36376000D02*
G01*
X57299000Y-36376000D01*
X57299000Y-35144000D01*
X59201000Y-35144000D01*
X59201000Y-36376000D01*
X59201000Y-36376000D01*
G37*
G36*
X30222500Y-35520500D02*
G01*
X27377500Y-35520500D01*
X27377500Y-33259500D01*
X30222500Y-33259500D01*
X30222500Y-35520500D01*
X30222500Y-35520500D01*
G37*
G36*
X48036000Y-35131000D02*
G01*
X46464000Y-35131000D01*
X46464000Y-33869000D01*
X48036000Y-33869000D01*
X48036000Y-35131000D01*
X48036000Y-35131000D01*
G37*
G36*
X34151000Y-35039720D02*
G01*
X31849000Y-35039720D01*
X31849000Y-33737720D01*
X34151000Y-33737720D01*
X34151000Y-35039720D01*
X34151000Y-35039720D01*
G37*
G36*
X98500000Y-34625001D02*
G01*
X98502402Y-34649387D01*
X98509515Y-34672836D01*
X98521066Y-34694447D01*
X98536611Y-34713389D01*
X98555553Y-34728934D01*
X98577164Y-34740485D01*
X98600613Y-34747598D01*
X98624999Y-34750000D01*
X84000000Y-34750000D01*
X84000000Y-27517451D01*
X83997598Y-27493065D01*
X83990485Y-27469616D01*
X83978934Y-27448005D01*
X83971626Y-27438152D01*
X83860911Y-27303246D01*
X83577606Y-26773219D01*
X83403145Y-26198099D01*
X83344238Y-25600000D01*
X83403145Y-25001901D01*
X83577606Y-24426781D01*
X83860911Y-23896754D01*
X83971626Y-23761848D01*
X83985240Y-23741473D01*
X83994618Y-23718834D01*
X83999398Y-23694801D01*
X84000000Y-23682549D01*
X84000000Y-21750000D01*
X98500000Y-21750000D01*
X98500000Y-34625001D01*
X98500000Y-34625001D01*
G37*
G36*
X68351000Y-21625001D02*
G01*
X68353402Y-21649387D01*
X68360515Y-21672836D01*
X68372066Y-21694447D01*
X68387611Y-21713389D01*
X68406553Y-21728934D01*
X68428164Y-21740485D01*
X68451613Y-21747598D01*
X68475999Y-21750000D01*
X82000000Y-21750000D01*
X82000000Y-23941984D01*
X82002402Y-23966370D01*
X82009515Y-23989819D01*
X82014760Y-24000908D01*
X82242394Y-24426781D01*
X82416855Y-25001901D01*
X82475762Y-25600000D01*
X82416855Y-26198099D01*
X82242394Y-26773219D01*
X82014760Y-27199092D01*
X82005382Y-27221731D01*
X82000602Y-27245764D01*
X82000000Y-27258016D01*
X82000000Y-34750000D01*
X66500000Y-34750000D01*
X66500000Y-31175999D01*
X66497598Y-31151613D01*
X66490485Y-31128164D01*
X66478934Y-31106553D01*
X66463389Y-31087611D01*
X66444447Y-31072066D01*
X66422836Y-31060515D01*
X66399387Y-31053402D01*
X66375001Y-31051000D01*
X65749000Y-31051000D01*
X65749000Y-20949000D01*
X68351000Y-20949000D01*
X68351000Y-21625001D01*
X68351000Y-21625001D01*
G37*
G36*
X64521000Y-34536000D02*
G01*
X63259000Y-34536000D01*
X63259000Y-32964000D01*
X64521000Y-32964000D01*
X64521000Y-34536000D01*
X64521000Y-34536000D01*
G37*
G36*
X62741000Y-34536000D02*
G01*
X61479000Y-34536000D01*
X61479000Y-32964000D01*
X62741000Y-32964000D01*
X62741000Y-34536000D01*
X62741000Y-34536000D01*
G37*
G36*
X52539740Y-33901000D02*
G01*
X51237740Y-33901000D01*
X51237740Y-31599000D01*
X52539740Y-31599000D01*
X52539740Y-33901000D01*
X52539740Y-33901000D01*
G37*
G36*
X57262290Y-33896830D02*
G01*
X55960290Y-33896830D01*
X55960290Y-31594830D01*
X57262290Y-31594830D01*
X57262290Y-33896830D01*
X57262290Y-33896830D01*
G37*
G36*
X107051000Y-33551000D02*
G01*
X98949000Y-33551000D01*
X98949000Y-22449000D01*
X107051000Y-22449000D01*
X107051000Y-33551000D01*
X107051000Y-33551000D01*
G37*
G36*
X117051000Y-33551000D02*
G01*
X108949000Y-33551000D01*
X108949000Y-22449000D01*
X117051000Y-22449000D01*
X117051000Y-33551000D01*
X117051000Y-33551000D01*
G37*
G36*
X48036000Y-33351000D02*
G01*
X46464000Y-33351000D01*
X46464000Y-32089000D01*
X48036000Y-32089000D01*
X48036000Y-33351000D01*
X48036000Y-33351000D01*
G37*
G36*
X29356000Y-31201000D02*
G01*
X28124000Y-31201000D01*
X28124000Y-29299000D01*
X29356000Y-29299000D01*
X29356000Y-31201000D01*
X29356000Y-31201000D01*
G37*
G36*
X26376000Y-31201000D02*
G01*
X25144000Y-31201000D01*
X25144000Y-29299000D01*
X26376000Y-29299000D01*
X26376000Y-31201000D01*
X26376000Y-31201000D01*
G37*
G36*
X64851000Y-31051000D02*
G01*
X63149000Y-31051000D01*
X63149000Y-20949000D01*
X64851000Y-20949000D01*
X64851000Y-31051000D01*
X64851000Y-31051000D01*
G37*
G36*
X42851000Y-31051000D02*
G01*
X41149000Y-31051000D01*
X41149000Y-20949000D01*
X42851000Y-20949000D01*
X42851000Y-31051000D01*
X42851000Y-31051000D01*
G37*
G36*
X40251000Y-31051000D02*
G01*
X37649000Y-31051000D01*
X37649000Y-20949000D01*
X40251000Y-20949000D01*
X40251000Y-31051000D01*
X40251000Y-31051000D01*
G37*
G36*
X62251000Y-31051000D02*
G01*
X59649000Y-31051000D01*
X59649000Y-20949000D01*
X62251000Y-20949000D01*
X62251000Y-31051000D01*
X62251000Y-31051000D01*
G37*
G36*
X46351000Y-31051000D02*
G01*
X43749000Y-31051000D01*
X43749000Y-20949000D01*
X46351000Y-20949000D01*
X46351000Y-31051000D01*
X46351000Y-31051000D01*
G37*
G36*
X36036000Y-31021000D02*
G01*
X34464000Y-31021000D01*
X34464000Y-29759000D01*
X36036000Y-29759000D01*
X36036000Y-31021000D01*
X36036000Y-31021000D01*
G37*
G36*
X33051000Y-31001000D02*
G01*
X31449000Y-31001000D01*
X31449000Y-29999000D01*
X33051000Y-29999000D01*
X33051000Y-31001000D01*
X33051000Y-31001000D01*
G37*
G36*
X49451000Y-29356000D02*
G01*
X47549000Y-29356000D01*
X47549000Y-28124000D01*
X49451000Y-28124000D01*
X49451000Y-29356000D01*
X49451000Y-29356000D01*
G37*
G36*
X36036000Y-29241000D02*
G01*
X34464000Y-29241000D01*
X34464000Y-27979000D01*
X36036000Y-27979000D01*
X36036000Y-29241000D01*
X36036000Y-29241000D01*
G37*
G36*
X57301000Y-29050995D02*
G01*
X51199000Y-29050995D01*
X51199000Y-22449005D01*
X57301000Y-22449005D01*
X57301000Y-29050995D01*
X57301000Y-29050995D01*
G37*
G36*
X29701000Y-27856000D02*
G01*
X27799000Y-27856000D01*
X27799000Y-26624000D01*
X29701000Y-26624000D01*
X29701000Y-27856000D01*
X29701000Y-27856000D01*
G37*
G36*
X33051000Y-27501000D02*
G01*
X31449000Y-27501000D01*
X31449000Y-26499000D01*
X33051000Y-26499000D01*
X33051000Y-27501000D01*
X33051000Y-27501000D01*
G37*
G36*
X36036000Y-26521000D02*
G01*
X34464000Y-26521000D01*
X34464000Y-25259000D01*
X36036000Y-25259000D01*
X36036000Y-26521000D01*
X36036000Y-26521000D01*
G37*
G36*
X49451000Y-26376000D02*
G01*
X47549000Y-26376000D01*
X47549000Y-25144000D01*
X49451000Y-25144000D01*
X49451000Y-26376000D01*
X49451000Y-26376000D01*
G37*
G36*
X29701000Y-24876000D02*
G01*
X27799000Y-24876000D01*
X27799000Y-23644000D01*
X29701000Y-23644000D01*
X29701000Y-24876000D01*
X29701000Y-24876000D01*
G37*
G36*
X36036000Y-24741000D02*
G01*
X34464000Y-24741000D01*
X34464000Y-23479000D01*
X36036000Y-23479000D01*
X36036000Y-24741000D01*
X36036000Y-24741000D01*
G37*
M02*
