%TF.GenerationSoftware,KiCad,Pcbnew,(5.1.4)-1*%
%TF.CreationDate,2021-05-17T23:16:04+08:00*%
%TF.ProjectId,power,706f7765-722e-46b6-9963-61645f706362,rev?*%
%TF.SameCoordinates,Original*%
%TF.FileFunction,Legend,Top*%
%TF.FilePolarity,Positive*%
%FSLAX46Y46*%
G04 Gerber Fmt 4.6, Leading zero omitted, Abs format (unit mm)*
G04 Created by KiCad (PCBNEW (5.1.4)-1) date 2021-05-17 23:16:04*
%MOMM*%
%LPD*%
G04 APERTURE LIST*
%ADD10C,0.150000*%
%ADD11C,0.300000*%
%ADD12C,0.200000*%
%ADD13C,0.254000*%
%ADD14C,0.120000*%
%ADD15C,0.100000*%
%ADD16C,0.400000*%
G04 APERTURE END LIST*
D10*
X61750000Y-40000000D02*
X61500000Y-40500000D01*
X61500000Y-40000000D02*
X61750000Y-40500000D01*
X60500000Y-40250000D02*
X60500000Y-40000000D01*
X63000000Y-40250000D02*
X60500000Y-40250000D01*
X63000000Y-39750000D02*
X63000000Y-40250000D01*
D11*
X77214285Y-36428571D02*
X78214285Y-36428571D01*
X77571428Y-37928571D01*
X79500000Y-36428571D02*
X78785714Y-36428571D01*
X78714285Y-37142857D01*
X78785714Y-37071428D01*
X78928571Y-37000000D01*
X79285714Y-37000000D01*
X79428571Y-37071428D01*
X79500000Y-37142857D01*
X79571428Y-37285714D01*
X79571428Y-37642857D01*
X79500000Y-37785714D01*
X79428571Y-37857142D01*
X79285714Y-37928571D01*
X78928571Y-37928571D01*
X78785714Y-37857142D01*
X78714285Y-37785714D01*
X80428571Y-37071428D02*
X80285714Y-37000000D01*
X80214285Y-36928571D01*
X80142857Y-36785714D01*
X80142857Y-36714285D01*
X80214285Y-36571428D01*
X80285714Y-36500000D01*
X80428571Y-36428571D01*
X80714285Y-36428571D01*
X80857142Y-36500000D01*
X80928571Y-36571428D01*
X81000000Y-36714285D01*
X81000000Y-36785714D01*
X80928571Y-36928571D01*
X80857142Y-37000000D01*
X80714285Y-37071428D01*
X80428571Y-37071428D01*
X80285714Y-37142857D01*
X80214285Y-37214285D01*
X80142857Y-37357142D01*
X80142857Y-37642857D01*
X80214285Y-37785714D01*
X80285714Y-37857142D01*
X80428571Y-37928571D01*
X80714285Y-37928571D01*
X80857142Y-37857142D01*
X80928571Y-37785714D01*
X81000000Y-37642857D01*
X81000000Y-37357142D01*
X80928571Y-37214285D01*
X80857142Y-37142857D01*
X80714285Y-37071428D01*
X81642857Y-37357142D02*
X82785714Y-37357142D01*
X84285714Y-37928571D02*
X83428571Y-37928571D01*
X83857142Y-37928571D02*
X83857142Y-36428571D01*
X83714285Y-36642857D01*
X83571428Y-36785714D01*
X83428571Y-36857142D01*
X85214285Y-36428571D02*
X85357142Y-36428571D01*
X85500000Y-36500000D01*
X85571428Y-36571428D01*
X85642857Y-36714285D01*
X85714285Y-37000000D01*
X85714285Y-37357142D01*
X85642857Y-37642857D01*
X85571428Y-37785714D01*
X85500000Y-37857142D01*
X85357142Y-37928571D01*
X85214285Y-37928571D01*
X85071428Y-37857142D01*
X85000000Y-37785714D01*
X84928571Y-37642857D01*
X84857142Y-37357142D01*
X84857142Y-37000000D01*
X84928571Y-36714285D01*
X85000000Y-36571428D01*
X85071428Y-36500000D01*
X85214285Y-36428571D01*
X86642857Y-36428571D02*
X86785714Y-36428571D01*
X86928571Y-36500000D01*
X87000000Y-36571428D01*
X87071428Y-36714285D01*
X87142857Y-37000000D01*
X87142857Y-37357142D01*
X87071428Y-37642857D01*
X87000000Y-37785714D01*
X86928571Y-37857142D01*
X86785714Y-37928571D01*
X86642857Y-37928571D01*
X86500000Y-37857142D01*
X86428571Y-37785714D01*
X86357142Y-37642857D01*
X86285714Y-37357142D01*
X86285714Y-37000000D01*
X86357142Y-36714285D01*
X86428571Y-36571428D01*
X86500000Y-36500000D01*
X86642857Y-36428571D01*
X87785714Y-36428571D02*
X87785714Y-37642857D01*
X87857142Y-37785714D01*
X87928571Y-37857142D01*
X88071428Y-37928571D01*
X88357142Y-37928571D01*
X88500000Y-37857142D01*
X88571428Y-37785714D01*
X88642857Y-37642857D01*
X88642857Y-36428571D01*
D10*
X108852380Y-39557142D02*
X109461904Y-39557142D01*
X109157142Y-39861904D02*
X109157142Y-39252380D01*
X109728571Y-39061904D02*
X109995238Y-39861904D01*
X110261904Y-39061904D01*
X119057142Y-30409523D02*
X119057142Y-29800000D01*
X119361904Y-30104761D02*
X118752380Y-30104761D01*
X118561904Y-29038095D02*
X118561904Y-29419047D01*
X118942857Y-29457142D01*
X118904761Y-29419047D01*
X118866666Y-29342857D01*
X118866666Y-29152380D01*
X118904761Y-29076190D01*
X118942857Y-29038095D01*
X119019047Y-29000000D01*
X119209523Y-29000000D01*
X119285714Y-29038095D01*
X119323809Y-29076190D01*
X119361904Y-29152380D01*
X119361904Y-29342857D01*
X119323809Y-29419047D01*
X119285714Y-29457142D01*
X118561904Y-28504761D02*
X118561904Y-28428571D01*
X118600000Y-28352380D01*
X118638095Y-28314285D01*
X118714285Y-28276190D01*
X118866666Y-28238095D01*
X119057142Y-28238095D01*
X119209523Y-28276190D01*
X119285714Y-28314285D01*
X119323809Y-28352380D01*
X119361904Y-28428571D01*
X119361904Y-28504761D01*
X119323809Y-28580952D01*
X119285714Y-28619047D01*
X119209523Y-28657142D01*
X119057142Y-28695238D01*
X118866666Y-28695238D01*
X118714285Y-28657142D01*
X118638095Y-28619047D01*
X118600000Y-28580952D01*
X118561904Y-28504761D01*
X118561904Y-28009523D02*
X119361904Y-27742857D01*
X118561904Y-27476190D01*
X26685714Y-80350000D02*
X26609523Y-80311904D01*
X26495238Y-80311904D01*
X26380952Y-80350000D01*
X26304761Y-80426190D01*
X26266666Y-80502380D01*
X26228571Y-80654761D01*
X26228571Y-80769047D01*
X26266666Y-80921428D01*
X26304761Y-80997619D01*
X26380952Y-81073809D01*
X26495238Y-81111904D01*
X26571428Y-81111904D01*
X26685714Y-81073809D01*
X26723809Y-81035714D01*
X26723809Y-80769047D01*
X26571428Y-80769047D01*
X27066666Y-81111904D02*
X27066666Y-80311904D01*
X27523809Y-81111904D01*
X27523809Y-80311904D01*
X27904761Y-81111904D02*
X27904761Y-80311904D01*
X28095238Y-80311904D01*
X28209523Y-80350000D01*
X28285714Y-80426190D01*
X28323809Y-80502380D01*
X28361904Y-80654761D01*
X28361904Y-80769047D01*
X28323809Y-80921428D01*
X28285714Y-80997619D01*
X28209523Y-81073809D01*
X28095238Y-81111904D01*
X27904761Y-81111904D01*
X28628571Y-81111904D02*
X29047619Y-80578571D01*
X28628571Y-80578571D02*
X29047619Y-81111904D01*
X29314285Y-80388095D02*
X29352380Y-80350000D01*
X29428571Y-80311904D01*
X29619047Y-80311904D01*
X29695238Y-80350000D01*
X29733333Y-80388095D01*
X29771428Y-80464285D01*
X29771428Y-80540476D01*
X29733333Y-80654761D01*
X29276190Y-81111904D01*
X29771428Y-81111904D01*
X25885714Y-61807142D02*
X26495238Y-61807142D01*
X26190476Y-62111904D02*
X26190476Y-61502380D01*
X27295238Y-62111904D02*
X26838095Y-62111904D01*
X27066666Y-62111904D02*
X27066666Y-61311904D01*
X26990476Y-61426190D01*
X26914285Y-61502380D01*
X26838095Y-61540476D01*
X27600000Y-61388095D02*
X27638095Y-61350000D01*
X27714285Y-61311904D01*
X27904761Y-61311904D01*
X27980952Y-61350000D01*
X28019047Y-61388095D01*
X28057142Y-61464285D01*
X28057142Y-61540476D01*
X28019047Y-61654761D01*
X27561904Y-62111904D01*
X28057142Y-62111904D01*
X28285714Y-61311904D02*
X28552380Y-62111904D01*
X28819047Y-61311904D01*
X29009523Y-62111904D02*
X29428571Y-61578571D01*
X29009523Y-61578571D02*
X29428571Y-62111904D01*
X29695238Y-61388095D02*
X29733333Y-61350000D01*
X29809523Y-61311904D01*
X30000000Y-61311904D01*
X30076190Y-61350000D01*
X30114285Y-61388095D01*
X30152380Y-61464285D01*
X30152380Y-61540476D01*
X30114285Y-61654761D01*
X29657142Y-62111904D01*
X30152380Y-62111904D01*
X26111904Y-59580952D02*
X25311904Y-59580952D01*
X25311904Y-59276190D01*
X25350000Y-59200000D01*
X25388095Y-59161904D01*
X25464285Y-59123809D01*
X25578571Y-59123809D01*
X25654761Y-59161904D01*
X25692857Y-59200000D01*
X25730952Y-59276190D01*
X25730952Y-59580952D01*
X26111904Y-58666666D02*
X26073809Y-58742857D01*
X26035714Y-58780952D01*
X25959523Y-58819047D01*
X25730952Y-58819047D01*
X25654761Y-58780952D01*
X25616666Y-58742857D01*
X25578571Y-58666666D01*
X25578571Y-58552380D01*
X25616666Y-58476190D01*
X25654761Y-58438095D01*
X25730952Y-58400000D01*
X25959523Y-58400000D01*
X26035714Y-58438095D01*
X26073809Y-58476190D01*
X26111904Y-58552380D01*
X26111904Y-58666666D01*
X25578571Y-58133333D02*
X26111904Y-57980952D01*
X25730952Y-57828571D01*
X26111904Y-57676190D01*
X25578571Y-57523809D01*
X26073809Y-56914285D02*
X26111904Y-56990476D01*
X26111904Y-57142857D01*
X26073809Y-57219047D01*
X25997619Y-57257142D01*
X25692857Y-57257142D01*
X25616666Y-57219047D01*
X25578571Y-57142857D01*
X25578571Y-56990476D01*
X25616666Y-56914285D01*
X25692857Y-56876190D01*
X25769047Y-56876190D01*
X25845238Y-57257142D01*
X26111904Y-56533333D02*
X25578571Y-56533333D01*
X25730952Y-56533333D02*
X25654761Y-56495238D01*
X25616666Y-56457142D01*
X25578571Y-56380952D01*
X25578571Y-56304761D01*
X55030952Y-80211904D02*
X55183333Y-80211904D01*
X55259523Y-80250000D01*
X55335714Y-80326190D01*
X55373809Y-80478571D01*
X55373809Y-80745238D01*
X55335714Y-80897619D01*
X55259523Y-80973809D01*
X55183333Y-81011904D01*
X55030952Y-81011904D01*
X54954761Y-80973809D01*
X54878571Y-80897619D01*
X54840476Y-80745238D01*
X54840476Y-80478571D01*
X54878571Y-80326190D01*
X54954761Y-80250000D01*
X55030952Y-80211904D01*
X55716666Y-81011904D02*
X55716666Y-80211904D01*
X56021428Y-80211904D01*
X56097619Y-80250000D01*
X56135714Y-80288095D01*
X56173809Y-80364285D01*
X56173809Y-80478571D01*
X56135714Y-80554761D01*
X56097619Y-80592857D01*
X56021428Y-80630952D01*
X55716666Y-80630952D01*
X56478571Y-80783333D02*
X56859523Y-80783333D01*
X56402380Y-81011904D02*
X56669047Y-80211904D01*
X56935714Y-81011904D01*
X57621428Y-81011904D02*
X57164285Y-81011904D01*
X57392857Y-81011904D02*
X57392857Y-80211904D01*
X57316666Y-80326190D01*
X57240476Y-80402380D01*
X57164285Y-80440476D01*
X58535714Y-80173809D02*
X57850000Y-81202380D01*
X58764285Y-80288095D02*
X58802380Y-80250000D01*
X58878571Y-80211904D01*
X59069047Y-80211904D01*
X59145238Y-80250000D01*
X59183333Y-80288095D01*
X59221428Y-80364285D01*
X59221428Y-80440476D01*
X59183333Y-80554761D01*
X58726190Y-81011904D01*
X59221428Y-81011904D01*
X59716666Y-80211904D02*
X59792857Y-80211904D01*
X59869047Y-80250000D01*
X59907142Y-80288095D01*
X59945238Y-80364285D01*
X59983333Y-80516666D01*
X59983333Y-80707142D01*
X59945238Y-80859523D01*
X59907142Y-80935714D01*
X59869047Y-80973809D01*
X59792857Y-81011904D01*
X59716666Y-81011904D01*
X59640476Y-80973809D01*
X59602380Y-80935714D01*
X59564285Y-80859523D01*
X59526190Y-80707142D01*
X59526190Y-80516666D01*
X59564285Y-80364285D01*
X59602380Y-80288095D01*
X59640476Y-80250000D01*
X59716666Y-80211904D01*
X60478571Y-80211904D02*
X60554761Y-80211904D01*
X60630952Y-80250000D01*
X60669047Y-80288095D01*
X60707142Y-80364285D01*
X60745238Y-80516666D01*
X60745238Y-80707142D01*
X60707142Y-80859523D01*
X60669047Y-80935714D01*
X60630952Y-80973809D01*
X60554761Y-81011904D01*
X60478571Y-81011904D01*
X60402380Y-80973809D01*
X60364285Y-80935714D01*
X60326190Y-80859523D01*
X60288095Y-80707142D01*
X60288095Y-80516666D01*
X60326190Y-80364285D01*
X60364285Y-80288095D01*
X60402380Y-80250000D01*
X60478571Y-80211904D01*
X61240476Y-80211904D02*
X61316666Y-80211904D01*
X61392857Y-80250000D01*
X61430952Y-80288095D01*
X61469047Y-80364285D01*
X61507142Y-80516666D01*
X61507142Y-80707142D01*
X61469047Y-80859523D01*
X61430952Y-80935714D01*
X61392857Y-80973809D01*
X61316666Y-81011904D01*
X61240476Y-81011904D01*
X61164285Y-80973809D01*
X61126190Y-80935714D01*
X61088095Y-80859523D01*
X61050000Y-80707142D01*
X61050000Y-80516666D01*
X61088095Y-80364285D01*
X61126190Y-80288095D01*
X61164285Y-80250000D01*
X61240476Y-80211904D01*
X62459523Y-81011904D02*
X62459523Y-80211904D01*
X62764285Y-80211904D01*
X62840476Y-80250000D01*
X62878571Y-80288095D01*
X62916666Y-80364285D01*
X62916666Y-80478571D01*
X62878571Y-80554761D01*
X62840476Y-80592857D01*
X62764285Y-80630952D01*
X62459523Y-80630952D01*
X63373809Y-81011904D02*
X63297619Y-80973809D01*
X63259523Y-80935714D01*
X63221428Y-80859523D01*
X63221428Y-80630952D01*
X63259523Y-80554761D01*
X63297619Y-80516666D01*
X63373809Y-80478571D01*
X63488095Y-80478571D01*
X63564285Y-80516666D01*
X63602380Y-80554761D01*
X63640476Y-80630952D01*
X63640476Y-80859523D01*
X63602380Y-80935714D01*
X63564285Y-80973809D01*
X63488095Y-81011904D01*
X63373809Y-81011904D01*
X63907142Y-80478571D02*
X64059523Y-81011904D01*
X64211904Y-80630952D01*
X64364285Y-81011904D01*
X64516666Y-80478571D01*
X65126190Y-80973809D02*
X65050000Y-81011904D01*
X64897619Y-81011904D01*
X64821428Y-80973809D01*
X64783333Y-80897619D01*
X64783333Y-80592857D01*
X64821428Y-80516666D01*
X64897619Y-80478571D01*
X65050000Y-80478571D01*
X65126190Y-80516666D01*
X65164285Y-80592857D01*
X65164285Y-80669047D01*
X64783333Y-80745238D01*
X65507142Y-81011904D02*
X65507142Y-80478571D01*
X65507142Y-80630952D02*
X65545238Y-80554761D01*
X65583333Y-80516666D01*
X65659523Y-80478571D01*
X65735714Y-80478571D01*
X54269047Y-81942857D02*
X54383333Y-81980952D01*
X54421428Y-82019047D01*
X54459523Y-82095238D01*
X54459523Y-82209523D01*
X54421428Y-82285714D01*
X54383333Y-82323809D01*
X54307142Y-82361904D01*
X54002380Y-82361904D01*
X54002380Y-81561904D01*
X54269047Y-81561904D01*
X54345238Y-81600000D01*
X54383333Y-81638095D01*
X54421428Y-81714285D01*
X54421428Y-81790476D01*
X54383333Y-81866666D01*
X54345238Y-81904761D01*
X54269047Y-81942857D01*
X54002380Y-81942857D01*
X54726190Y-81828571D02*
X54916666Y-82361904D01*
X55107142Y-81828571D02*
X54916666Y-82361904D01*
X54840476Y-82552380D01*
X54802380Y-82590476D01*
X54726190Y-82628571D01*
X56402380Y-82361904D02*
X56021428Y-82361904D01*
X56021428Y-81561904D01*
X57011904Y-81828571D02*
X57011904Y-82361904D01*
X56669047Y-81828571D02*
X56669047Y-82247619D01*
X56707142Y-82323809D01*
X56783333Y-82361904D01*
X56897619Y-82361904D01*
X56973809Y-82323809D01*
X57011904Y-82285714D01*
X57430952Y-82323809D02*
X57430952Y-82361904D01*
X57392857Y-82438095D01*
X57354761Y-82476190D01*
X57697619Y-81561904D02*
X58230952Y-81561904D01*
X57697619Y-82361904D01*
X58230952Y-82361904D01*
X58840476Y-82323809D02*
X58764285Y-82361904D01*
X58611904Y-82361904D01*
X58535714Y-82323809D01*
X58497619Y-82247619D01*
X58497619Y-81942857D01*
X58535714Y-81866666D01*
X58611904Y-81828571D01*
X58764285Y-81828571D01*
X58840476Y-81866666D01*
X58878571Y-81942857D01*
X58878571Y-82019047D01*
X58497619Y-82095238D01*
X59221428Y-81828571D02*
X59221428Y-82361904D01*
X59221428Y-81904761D02*
X59259523Y-81866666D01*
X59335714Y-81828571D01*
X59450000Y-81828571D01*
X59526190Y-81866666D01*
X59564285Y-81942857D01*
X59564285Y-82361904D01*
X59945238Y-82361904D02*
X59945238Y-81828571D01*
X59945238Y-81561904D02*
X59907142Y-81600000D01*
X59945238Y-81638095D01*
X59983333Y-81600000D01*
X59945238Y-81561904D01*
X59945238Y-81638095D01*
X60326190Y-81828571D02*
X60326190Y-82361904D01*
X60326190Y-81904761D02*
X60364285Y-81866666D01*
X60440476Y-81828571D01*
X60554761Y-81828571D01*
X60630952Y-81866666D01*
X60669047Y-81942857D01*
X60669047Y-82361904D01*
X61392857Y-81828571D02*
X61392857Y-82476190D01*
X61354761Y-82552380D01*
X61316666Y-82590476D01*
X61240476Y-82628571D01*
X61126190Y-82628571D01*
X61050000Y-82590476D01*
X61392857Y-82323809D02*
X61316666Y-82361904D01*
X61164285Y-82361904D01*
X61088095Y-82323809D01*
X61050000Y-82285714D01*
X61011904Y-82209523D01*
X61011904Y-81980952D01*
X61050000Y-81904761D01*
X61088095Y-81866666D01*
X61164285Y-81828571D01*
X61316666Y-81828571D01*
X61392857Y-81866666D01*
X62650000Y-81942857D02*
X62764285Y-81980952D01*
X62802380Y-82019047D01*
X62840476Y-82095238D01*
X62840476Y-82209523D01*
X62802380Y-82285714D01*
X62764285Y-82323809D01*
X62688095Y-82361904D01*
X62383333Y-82361904D01*
X62383333Y-81561904D01*
X62650000Y-81561904D01*
X62726190Y-81600000D01*
X62764285Y-81638095D01*
X62802380Y-81714285D01*
X62802380Y-81790476D01*
X62764285Y-81866666D01*
X62726190Y-81904761D01*
X62650000Y-81942857D01*
X62383333Y-81942857D01*
X63183333Y-82361904D02*
X63183333Y-81561904D01*
X63907142Y-81828571D02*
X63907142Y-82361904D01*
X63716666Y-81523809D02*
X63526190Y-82095238D01*
X64021428Y-82095238D01*
X64250000Y-81561904D02*
X64440476Y-82361904D01*
X64592857Y-81790476D01*
X64745238Y-82361904D01*
X64935714Y-81561904D01*
X65392857Y-81561904D02*
X65545238Y-81561904D01*
X65621428Y-81600000D01*
X65697619Y-81676190D01*
X65735714Y-81828571D01*
X65735714Y-82095238D01*
X65697619Y-82247619D01*
X65621428Y-82323809D01*
X65545238Y-82361904D01*
X65392857Y-82361904D01*
X65316666Y-82323809D01*
X65240476Y-82247619D01*
X65202380Y-82095238D01*
X65202380Y-81828571D01*
X65240476Y-81676190D01*
X65316666Y-81600000D01*
X65392857Y-81561904D01*
X66078571Y-82361904D02*
X66078571Y-81561904D01*
X66383333Y-81561904D01*
X66459523Y-81600000D01*
X66497619Y-81638095D01*
X66535714Y-81714285D01*
X66535714Y-81828571D01*
X66497619Y-81904761D01*
X66459523Y-81942857D01*
X66383333Y-81980952D01*
X66078571Y-81980952D01*
X56230952Y-83711904D02*
X56230952Y-82911904D01*
X56497619Y-83483333D01*
X56764285Y-82911904D01*
X56764285Y-83711904D01*
X57488095Y-83711904D02*
X57488095Y-83292857D01*
X57450000Y-83216666D01*
X57373809Y-83178571D01*
X57221428Y-83178571D01*
X57145238Y-83216666D01*
X57488095Y-83673809D02*
X57411904Y-83711904D01*
X57221428Y-83711904D01*
X57145238Y-83673809D01*
X57107142Y-83597619D01*
X57107142Y-83521428D01*
X57145238Y-83445238D01*
X57221428Y-83407142D01*
X57411904Y-83407142D01*
X57488095Y-83369047D01*
X57792857Y-83178571D02*
X57983333Y-83711904D01*
X58173809Y-83178571D02*
X57983333Y-83711904D01*
X57907142Y-83902380D01*
X57869047Y-83940476D01*
X57792857Y-83978571D01*
X59507142Y-83711904D02*
X59050000Y-83711904D01*
X59278571Y-83711904D02*
X59278571Y-82911904D01*
X59202380Y-83026190D01*
X59126190Y-83102380D01*
X59050000Y-83140476D01*
X59773809Y-82911904D02*
X60307142Y-82911904D01*
X59964285Y-83711904D01*
X60650000Y-83673809D02*
X60650000Y-83711904D01*
X60611904Y-83788095D01*
X60573809Y-83826190D01*
X61564285Y-82988095D02*
X61602380Y-82950000D01*
X61678571Y-82911904D01*
X61869047Y-82911904D01*
X61945238Y-82950000D01*
X61983333Y-82988095D01*
X62021428Y-83064285D01*
X62021428Y-83140476D01*
X61983333Y-83254761D01*
X61526190Y-83711904D01*
X62021428Y-83711904D01*
X62516666Y-82911904D02*
X62592857Y-82911904D01*
X62669047Y-82950000D01*
X62707142Y-82988095D01*
X62745238Y-83064285D01*
X62783333Y-83216666D01*
X62783333Y-83407142D01*
X62745238Y-83559523D01*
X62707142Y-83635714D01*
X62669047Y-83673809D01*
X62592857Y-83711904D01*
X62516666Y-83711904D01*
X62440476Y-83673809D01*
X62402380Y-83635714D01*
X62364285Y-83559523D01*
X62326190Y-83407142D01*
X62326190Y-83216666D01*
X62364285Y-83064285D01*
X62402380Y-82988095D01*
X62440476Y-82950000D01*
X62516666Y-82911904D01*
X63088095Y-82988095D02*
X63126190Y-82950000D01*
X63202380Y-82911904D01*
X63392857Y-82911904D01*
X63469047Y-82950000D01*
X63507142Y-82988095D01*
X63545238Y-83064285D01*
X63545238Y-83140476D01*
X63507142Y-83254761D01*
X63050000Y-83711904D01*
X63545238Y-83711904D01*
X64307142Y-83711904D02*
X63850000Y-83711904D01*
X64078571Y-83711904D02*
X64078571Y-82911904D01*
X64002380Y-83026190D01*
X63926190Y-83102380D01*
X63850000Y-83140476D01*
X85000000Y-61500000D02*
X85000000Y-62500000D01*
X84250000Y-61500000D02*
X85000000Y-61500000D01*
X74250000Y-61500000D02*
X74250000Y-63250000D01*
X78750000Y-61500000D02*
X74250000Y-61500000D01*
X81380952Y-60377380D02*
X81047619Y-59901190D01*
X80809523Y-60377380D02*
X80809523Y-59377380D01*
X81190476Y-59377380D01*
X81285714Y-59425000D01*
X81333333Y-59472619D01*
X81380952Y-59567857D01*
X81380952Y-59710714D01*
X81333333Y-59805952D01*
X81285714Y-59853571D01*
X81190476Y-59901190D01*
X80809523Y-59901190D01*
X82142857Y-59853571D02*
X81809523Y-59853571D01*
X81809523Y-60377380D02*
X81809523Y-59377380D01*
X82285714Y-59377380D01*
X79476190Y-61075000D02*
X79380952Y-61027380D01*
X79238095Y-61027380D01*
X79095238Y-61075000D01*
X79000000Y-61170238D01*
X78952380Y-61265476D01*
X78904761Y-61455952D01*
X78904761Y-61598809D01*
X78952380Y-61789285D01*
X79000000Y-61884523D01*
X79095238Y-61979761D01*
X79238095Y-62027380D01*
X79333333Y-62027380D01*
X79476190Y-61979761D01*
X79523809Y-61932142D01*
X79523809Y-61598809D01*
X79333333Y-61598809D01*
X79952380Y-62027380D02*
X79952380Y-61027380D01*
X80523809Y-62027380D01*
X80523809Y-61027380D01*
X81000000Y-62027380D02*
X81000000Y-61027380D01*
X81238095Y-61027380D01*
X81380952Y-61075000D01*
X81476190Y-61170238D01*
X81523809Y-61265476D01*
X81571428Y-61455952D01*
X81571428Y-61598809D01*
X81523809Y-61789285D01*
X81476190Y-61884523D01*
X81380952Y-61979761D01*
X81238095Y-62027380D01*
X81000000Y-62027380D01*
X82666666Y-62027380D02*
X83190476Y-61360714D01*
X82666666Y-61360714D02*
X83190476Y-62027380D01*
X83523809Y-61122619D02*
X83571428Y-61075000D01*
X83666666Y-61027380D01*
X83904761Y-61027380D01*
X84000000Y-61075000D01*
X84047619Y-61122619D01*
X84095238Y-61217857D01*
X84095238Y-61313095D01*
X84047619Y-61455952D01*
X83476190Y-62027380D01*
X84095238Y-62027380D01*
X113000000Y-70250000D02*
X112750000Y-71000000D01*
X112500000Y-70250000D02*
X112750000Y-71000000D01*
X112750000Y-71000000D02*
X112500000Y-70250000D01*
X112750000Y-68500000D02*
X112750000Y-71000000D01*
X113023809Y-69127380D02*
X113023809Y-68127380D01*
X113404761Y-68127380D01*
X113500000Y-68175000D01*
X113547619Y-68222619D01*
X113595238Y-68317857D01*
X113595238Y-68460714D01*
X113547619Y-68555952D01*
X113500000Y-68603571D01*
X113404761Y-68651190D01*
X113023809Y-68651190D01*
X114166666Y-69127380D02*
X114071428Y-69079761D01*
X114023809Y-69032142D01*
X113976190Y-68936904D01*
X113976190Y-68651190D01*
X114023809Y-68555952D01*
X114071428Y-68508333D01*
X114166666Y-68460714D01*
X114309523Y-68460714D01*
X114404761Y-68508333D01*
X114452380Y-68555952D01*
X114500000Y-68651190D01*
X114500000Y-68936904D01*
X114452380Y-69032142D01*
X114404761Y-69079761D01*
X114309523Y-69127380D01*
X114166666Y-69127380D01*
X114833333Y-68460714D02*
X115023809Y-69127380D01*
X115214285Y-68651190D01*
X115404761Y-69127380D01*
X115595238Y-68460714D01*
X116357142Y-69079761D02*
X116261904Y-69127380D01*
X116071428Y-69127380D01*
X115976190Y-69079761D01*
X115928571Y-68984523D01*
X115928571Y-68603571D01*
X115976190Y-68508333D01*
X116071428Y-68460714D01*
X116261904Y-68460714D01*
X116357142Y-68508333D01*
X116404761Y-68603571D01*
X116404761Y-68698809D01*
X115928571Y-68794047D01*
X116833333Y-69127380D02*
X116833333Y-68460714D01*
X116833333Y-68651190D02*
X116880952Y-68555952D01*
X116928571Y-68508333D01*
X117023809Y-68460714D01*
X117119047Y-68460714D01*
X114238095Y-69825000D02*
X114142857Y-69777380D01*
X114000000Y-69777380D01*
X113857142Y-69825000D01*
X113761904Y-69920238D01*
X113714285Y-70015476D01*
X113666666Y-70205952D01*
X113666666Y-70348809D01*
X113714285Y-70539285D01*
X113761904Y-70634523D01*
X113857142Y-70729761D01*
X114000000Y-70777380D01*
X114095238Y-70777380D01*
X114238095Y-70729761D01*
X114285714Y-70682142D01*
X114285714Y-70348809D01*
X114095238Y-70348809D01*
X114714285Y-70777380D02*
X114714285Y-69777380D01*
X115285714Y-70777380D01*
X115285714Y-69777380D01*
X115761904Y-70777380D02*
X115761904Y-69777380D01*
X116000000Y-69777380D01*
X116142857Y-69825000D01*
X116238095Y-69920238D01*
X116285714Y-70015476D01*
X116333333Y-70205952D01*
X116333333Y-70348809D01*
X116285714Y-70539285D01*
X116238095Y-70634523D01*
X116142857Y-70729761D01*
X116000000Y-70777380D01*
X115761904Y-70777380D01*
X102950000Y-59061904D02*
X103216666Y-59861904D01*
X103483333Y-59061904D01*
X103750000Y-59861904D02*
X103750000Y-59328571D01*
X103750000Y-59404761D02*
X103788095Y-59366666D01*
X103864285Y-59328571D01*
X103978571Y-59328571D01*
X104054761Y-59366666D01*
X104092857Y-59442857D01*
X104092857Y-59861904D01*
X104092857Y-59442857D02*
X104130952Y-59366666D01*
X104207142Y-59328571D01*
X104321428Y-59328571D01*
X104397619Y-59366666D01*
X104435714Y-59442857D01*
X104435714Y-59861904D01*
X103216666Y-58611904D02*
X103216666Y-57811904D01*
X103597619Y-58611904D02*
X103597619Y-58078571D01*
X103597619Y-58154761D02*
X103635714Y-58116666D01*
X103711904Y-58078571D01*
X103826190Y-58078571D01*
X103902380Y-58116666D01*
X103940476Y-58192857D01*
X103940476Y-58611904D01*
X103940476Y-58192857D02*
X103978571Y-58116666D01*
X104054761Y-58078571D01*
X104169047Y-58078571D01*
X104245238Y-58116666D01*
X104283333Y-58192857D01*
X104283333Y-58611904D01*
X103254761Y-49061904D02*
X103407142Y-49061904D01*
X103483333Y-49100000D01*
X103559523Y-49176190D01*
X103597619Y-49328571D01*
X103597619Y-49595238D01*
X103559523Y-49747619D01*
X103483333Y-49823809D01*
X103407142Y-49861904D01*
X103254761Y-49861904D01*
X103178571Y-49823809D01*
X103102380Y-49747619D01*
X103064285Y-49595238D01*
X103064285Y-49328571D01*
X103102380Y-49176190D01*
X103178571Y-49100000D01*
X103254761Y-49061904D01*
X103940476Y-49861904D02*
X103940476Y-49061904D01*
X104397619Y-49861904D01*
X104397619Y-49061904D01*
X103140476Y-47600000D02*
X103064285Y-47561904D01*
X102950000Y-47561904D01*
X102835714Y-47600000D01*
X102759523Y-47676190D01*
X102721428Y-47752380D01*
X102683333Y-47904761D01*
X102683333Y-48019047D01*
X102721428Y-48171428D01*
X102759523Y-48247619D01*
X102835714Y-48323809D01*
X102950000Y-48361904D01*
X103026190Y-48361904D01*
X103140476Y-48323809D01*
X103178571Y-48285714D01*
X103178571Y-48019047D01*
X103026190Y-48019047D01*
X103521428Y-48361904D02*
X103521428Y-47561904D01*
X103978571Y-48361904D01*
X103978571Y-47561904D01*
X104359523Y-48361904D02*
X104359523Y-47561904D01*
X104550000Y-47561904D01*
X104664285Y-47600000D01*
X104740476Y-47676190D01*
X104778571Y-47752380D01*
X104816666Y-47904761D01*
X104816666Y-48019047D01*
X104778571Y-48171428D01*
X104740476Y-48247619D01*
X104664285Y-48323809D01*
X104550000Y-48361904D01*
X104359523Y-48361904D01*
X96611904Y-54835714D02*
X95811904Y-54835714D01*
X96383333Y-54569047D01*
X95811904Y-54302380D01*
X96611904Y-54302380D01*
X96535714Y-53464285D02*
X96573809Y-53502380D01*
X96611904Y-53616666D01*
X96611904Y-53692857D01*
X96573809Y-53807142D01*
X96497619Y-53883333D01*
X96421428Y-53921428D01*
X96269047Y-53959523D01*
X96154761Y-53959523D01*
X96002380Y-53921428D01*
X95926190Y-53883333D01*
X95850000Y-53807142D01*
X95811904Y-53692857D01*
X95811904Y-53616666D01*
X95850000Y-53502380D01*
X95888095Y-53464285D01*
X95811904Y-53121428D02*
X96459523Y-53121428D01*
X96535714Y-53083333D01*
X96573809Y-53045238D01*
X96611904Y-52969047D01*
X96611904Y-52816666D01*
X96573809Y-52740476D01*
X96535714Y-52702380D01*
X96459523Y-52664285D01*
X95811904Y-52664285D01*
X69442857Y-55047619D02*
X69442857Y-55314285D01*
X69861904Y-55314285D02*
X69061904Y-55314285D01*
X69061904Y-54933333D01*
X69861904Y-54285714D02*
X69442857Y-54285714D01*
X69366666Y-54323809D01*
X69328571Y-54400000D01*
X69328571Y-54552380D01*
X69366666Y-54628571D01*
X69823809Y-54285714D02*
X69861904Y-54361904D01*
X69861904Y-54552380D01*
X69823809Y-54628571D01*
X69747619Y-54666666D01*
X69671428Y-54666666D01*
X69595238Y-54628571D01*
X69557142Y-54552380D01*
X69557142Y-54361904D01*
X69519047Y-54285714D01*
X69328571Y-53561904D02*
X69861904Y-53561904D01*
X69328571Y-53904761D02*
X69747619Y-53904761D01*
X69823809Y-53866666D01*
X69861904Y-53790476D01*
X69861904Y-53676190D01*
X69823809Y-53600000D01*
X69785714Y-53561904D01*
X69861904Y-53066666D02*
X69823809Y-53142857D01*
X69747619Y-53180952D01*
X69061904Y-53180952D01*
X69328571Y-52876190D02*
X69328571Y-52571428D01*
X69061904Y-52761904D02*
X69747619Y-52761904D01*
X69823809Y-52723809D01*
X69861904Y-52647619D01*
X69861904Y-52571428D01*
X103140476Y-62850000D02*
X103064285Y-62811904D01*
X102950000Y-62811904D01*
X102835714Y-62850000D01*
X102759523Y-62926190D01*
X102721428Y-63002380D01*
X102683333Y-63154761D01*
X102683333Y-63269047D01*
X102721428Y-63421428D01*
X102759523Y-63497619D01*
X102835714Y-63573809D01*
X102950000Y-63611904D01*
X103026190Y-63611904D01*
X103140476Y-63573809D01*
X103178571Y-63535714D01*
X103178571Y-63269047D01*
X103026190Y-63269047D01*
X103521428Y-63611904D02*
X103521428Y-62811904D01*
X103978571Y-63611904D01*
X103978571Y-62811904D01*
X104359523Y-63611904D02*
X104359523Y-62811904D01*
X104550000Y-62811904D01*
X104664285Y-62850000D01*
X104740476Y-62926190D01*
X104778571Y-63002380D01*
X104816666Y-63154761D01*
X104816666Y-63269047D01*
X104778571Y-63421428D01*
X104740476Y-63497619D01*
X104664285Y-63573809D01*
X104550000Y-63611904D01*
X104359523Y-63611904D01*
X103216666Y-69111904D02*
X103216666Y-68311904D01*
X103597619Y-69111904D02*
X103597619Y-68578571D01*
X103597619Y-68654761D02*
X103635714Y-68616666D01*
X103711904Y-68578571D01*
X103826190Y-68578571D01*
X103902380Y-68616666D01*
X103940476Y-68692857D01*
X103940476Y-69111904D01*
X103940476Y-68692857D02*
X103978571Y-68616666D01*
X104054761Y-68578571D01*
X104169047Y-68578571D01*
X104245238Y-68616666D01*
X104283333Y-68692857D01*
X104283333Y-69111904D01*
X109750000Y-54500000D02*
X109500000Y-54500000D01*
X109750000Y-55250000D02*
X109750000Y-54500000D01*
X78250000Y-51000000D02*
X78250000Y-52500000D01*
X79000000Y-55250000D02*
X78000000Y-55250000D01*
X79273809Y-54811904D02*
X79426190Y-54811904D01*
X79502380Y-54850000D01*
X79578571Y-54926190D01*
X79616666Y-55078571D01*
X79616666Y-55345238D01*
X79578571Y-55497619D01*
X79502380Y-55573809D01*
X79426190Y-55611904D01*
X79273809Y-55611904D01*
X79197619Y-55573809D01*
X79121428Y-55497619D01*
X79083333Y-55345238D01*
X79083333Y-55078571D01*
X79121428Y-54926190D01*
X79197619Y-54850000D01*
X79273809Y-54811904D01*
X80416666Y-55535714D02*
X80378571Y-55573809D01*
X80264285Y-55611904D01*
X80188095Y-55611904D01*
X80073809Y-55573809D01*
X79997619Y-55497619D01*
X79959523Y-55421428D01*
X79921428Y-55269047D01*
X79921428Y-55154761D01*
X79959523Y-55002380D01*
X79997619Y-54926190D01*
X80073809Y-54850000D01*
X80188095Y-54811904D01*
X80264285Y-54811904D01*
X80378571Y-54850000D01*
X80416666Y-54888095D01*
X76390476Y-51100000D02*
X76314285Y-51061904D01*
X76200000Y-51061904D01*
X76085714Y-51100000D01*
X76009523Y-51176190D01*
X75971428Y-51252380D01*
X75933333Y-51404761D01*
X75933333Y-51519047D01*
X75971428Y-51671428D01*
X76009523Y-51747619D01*
X76085714Y-51823809D01*
X76200000Y-51861904D01*
X76276190Y-51861904D01*
X76390476Y-51823809D01*
X76428571Y-51785714D01*
X76428571Y-51519047D01*
X76276190Y-51519047D01*
X76771428Y-51861904D02*
X76771428Y-51061904D01*
X77228571Y-51861904D01*
X77228571Y-51061904D01*
X77609523Y-51861904D02*
X77609523Y-51061904D01*
X77800000Y-51061904D01*
X77914285Y-51100000D01*
X77990476Y-51176190D01*
X78028571Y-51252380D01*
X78066666Y-51404761D01*
X78066666Y-51519047D01*
X78028571Y-51671428D01*
X77990476Y-51747619D01*
X77914285Y-51823809D01*
X77800000Y-51861904D01*
X77609523Y-51861904D01*
X76311904Y-59169047D02*
X76311904Y-59016666D01*
X76350000Y-58940476D01*
X76426190Y-58864285D01*
X76578571Y-58826190D01*
X76845238Y-58826190D01*
X76997619Y-58864285D01*
X77073809Y-58940476D01*
X77111904Y-59016666D01*
X77111904Y-59169047D01*
X77073809Y-59245238D01*
X76997619Y-59321428D01*
X76845238Y-59359523D01*
X76578571Y-59359523D01*
X76426190Y-59321428D01*
X76350000Y-59245238D01*
X76311904Y-59169047D01*
X76311904Y-58597619D02*
X77111904Y-58330952D01*
X76311904Y-58064285D01*
X66840476Y-48057142D02*
X67450000Y-48057142D01*
X67145238Y-48361904D02*
X67145238Y-47752380D01*
X68211904Y-47561904D02*
X67830952Y-47561904D01*
X67792857Y-47942857D01*
X67830952Y-47904761D01*
X67907142Y-47866666D01*
X68097619Y-47866666D01*
X68173809Y-47904761D01*
X68211904Y-47942857D01*
X68250000Y-48019047D01*
X68250000Y-48209523D01*
X68211904Y-48285714D01*
X68173809Y-48323809D01*
X68097619Y-48361904D01*
X67907142Y-48361904D01*
X67830952Y-48323809D01*
X67792857Y-48285714D01*
X68745238Y-47561904D02*
X68821428Y-47561904D01*
X68897619Y-47600000D01*
X68935714Y-47638095D01*
X68973809Y-47714285D01*
X69011904Y-47866666D01*
X69011904Y-48057142D01*
X68973809Y-48209523D01*
X68935714Y-48285714D01*
X68897619Y-48323809D01*
X68821428Y-48361904D01*
X68745238Y-48361904D01*
X68669047Y-48323809D01*
X68630952Y-48285714D01*
X68592857Y-48209523D01*
X68554761Y-48057142D01*
X68554761Y-47866666D01*
X68592857Y-47714285D01*
X68630952Y-47638095D01*
X68669047Y-47600000D01*
X68745238Y-47561904D01*
X69240476Y-47561904D02*
X69507142Y-48361904D01*
X69773809Y-47561904D01*
X59418928Y-62511904D02*
X59037976Y-62511904D01*
X59037976Y-61711904D01*
X59685595Y-62092857D02*
X59952261Y-62092857D01*
X60066547Y-62511904D02*
X59685595Y-62511904D01*
X59685595Y-61711904D01*
X60066547Y-61711904D01*
X60409404Y-62511904D02*
X60409404Y-61711904D01*
X60599880Y-61711904D01*
X60714166Y-61750000D01*
X60790357Y-61826190D01*
X60828452Y-61902380D01*
X60866547Y-62054761D01*
X60866547Y-62169047D01*
X60828452Y-62321428D01*
X60790357Y-62397619D01*
X60714166Y-62473809D01*
X60599880Y-62511904D01*
X60409404Y-62511904D01*
X61171309Y-62473809D02*
X61247500Y-62511904D01*
X61399880Y-62511904D01*
X61476071Y-62473809D01*
X61514166Y-62397619D01*
X61514166Y-62359523D01*
X61476071Y-62283333D01*
X61399880Y-62245238D01*
X61285595Y-62245238D01*
X61209404Y-62207142D01*
X61171309Y-62130952D01*
X61171309Y-62092857D01*
X61209404Y-62016666D01*
X61285595Y-61978571D01*
X61399880Y-61978571D01*
X61476071Y-62016666D01*
X61857023Y-62435714D02*
X61895119Y-62473809D01*
X61857023Y-62511904D01*
X61818928Y-62473809D01*
X61857023Y-62435714D01*
X61857023Y-62511904D01*
X61857023Y-62016666D02*
X61895119Y-62054761D01*
X61857023Y-62092857D01*
X61818928Y-62054761D01*
X61857023Y-62016666D01*
X61857023Y-62092857D01*
X59190357Y-63061904D02*
X59342738Y-63061904D01*
X59418928Y-63100000D01*
X59495119Y-63176190D01*
X59533214Y-63328571D01*
X59533214Y-63595238D01*
X59495119Y-63747619D01*
X59418928Y-63823809D01*
X59342738Y-63861904D01*
X59190357Y-63861904D01*
X59114166Y-63823809D01*
X59037976Y-63747619D01*
X58999880Y-63595238D01*
X58999880Y-63328571D01*
X59037976Y-63176190D01*
X59114166Y-63100000D01*
X59190357Y-63061904D01*
X59799880Y-63328571D02*
X59990357Y-63861904D01*
X60180833Y-63328571D01*
X60790357Y-63823809D02*
X60714166Y-63861904D01*
X60561785Y-63861904D01*
X60485595Y-63823809D01*
X60447500Y-63747619D01*
X60447500Y-63442857D01*
X60485595Y-63366666D01*
X60561785Y-63328571D01*
X60714166Y-63328571D01*
X60790357Y-63366666D01*
X60828452Y-63442857D01*
X60828452Y-63519047D01*
X60447500Y-63595238D01*
X61171309Y-63861904D02*
X61171309Y-63328571D01*
X61171309Y-63480952D02*
X61209404Y-63404761D01*
X61247500Y-63366666D01*
X61323690Y-63328571D01*
X61399880Y-63328571D01*
X62733214Y-63785714D02*
X62695119Y-63823809D01*
X62580833Y-63861904D01*
X62504642Y-63861904D01*
X62390357Y-63823809D01*
X62314166Y-63747619D01*
X62276071Y-63671428D01*
X62237976Y-63519047D01*
X62237976Y-63404761D01*
X62276071Y-63252380D01*
X62314166Y-63176190D01*
X62390357Y-63100000D01*
X62504642Y-63061904D01*
X62580833Y-63061904D01*
X62695119Y-63100000D01*
X62733214Y-63138095D01*
X63418928Y-63328571D02*
X63418928Y-63861904D01*
X63076071Y-63328571D02*
X63076071Y-63747619D01*
X63114166Y-63823809D01*
X63190357Y-63861904D01*
X63304642Y-63861904D01*
X63380833Y-63823809D01*
X63418928Y-63785714D01*
X63799880Y-63861904D02*
X63799880Y-63328571D01*
X63799880Y-63480952D02*
X63837976Y-63404761D01*
X63876071Y-63366666D01*
X63952261Y-63328571D01*
X64028452Y-63328571D01*
X64295119Y-63861904D02*
X64295119Y-63328571D01*
X64295119Y-63480952D02*
X64333214Y-63404761D01*
X64371309Y-63366666D01*
X64447500Y-63328571D01*
X64523690Y-63328571D01*
X65095119Y-63823809D02*
X65018928Y-63861904D01*
X64866547Y-63861904D01*
X64790357Y-63823809D01*
X64752261Y-63747619D01*
X64752261Y-63442857D01*
X64790357Y-63366666D01*
X64866547Y-63328571D01*
X65018928Y-63328571D01*
X65095119Y-63366666D01*
X65133214Y-63442857D01*
X65133214Y-63519047D01*
X64752261Y-63595238D01*
X65476071Y-63328571D02*
X65476071Y-63861904D01*
X65476071Y-63404761D02*
X65514166Y-63366666D01*
X65590357Y-63328571D01*
X65704642Y-63328571D01*
X65780833Y-63366666D01*
X65818928Y-63442857D01*
X65818928Y-63861904D01*
X66085595Y-63328571D02*
X66390357Y-63328571D01*
X66199880Y-63061904D02*
X66199880Y-63747619D01*
X66237976Y-63823809D01*
X66314166Y-63861904D01*
X66390357Y-63861904D01*
X59190357Y-64411904D02*
X59342738Y-64411904D01*
X59418928Y-64450000D01*
X59495119Y-64526190D01*
X59533214Y-64678571D01*
X59533214Y-64945238D01*
X59495119Y-65097619D01*
X59418928Y-65173809D01*
X59342738Y-65211904D01*
X59190357Y-65211904D01*
X59114166Y-65173809D01*
X59037976Y-65097619D01*
X58999880Y-64945238D01*
X58999880Y-64678571D01*
X59037976Y-64526190D01*
X59114166Y-64450000D01*
X59190357Y-64411904D01*
X59799880Y-64678571D02*
X59990357Y-65211904D01*
X60180833Y-64678571D01*
X60790357Y-65173809D02*
X60714166Y-65211904D01*
X60561785Y-65211904D01*
X60485595Y-65173809D01*
X60447500Y-65097619D01*
X60447500Y-64792857D01*
X60485595Y-64716666D01*
X60561785Y-64678571D01*
X60714166Y-64678571D01*
X60790357Y-64716666D01*
X60828452Y-64792857D01*
X60828452Y-64869047D01*
X60447500Y-64945238D01*
X61171309Y-65211904D02*
X61171309Y-64678571D01*
X61171309Y-64830952D02*
X61209404Y-64754761D01*
X61247500Y-64716666D01*
X61323690Y-64678571D01*
X61399880Y-64678571D01*
X62161785Y-64411904D02*
X62428452Y-65211904D01*
X62695119Y-64411904D01*
X63076071Y-65211904D02*
X62999880Y-65173809D01*
X62961785Y-65135714D01*
X62923690Y-65059523D01*
X62923690Y-64830952D01*
X62961785Y-64754761D01*
X62999880Y-64716666D01*
X63076071Y-64678571D01*
X63190357Y-64678571D01*
X63266547Y-64716666D01*
X63304642Y-64754761D01*
X63342738Y-64830952D01*
X63342738Y-65059523D01*
X63304642Y-65135714D01*
X63266547Y-65173809D01*
X63190357Y-65211904D01*
X63076071Y-65211904D01*
X63799880Y-65211904D02*
X63723690Y-65173809D01*
X63685595Y-65097619D01*
X63685595Y-64411904D01*
X63990357Y-64678571D02*
X64295119Y-64678571D01*
X64104642Y-64411904D02*
X64104642Y-65097619D01*
X64142738Y-65173809D01*
X64218928Y-65211904D01*
X64295119Y-65211904D01*
X58750000Y-48500000D02*
X58000000Y-48500000D01*
X58750000Y-52750000D02*
X58750000Y-48500000D01*
X46250000Y-72000000D02*
X47250000Y-72000000D01*
D12*
X88480000Y-61770011D02*
X88480000Y-60500011D01*
X88880000Y-62170011D02*
X89800000Y-62170011D01*
X92020000Y-61770011D02*
X92020000Y-60500011D01*
X90700000Y-62170011D02*
X91620000Y-62170011D01*
X90700000Y-60100011D02*
X91620000Y-60100011D01*
X88880000Y-60100011D02*
X89800000Y-60100011D01*
X88480000Y-60500001D02*
G75*
G02X88880000Y-60100001I400000J0D01*
G01*
X88880000Y-62170011D02*
G75*
G02X88480000Y-61770011I0J400000D01*
G01*
X92020000Y-61770011D02*
G75*
G02X91620000Y-62170011I-400000J0D01*
G01*
X91620000Y-60100011D02*
G75*
G02X92020000Y-60500011I0J-400000D01*
G01*
X105730000Y-52135000D02*
X105730000Y-50865000D01*
X106130000Y-52535000D02*
X107050000Y-52535000D01*
X109270000Y-52135000D02*
X109270000Y-50865000D01*
X107950000Y-52535000D02*
X108870000Y-52535000D01*
X107950000Y-50465000D02*
X108870000Y-50465000D01*
X106130000Y-50465000D02*
X107050000Y-50465000D01*
X105730000Y-50864990D02*
G75*
G02X106130000Y-50464990I400000J0D01*
G01*
X106130000Y-52535000D02*
G75*
G02X105730000Y-52135000I0J400000D01*
G01*
X109270000Y-52135000D02*
G75*
G02X108870000Y-52535000I-400000J0D01*
G01*
X108870000Y-50465000D02*
G75*
G02X109270000Y-50865000I0J-400000D01*
G01*
X116970000Y-48365000D02*
X116970000Y-49635000D01*
X116570000Y-47965000D02*
X115650000Y-47965000D01*
X113430000Y-48365000D02*
X113430000Y-49635000D01*
X114750000Y-47965000D02*
X113830000Y-47965000D01*
X114750000Y-50035000D02*
X113830000Y-50035000D01*
X116570000Y-50035000D02*
X115650000Y-50035000D01*
X116970000Y-49635010D02*
G75*
G02X116570000Y-50035010I-400000J0D01*
G01*
X116570000Y-47965000D02*
G75*
G02X116970000Y-48365000I0J-400000D01*
G01*
X113430000Y-48365000D02*
G75*
G02X113830000Y-47965000I400000J0D01*
G01*
X113830000Y-50035000D02*
G75*
G02X113430000Y-49635000I0J400000D01*
G01*
D13*
X31175000Y-30550000D02*
X31175000Y-26950000D01*
X33325000Y-30550000D02*
X33325000Y-26950000D01*
X33325000Y-29725000D02*
X31175000Y-29725000D01*
X30500000Y-34100000D02*
X30900000Y-34100000D01*
X30900000Y-34100000D02*
X30900000Y-39100000D01*
X30500000Y-39100000D02*
X30900000Y-39100000D01*
X26700000Y-34100000D02*
X27100000Y-34100000D01*
X26700000Y-34100000D02*
X26700000Y-39100000D01*
X26700000Y-39100000D02*
X27100000Y-39100000D01*
X26700000Y-35800000D02*
X30900000Y-35800000D01*
D12*
X29950000Y-27705000D02*
X29950000Y-26750000D01*
X29950000Y-24750000D02*
X29950000Y-23795000D01*
X27550000Y-24750000D02*
X27550000Y-23795000D01*
X27550000Y-27705000D02*
X27550000Y-26750000D01*
X29550000Y-23395000D02*
X27950000Y-23395000D01*
X29550000Y-28105000D02*
X27950000Y-28105000D01*
X27550000Y-23795000D02*
G75*
G02X27950000Y-23395000I400000J0D01*
G01*
X29550000Y-23395000D02*
G75*
G02X29950000Y-23795000I0J-400000D01*
G01*
X29950000Y-27705000D02*
G75*
G02X29550000Y-28105000I-400000J0D01*
G01*
X27950000Y-28105000D02*
G75*
G02X27550000Y-27705000I0J400000D01*
G01*
X26250000Y-31450000D02*
X24895000Y-31450000D01*
X26250000Y-29050000D02*
X24895000Y-29050000D01*
X29605000Y-29050000D02*
X28250000Y-29050000D01*
X29605000Y-29050000D02*
X29605000Y-31450000D01*
X24895000Y-29050000D02*
X24895000Y-31450000D01*
X29605000Y-31450000D02*
X28250000Y-31450000D01*
D14*
X65525000Y-49275000D02*
X65525000Y-46875000D01*
X59675000Y-49275000D02*
X61975000Y-49275000D01*
X59675000Y-50100000D02*
X59675000Y-49275000D01*
X67825000Y-49275000D02*
X65525000Y-49275000D01*
X67825000Y-50100000D02*
X67825000Y-49275000D01*
X59675000Y-54475000D02*
X59675000Y-53650000D01*
X67825000Y-54475000D02*
X59675000Y-54475000D01*
X67825000Y-53650000D02*
X67825000Y-54475000D01*
D13*
X111150000Y-38950000D02*
X117350000Y-38950000D01*
X111150000Y-44450000D02*
X111950000Y-44450000D01*
X111150000Y-37050000D02*
X111150000Y-44450000D01*
X111150000Y-37050000D02*
X111950000Y-37050000D01*
X116550000Y-44450000D02*
X117350000Y-44450000D01*
X117350000Y-37050000D02*
X117350000Y-44450000D01*
X116550000Y-37050000D02*
X117350000Y-37050000D01*
D14*
X75475000Y-57775000D02*
X77875000Y-57775000D01*
X75475000Y-49925000D02*
X75475000Y-52225000D01*
X74650000Y-49925000D02*
X75475000Y-49925000D01*
X75475000Y-60075000D02*
X75475000Y-57775000D01*
X74650000Y-60075000D02*
X75475000Y-60075000D01*
X70275000Y-49925000D02*
X71100000Y-49925000D01*
X70275000Y-60075000D02*
X70275000Y-49925000D01*
X71100000Y-60075000D02*
X70275000Y-60075000D01*
X102225000Y-67775000D02*
X104625000Y-67775000D01*
X102225000Y-61925000D02*
X102225000Y-64225000D01*
X101400000Y-61925000D02*
X102225000Y-61925000D01*
X102225000Y-70075000D02*
X102225000Y-67775000D01*
X101400000Y-70075000D02*
X102225000Y-70075000D01*
X97025000Y-61925000D02*
X97850000Y-61925000D01*
X97025000Y-70075000D02*
X97025000Y-61925000D01*
X97850000Y-70075000D02*
X97025000Y-70075000D01*
X102275000Y-57575000D02*
X104675000Y-57575000D01*
X102275000Y-47725000D02*
X102275000Y-50025000D01*
X101450000Y-47725000D02*
X102275000Y-47725000D01*
X102275000Y-59875000D02*
X102275000Y-57575000D01*
X101450000Y-59875000D02*
X102275000Y-59875000D01*
X97075000Y-47725000D02*
X97900000Y-47725000D01*
X97075000Y-59875000D02*
X97075000Y-47725000D01*
X97900000Y-59875000D02*
X97075000Y-59875000D01*
X43150000Y-42150000D02*
X41850000Y-42150000D01*
X42500000Y-41550000D02*
X42500000Y-42750000D01*
X42854000Y-47561000D02*
X42146000Y-47561000D01*
X43059000Y-47521000D02*
X41941000Y-47521000D01*
X43207000Y-47481000D02*
X41793000Y-47481000D01*
X43329000Y-47441000D02*
X41671000Y-47441000D01*
X43434000Y-47401000D02*
X41566000Y-47401000D01*
X43528000Y-47361000D02*
X41472000Y-47361000D01*
X43612000Y-47321000D02*
X41388000Y-47321000D01*
X43689000Y-47281000D02*
X41311000Y-47281000D01*
X43761000Y-47241000D02*
X41239000Y-47241000D01*
X41520000Y-47201000D02*
X41173000Y-47201000D01*
X43827000Y-47201000D02*
X43480000Y-47201000D01*
X41520000Y-47161000D02*
X41110000Y-47161000D01*
X43890000Y-47161000D02*
X43480000Y-47161000D01*
X41520000Y-47121000D02*
X41052000Y-47121000D01*
X43948000Y-47121000D02*
X43480000Y-47121000D01*
X41520000Y-47081000D02*
X40996000Y-47081000D01*
X44004000Y-47081000D02*
X43480000Y-47081000D01*
X41520000Y-47041000D02*
X40944000Y-47041000D01*
X44056000Y-47041000D02*
X43480000Y-47041000D01*
X41520000Y-47001000D02*
X40894000Y-47001000D01*
X44106000Y-47001000D02*
X43480000Y-47001000D01*
X41520000Y-46961000D02*
X40846000Y-46961000D01*
X44154000Y-46961000D02*
X43480000Y-46961000D01*
X41520000Y-46921000D02*
X40801000Y-46921000D01*
X44199000Y-46921000D02*
X43480000Y-46921000D01*
X41520000Y-46881000D02*
X40758000Y-46881000D01*
X44242000Y-46881000D02*
X43480000Y-46881000D01*
X41520000Y-46841000D02*
X40717000Y-46841000D01*
X44283000Y-46841000D02*
X43480000Y-46841000D01*
X41520000Y-46801000D02*
X40677000Y-46801000D01*
X44323000Y-46801000D02*
X43480000Y-46801000D01*
X41520000Y-46761000D02*
X40639000Y-46761000D01*
X44361000Y-46761000D02*
X43480000Y-46761000D01*
X41520000Y-46721000D02*
X40603000Y-46721000D01*
X44397000Y-46721000D02*
X43480000Y-46721000D01*
X41520000Y-46681000D02*
X40568000Y-46681000D01*
X44432000Y-46681000D02*
X43480000Y-46681000D01*
X41520000Y-46641000D02*
X40535000Y-46641000D01*
X44465000Y-46641000D02*
X43480000Y-46641000D01*
X41520000Y-46601000D02*
X40503000Y-46601000D01*
X44497000Y-46601000D02*
X43480000Y-46601000D01*
X41520000Y-46561000D02*
X40472000Y-46561000D01*
X44528000Y-46561000D02*
X43480000Y-46561000D01*
X41520000Y-46521000D02*
X40442000Y-46521000D01*
X44558000Y-46521000D02*
X43480000Y-46521000D01*
X41520000Y-46481000D02*
X40414000Y-46481000D01*
X44586000Y-46481000D02*
X43480000Y-46481000D01*
X41520000Y-46441000D02*
X40387000Y-46441000D01*
X44613000Y-46441000D02*
X43480000Y-46441000D01*
X41520000Y-46401000D02*
X40360000Y-46401000D01*
X44640000Y-46401000D02*
X43480000Y-46401000D01*
X41520000Y-46361000D02*
X40335000Y-46361000D01*
X44665000Y-46361000D02*
X43480000Y-46361000D01*
X41520000Y-46321000D02*
X40311000Y-46321000D01*
X44689000Y-46321000D02*
X43480000Y-46321000D01*
X41520000Y-46281000D02*
X40288000Y-46281000D01*
X44712000Y-46281000D02*
X43480000Y-46281000D01*
X41520000Y-46241000D02*
X40266000Y-46241000D01*
X44734000Y-46241000D02*
X43480000Y-46241000D01*
X41520000Y-46201000D02*
X40244000Y-46201000D01*
X44756000Y-46201000D02*
X43480000Y-46201000D01*
X41520000Y-46161000D02*
X40224000Y-46161000D01*
X44776000Y-46161000D02*
X43480000Y-46161000D01*
X41520000Y-46121000D02*
X40204000Y-46121000D01*
X44796000Y-46121000D02*
X43480000Y-46121000D01*
X41520000Y-46081000D02*
X40185000Y-46081000D01*
X44815000Y-46081000D02*
X43480000Y-46081000D01*
X41520000Y-46041000D02*
X40167000Y-46041000D01*
X44833000Y-46041000D02*
X43480000Y-46041000D01*
X41520000Y-46001000D02*
X40150000Y-46001000D01*
X44850000Y-46001000D02*
X43480000Y-46001000D01*
X41520000Y-45961000D02*
X40134000Y-45961000D01*
X44866000Y-45961000D02*
X43480000Y-45961000D01*
X41520000Y-45921000D02*
X40118000Y-45921000D01*
X44882000Y-45921000D02*
X43480000Y-45921000D01*
X41520000Y-45881000D02*
X40104000Y-45881000D01*
X44896000Y-45881000D02*
X43480000Y-45881000D01*
X41520000Y-45841000D02*
X40090000Y-45841000D01*
X44910000Y-45841000D02*
X43480000Y-45841000D01*
X41520000Y-45801000D02*
X40076000Y-45801000D01*
X44924000Y-45801000D02*
X43480000Y-45801000D01*
X41520000Y-45761000D02*
X40064000Y-45761000D01*
X44936000Y-45761000D02*
X43480000Y-45761000D01*
X41520000Y-45721000D02*
X40052000Y-45721000D01*
X44948000Y-45721000D02*
X43480000Y-45721000D01*
X41520000Y-45680000D02*
X40040000Y-45680000D01*
X44960000Y-45680000D02*
X43480000Y-45680000D01*
X41520000Y-45640000D02*
X40030000Y-45640000D01*
X44970000Y-45640000D02*
X43480000Y-45640000D01*
X41520000Y-45600000D02*
X40020000Y-45600000D01*
X44980000Y-45600000D02*
X43480000Y-45600000D01*
X41520000Y-45560000D02*
X40011000Y-45560000D01*
X44989000Y-45560000D02*
X43480000Y-45560000D01*
X41520000Y-45520000D02*
X40002000Y-45520000D01*
X44998000Y-45520000D02*
X43480000Y-45520000D01*
X41520000Y-45480000D02*
X39994000Y-45480000D01*
X45006000Y-45480000D02*
X43480000Y-45480000D01*
X41520000Y-45440000D02*
X39987000Y-45440000D01*
X45013000Y-45440000D02*
X43480000Y-45440000D01*
X41520000Y-45400000D02*
X39981000Y-45400000D01*
X45019000Y-45400000D02*
X43480000Y-45400000D01*
X41520000Y-45360000D02*
X39975000Y-45360000D01*
X45025000Y-45360000D02*
X43480000Y-45360000D01*
X41520000Y-45320000D02*
X39969000Y-45320000D01*
X45031000Y-45320000D02*
X43480000Y-45320000D01*
X41520000Y-45280000D02*
X39965000Y-45280000D01*
X45035000Y-45280000D02*
X43480000Y-45280000D01*
X45039000Y-45240000D02*
X39961000Y-45240000D01*
X45043000Y-45200000D02*
X39957000Y-45200000D01*
X45046000Y-45160000D02*
X39954000Y-45160000D01*
X45048000Y-45120000D02*
X39952000Y-45120000D01*
X45049000Y-45080000D02*
X39951000Y-45080000D01*
X45050000Y-45040000D02*
X39950000Y-45040000D01*
X45050000Y-45000000D02*
X39950000Y-45000000D01*
X41320277Y-47305722D02*
G75*
G03X43680000Y-47305580I1179723J2305722D01*
G01*
X41320277Y-47305722D02*
G75*
G02X41320000Y-42694420I1179723J2305722D01*
G01*
X43679723Y-47305722D02*
G75*
G03X43680000Y-42694420I-1179723J2305722D01*
G01*
D12*
X39900000Y-81550000D02*
X39900000Y-80950000D01*
D13*
X38350000Y-82710000D02*
X38350000Y-82050000D01*
X38350000Y-82710000D02*
X39165000Y-82710000D01*
X38350000Y-79790000D02*
X39165000Y-79790000D01*
X38350000Y-80450000D02*
X38350000Y-79790000D01*
X38350000Y-80450000D02*
X38350000Y-79790000D01*
X38350000Y-80450000D02*
X38350000Y-79790000D01*
D14*
X85075000Y-44220000D02*
X85075000Y-46100000D01*
X83165000Y-44220000D02*
X83165000Y-46100000D01*
X81255000Y-44220000D02*
X81255000Y-46100000D01*
X80745000Y-44220000D02*
X80745000Y-46100000D01*
X82655000Y-44220000D02*
X82655000Y-46100000D01*
X84565000Y-44220000D02*
X84565000Y-46100000D01*
X88030000Y-44220000D02*
X88030000Y-39820000D01*
X77790000Y-44220000D02*
X77790000Y-39820000D01*
X88030000Y-44220000D02*
X77790000Y-44220000D01*
X80030000Y-30980000D02*
X85790000Y-30980000D01*
X80030000Y-30980000D02*
X80030000Y-28900000D01*
X85790000Y-30980000D02*
X85790000Y-28900000D01*
X77790000Y-39820000D02*
X75790000Y-39820000D01*
X88030000Y-39820000D02*
X90030000Y-39820000D01*
X75790000Y-39820000D02*
X75790000Y-28900000D01*
X90030000Y-39820000D02*
X90030000Y-28900000D01*
D15*
X47400000Y-72200000D02*
X46200000Y-72200000D01*
X47700000Y-71900000D02*
X47400000Y-72200000D01*
X47400000Y-75100000D02*
X47400000Y-74800000D01*
X47700000Y-75100000D02*
X47400000Y-75100000D01*
X50600000Y-75100000D02*
X50300000Y-75100000D01*
X50600000Y-74800000D02*
X50600000Y-75100000D01*
X50600000Y-71900000D02*
X50600000Y-72200000D01*
X50300000Y-71900000D02*
X50600000Y-71900000D01*
D13*
X115150000Y-55400000D02*
X115150000Y-50600000D01*
X112350000Y-55400000D02*
X112350000Y-50600000D01*
X115150000Y-55400000D02*
X112350000Y-55400000D01*
X115150000Y-50600000D02*
X112350000Y-50600000D01*
D11*
X116800000Y-55750000D02*
G75*
G03X116800000Y-55750000I-150000J0D01*
G01*
D16*
X114650000Y-54700000D02*
G75*
G03X114650000Y-54700000I-200000J0D01*
G01*
D13*
X87550000Y-54650000D02*
X92350000Y-54650000D01*
X87550000Y-51850000D02*
X92350000Y-51850000D01*
X87550000Y-54650000D02*
X87550000Y-51850000D01*
X92350000Y-54650000D02*
X92350000Y-51850000D01*
D11*
X87350000Y-56150000D02*
G75*
G03X87350000Y-56150000I-150000J0D01*
G01*
D16*
X88450000Y-53950000D02*
G75*
G03X88450000Y-53950000I-200000J0D01*
G01*
D12*
X22715000Y-54520000D02*
X22715000Y-53200000D01*
X22715000Y-52300000D02*
X22715000Y-50980000D01*
X24785000Y-52300000D02*
X24785000Y-50980000D01*
X24785000Y-54520000D02*
X24785000Y-53200000D01*
X24785000Y-54520000D02*
X22715000Y-54520000D01*
X24785000Y-50980000D02*
X22715000Y-50980000D01*
X49120000Y-80855000D02*
X50440000Y-80855000D01*
X51340000Y-80855000D02*
X52660000Y-80855000D01*
X51340000Y-82925000D02*
X52660000Y-82925000D01*
X49120000Y-82925000D02*
X50440000Y-82925000D01*
X49120000Y-82925000D02*
X49120000Y-80855000D01*
X52660000Y-82925000D02*
X52660000Y-80855000D01*
X47535000Y-79230000D02*
X47535000Y-80550000D01*
X47535000Y-81450000D02*
X47535000Y-82770000D01*
X45465000Y-81450000D02*
X45465000Y-82770000D01*
X45465000Y-79230000D02*
X45465000Y-80550000D01*
X45465000Y-79230000D02*
X47535000Y-79230000D01*
X45465000Y-82770000D02*
X47535000Y-82770000D01*
X31730000Y-79715000D02*
X33050000Y-79715000D01*
X33950000Y-79715000D02*
X35270000Y-79715000D01*
X33950000Y-81785000D02*
X35270000Y-81785000D01*
X31730000Y-81785000D02*
X33050000Y-81785000D01*
X31730000Y-81785000D02*
X31730000Y-79715000D01*
X35270000Y-81785000D02*
X35270000Y-79715000D01*
X95020000Y-48535000D02*
X93700000Y-48535000D01*
X92800000Y-48535000D02*
X91480000Y-48535000D01*
X92800000Y-46465000D02*
X91480000Y-46465000D01*
X95020000Y-46465000D02*
X93700000Y-46465000D01*
X95020000Y-46465000D02*
X95020000Y-48535000D01*
X91480000Y-46465000D02*
X91480000Y-48535000D01*
X96270000Y-61785000D02*
X94950000Y-61785000D01*
X94050000Y-61785000D02*
X92730000Y-61785000D01*
X94050000Y-59715000D02*
X92730000Y-59715000D01*
X96270000Y-59715000D02*
X94950000Y-59715000D01*
X96270000Y-59715000D02*
X96270000Y-61785000D01*
X92730000Y-59715000D02*
X92730000Y-61785000D01*
X92020000Y-59535000D02*
X90700000Y-59535000D01*
X89800000Y-59535000D02*
X88480000Y-59535000D01*
X89800000Y-57465000D02*
X88480000Y-57465000D01*
X92020000Y-57465000D02*
X90700000Y-57465000D01*
X92020000Y-57465000D02*
X92020000Y-59535000D01*
X88480000Y-57465000D02*
X88480000Y-59535000D01*
X84165000Y-56880000D02*
X84165000Y-55560000D01*
X84165000Y-54660000D02*
X84165000Y-53340000D01*
X86235000Y-54660000D02*
X86235000Y-53340000D01*
X86235000Y-56880000D02*
X86235000Y-55560000D01*
X86235000Y-56880000D02*
X84165000Y-56880000D01*
X86235000Y-53340000D02*
X84165000Y-53340000D01*
X93270000Y-45785000D02*
X91950000Y-45785000D01*
X91050000Y-45785000D02*
X89730000Y-45785000D01*
X91050000Y-43715000D02*
X89730000Y-43715000D01*
X93270000Y-43715000D02*
X91950000Y-43715000D01*
X93270000Y-43715000D02*
X93270000Y-45785000D01*
X89730000Y-43715000D02*
X89730000Y-45785000D01*
X90770000Y-48635000D02*
X89450000Y-48635000D01*
X88550000Y-48635000D02*
X87230000Y-48635000D01*
X88550000Y-46565000D02*
X87230000Y-46565000D01*
X90770000Y-46565000D02*
X89450000Y-46565000D01*
X90770000Y-46565000D02*
X90770000Y-48635000D01*
X87230000Y-46565000D02*
X87230000Y-48635000D01*
X60380000Y-58565000D02*
X61700000Y-58565000D01*
X62600000Y-58565000D02*
X63920000Y-58565000D01*
X62600000Y-60635000D02*
X63920000Y-60635000D01*
X60380000Y-60635000D02*
X61700000Y-60635000D01*
X60380000Y-60635000D02*
X60380000Y-58565000D01*
X63920000Y-60635000D02*
X63920000Y-58565000D01*
X60380000Y-55565000D02*
X61700000Y-55565000D01*
X62600000Y-55565000D02*
X63920000Y-55565000D01*
X62600000Y-57635000D02*
X63920000Y-57635000D01*
X60380000Y-57635000D02*
X61700000Y-57635000D01*
X60380000Y-57635000D02*
X60380000Y-55565000D01*
X63920000Y-57635000D02*
X63920000Y-55565000D01*
X74020000Y-43035000D02*
X72700000Y-43035000D01*
X71800000Y-43035000D02*
X70480000Y-43035000D01*
X71800000Y-40965000D02*
X70480000Y-40965000D01*
X74020000Y-40965000D02*
X72700000Y-40965000D01*
X74020000Y-40965000D02*
X74020000Y-43035000D01*
X70480000Y-40965000D02*
X70480000Y-43035000D01*
X74020000Y-45785000D02*
X72700000Y-45785000D01*
X71800000Y-45785000D02*
X70480000Y-45785000D01*
X71800000Y-43715000D02*
X70480000Y-43715000D01*
X74020000Y-43715000D02*
X72700000Y-43715000D01*
X74020000Y-43715000D02*
X74020000Y-45785000D01*
X70480000Y-43715000D02*
X70480000Y-45785000D01*
X82520000Y-54535000D02*
X81200000Y-54535000D01*
X80300000Y-54535000D02*
X78980000Y-54535000D01*
X80300000Y-52465000D02*
X78980000Y-52465000D01*
X82520000Y-52465000D02*
X81200000Y-52465000D01*
X82520000Y-52465000D02*
X82520000Y-54535000D01*
X78980000Y-52465000D02*
X78980000Y-54535000D01*
X82520000Y-58035000D02*
X81200000Y-58035000D01*
X80300000Y-58035000D02*
X78980000Y-58035000D01*
X80300000Y-55965000D02*
X78980000Y-55965000D01*
X82520000Y-55965000D02*
X81200000Y-55965000D01*
X82520000Y-55965000D02*
X82520000Y-58035000D01*
X78980000Y-55965000D02*
X78980000Y-58035000D01*
X109410000Y-69785000D02*
X108090000Y-69785000D01*
X107190000Y-69785000D02*
X105870000Y-69785000D01*
X107190000Y-67715000D02*
X105870000Y-67715000D01*
X109410000Y-67715000D02*
X108090000Y-67715000D01*
X109410000Y-67715000D02*
X109410000Y-69785000D01*
X105870000Y-67715000D02*
X105870000Y-69785000D01*
X36285000Y-27730000D02*
X36285000Y-29050000D01*
X36285000Y-29950000D02*
X36285000Y-31270000D01*
X34215000Y-29950000D02*
X34215000Y-31270000D01*
X34215000Y-27730000D02*
X34215000Y-29050000D01*
X34215000Y-27730000D02*
X36285000Y-27730000D01*
X34215000Y-31270000D02*
X36285000Y-31270000D01*
X34215000Y-26770000D02*
X34215000Y-25450000D01*
X34215000Y-24550000D02*
X34215000Y-23230000D01*
X36285000Y-24550000D02*
X36285000Y-23230000D01*
X36285000Y-26770000D02*
X36285000Y-25450000D01*
X36285000Y-26770000D02*
X34215000Y-26770000D01*
X36285000Y-23230000D02*
X34215000Y-23230000D01*
X30520000Y-42365000D02*
X31840000Y-42365000D01*
X32740000Y-42365000D02*
X34060000Y-42365000D01*
X32740000Y-44435000D02*
X34060000Y-44435000D01*
X30520000Y-44435000D02*
X31840000Y-44435000D01*
X30520000Y-44435000D02*
X30520000Y-42365000D01*
X34060000Y-44435000D02*
X34060000Y-42365000D01*
X26230000Y-42365000D02*
X27550000Y-42365000D01*
X28450000Y-42365000D02*
X29770000Y-42365000D01*
X28450000Y-44435000D02*
X29770000Y-44435000D01*
X26230000Y-44435000D02*
X27550000Y-44435000D01*
X26230000Y-44435000D02*
X26230000Y-42365000D01*
X29770000Y-44435000D02*
X29770000Y-42365000D01*
X57735000Y-46630000D02*
X57735000Y-47950000D01*
X57735000Y-48850000D02*
X57735000Y-50170000D01*
X55665000Y-48850000D02*
X55665000Y-50170000D01*
X55665000Y-46630000D02*
X55665000Y-47950000D01*
X55665000Y-46630000D02*
X57735000Y-46630000D01*
X55665000Y-50170000D02*
X57735000Y-50170000D01*
X42785000Y-73980000D02*
X42785000Y-75300000D01*
X42785000Y-76200000D02*
X42785000Y-77520000D01*
X40715000Y-76200000D02*
X40715000Y-77520000D01*
X40715000Y-73980000D02*
X40715000Y-75300000D01*
X40715000Y-73980000D02*
X42785000Y-73980000D01*
X40715000Y-77520000D02*
X42785000Y-77520000D01*
X55135000Y-46630000D02*
X55135000Y-47950000D01*
X55135000Y-48850000D02*
X55135000Y-50170000D01*
X53065000Y-48850000D02*
X53065000Y-50170000D01*
X53065000Y-46630000D02*
X53065000Y-47950000D01*
X53065000Y-46630000D02*
X55135000Y-46630000D01*
X53065000Y-50170000D02*
X55135000Y-50170000D01*
X57965000Y-75520000D02*
X57965000Y-74200000D01*
X57965000Y-73300000D02*
X57965000Y-71980000D01*
X60035000Y-73300000D02*
X60035000Y-71980000D01*
X60035000Y-75520000D02*
X60035000Y-74200000D01*
X60035000Y-75520000D02*
X57965000Y-75520000D01*
X60035000Y-71980000D02*
X57965000Y-71980000D01*
X62785000Y-71980000D02*
X62785000Y-73300000D01*
X62785000Y-74200000D02*
X62785000Y-75520000D01*
X60715000Y-74200000D02*
X60715000Y-75520000D01*
X60715000Y-71980000D02*
X60715000Y-73300000D01*
X60715000Y-71980000D02*
X62785000Y-71980000D01*
X60715000Y-75520000D02*
X62785000Y-75520000D01*
X62785000Y-67730000D02*
X62785000Y-69050000D01*
X62785000Y-69950000D02*
X62785000Y-71270000D01*
X60715000Y-69950000D02*
X60715000Y-71270000D01*
X60715000Y-67730000D02*
X60715000Y-69050000D01*
X60715000Y-67730000D02*
X62785000Y-67730000D01*
X60715000Y-71270000D02*
X62785000Y-71270000D01*
X56370000Y-45835000D02*
X55050000Y-45835000D01*
X54150000Y-45835000D02*
X52830000Y-45835000D01*
X54150000Y-43765000D02*
X52830000Y-43765000D01*
X56370000Y-43765000D02*
X55050000Y-43765000D01*
X56370000Y-43765000D02*
X56370000Y-45835000D01*
X52830000Y-43765000D02*
X52830000Y-45835000D01*
X45980000Y-75715000D02*
X47300000Y-75715000D01*
X48200000Y-75715000D02*
X49520000Y-75715000D01*
X48200000Y-77785000D02*
X49520000Y-77785000D01*
X45980000Y-77785000D02*
X47300000Y-77785000D01*
X45980000Y-77785000D02*
X45980000Y-75715000D01*
X49520000Y-77785000D02*
X49520000Y-75715000D01*
X53230000Y-75965000D02*
X54550000Y-75965000D01*
X55450000Y-75965000D02*
X56770000Y-75965000D01*
X55450000Y-78035000D02*
X56770000Y-78035000D01*
X53230000Y-78035000D02*
X54550000Y-78035000D01*
X53230000Y-78035000D02*
X53230000Y-75965000D01*
X56770000Y-78035000D02*
X56770000Y-75965000D01*
X48285000Y-31840000D02*
X48285000Y-33160000D01*
X48285000Y-34060000D02*
X48285000Y-35380000D01*
X46215000Y-34060000D02*
X46215000Y-35380000D01*
X46215000Y-31840000D02*
X46215000Y-33160000D01*
X46215000Y-31840000D02*
X48285000Y-31840000D01*
X46215000Y-35380000D02*
X48285000Y-35380000D01*
X48965000Y-39020000D02*
X48965000Y-37700000D01*
X48965000Y-36800000D02*
X48965000Y-35480000D01*
X51035000Y-36800000D02*
X51035000Y-35480000D01*
X51035000Y-39020000D02*
X51035000Y-37700000D01*
X51035000Y-39020000D02*
X48965000Y-39020000D01*
X51035000Y-35480000D02*
X48965000Y-35480000D01*
X40035000Y-73980000D02*
X40035000Y-75300000D01*
X40035000Y-76200000D02*
X40035000Y-77520000D01*
X37965000Y-76200000D02*
X37965000Y-77520000D01*
X37965000Y-73980000D02*
X37965000Y-75300000D01*
X37965000Y-73980000D02*
X40035000Y-73980000D01*
X37965000Y-77520000D02*
X40035000Y-77520000D01*
X37285000Y-73980000D02*
X37285000Y-75300000D01*
X37285000Y-76200000D02*
X37285000Y-77520000D01*
X35215000Y-76200000D02*
X35215000Y-77520000D01*
X35215000Y-73980000D02*
X35215000Y-75300000D01*
X35215000Y-73980000D02*
X37285000Y-73980000D01*
X35215000Y-77520000D02*
X37285000Y-77520000D01*
X109270000Y-55285000D02*
X107950000Y-55285000D01*
X107050000Y-55285000D02*
X105730000Y-55285000D01*
X107050000Y-53215000D02*
X105730000Y-53215000D01*
X109270000Y-53215000D02*
X107950000Y-53215000D01*
X109270000Y-53215000D02*
X109270000Y-55285000D01*
X105730000Y-53215000D02*
X105730000Y-55285000D01*
X109270000Y-58035000D02*
X107950000Y-58035000D01*
X107050000Y-58035000D02*
X105730000Y-58035000D01*
X107050000Y-55965000D02*
X105730000Y-55965000D01*
X109270000Y-55965000D02*
X107950000Y-55965000D01*
X109270000Y-55965000D02*
X109270000Y-58035000D01*
X105730000Y-55965000D02*
X105730000Y-58035000D01*
X61230000Y-35215000D02*
X62550000Y-35215000D01*
X63450000Y-35215000D02*
X64770000Y-35215000D01*
X63450000Y-37285000D02*
X64770000Y-37285000D01*
X61230000Y-37285000D02*
X62550000Y-37285000D01*
X61230000Y-37285000D02*
X61230000Y-35215000D01*
X64770000Y-37285000D02*
X64770000Y-35215000D01*
X68770000Y-45535000D02*
X67450000Y-45535000D01*
X66550000Y-45535000D02*
X65230000Y-45535000D01*
X66550000Y-43465000D02*
X65230000Y-43465000D01*
X68770000Y-43465000D02*
X67450000Y-43465000D01*
X68770000Y-43465000D02*
X68770000Y-45535000D01*
X65230000Y-43465000D02*
X65230000Y-45535000D01*
X61230000Y-37715000D02*
X62550000Y-37715000D01*
X63450000Y-37715000D02*
X64770000Y-37715000D01*
X63450000Y-39785000D02*
X64770000Y-39785000D01*
X61230000Y-39785000D02*
X62550000Y-39785000D01*
X61230000Y-39785000D02*
X61230000Y-37715000D01*
X64770000Y-39785000D02*
X64770000Y-37715000D01*
X64770000Y-34785000D02*
X63450000Y-34785000D01*
X62550000Y-34785000D02*
X61230000Y-34785000D01*
X62550000Y-32715000D02*
X61230000Y-32715000D01*
X64770000Y-32715000D02*
X63450000Y-32715000D01*
X64770000Y-32715000D02*
X64770000Y-34785000D01*
X61230000Y-32715000D02*
X61230000Y-34785000D01*
X64035000Y-40730000D02*
X64035000Y-42050000D01*
X64035000Y-42950000D02*
X64035000Y-44270000D01*
X61965000Y-42950000D02*
X61965000Y-44270000D01*
X61965000Y-40730000D02*
X61965000Y-42050000D01*
X61965000Y-40730000D02*
X64035000Y-40730000D01*
X61965000Y-44270000D02*
X64035000Y-44270000D01*
X96035000Y-41980000D02*
X96035000Y-43300000D01*
X96035000Y-44200000D02*
X96035000Y-45520000D01*
X93965000Y-44200000D02*
X93965000Y-45520000D01*
X93965000Y-41980000D02*
X93965000Y-43300000D01*
X93965000Y-41980000D02*
X96035000Y-41980000D01*
X93965000Y-45520000D02*
X96035000Y-45520000D01*
X96035000Y-36980000D02*
X96035000Y-38300000D01*
X96035000Y-39200000D02*
X96035000Y-40520000D01*
X93965000Y-39200000D02*
X93965000Y-40520000D01*
X93965000Y-36980000D02*
X93965000Y-38300000D01*
X93965000Y-36980000D02*
X96035000Y-36980000D01*
X93965000Y-40520000D02*
X96035000Y-40520000D01*
X71700000Y-39400000D02*
X72300000Y-39400000D01*
D13*
X70540000Y-37850000D02*
X71200000Y-37850000D01*
X70540000Y-37850000D02*
X70540000Y-38665000D01*
X73460000Y-37850000D02*
X73460000Y-38665000D01*
X72800000Y-37850000D02*
X73460000Y-37850000D01*
X72800000Y-37850000D02*
X73460000Y-37850000D01*
X72800000Y-37850000D02*
X73460000Y-37850000D01*
X43750000Y-40323000D02*
X35800000Y-40323000D01*
X43750000Y-33177000D02*
X35800000Y-33177000D01*
X35800000Y-33177000D02*
X35800000Y-40323000D01*
X35800000Y-34650000D02*
X34500000Y-34650000D01*
X34500000Y-34150000D02*
X34500000Y-34650000D01*
X35800000Y-34150000D02*
X34500000Y-34150000D01*
X43750000Y-33177000D02*
X43750000Y-40323000D01*
X35804170Y-39372540D02*
X34504170Y-39372540D01*
X34504170Y-38872550D02*
X34504170Y-39372540D01*
X35804170Y-38872550D02*
X34504170Y-38872550D01*
D16*
X35100000Y-33450000D02*
G75*
G03X35100000Y-33450000I-200000J0D01*
G01*
D12*
X46450000Y-39400000D02*
X47050000Y-39400000D01*
D13*
X45290000Y-37850000D02*
X45950000Y-37850000D01*
X45290000Y-37850000D02*
X45290000Y-38665000D01*
X48210000Y-37850000D02*
X48210000Y-38665000D01*
X47550000Y-37850000D02*
X48210000Y-37850000D01*
X47550000Y-37850000D02*
X48210000Y-37850000D01*
X47550000Y-37850000D02*
X48210000Y-37850000D01*
X57823020Y-22000000D02*
X57823020Y-29950000D01*
X50677020Y-22000000D02*
X50677020Y-29950000D01*
X50677020Y-29950000D02*
X57823020Y-29950000D01*
X52150020Y-29950000D02*
X52150020Y-31250000D01*
X51650020Y-31250000D02*
X52150020Y-31250000D01*
X51650020Y-29950000D02*
X51650020Y-31250000D01*
X50677020Y-22000000D02*
X57823020Y-22000000D01*
X56872560Y-29945830D02*
X56872560Y-31245830D01*
X56372570Y-31245830D02*
X56872560Y-31245830D01*
X56372570Y-29945830D02*
X56372570Y-31245830D01*
D16*
X51150020Y-30850000D02*
G75*
G03X51150020Y-30850000I-200000J0D01*
G01*
D12*
X66700000Y-39400000D02*
X67300000Y-39400000D01*
D13*
X65540000Y-37850000D02*
X66200000Y-37850000D01*
X65540000Y-37850000D02*
X65540000Y-38665000D01*
X68460000Y-37850000D02*
X68460000Y-38665000D01*
X67800000Y-37850000D02*
X68460000Y-37850000D01*
X67800000Y-37850000D02*
X68460000Y-37850000D01*
X67800000Y-37850000D02*
X68460000Y-37850000D01*
D14*
X42650000Y-64100000D02*
X42650000Y-60500000D01*
X55850000Y-64100000D02*
X42650000Y-64100000D01*
X55850000Y-60500000D02*
X55850000Y-64100000D01*
X55850000Y-50900000D02*
X55850000Y-54500000D01*
X42650000Y-50900000D02*
X55850000Y-50900000D01*
X42650000Y-54500000D02*
X42650000Y-50900000D01*
X30850000Y-65200000D02*
X30850000Y-65800000D01*
X30250000Y-65500000D02*
X30850000Y-65200000D01*
X30850000Y-65800000D02*
X30250000Y-65500000D01*
X23450000Y-62820000D02*
X23450000Y-79610000D01*
X29530000Y-74170000D02*
X29530000Y-75880000D01*
X29530000Y-70360000D02*
X29530000Y-72070000D01*
X29530000Y-66550000D02*
X29530000Y-68260000D01*
X29530000Y-79610000D02*
X29530000Y-77980000D01*
X29530000Y-62820000D02*
X29530000Y-64450000D01*
X20170000Y-79610000D02*
X29530000Y-79610000D01*
X20170000Y-62820000D02*
X20170000Y-79610000D01*
X29530000Y-62820000D02*
X20170000Y-62820000D01*
X73092000Y-73000000D02*
X74362000Y-73000000D01*
X73854000Y-73508000D02*
X73854000Y-72492000D01*
X67758000Y-62840000D02*
X67758000Y-83160000D01*
X71060000Y-62840000D02*
X67758000Y-62840000D01*
X71060000Y-63602000D02*
X71060000Y-62840000D01*
X76140000Y-63602000D02*
X71060000Y-63602000D01*
X76140000Y-62840000D02*
X76140000Y-63602000D01*
X79188000Y-62840000D02*
X76140000Y-62840000D01*
X79188000Y-83160000D02*
X79188000Y-62840000D01*
X76140000Y-83160000D02*
X79188000Y-83160000D01*
X76140000Y-82398000D02*
X76140000Y-83160000D01*
X71060000Y-82398000D02*
X76140000Y-82398000D01*
X71060000Y-83160000D02*
X71060000Y-82398000D01*
X67758000Y-83160000D02*
X71060000Y-83160000D01*
X67758000Y-82398000D02*
X67758000Y-83160000D01*
X76601430Y-73000000D02*
G75*
G03X76601430Y-73000000I-2747430J0D01*
G01*
X88242000Y-73000000D02*
X89512000Y-73000000D01*
X89004000Y-73508000D02*
X89004000Y-72492000D01*
X82908000Y-62840000D02*
X82908000Y-83160000D01*
X86210000Y-62840000D02*
X82908000Y-62840000D01*
X86210000Y-63602000D02*
X86210000Y-62840000D01*
X91290000Y-63602000D02*
X86210000Y-63602000D01*
X91290000Y-62840000D02*
X91290000Y-63602000D01*
X94338000Y-62840000D02*
X91290000Y-62840000D01*
X94338000Y-83160000D02*
X94338000Y-62840000D01*
X91290000Y-83160000D02*
X94338000Y-83160000D01*
X91290000Y-82398000D02*
X91290000Y-83160000D01*
X86210000Y-82398000D02*
X91290000Y-82398000D01*
X86210000Y-83160000D02*
X86210000Y-82398000D01*
X82908000Y-83160000D02*
X86210000Y-83160000D01*
X82908000Y-82398000D02*
X82908000Y-83160000D01*
X91751430Y-73000000D02*
G75*
G03X91751430Y-73000000I-2747430J0D01*
G01*
X108000000Y-27492000D02*
X108000000Y-28762000D01*
X107492000Y-28254000D02*
X108508000Y-28254000D01*
X118160000Y-22158000D02*
X97840000Y-22158000D01*
X118160000Y-25460000D02*
X118160000Y-22158000D01*
X117398000Y-25460000D02*
X118160000Y-25460000D01*
X117398000Y-30540000D02*
X117398000Y-25460000D01*
X118160000Y-30540000D02*
X117398000Y-30540000D01*
X118160000Y-33588000D02*
X118160000Y-30540000D01*
X97840000Y-33588000D02*
X118160000Y-33588000D01*
X97840000Y-30540000D02*
X97840000Y-33588000D01*
X98602000Y-30540000D02*
X97840000Y-30540000D01*
X98602000Y-25460000D02*
X98602000Y-30540000D01*
X97840000Y-25460000D02*
X98602000Y-25460000D01*
X97840000Y-22158000D02*
X97840000Y-25460000D01*
X98602000Y-22158000D02*
X97840000Y-22158000D01*
X110747430Y-28254000D02*
G75*
G03X110747430Y-28254000I-2747430J0D01*
G01*
X107000000Y-77242000D02*
X107000000Y-78512000D01*
X106492000Y-78004000D02*
X107508000Y-78004000D01*
X117160000Y-71908000D02*
X96840000Y-71908000D01*
X117160000Y-75210000D02*
X117160000Y-71908000D01*
X116398000Y-75210000D02*
X117160000Y-75210000D01*
X116398000Y-80290000D02*
X116398000Y-75210000D01*
X117160000Y-80290000D02*
X116398000Y-80290000D01*
X117160000Y-83338000D02*
X117160000Y-80290000D01*
X96840000Y-83338000D02*
X117160000Y-83338000D01*
X96840000Y-80290000D02*
X96840000Y-83338000D01*
X97602000Y-80290000D02*
X96840000Y-80290000D01*
X97602000Y-75210000D02*
X97602000Y-80290000D01*
X96840000Y-75210000D02*
X97602000Y-75210000D01*
X96840000Y-71908000D02*
X96840000Y-75210000D01*
X97602000Y-71908000D02*
X96840000Y-71908000D01*
X109747430Y-78004000D02*
G75*
G03X109747430Y-78004000I-2747430J0D01*
G01*
D12*
X57050000Y-36250000D02*
X57050000Y-34895000D01*
X59450000Y-36250000D02*
X59450000Y-34895000D01*
X59450000Y-39605000D02*
X59450000Y-38250000D01*
X59450000Y-39605000D02*
X57050000Y-39605000D01*
X59450000Y-34895000D02*
X57050000Y-34895000D01*
X57050000Y-39605000D02*
X57050000Y-38250000D01*
X24785000Y-56230000D02*
X24785000Y-57550000D01*
X24785000Y-58450000D02*
X24785000Y-59770000D01*
X22715000Y-58450000D02*
X22715000Y-59770000D01*
X22715000Y-56230000D02*
X22715000Y-57550000D01*
X22715000Y-56230000D02*
X24785000Y-56230000D01*
X22715000Y-59770000D02*
X24785000Y-59770000D01*
X23750000Y-55685000D02*
X24785000Y-56230000D01*
X23750000Y-55685000D02*
X22715000Y-56230000D01*
X94900000Y-57200000D02*
X93500000Y-57200000D01*
X94900000Y-57500000D02*
X93500000Y-57500000D01*
X94900000Y-56500000D02*
X93500000Y-56500000D01*
X94900000Y-57500000D02*
X94900000Y-56500000D01*
X93500000Y-57500000D02*
X93500000Y-56500000D01*
X93500000Y-51600000D02*
X94900000Y-51600000D01*
X93500000Y-51300000D02*
X94900000Y-51300000D01*
X93500000Y-52300000D02*
X94900000Y-52300000D01*
X93500000Y-51300000D02*
X93500000Y-52300000D01*
X94900000Y-51300000D02*
X94900000Y-52300000D01*
X65130000Y-58565000D02*
X66450000Y-58565000D01*
X67350000Y-58565000D02*
X68670000Y-58565000D01*
X67350000Y-60635000D02*
X68670000Y-60635000D01*
X65130000Y-60635000D02*
X66450000Y-60635000D01*
X65130000Y-60635000D02*
X65130000Y-58565000D01*
X68670000Y-60635000D02*
X68670000Y-58565000D01*
X64585000Y-59600000D02*
X65130000Y-58565000D01*
X64585000Y-59600000D02*
X65130000Y-60635000D01*
X65129999Y-55565000D02*
X66449999Y-55565000D01*
X67349999Y-55565000D02*
X68669999Y-55565000D01*
X67349999Y-57635000D02*
X68669999Y-57635000D01*
X65129999Y-57635000D02*
X66449999Y-57635000D01*
X65129999Y-57635000D02*
X65129999Y-55565000D01*
X68669999Y-57635000D02*
X68669999Y-55565000D01*
X64584999Y-56600000D02*
X65129999Y-55565000D01*
X64584999Y-56600000D02*
X65129999Y-57635000D01*
X32700000Y-46850000D02*
X32700000Y-45450000D01*
X32400000Y-46850000D02*
X32400000Y-45450000D01*
X33400000Y-46850000D02*
X33400000Y-45450000D01*
X32400000Y-46850000D02*
X33400000Y-46850000D01*
X32400000Y-45450000D02*
X33400000Y-45450000D01*
X27699999Y-46850000D02*
X27699999Y-45450000D01*
X27399999Y-46850000D02*
X27399999Y-45450000D01*
X28399999Y-46850000D02*
X28399999Y-45450000D01*
X27399999Y-46850000D02*
X28399999Y-46850000D01*
X27399999Y-45450000D02*
X28399999Y-45450000D01*
X59050000Y-43050000D02*
X60450000Y-43050000D01*
X59050000Y-42750000D02*
X60450000Y-42750000D01*
X59050000Y-43750000D02*
X60450000Y-43750000D01*
X59050000Y-42750000D02*
X59050000Y-43750000D01*
X60450000Y-42750000D02*
X60450000Y-43750000D01*
X58300000Y-43450000D02*
X56900000Y-43450000D01*
X58300000Y-43750000D02*
X56900000Y-43750000D01*
X58300000Y-42750000D02*
X56900000Y-42750000D01*
X58300000Y-43750000D02*
X58300000Y-42750000D01*
X56900000Y-43750000D02*
X56900000Y-42750000D01*
D13*
X54800000Y-64900000D02*
X54800000Y-71100000D01*
X49300000Y-64900000D02*
X49300000Y-65700000D01*
X56700000Y-64900000D02*
X49300000Y-64900000D01*
X56700000Y-64900000D02*
X56700000Y-65700000D01*
X49300000Y-70300000D02*
X49300000Y-71100000D01*
X56700000Y-71100000D02*
X49300000Y-71100000D01*
X56700000Y-70300000D02*
X56700000Y-71100000D01*
X55700000Y-36000000D02*
X56100000Y-36000000D01*
X56100000Y-36000000D02*
X56100000Y-41000000D01*
X55700000Y-41000000D02*
X56100000Y-41000000D01*
X51900000Y-36000000D02*
X52300000Y-36000000D01*
X51900000Y-36000000D02*
X51900000Y-41000000D01*
X51900000Y-41000000D02*
X52300000Y-41000000D01*
X51900000Y-37700000D02*
X56100000Y-37700000D01*
D12*
X33135000Y-71520000D02*
X31865000Y-71520000D01*
X33535000Y-71120000D02*
X33535000Y-70200000D01*
X33135000Y-67980000D02*
X31865000Y-67980000D01*
X33535000Y-69300000D02*
X33535000Y-68380000D01*
X31465000Y-69300000D02*
X31465000Y-68380000D01*
X31465000Y-71120000D02*
X31465000Y-70200000D01*
X31864990Y-71520000D02*
G75*
G02X31464990Y-71120000I0J400000D01*
G01*
X33535000Y-71120000D02*
G75*
G02X33135000Y-71520000I-400000J0D01*
G01*
X33135000Y-67980000D02*
G75*
G02X33535000Y-68380000I0J-400000D01*
G01*
X31465000Y-68380000D02*
G75*
G02X31865000Y-67980000I400000J0D01*
G01*
X31865000Y-62830000D02*
X33135000Y-62830000D01*
X31465000Y-63230000D02*
X31465000Y-64150000D01*
X31865000Y-66370000D02*
X33135000Y-66370000D01*
X31465000Y-65050000D02*
X31465000Y-65970000D01*
X33535000Y-65050000D02*
X33535000Y-65970000D01*
X33535000Y-63230000D02*
X33535000Y-64150000D01*
X33135010Y-62830000D02*
G75*
G02X33535010Y-63230000I0J-400000D01*
G01*
X31465000Y-63230000D02*
G75*
G02X31865000Y-62830000I400000J0D01*
G01*
X31865000Y-66370000D02*
G75*
G02X31465000Y-65970000I0J400000D01*
G01*
X33535000Y-65970000D02*
G75*
G02X33135000Y-66370000I-400000J0D01*
G01*
X112770000Y-48365000D02*
X112770000Y-49635000D01*
X112370000Y-47965000D02*
X111450000Y-47965000D01*
X109230000Y-48365000D02*
X109230000Y-49635000D01*
X110550000Y-47965000D02*
X109630000Y-47965000D01*
X110550000Y-50035000D02*
X109630000Y-50035000D01*
X112370000Y-50035000D02*
X111450000Y-50035000D01*
X112770000Y-49635010D02*
G75*
G02X112370000Y-50035010I-400000J0D01*
G01*
X112370000Y-47965000D02*
G75*
G02X112770000Y-48365000I0J-400000D01*
G01*
X109230000Y-48365000D02*
G75*
G02X109630000Y-47965000I400000J0D01*
G01*
X109630000Y-50035000D02*
G75*
G02X109230000Y-49635000I0J400000D01*
G01*
X84230000Y-59135000D02*
X84230000Y-57865000D01*
X84630000Y-59535000D02*
X85550000Y-59535000D01*
X87770000Y-59135000D02*
X87770000Y-57865000D01*
X86450000Y-59535000D02*
X87370000Y-59535000D01*
X86450000Y-57465000D02*
X87370000Y-57465000D01*
X84630000Y-57465000D02*
X85550000Y-57465000D01*
X84230000Y-57864990D02*
G75*
G02X84630000Y-57464990I400000J0D01*
G01*
X84630000Y-59535000D02*
G75*
G02X84230000Y-59135000I0J400000D01*
G01*
X87770000Y-59135000D02*
G75*
G02X87370000Y-59535000I-400000J0D01*
G01*
X87370000Y-57465000D02*
G75*
G02X87770000Y-57865000I0J-400000D01*
G01*
X84365000Y-49370000D02*
X85635000Y-49370000D01*
X83965000Y-49770000D02*
X83965000Y-50690000D01*
X84365000Y-52910000D02*
X85635000Y-52910000D01*
X83965000Y-51590000D02*
X83965000Y-52510000D01*
X86035000Y-51590000D02*
X86035000Y-52510000D01*
X86035000Y-49770000D02*
X86035000Y-50690000D01*
X85635010Y-49370000D02*
G75*
G02X86035010Y-49770000I0J-400000D01*
G01*
X83965000Y-49770000D02*
G75*
G02X84365000Y-49370000I400000J0D01*
G01*
X84365000Y-52910000D02*
G75*
G02X83965000Y-52510000I0J400000D01*
G01*
X86035000Y-52510000D02*
G75*
G02X85635000Y-52910000I-400000J0D01*
G01*
X47300000Y-25295000D02*
X47300000Y-26250000D01*
X47300000Y-28250000D02*
X47300000Y-29205000D01*
X49700000Y-28250000D02*
X49700000Y-29205000D01*
X49700000Y-25295000D02*
X49700000Y-26250000D01*
X47700000Y-29605000D02*
X49300000Y-29605000D01*
X47700000Y-24895000D02*
X49300000Y-24895000D01*
X49700000Y-29205000D02*
G75*
G02X49300000Y-29605000I-400000J0D01*
G01*
X47700000Y-29605000D02*
G75*
G02X47300000Y-29205000I0J400000D01*
G01*
X47300000Y-25295000D02*
G75*
G02X47700000Y-24895000I400000J0D01*
G01*
X49300000Y-24895000D02*
G75*
G02X49700000Y-25295000I0J-400000D01*
G01*
X114020000Y-56865000D02*
X114020000Y-58135000D01*
X113620000Y-56465000D02*
X112700000Y-56465000D01*
X110480000Y-56865000D02*
X110480000Y-58135000D01*
X111800000Y-56465000D02*
X110880000Y-56465000D01*
X111800000Y-58535000D02*
X110880000Y-58535000D01*
X113620000Y-58535000D02*
X112700000Y-58535000D01*
X114020000Y-58135010D02*
G75*
G02X113620000Y-58535010I-400000J0D01*
G01*
X113620000Y-56465000D02*
G75*
G02X114020000Y-56865000I0J-400000D01*
G01*
X110480000Y-56865000D02*
G75*
G02X110880000Y-56465000I400000J0D01*
G01*
X110880000Y-58535000D02*
G75*
G02X110480000Y-58135000I0J400000D01*
G01*
D14*
X104000000Y-35800000D02*
X102500000Y-35800000D01*
X103250000Y-35050000D02*
X103250000Y-36550000D01*
X103529000Y-45331000D02*
X102971000Y-45331000D01*
X103922000Y-45291000D02*
X102578000Y-45291000D01*
X104163000Y-45251000D02*
X102337000Y-45251000D01*
X104354000Y-45211000D02*
X102146000Y-45211000D01*
X104515000Y-45171000D02*
X101985000Y-45171000D01*
X104657000Y-45131000D02*
X101843000Y-45131000D01*
X104786000Y-45091000D02*
X101714000Y-45091000D01*
X104904000Y-45051000D02*
X101596000Y-45051000D01*
X105013000Y-45011000D02*
X101487000Y-45011000D01*
X105116000Y-44971000D02*
X101384000Y-44971000D01*
X105212000Y-44931000D02*
X101288000Y-44931000D01*
X105303000Y-44891000D02*
X101197000Y-44891000D01*
X105390000Y-44851000D02*
X101110000Y-44851000D01*
X105472000Y-44811000D02*
X101028000Y-44811000D01*
X105551000Y-44771000D02*
X100949000Y-44771000D01*
X105627000Y-44731000D02*
X100873000Y-44731000D01*
X105699000Y-44691000D02*
X100801000Y-44691000D01*
X105769000Y-44651000D02*
X100731000Y-44651000D01*
X105837000Y-44611000D02*
X100663000Y-44611000D01*
X105902000Y-44571000D02*
X100598000Y-44571000D01*
X105965000Y-44531000D02*
X100535000Y-44531000D01*
X106027000Y-44491000D02*
X100473000Y-44491000D01*
X106086000Y-44451000D02*
X100414000Y-44451000D01*
X106144000Y-44411000D02*
X100356000Y-44411000D01*
X106199000Y-44371000D02*
X100301000Y-44371000D01*
X106254000Y-44331000D02*
X100246000Y-44331000D01*
X106307000Y-44291000D02*
X100193000Y-44291000D01*
X106358000Y-44251000D02*
X100142000Y-44251000D01*
X106408000Y-44211000D02*
X100092000Y-44211000D01*
X106457000Y-44171000D02*
X100043000Y-44171000D01*
X106505000Y-44131000D02*
X99995000Y-44131000D01*
X106552000Y-44091000D02*
X99948000Y-44091000D01*
X106597000Y-44051000D02*
X99903000Y-44051000D01*
X106641000Y-44011000D02*
X99859000Y-44011000D01*
X106685000Y-43971000D02*
X99815000Y-43971000D01*
X106727000Y-43931000D02*
X99773000Y-43931000D01*
X102069000Y-43891000D02*
X99732000Y-43891000D01*
X106768000Y-43891000D02*
X104431000Y-43891000D01*
X102069000Y-43851000D02*
X99691000Y-43851000D01*
X106809000Y-43851000D02*
X104431000Y-43851000D01*
X102069000Y-43811000D02*
X99652000Y-43811000D01*
X106848000Y-43811000D02*
X104431000Y-43811000D01*
X102069000Y-43771000D02*
X99613000Y-43771000D01*
X106887000Y-43771000D02*
X104431000Y-43771000D01*
X102069000Y-43731000D02*
X99575000Y-43731000D01*
X106925000Y-43731000D02*
X104431000Y-43731000D01*
X102069000Y-43691000D02*
X99538000Y-43691000D01*
X106962000Y-43691000D02*
X104431000Y-43691000D01*
X102069000Y-43651000D02*
X99502000Y-43651000D01*
X106998000Y-43651000D02*
X104431000Y-43651000D01*
X102069000Y-43611000D02*
X99466000Y-43611000D01*
X107034000Y-43611000D02*
X104431000Y-43611000D01*
X102069000Y-43571000D02*
X99431000Y-43571000D01*
X107069000Y-43571000D02*
X104431000Y-43571000D01*
X102069000Y-43531000D02*
X99397000Y-43531000D01*
X107103000Y-43531000D02*
X104431000Y-43531000D01*
X102069000Y-43491000D02*
X99364000Y-43491000D01*
X107136000Y-43491000D02*
X104431000Y-43491000D01*
X102069000Y-43451000D02*
X99331000Y-43451000D01*
X107169000Y-43451000D02*
X104431000Y-43451000D01*
X102069000Y-43411000D02*
X99299000Y-43411000D01*
X107201000Y-43411000D02*
X104431000Y-43411000D01*
X102069000Y-43371000D02*
X99268000Y-43371000D01*
X107232000Y-43371000D02*
X104431000Y-43371000D01*
X102069000Y-43331000D02*
X99237000Y-43331000D01*
X107263000Y-43331000D02*
X104431000Y-43331000D01*
X102069000Y-43291000D02*
X99207000Y-43291000D01*
X107293000Y-43291000D02*
X104431000Y-43291000D01*
X102069000Y-43251000D02*
X99178000Y-43251000D01*
X107322000Y-43251000D02*
X104431000Y-43251000D01*
X102069000Y-43211000D02*
X99149000Y-43211000D01*
X107351000Y-43211000D02*
X104431000Y-43211000D01*
X102069000Y-43171000D02*
X99120000Y-43171000D01*
X107380000Y-43171000D02*
X104431000Y-43171000D01*
X102069000Y-43131000D02*
X99093000Y-43131000D01*
X107407000Y-43131000D02*
X104431000Y-43131000D01*
X102069000Y-43091000D02*
X99065000Y-43091000D01*
X107435000Y-43091000D02*
X104431000Y-43091000D01*
X102069000Y-43051000D02*
X99039000Y-43051000D01*
X107461000Y-43051000D02*
X104431000Y-43051000D01*
X102069000Y-43011000D02*
X99013000Y-43011000D01*
X107487000Y-43011000D02*
X104431000Y-43011000D01*
X102069000Y-42971000D02*
X98987000Y-42971000D01*
X107513000Y-42971000D02*
X104431000Y-42971000D01*
X102069000Y-42931000D02*
X98962000Y-42931000D01*
X107538000Y-42931000D02*
X104431000Y-42931000D01*
X102069000Y-42891000D02*
X98938000Y-42891000D01*
X107562000Y-42891000D02*
X104431000Y-42891000D01*
X102069000Y-42851000D02*
X98914000Y-42851000D01*
X107586000Y-42851000D02*
X104431000Y-42851000D01*
X102069000Y-42811000D02*
X98890000Y-42811000D01*
X107610000Y-42811000D02*
X104431000Y-42811000D01*
X102069000Y-42771000D02*
X98867000Y-42771000D01*
X107633000Y-42771000D02*
X104431000Y-42771000D01*
X102069000Y-42731000D02*
X98845000Y-42731000D01*
X107655000Y-42731000D02*
X104431000Y-42731000D01*
X102069000Y-42691000D02*
X98822000Y-42691000D01*
X107678000Y-42691000D02*
X104431000Y-42691000D01*
X102069000Y-42651000D02*
X98801000Y-42651000D01*
X107699000Y-42651000D02*
X104431000Y-42651000D01*
X102069000Y-42611000D02*
X98780000Y-42611000D01*
X107720000Y-42611000D02*
X104431000Y-42611000D01*
X102069000Y-42571000D02*
X98759000Y-42571000D01*
X107741000Y-42571000D02*
X104431000Y-42571000D01*
X102069000Y-42531000D02*
X98739000Y-42531000D01*
X107761000Y-42531000D02*
X104431000Y-42531000D01*
X102069000Y-42491000D02*
X98719000Y-42491000D01*
X107781000Y-42491000D02*
X104431000Y-42491000D01*
X102069000Y-42451000D02*
X98700000Y-42451000D01*
X107800000Y-42451000D02*
X104431000Y-42451000D01*
X102069000Y-42411000D02*
X98681000Y-42411000D01*
X107819000Y-42411000D02*
X104431000Y-42411000D01*
X102069000Y-42371000D02*
X98662000Y-42371000D01*
X107838000Y-42371000D02*
X104431000Y-42371000D01*
X102069000Y-42331000D02*
X98644000Y-42331000D01*
X107856000Y-42331000D02*
X104431000Y-42331000D01*
X102069000Y-42291000D02*
X98626000Y-42291000D01*
X107874000Y-42291000D02*
X104431000Y-42291000D01*
X102069000Y-42251000D02*
X98609000Y-42251000D01*
X107891000Y-42251000D02*
X104431000Y-42251000D01*
X102069000Y-42211000D02*
X98592000Y-42211000D01*
X107908000Y-42211000D02*
X104431000Y-42211000D01*
X102069000Y-42171000D02*
X98576000Y-42171000D01*
X107924000Y-42171000D02*
X104431000Y-42171000D01*
X102069000Y-42131000D02*
X98559000Y-42131000D01*
X107941000Y-42131000D02*
X104431000Y-42131000D01*
X102069000Y-42091000D02*
X98544000Y-42091000D01*
X107956000Y-42091000D02*
X104431000Y-42091000D01*
X102069000Y-42051000D02*
X98528000Y-42051000D01*
X107972000Y-42051000D02*
X104431000Y-42051000D01*
X102069000Y-42011000D02*
X98513000Y-42011000D01*
X107987000Y-42011000D02*
X104431000Y-42011000D01*
X102069000Y-41971000D02*
X98499000Y-41971000D01*
X108001000Y-41971000D02*
X104431000Y-41971000D01*
X102069000Y-41931000D02*
X98485000Y-41931000D01*
X108015000Y-41931000D02*
X104431000Y-41931000D01*
X102069000Y-41891000D02*
X98471000Y-41891000D01*
X108029000Y-41891000D02*
X104431000Y-41891000D01*
X102069000Y-41851000D02*
X98458000Y-41851000D01*
X108042000Y-41851000D02*
X104431000Y-41851000D01*
X102069000Y-41811000D02*
X98444000Y-41811000D01*
X108056000Y-41811000D02*
X104431000Y-41811000D01*
X102069000Y-41771000D02*
X98432000Y-41771000D01*
X108068000Y-41771000D02*
X104431000Y-41771000D01*
X102069000Y-41731000D02*
X98419000Y-41731000D01*
X108081000Y-41731000D02*
X104431000Y-41731000D01*
X102069000Y-41691000D02*
X98407000Y-41691000D01*
X108093000Y-41691000D02*
X104431000Y-41691000D01*
X102069000Y-41651000D02*
X98396000Y-41651000D01*
X108104000Y-41651000D02*
X104431000Y-41651000D01*
X102069000Y-41611000D02*
X98385000Y-41611000D01*
X108115000Y-41611000D02*
X104431000Y-41611000D01*
X102069000Y-41571000D02*
X98374000Y-41571000D01*
X108126000Y-41571000D02*
X104431000Y-41571000D01*
X108137000Y-41531000D02*
X98363000Y-41531000D01*
X108147000Y-41491000D02*
X98353000Y-41491000D01*
X108157000Y-41451000D02*
X98343000Y-41451000D01*
X108167000Y-41411000D02*
X98333000Y-41411000D01*
X108176000Y-41371000D02*
X98324000Y-41371000D01*
X108185000Y-41331000D02*
X98315000Y-41331000D01*
X108193000Y-41291000D02*
X98307000Y-41291000D01*
X108201000Y-41251000D02*
X98299000Y-41251000D01*
X108209000Y-41211000D02*
X98291000Y-41211000D01*
X108217000Y-41171000D02*
X98283000Y-41171000D01*
X108224000Y-41131000D02*
X98276000Y-41131000D01*
X108231000Y-41091000D02*
X98269000Y-41091000D01*
X108237000Y-41051000D02*
X98263000Y-41051000D01*
X108243000Y-41011000D02*
X98257000Y-41011000D01*
X108249000Y-40971000D02*
X98251000Y-40971000D01*
X108255000Y-40930000D02*
X98245000Y-40930000D01*
X108260000Y-40890000D02*
X98240000Y-40890000D01*
X108265000Y-40850000D02*
X98235000Y-40850000D01*
X108270000Y-40810000D02*
X98230000Y-40810000D01*
X108274000Y-40770000D02*
X98226000Y-40770000D01*
X108278000Y-40730000D02*
X98222000Y-40730000D01*
X108281000Y-40690000D02*
X98219000Y-40690000D01*
X108285000Y-40650000D02*
X98215000Y-40650000D01*
X108288000Y-40610000D02*
X98212000Y-40610000D01*
X108290000Y-40570000D02*
X98210000Y-40570000D01*
X108293000Y-40530000D02*
X98207000Y-40530000D01*
X108295000Y-40490000D02*
X98205000Y-40490000D01*
X108297000Y-40450000D02*
X98203000Y-40450000D01*
X108298000Y-40410000D02*
X98202000Y-40410000D01*
X108299000Y-40370000D02*
X98201000Y-40370000D01*
X108300000Y-40330000D02*
X98200000Y-40330000D01*
X108300000Y-40290000D02*
X98200000Y-40290000D01*
X108300000Y-40250000D02*
X98200000Y-40250000D01*
X101866736Y-45148437D02*
G75*
G03X104630000Y-45149357I1383264J4898437D01*
G01*
X101866736Y-45148437D02*
G75*
G02X101870000Y-35350643I1383264J4898437D01*
G01*
X104633264Y-45148437D02*
G75*
G03X104630000Y-35350643I-1383264J4898437D01*
G01*
D12*
X93270000Y-41615000D02*
X93270000Y-42885000D01*
X92870000Y-41215000D02*
X91950000Y-41215000D01*
X89730000Y-41615000D02*
X89730000Y-42885000D01*
X91050000Y-41215000D02*
X90130000Y-41215000D01*
X91050000Y-43285000D02*
X90130000Y-43285000D01*
X92870000Y-43285000D02*
X91950000Y-43285000D01*
X93270000Y-42885010D02*
G75*
G02X92870000Y-43285010I-400000J0D01*
G01*
X92870000Y-41215000D02*
G75*
G02X93270000Y-41615000I0J-400000D01*
G01*
X89730000Y-41615000D02*
G75*
G02X90130000Y-41215000I400000J0D01*
G01*
X90130000Y-43285000D02*
G75*
G02X89730000Y-42885000I0J400000D01*
G01*
X33135000Y-77020000D02*
X31865000Y-77020000D01*
X33535000Y-76620000D02*
X33535000Y-75700000D01*
X33135000Y-73480000D02*
X31865000Y-73480000D01*
X33535000Y-74800000D02*
X33535000Y-73880000D01*
X31465000Y-74800000D02*
X31465000Y-73880000D01*
X31465000Y-76620000D02*
X31465000Y-75700000D01*
X31864990Y-77020000D02*
G75*
G02X31464990Y-76620000I0J400000D01*
G01*
X33535000Y-76620000D02*
G75*
G02X33135000Y-77020000I-400000J0D01*
G01*
X33135000Y-73480000D02*
G75*
G02X33535000Y-73880000I0J-400000D01*
G01*
X31465000Y-73880000D02*
G75*
G02X31865000Y-73480000I400000J0D01*
G01*
D14*
X41050000Y-59960000D02*
X41050000Y-65800000D01*
X40290000Y-59200000D02*
X41050000Y-59960000D01*
X34450000Y-59960000D02*
X35210000Y-59200000D01*
X34450000Y-65800000D02*
X34450000Y-59960000D01*
X40290000Y-59200000D02*
X38870000Y-59200000D01*
X35210000Y-59200000D02*
X36630000Y-59200000D01*
X41050000Y-65800000D02*
X38870000Y-65800000D01*
X34450000Y-65800000D02*
X36630000Y-65800000D01*
D12*
X43865000Y-69230000D02*
X45135000Y-69230000D01*
X43465000Y-69630000D02*
X43465000Y-70550000D01*
X43865000Y-72770000D02*
X45135000Y-72770000D01*
X43465000Y-71450000D02*
X43465000Y-72370000D01*
X45535000Y-71450000D02*
X45535000Y-72370000D01*
X45535000Y-69630000D02*
X45535000Y-70550000D01*
X45135010Y-69230000D02*
G75*
G02X45535010Y-69630000I0J-400000D01*
G01*
X43465000Y-69630000D02*
G75*
G02X43865000Y-69230000I400000J0D01*
G01*
X43865000Y-72770000D02*
G75*
G02X43465000Y-72370000I0J400000D01*
G01*
X45535000Y-72370000D02*
G75*
G02X45135000Y-72770000I-400000J0D01*
G01*
X43865000Y-73980000D02*
X45135000Y-73980000D01*
X43465000Y-74380000D02*
X43465000Y-75300000D01*
X43865000Y-77520000D02*
X45135000Y-77520000D01*
X43465000Y-76200000D02*
X43465000Y-77120000D01*
X45535000Y-76200000D02*
X45535000Y-77120000D01*
X45535000Y-74380000D02*
X45535000Y-75300000D01*
X45135010Y-73980000D02*
G75*
G02X45535010Y-74380000I0J-400000D01*
G01*
X43465000Y-74380000D02*
G75*
G02X43865000Y-73980000I400000J0D01*
G01*
X43865000Y-77520000D02*
G75*
G02X43465000Y-77120000I0J400000D01*
G01*
X45535000Y-77120000D02*
G75*
G02X45135000Y-77520000I-400000J0D01*
G01*
X56885000Y-75520000D02*
X55615000Y-75520000D01*
X57285000Y-75120000D02*
X57285000Y-74200000D01*
X56885000Y-71980000D02*
X55615000Y-71980000D01*
X57285000Y-73300000D02*
X57285000Y-72380000D01*
X55215000Y-73300000D02*
X55215000Y-72380000D01*
X55215000Y-75120000D02*
X55215000Y-74200000D01*
X55614990Y-75520000D02*
G75*
G02X55214990Y-75120000I0J400000D01*
G01*
X57285000Y-75120000D02*
G75*
G02X56885000Y-75520000I-400000J0D01*
G01*
X56885000Y-71980000D02*
G75*
G02X57285000Y-72380000I0J-400000D01*
G01*
X55215000Y-72380000D02*
G75*
G02X55615000Y-71980000I400000J0D01*
G01*
X54385000Y-75520000D02*
X53115000Y-75520000D01*
X54785000Y-75120000D02*
X54785000Y-74200000D01*
X54385000Y-71980000D02*
X53115000Y-71980000D01*
X54785000Y-73300000D02*
X54785000Y-72380000D01*
X52715000Y-73300000D02*
X52715000Y-72380000D01*
X52715000Y-75120000D02*
X52715000Y-74200000D01*
X53114990Y-75520000D02*
G75*
G02X52714990Y-75120000I0J400000D01*
G01*
X54785000Y-75120000D02*
G75*
G02X54385000Y-75520000I-400000J0D01*
G01*
X54385000Y-71980000D02*
G75*
G02X54785000Y-72380000I0J-400000D01*
G01*
X52715000Y-72380000D02*
G75*
G02X53115000Y-71980000I400000J0D01*
G01*
X75980000Y-47635000D02*
X75980000Y-46365000D01*
X76380000Y-48035000D02*
X77300000Y-48035000D01*
X79520000Y-47635000D02*
X79520000Y-46365000D01*
X78200000Y-48035000D02*
X79120000Y-48035000D01*
X78200000Y-45965000D02*
X79120000Y-45965000D01*
X76380000Y-45965000D02*
X77300000Y-45965000D01*
X75980000Y-46364990D02*
G75*
G02X76380000Y-45964990I400000J0D01*
G01*
X76380000Y-48035000D02*
G75*
G02X75980000Y-47635000I0J400000D01*
G01*
X79520000Y-47635000D02*
G75*
G02X79120000Y-48035000I-400000J0D01*
G01*
X79120000Y-45965000D02*
G75*
G02X79520000Y-46365000I0J-400000D01*
G01*
X36050000Y-41295000D02*
X36050000Y-42250000D01*
X36050000Y-44250000D02*
X36050000Y-45205000D01*
X38450000Y-44250000D02*
X38450000Y-45205000D01*
X38450000Y-41295000D02*
X38450000Y-42250000D01*
X36450000Y-45605000D02*
X38050000Y-45605000D01*
X36450000Y-40895000D02*
X38050000Y-40895000D01*
X38450000Y-45205000D02*
G75*
G02X38050000Y-45605000I-400000J0D01*
G01*
X36450000Y-45605000D02*
G75*
G02X36050000Y-45205000I0J400000D01*
G01*
X36050000Y-41295000D02*
G75*
G02X36450000Y-40895000I400000J0D01*
G01*
X38050000Y-40895000D02*
G75*
G02X38450000Y-41295000I0J-400000D01*
G01*
X39510000Y-73380000D02*
X36990000Y-73380000D01*
X39510000Y-68670000D02*
X36990000Y-68670000D01*
X36590000Y-72980000D02*
X36590000Y-71925000D01*
X36590000Y-70125000D02*
X36590000Y-69070000D01*
X39910000Y-70125000D02*
X39910000Y-69070000D01*
X39910000Y-72980000D02*
X39910000Y-71925000D01*
X36990000Y-73380000D02*
G75*
G02X36590000Y-72980000I0J400000D01*
G01*
X39910000Y-72980000D02*
G75*
G02X39510000Y-73380000I-400000J0D01*
G01*
X39510000Y-68670000D02*
G75*
G02X39910000Y-69070000I0J-400000D01*
G01*
X36590000Y-69070000D02*
G75*
G02X36990000Y-68670000I400000J0D01*
G01*
X42950000Y-72955000D02*
X42950000Y-72000000D01*
X42950000Y-70000000D02*
X42950000Y-69045000D01*
X40550000Y-70000000D02*
X40550000Y-69045000D01*
X40550000Y-72955000D02*
X40550000Y-72000000D01*
X42550000Y-68645000D02*
X40950000Y-68645000D01*
X42550000Y-73355000D02*
X40950000Y-73355000D01*
X40550000Y-69045000D02*
G75*
G02X40950000Y-68645000I400000J0D01*
G01*
X42550000Y-68645000D02*
G75*
G02X42950000Y-69045000I0J-400000D01*
G01*
X42950000Y-72955000D02*
G75*
G02X42550000Y-73355000I-400000J0D01*
G01*
X40950000Y-73355000D02*
G75*
G02X40550000Y-72955000I0J400000D01*
G01*
X42365000Y-79230000D02*
X43635000Y-79230000D01*
X41965000Y-79630000D02*
X41965000Y-80550000D01*
X42365000Y-82770000D02*
X43635000Y-82770000D01*
X41965000Y-81450000D02*
X41965000Y-82370000D01*
X44035000Y-81450000D02*
X44035000Y-82370000D01*
X44035000Y-79630000D02*
X44035000Y-80550000D01*
X43635010Y-79230000D02*
G75*
G02X44035010Y-79630000I0J-400000D01*
G01*
X41965000Y-79630000D02*
G75*
G02X42365000Y-79230000I400000J0D01*
G01*
X42365000Y-82770000D02*
G75*
G02X41965000Y-82370000I0J400000D01*
G01*
X44035000Y-82370000D02*
G75*
G02X43635000Y-82770000I-400000J0D01*
G01*
X68770000Y-41365000D02*
X68770000Y-42635000D01*
X68370000Y-40965000D02*
X67450000Y-40965000D01*
X65230000Y-41365000D02*
X65230000Y-42635000D01*
X66550000Y-40965000D02*
X65630000Y-40965000D01*
X66550000Y-43035000D02*
X65630000Y-43035000D01*
X68370000Y-43035000D02*
X67450000Y-43035000D01*
X68770000Y-42635010D02*
G75*
G02X68370000Y-43035010I-400000J0D01*
G01*
X68370000Y-40965000D02*
G75*
G02X68770000Y-41365000I0J-400000D01*
G01*
X65230000Y-41365000D02*
G75*
G02X65630000Y-40965000I400000J0D01*
G01*
X65630000Y-43035000D02*
G75*
G02X65230000Y-42635000I0J400000D01*
G01*
D10*
X86107142Y-62107142D02*
X86059523Y-62154761D01*
X85916666Y-62202380D01*
X85821428Y-62202380D01*
X85678571Y-62154761D01*
X85583333Y-62059523D01*
X85535714Y-61964285D01*
X85488095Y-61773809D01*
X85488095Y-61630952D01*
X85535714Y-61440476D01*
X85583333Y-61345238D01*
X85678571Y-61250000D01*
X85821428Y-61202380D01*
X85916666Y-61202380D01*
X86059523Y-61250000D01*
X86107142Y-61297619D01*
X86488095Y-61297619D02*
X86535714Y-61250000D01*
X86630952Y-61202380D01*
X86869047Y-61202380D01*
X86964285Y-61250000D01*
X87011904Y-61297619D01*
X87059523Y-61392857D01*
X87059523Y-61488095D01*
X87011904Y-61630952D01*
X86440476Y-62202380D01*
X87059523Y-62202380D01*
X87916666Y-61202380D02*
X87726190Y-61202380D01*
X87630952Y-61250000D01*
X87583333Y-61297619D01*
X87488095Y-61440476D01*
X87440476Y-61630952D01*
X87440476Y-62011904D01*
X87488095Y-62107142D01*
X87535714Y-62154761D01*
X87630952Y-62202380D01*
X87821428Y-62202380D01*
X87916666Y-62154761D01*
X87964285Y-62107142D01*
X88011904Y-62011904D01*
X88011904Y-61773809D01*
X87964285Y-61678571D01*
X87916666Y-61630952D01*
X87821428Y-61583333D01*
X87630952Y-61583333D01*
X87535714Y-61630952D01*
X87488095Y-61678571D01*
X87440476Y-61773809D01*
X106463523Y-50172866D02*
X106415904Y-50220485D01*
X106273047Y-50268104D01*
X106177809Y-50268104D01*
X106034952Y-50220485D01*
X105939714Y-50125247D01*
X105892095Y-50030009D01*
X105844476Y-49839533D01*
X105844476Y-49696676D01*
X105892095Y-49506200D01*
X105939714Y-49410962D01*
X106034952Y-49315724D01*
X106177809Y-49268104D01*
X106273047Y-49268104D01*
X106415904Y-49315724D01*
X106463523Y-49363343D01*
X106844476Y-49363343D02*
X106892095Y-49315724D01*
X106987333Y-49268104D01*
X107225428Y-49268104D01*
X107320666Y-49315724D01*
X107368285Y-49363343D01*
X107415904Y-49458581D01*
X107415904Y-49553819D01*
X107368285Y-49696676D01*
X106796857Y-50268104D01*
X107415904Y-50268104D01*
X108320666Y-49268104D02*
X107844476Y-49268104D01*
X107796857Y-49744295D01*
X107844476Y-49696676D01*
X107939714Y-49649057D01*
X108177809Y-49649057D01*
X108273047Y-49696676D01*
X108320666Y-49744295D01*
X108368285Y-49839533D01*
X108368285Y-50077628D01*
X108320666Y-50172866D01*
X108273047Y-50220485D01*
X108177809Y-50268104D01*
X107939714Y-50268104D01*
X107844476Y-50220485D01*
X107796857Y-50172866D01*
X118107142Y-49642857D02*
X118154761Y-49690476D01*
X118202380Y-49833333D01*
X118202380Y-49928571D01*
X118154761Y-50071428D01*
X118059523Y-50166666D01*
X117964285Y-50214285D01*
X117773809Y-50261904D01*
X117630952Y-50261904D01*
X117440476Y-50214285D01*
X117345238Y-50166666D01*
X117250000Y-50071428D01*
X117202380Y-49928571D01*
X117202380Y-49833333D01*
X117250000Y-49690476D01*
X117297619Y-49642857D01*
X117297619Y-49261904D02*
X117250000Y-49214285D01*
X117202380Y-49119047D01*
X117202380Y-48880952D01*
X117250000Y-48785714D01*
X117297619Y-48738095D01*
X117392857Y-48690476D01*
X117488095Y-48690476D01*
X117630952Y-48738095D01*
X118202380Y-49309523D01*
X118202380Y-48690476D01*
X117535714Y-47833333D02*
X118202380Y-47833333D01*
X117154761Y-48071428D02*
X117869047Y-48309523D01*
X117869047Y-47690476D01*
X30952380Y-30464285D02*
X29952380Y-30464285D01*
X29952380Y-30226190D01*
X30000000Y-30083333D01*
X30095238Y-29988095D01*
X30190476Y-29940476D01*
X30380952Y-29892857D01*
X30523809Y-29892857D01*
X30714285Y-29940476D01*
X30809523Y-29988095D01*
X30904761Y-30083333D01*
X30952380Y-30226190D01*
X30952380Y-30464285D01*
X30952380Y-28940476D02*
X30952380Y-29511904D01*
X30952380Y-29226190D02*
X29952380Y-29226190D01*
X30095238Y-29321428D01*
X30190476Y-29416666D01*
X30238095Y-29511904D01*
X30285714Y-28083333D02*
X30952380Y-28083333D01*
X29904761Y-28321428D02*
X30619047Y-28559523D01*
X30619047Y-27940476D01*
X26202380Y-37714285D02*
X25202380Y-37714285D01*
X25202380Y-37476190D01*
X25250000Y-37333333D01*
X25345238Y-37238095D01*
X25440476Y-37190476D01*
X25630952Y-37142857D01*
X25773809Y-37142857D01*
X25964285Y-37190476D01*
X26059523Y-37238095D01*
X26154761Y-37333333D01*
X26202380Y-37476190D01*
X26202380Y-37714285D01*
X26202380Y-36190476D02*
X26202380Y-36761904D01*
X26202380Y-36476190D02*
X25202380Y-36476190D01*
X25345238Y-36571428D01*
X25440476Y-36666666D01*
X25488095Y-36761904D01*
X25202380Y-35857142D02*
X25202380Y-35238095D01*
X25583333Y-35571428D01*
X25583333Y-35428571D01*
X25630952Y-35333333D01*
X25678571Y-35285714D01*
X25773809Y-35238095D01*
X26011904Y-35238095D01*
X26107142Y-35285714D01*
X26154761Y-35333333D01*
X26202380Y-35428571D01*
X26202380Y-35714285D01*
X26154761Y-35809523D01*
X26107142Y-35857142D01*
X27107142Y-26392857D02*
X27154761Y-26440476D01*
X27202380Y-26583333D01*
X27202380Y-26678571D01*
X27154761Y-26821428D01*
X27059523Y-26916666D01*
X26964285Y-26964285D01*
X26773809Y-27011904D01*
X26630952Y-27011904D01*
X26440476Y-26964285D01*
X26345238Y-26916666D01*
X26250000Y-26821428D01*
X26202380Y-26678571D01*
X26202380Y-26583333D01*
X26250000Y-26440476D01*
X26297619Y-26392857D01*
X26297619Y-26011904D02*
X26250000Y-25964285D01*
X26202380Y-25869047D01*
X26202380Y-25630952D01*
X26250000Y-25535714D01*
X26297619Y-25488095D01*
X26392857Y-25440476D01*
X26488095Y-25440476D01*
X26630952Y-25488095D01*
X27202380Y-26059523D01*
X27202380Y-25440476D01*
X26202380Y-25107142D02*
X26202380Y-24488095D01*
X26583333Y-24821428D01*
X26583333Y-24678571D01*
X26630952Y-24583333D01*
X26678571Y-24535714D01*
X26773809Y-24488095D01*
X27011904Y-24488095D01*
X27107142Y-24535714D01*
X27154761Y-24583333D01*
X27202380Y-24678571D01*
X27202380Y-24964285D01*
X27154761Y-25059523D01*
X27107142Y-25107142D01*
X27585761Y-32551656D02*
X27252428Y-32075466D01*
X27014333Y-32551656D02*
X27014333Y-31551656D01*
X27395285Y-31551656D01*
X27490523Y-31599276D01*
X27538142Y-31646895D01*
X27585761Y-31742133D01*
X27585761Y-31884990D01*
X27538142Y-31980228D01*
X27490523Y-32027847D01*
X27395285Y-32075466D01*
X27014333Y-32075466D01*
X27966714Y-31646895D02*
X28014333Y-31599276D01*
X28109571Y-31551656D01*
X28347666Y-31551656D01*
X28442904Y-31599276D01*
X28490523Y-31646895D01*
X28538142Y-31742133D01*
X28538142Y-31837371D01*
X28490523Y-31980228D01*
X27919095Y-32551656D01*
X28538142Y-32551656D01*
X29109571Y-31980228D02*
X29014333Y-31932609D01*
X28966714Y-31884990D01*
X28919095Y-31789752D01*
X28919095Y-31742133D01*
X28966714Y-31646895D01*
X29014333Y-31599276D01*
X29109571Y-31551656D01*
X29300047Y-31551656D01*
X29395285Y-31599276D01*
X29442904Y-31646895D01*
X29490523Y-31742133D01*
X29490523Y-31789752D01*
X29442904Y-31884990D01*
X29395285Y-31932609D01*
X29300047Y-31980228D01*
X29109571Y-31980228D01*
X29014333Y-32027847D01*
X28966714Y-32075466D01*
X28919095Y-32170704D01*
X28919095Y-32361180D01*
X28966714Y-32456418D01*
X29014333Y-32504037D01*
X29109571Y-32551656D01*
X29300047Y-32551656D01*
X29395285Y-32504037D01*
X29442904Y-32456418D01*
X29490523Y-32361180D01*
X29490523Y-32170704D01*
X29442904Y-32075466D01*
X29395285Y-32027847D01*
X29300047Y-31980228D01*
X62416666Y-45904761D02*
X62559523Y-45952380D01*
X62797619Y-45952380D01*
X62892857Y-45904761D01*
X62940476Y-45857142D01*
X62988095Y-45761904D01*
X62988095Y-45666666D01*
X62940476Y-45571428D01*
X62892857Y-45523809D01*
X62797619Y-45476190D01*
X62607142Y-45428571D01*
X62511904Y-45380952D01*
X62464285Y-45333333D01*
X62416666Y-45238095D01*
X62416666Y-45142857D01*
X62464285Y-45047619D01*
X62511904Y-45000000D01*
X62607142Y-44952380D01*
X62845238Y-44952380D01*
X62988095Y-45000000D01*
X63321428Y-44952380D02*
X63559523Y-45952380D01*
X63750000Y-45238095D01*
X63940476Y-45952380D01*
X64178571Y-44952380D01*
X65083333Y-45952380D02*
X64511904Y-45952380D01*
X64797619Y-45952380D02*
X64797619Y-44952380D01*
X64702380Y-45095238D01*
X64607142Y-45190476D01*
X64511904Y-45238095D01*
X119452380Y-39488095D02*
X118452380Y-39488095D01*
X118452380Y-39250000D01*
X118500000Y-39107142D01*
X118595238Y-39011904D01*
X118690476Y-38964285D01*
X118880952Y-38916666D01*
X119023809Y-38916666D01*
X119214285Y-38964285D01*
X119309523Y-39011904D01*
X119404761Y-39107142D01*
X119452380Y-39250000D01*
X119452380Y-39488095D01*
X118785714Y-38059523D02*
X119452380Y-38059523D01*
X118404761Y-38297619D02*
X119119047Y-38535714D01*
X119119047Y-37916666D01*
X41857142Y-49107142D02*
X41809523Y-49154761D01*
X41666666Y-49202380D01*
X41571428Y-49202380D01*
X41428571Y-49154761D01*
X41333333Y-49059523D01*
X41285714Y-48964285D01*
X41238095Y-48773809D01*
X41238095Y-48630952D01*
X41285714Y-48440476D01*
X41333333Y-48345238D01*
X41428571Y-48250000D01*
X41571428Y-48202380D01*
X41666666Y-48202380D01*
X41809523Y-48250000D01*
X41857142Y-48297619D01*
X42809523Y-49202380D02*
X42238095Y-49202380D01*
X42523809Y-49202380D02*
X42523809Y-48202380D01*
X42428571Y-48345238D01*
X42333333Y-48440476D01*
X42238095Y-48488095D01*
X43666666Y-48202380D02*
X43476190Y-48202380D01*
X43380952Y-48250000D01*
X43333333Y-48297619D01*
X43238095Y-48440476D01*
X43190476Y-48630952D01*
X43190476Y-49011904D01*
X43238095Y-49107142D01*
X43285714Y-49154761D01*
X43380952Y-49202380D01*
X43571428Y-49202380D01*
X43666666Y-49154761D01*
X43714285Y-49107142D01*
X43761904Y-49011904D01*
X43761904Y-48773809D01*
X43714285Y-48678571D01*
X43666666Y-48630952D01*
X43571428Y-48583333D01*
X43380952Y-48583333D01*
X43285714Y-48630952D01*
X43238095Y-48678571D01*
X43190476Y-48773809D01*
X38238095Y-82952380D02*
X38238095Y-83761904D01*
X38285714Y-83857142D01*
X38333333Y-83904761D01*
X38428571Y-83952380D01*
X38619047Y-83952380D01*
X38714285Y-83904761D01*
X38761904Y-83857142D01*
X38809523Y-83761904D01*
X38809523Y-82952380D01*
X39714285Y-82952380D02*
X39523809Y-82952380D01*
X39428571Y-83000000D01*
X39380952Y-83047619D01*
X39285714Y-83190476D01*
X39238095Y-83380952D01*
X39238095Y-83761904D01*
X39285714Y-83857142D01*
X39333333Y-83904761D01*
X39428571Y-83952380D01*
X39619047Y-83952380D01*
X39714285Y-83904761D01*
X39761904Y-83857142D01*
X39809523Y-83761904D01*
X39809523Y-83523809D01*
X39761904Y-83428571D01*
X39714285Y-83380952D01*
X39619047Y-83333333D01*
X39428571Y-83333333D01*
X39333333Y-83380952D01*
X39285714Y-83428571D01*
X39238095Y-83523809D01*
X41238095Y-31452380D02*
X41238095Y-32261904D01*
X41285714Y-32357142D01*
X41333333Y-32404761D01*
X41428571Y-32452380D01*
X41619047Y-32452380D01*
X41714285Y-32404761D01*
X41761904Y-32357142D01*
X41809523Y-32261904D01*
X41809523Y-31452380D01*
X42761904Y-31452380D02*
X42285714Y-31452380D01*
X42238095Y-31928571D01*
X42285714Y-31880952D01*
X42380952Y-31833333D01*
X42619047Y-31833333D01*
X42714285Y-31880952D01*
X42761904Y-31928571D01*
X42809523Y-32023809D01*
X42809523Y-32261904D01*
X42761904Y-32357142D01*
X42714285Y-32404761D01*
X42619047Y-32452380D01*
X42380952Y-32452380D01*
X42285714Y-32404761D01*
X42238095Y-32357142D01*
X82148095Y-29752380D02*
X82148095Y-30561904D01*
X82195714Y-30657142D01*
X82243333Y-30704761D01*
X82338571Y-30752380D01*
X82529047Y-30752380D01*
X82624285Y-30704761D01*
X82671904Y-30657142D01*
X82719523Y-30561904D01*
X82719523Y-29752380D01*
X83624285Y-30085714D02*
X83624285Y-30752380D01*
X83386190Y-29704761D02*
X83148095Y-30419047D01*
X83767142Y-30419047D01*
X50238095Y-75452380D02*
X50238095Y-76261904D01*
X50285714Y-76357142D01*
X50333333Y-76404761D01*
X50428571Y-76452380D01*
X50619047Y-76452380D01*
X50714285Y-76404761D01*
X50761904Y-76357142D01*
X50809523Y-76261904D01*
X50809523Y-75452380D01*
X51190476Y-75452380D02*
X51809523Y-75452380D01*
X51476190Y-75833333D01*
X51619047Y-75833333D01*
X51714285Y-75880952D01*
X51761904Y-75928571D01*
X51809523Y-76023809D01*
X51809523Y-76261904D01*
X51761904Y-76357142D01*
X51714285Y-76404761D01*
X51619047Y-76452380D01*
X51333333Y-76452380D01*
X51238095Y-76404761D01*
X51190476Y-76357142D01*
X117702380Y-53761904D02*
X118511904Y-53761904D01*
X118607142Y-53714285D01*
X118654761Y-53666666D01*
X118702380Y-53571428D01*
X118702380Y-53380952D01*
X118654761Y-53285714D01*
X118607142Y-53238095D01*
X118511904Y-53190476D01*
X117702380Y-53190476D01*
X117797619Y-52761904D02*
X117750000Y-52714285D01*
X117702380Y-52619047D01*
X117702380Y-52380952D01*
X117750000Y-52285714D01*
X117797619Y-52238095D01*
X117892857Y-52190476D01*
X117988095Y-52190476D01*
X118130952Y-52238095D01*
X118702380Y-52809523D01*
X118702380Y-52190476D01*
X86202380Y-53011904D02*
X87011904Y-53011904D01*
X87107142Y-52964285D01*
X87154761Y-52916666D01*
X87202380Y-52821428D01*
X87202380Y-52630952D01*
X87154761Y-52535714D01*
X87107142Y-52488095D01*
X87011904Y-52440476D01*
X86202380Y-52440476D01*
X87202380Y-51440476D02*
X87202380Y-52011904D01*
X87202380Y-51726190D02*
X86202380Y-51726190D01*
X86345238Y-51821428D01*
X86440476Y-51916666D01*
X86488095Y-52011904D01*
X24202380Y-49892857D02*
X23726190Y-50226190D01*
X24202380Y-50464285D02*
X23202380Y-50464285D01*
X23202380Y-50083333D01*
X23250000Y-49988095D01*
X23297619Y-49940476D01*
X23392857Y-49892857D01*
X23535714Y-49892857D01*
X23630952Y-49940476D01*
X23678571Y-49988095D01*
X23726190Y-50083333D01*
X23726190Y-50464285D01*
X23535714Y-49035714D02*
X24202380Y-49035714D01*
X23154761Y-49273809D02*
X23869047Y-49511904D01*
X23869047Y-48892857D01*
X23202380Y-48035714D02*
X23202380Y-48511904D01*
X23678571Y-48559523D01*
X23630952Y-48511904D01*
X23583333Y-48416666D01*
X23583333Y-48178571D01*
X23630952Y-48083333D01*
X23678571Y-48035714D01*
X23773809Y-47988095D01*
X24011904Y-47988095D01*
X24107142Y-48035714D01*
X24154761Y-48083333D01*
X24202380Y-48178571D01*
X24202380Y-48416666D01*
X24154761Y-48511904D01*
X24107142Y-48559523D01*
X50247142Y-84092380D02*
X49913809Y-83616190D01*
X49675714Y-84092380D02*
X49675714Y-83092380D01*
X50056666Y-83092380D01*
X50151904Y-83140000D01*
X50199523Y-83187619D01*
X50247142Y-83282857D01*
X50247142Y-83425714D01*
X50199523Y-83520952D01*
X50151904Y-83568571D01*
X50056666Y-83616190D01*
X49675714Y-83616190D01*
X51104285Y-83425714D02*
X51104285Y-84092380D01*
X50866190Y-83044761D02*
X50628095Y-83759047D01*
X51247142Y-83759047D01*
X52056666Y-83425714D02*
X52056666Y-84092380D01*
X51818571Y-83044761D02*
X51580476Y-83759047D01*
X52199523Y-83759047D01*
X48702380Y-81642857D02*
X48226190Y-81976190D01*
X48702380Y-82214285D02*
X47702380Y-82214285D01*
X47702380Y-81833333D01*
X47750000Y-81738095D01*
X47797619Y-81690476D01*
X47892857Y-81642857D01*
X48035714Y-81642857D01*
X48130952Y-81690476D01*
X48178571Y-81738095D01*
X48226190Y-81833333D01*
X48226190Y-82214285D01*
X48035714Y-80785714D02*
X48702380Y-80785714D01*
X47654761Y-81023809D02*
X48369047Y-81261904D01*
X48369047Y-80642857D01*
X47702380Y-80357142D02*
X47702380Y-79738095D01*
X48083333Y-80071428D01*
X48083333Y-79928571D01*
X48130952Y-79833333D01*
X48178571Y-79785714D01*
X48273809Y-79738095D01*
X48511904Y-79738095D01*
X48607142Y-79785714D01*
X48654761Y-79833333D01*
X48702380Y-79928571D01*
X48702380Y-80214285D01*
X48654761Y-80309523D01*
X48607142Y-80357142D01*
X32857142Y-83202380D02*
X32523809Y-82726190D01*
X32285714Y-83202380D02*
X32285714Y-82202380D01*
X32666666Y-82202380D01*
X32761904Y-82250000D01*
X32809523Y-82297619D01*
X32857142Y-82392857D01*
X32857142Y-82535714D01*
X32809523Y-82630952D01*
X32761904Y-82678571D01*
X32666666Y-82726190D01*
X32285714Y-82726190D01*
X33714285Y-82535714D02*
X33714285Y-83202380D01*
X33476190Y-82154761D02*
X33238095Y-82869047D01*
X33857142Y-82869047D01*
X34190476Y-82297619D02*
X34238095Y-82250000D01*
X34333333Y-82202380D01*
X34571428Y-82202380D01*
X34666666Y-82250000D01*
X34714285Y-82297619D01*
X34761904Y-82392857D01*
X34761904Y-82488095D01*
X34714285Y-82630952D01*
X34142857Y-83202380D01*
X34761904Y-83202380D01*
X96452380Y-48142857D02*
X95976190Y-48476190D01*
X96452380Y-48714285D02*
X95452380Y-48714285D01*
X95452380Y-48333333D01*
X95500000Y-48238095D01*
X95547619Y-48190476D01*
X95642857Y-48142857D01*
X95785714Y-48142857D01*
X95880952Y-48190476D01*
X95928571Y-48238095D01*
X95976190Y-48333333D01*
X95976190Y-48714285D01*
X95785714Y-47285714D02*
X96452380Y-47285714D01*
X95404761Y-47523809D02*
X96119047Y-47761904D01*
X96119047Y-47142857D01*
X96452380Y-46238095D02*
X96452380Y-46809523D01*
X96452380Y-46523809D02*
X95452380Y-46523809D01*
X95595238Y-46619047D01*
X95690476Y-46714285D01*
X95738095Y-46809523D01*
X97357142Y-61452380D02*
X97023809Y-60976190D01*
X96785714Y-61452380D02*
X96785714Y-60452380D01*
X97166666Y-60452380D01*
X97261904Y-60500000D01*
X97309523Y-60547619D01*
X97357142Y-60642857D01*
X97357142Y-60785714D01*
X97309523Y-60880952D01*
X97261904Y-60928571D01*
X97166666Y-60976190D01*
X96785714Y-60976190D01*
X98214285Y-60785714D02*
X98214285Y-61452380D01*
X97976190Y-60404761D02*
X97738095Y-61119047D01*
X98357142Y-61119047D01*
X98928571Y-60452380D02*
X99023809Y-60452380D01*
X99119047Y-60500000D01*
X99166666Y-60547619D01*
X99214285Y-60642857D01*
X99261904Y-60833333D01*
X99261904Y-61071428D01*
X99214285Y-61261904D01*
X99166666Y-61357142D01*
X99119047Y-61404761D01*
X99023809Y-61452380D01*
X98928571Y-61452380D01*
X98833333Y-61404761D01*
X98785714Y-61357142D01*
X98738095Y-61261904D01*
X98690476Y-61071428D01*
X98690476Y-60833333D01*
X98738095Y-60642857D01*
X98785714Y-60547619D01*
X98833333Y-60500000D01*
X98928571Y-60452380D01*
X93202380Y-58642857D02*
X92726190Y-58976190D01*
X93202380Y-59214285D02*
X92202380Y-59214285D01*
X92202380Y-58833333D01*
X92250000Y-58738095D01*
X92297619Y-58690476D01*
X92392857Y-58642857D01*
X92535714Y-58642857D01*
X92630952Y-58690476D01*
X92678571Y-58738095D01*
X92726190Y-58833333D01*
X92726190Y-59214285D01*
X92202380Y-58309523D02*
X92202380Y-57690476D01*
X92583333Y-58023809D01*
X92583333Y-57880952D01*
X92630952Y-57785714D01*
X92678571Y-57738095D01*
X92773809Y-57690476D01*
X93011904Y-57690476D01*
X93107142Y-57738095D01*
X93154761Y-57785714D01*
X93202380Y-57880952D01*
X93202380Y-58166666D01*
X93154761Y-58261904D01*
X93107142Y-58309523D01*
X93202380Y-57214285D02*
X93202380Y-57023809D01*
X93154761Y-56928571D01*
X93107142Y-56880952D01*
X92964285Y-56785714D01*
X92773809Y-56738095D01*
X92392857Y-56738095D01*
X92297619Y-56785714D01*
X92250000Y-56833333D01*
X92202380Y-56928571D01*
X92202380Y-57119047D01*
X92250000Y-57214285D01*
X92297619Y-57261904D01*
X92392857Y-57309523D01*
X92630952Y-57309523D01*
X92726190Y-57261904D01*
X92773809Y-57214285D01*
X92821428Y-57119047D01*
X92821428Y-56928571D01*
X92773809Y-56833333D01*
X92726190Y-56785714D01*
X92630952Y-56738095D01*
X83968104Y-56146476D02*
X83491914Y-56479809D01*
X83968104Y-56717904D02*
X82968104Y-56717904D01*
X82968104Y-56336952D01*
X83015724Y-56241714D01*
X83063343Y-56194095D01*
X83158581Y-56146476D01*
X83301438Y-56146476D01*
X83396676Y-56194095D01*
X83444295Y-56241714D01*
X83491914Y-56336952D01*
X83491914Y-56717904D01*
X82968104Y-55813142D02*
X82968104Y-55194095D01*
X83349057Y-55527428D01*
X83349057Y-55384571D01*
X83396676Y-55289333D01*
X83444295Y-55241714D01*
X83539533Y-55194095D01*
X83777628Y-55194095D01*
X83872866Y-55241714D01*
X83920485Y-55289333D01*
X83968104Y-55384571D01*
X83968104Y-55670285D01*
X83920485Y-55765523D01*
X83872866Y-55813142D01*
X83396676Y-54622666D02*
X83349057Y-54717904D01*
X83301438Y-54765523D01*
X83206200Y-54813142D01*
X83158581Y-54813142D01*
X83063343Y-54765523D01*
X83015724Y-54717904D01*
X82968104Y-54622666D01*
X82968104Y-54432190D01*
X83015724Y-54336952D01*
X83063343Y-54289333D01*
X83158581Y-54241714D01*
X83206200Y-54241714D01*
X83301438Y-54289333D01*
X83349057Y-54336952D01*
X83396676Y-54432190D01*
X83396676Y-54622666D01*
X83444295Y-54717904D01*
X83491914Y-54765523D01*
X83587152Y-54813142D01*
X83777628Y-54813142D01*
X83872866Y-54765523D01*
X83920485Y-54717904D01*
X83968104Y-54622666D01*
X83968104Y-54432190D01*
X83920485Y-54336952D01*
X83872866Y-54289333D01*
X83777628Y-54241714D01*
X83587152Y-54241714D01*
X83491914Y-54289333D01*
X83444295Y-54336952D01*
X83396676Y-54432190D01*
X87607142Y-45452380D02*
X87273809Y-44976190D01*
X87035714Y-45452380D02*
X87035714Y-44452380D01*
X87416666Y-44452380D01*
X87511904Y-44500000D01*
X87559523Y-44547619D01*
X87607142Y-44642857D01*
X87607142Y-44785714D01*
X87559523Y-44880952D01*
X87511904Y-44928571D01*
X87416666Y-44976190D01*
X87035714Y-44976190D01*
X87940476Y-44452380D02*
X88559523Y-44452380D01*
X88226190Y-44833333D01*
X88369047Y-44833333D01*
X88464285Y-44880952D01*
X88511904Y-44928571D01*
X88559523Y-45023809D01*
X88559523Y-45261904D01*
X88511904Y-45357142D01*
X88464285Y-45404761D01*
X88369047Y-45452380D01*
X88083333Y-45452380D01*
X87988095Y-45404761D01*
X87940476Y-45357142D01*
X88892857Y-44452380D02*
X89559523Y-44452380D01*
X89130952Y-45452380D01*
X86952380Y-47142857D02*
X86476190Y-47476190D01*
X86952380Y-47714285D02*
X85952380Y-47714285D01*
X85952380Y-47333333D01*
X86000000Y-47238095D01*
X86047619Y-47190476D01*
X86142857Y-47142857D01*
X86285714Y-47142857D01*
X86380952Y-47190476D01*
X86428571Y-47238095D01*
X86476190Y-47333333D01*
X86476190Y-47714285D01*
X85952380Y-46809523D02*
X85952380Y-46190476D01*
X86333333Y-46523809D01*
X86333333Y-46380952D01*
X86380952Y-46285714D01*
X86428571Y-46238095D01*
X86523809Y-46190476D01*
X86761904Y-46190476D01*
X86857142Y-46238095D01*
X86904761Y-46285714D01*
X86952380Y-46380952D01*
X86952380Y-46666666D01*
X86904761Y-46761904D01*
X86857142Y-46809523D01*
X85952380Y-45333333D02*
X85952380Y-45523809D01*
X86000000Y-45619047D01*
X86047619Y-45666666D01*
X86190476Y-45761904D01*
X86380952Y-45809523D01*
X86761904Y-45809523D01*
X86857142Y-45761904D01*
X86904761Y-45714285D01*
X86952380Y-45619047D01*
X86952380Y-45428571D01*
X86904761Y-45333333D01*
X86857142Y-45285714D01*
X86761904Y-45238095D01*
X86523809Y-45238095D01*
X86428571Y-45285714D01*
X86380952Y-45333333D01*
X86333333Y-45428571D01*
X86333333Y-45619047D01*
X86380952Y-45714285D01*
X86428571Y-45761904D01*
X86523809Y-45809523D01*
X59952380Y-60142857D02*
X59476190Y-60476190D01*
X59952380Y-60714285D02*
X58952380Y-60714285D01*
X58952380Y-60333333D01*
X59000000Y-60238095D01*
X59047619Y-60190476D01*
X59142857Y-60142857D01*
X59285714Y-60142857D01*
X59380952Y-60190476D01*
X59428571Y-60238095D01*
X59476190Y-60333333D01*
X59476190Y-60714285D01*
X58952380Y-59809523D02*
X58952380Y-59190476D01*
X59333333Y-59523809D01*
X59333333Y-59380952D01*
X59380952Y-59285714D01*
X59428571Y-59238095D01*
X59523809Y-59190476D01*
X59761904Y-59190476D01*
X59857142Y-59238095D01*
X59904761Y-59285714D01*
X59952380Y-59380952D01*
X59952380Y-59666666D01*
X59904761Y-59761904D01*
X59857142Y-59809523D01*
X58952380Y-58285714D02*
X58952380Y-58761904D01*
X59428571Y-58809523D01*
X59380952Y-58761904D01*
X59333333Y-58666666D01*
X59333333Y-58428571D01*
X59380952Y-58333333D01*
X59428571Y-58285714D01*
X59523809Y-58238095D01*
X59761904Y-58238095D01*
X59857142Y-58285714D01*
X59904761Y-58333333D01*
X59952380Y-58428571D01*
X59952380Y-58666666D01*
X59904761Y-58761904D01*
X59857142Y-58809523D01*
X59952380Y-57142857D02*
X59476190Y-57476190D01*
X59952380Y-57714285D02*
X58952380Y-57714285D01*
X58952380Y-57333333D01*
X59000000Y-57238095D01*
X59047619Y-57190476D01*
X59142857Y-57142857D01*
X59285714Y-57142857D01*
X59380952Y-57190476D01*
X59428571Y-57238095D01*
X59476190Y-57333333D01*
X59476190Y-57714285D01*
X58952380Y-56809523D02*
X58952380Y-56190476D01*
X59333333Y-56523809D01*
X59333333Y-56380952D01*
X59380952Y-56285714D01*
X59428571Y-56238095D01*
X59523809Y-56190476D01*
X59761904Y-56190476D01*
X59857142Y-56238095D01*
X59904761Y-56285714D01*
X59952380Y-56380952D01*
X59952380Y-56666666D01*
X59904761Y-56761904D01*
X59857142Y-56809523D01*
X59285714Y-55333333D02*
X59952380Y-55333333D01*
X58904761Y-55571428D02*
X59619047Y-55809523D01*
X59619047Y-55190476D01*
X74857142Y-42452380D02*
X74523809Y-41976190D01*
X74285714Y-42452380D02*
X74285714Y-41452380D01*
X74666666Y-41452380D01*
X74761904Y-41500000D01*
X74809523Y-41547619D01*
X74857142Y-41642857D01*
X74857142Y-41785714D01*
X74809523Y-41880952D01*
X74761904Y-41928571D01*
X74666666Y-41976190D01*
X74285714Y-41976190D01*
X75190476Y-41452380D02*
X75809523Y-41452380D01*
X75476190Y-41833333D01*
X75619047Y-41833333D01*
X75714285Y-41880952D01*
X75761904Y-41928571D01*
X75809523Y-42023809D01*
X75809523Y-42261904D01*
X75761904Y-42357142D01*
X75714285Y-42404761D01*
X75619047Y-42452380D01*
X75333333Y-42452380D01*
X75238095Y-42404761D01*
X75190476Y-42357142D01*
X76142857Y-41452380D02*
X76761904Y-41452380D01*
X76428571Y-41833333D01*
X76571428Y-41833333D01*
X76666666Y-41880952D01*
X76714285Y-41928571D01*
X76761904Y-42023809D01*
X76761904Y-42261904D01*
X76714285Y-42357142D01*
X76666666Y-42404761D01*
X76571428Y-42452380D01*
X76285714Y-42452380D01*
X76190476Y-42404761D01*
X76142857Y-42357142D01*
X74857142Y-45702380D02*
X74523809Y-45226190D01*
X74285714Y-45702380D02*
X74285714Y-44702380D01*
X74666666Y-44702380D01*
X74761904Y-44750000D01*
X74809523Y-44797619D01*
X74857142Y-44892857D01*
X74857142Y-45035714D01*
X74809523Y-45130952D01*
X74761904Y-45178571D01*
X74666666Y-45226190D01*
X74285714Y-45226190D01*
X75190476Y-44702380D02*
X75809523Y-44702380D01*
X75476190Y-45083333D01*
X75619047Y-45083333D01*
X75714285Y-45130952D01*
X75761904Y-45178571D01*
X75809523Y-45273809D01*
X75809523Y-45511904D01*
X75761904Y-45607142D01*
X75714285Y-45654761D01*
X75619047Y-45702380D01*
X75333333Y-45702380D01*
X75238095Y-45654761D01*
X75190476Y-45607142D01*
X76190476Y-44797619D02*
X76238095Y-44750000D01*
X76333333Y-44702380D01*
X76571428Y-44702380D01*
X76666666Y-44750000D01*
X76714285Y-44797619D01*
X76761904Y-44892857D01*
X76761904Y-44988095D01*
X76714285Y-45130952D01*
X76142857Y-45702380D01*
X76761904Y-45702380D01*
X79952380Y-51642857D02*
X79476190Y-51976190D01*
X79952380Y-52214285D02*
X78952380Y-52214285D01*
X78952380Y-51833333D01*
X79000000Y-51738095D01*
X79047619Y-51690476D01*
X79142857Y-51642857D01*
X79285714Y-51642857D01*
X79380952Y-51690476D01*
X79428571Y-51738095D01*
X79476190Y-51833333D01*
X79476190Y-52214285D01*
X78952380Y-51309523D02*
X78952380Y-50690476D01*
X79333333Y-51023809D01*
X79333333Y-50880952D01*
X79380952Y-50785714D01*
X79428571Y-50738095D01*
X79523809Y-50690476D01*
X79761904Y-50690476D01*
X79857142Y-50738095D01*
X79904761Y-50785714D01*
X79952380Y-50880952D01*
X79952380Y-51166666D01*
X79904761Y-51261904D01*
X79857142Y-51309523D01*
X79952380Y-49738095D02*
X79952380Y-50309523D01*
X79952380Y-50023809D02*
X78952380Y-50023809D01*
X79095238Y-50119047D01*
X79190476Y-50214285D01*
X79238095Y-50309523D01*
X79107142Y-59452380D02*
X78773809Y-58976190D01*
X78535714Y-59452380D02*
X78535714Y-58452380D01*
X78916666Y-58452380D01*
X79011904Y-58500000D01*
X79059523Y-58547619D01*
X79107142Y-58642857D01*
X79107142Y-58785714D01*
X79059523Y-58880952D01*
X79011904Y-58928571D01*
X78916666Y-58976190D01*
X78535714Y-58976190D01*
X79440476Y-58452380D02*
X80059523Y-58452380D01*
X79726190Y-58833333D01*
X79869047Y-58833333D01*
X79964285Y-58880952D01*
X80011904Y-58928571D01*
X80059523Y-59023809D01*
X80059523Y-59261904D01*
X80011904Y-59357142D01*
X79964285Y-59404761D01*
X79869047Y-59452380D01*
X79583333Y-59452380D01*
X79488095Y-59404761D01*
X79440476Y-59357142D01*
X80678571Y-58452380D02*
X80773809Y-58452380D01*
X80869047Y-58500000D01*
X80916666Y-58547619D01*
X80964285Y-58642857D01*
X81011904Y-58833333D01*
X81011904Y-59071428D01*
X80964285Y-59261904D01*
X80916666Y-59357142D01*
X80869047Y-59404761D01*
X80773809Y-59452380D01*
X80678571Y-59452380D01*
X80583333Y-59404761D01*
X80535714Y-59357142D01*
X80488095Y-59261904D01*
X80440476Y-59071428D01*
X80440476Y-58833333D01*
X80488095Y-58642857D01*
X80535714Y-58547619D01*
X80583333Y-58500000D01*
X80678571Y-58452380D01*
X110357142Y-69202380D02*
X110023809Y-68726190D01*
X109785714Y-69202380D02*
X109785714Y-68202380D01*
X110166666Y-68202380D01*
X110261904Y-68250000D01*
X110309523Y-68297619D01*
X110357142Y-68392857D01*
X110357142Y-68535714D01*
X110309523Y-68630952D01*
X110261904Y-68678571D01*
X110166666Y-68726190D01*
X109785714Y-68726190D01*
X110738095Y-68297619D02*
X110785714Y-68250000D01*
X110880952Y-68202380D01*
X111119047Y-68202380D01*
X111214285Y-68250000D01*
X111261904Y-68297619D01*
X111309523Y-68392857D01*
X111309523Y-68488095D01*
X111261904Y-68630952D01*
X110690476Y-69202380D01*
X111309523Y-69202380D01*
X111785714Y-69202380D02*
X111976190Y-69202380D01*
X112071428Y-69154761D01*
X112119047Y-69107142D01*
X112214285Y-68964285D01*
X112261904Y-68773809D01*
X112261904Y-68392857D01*
X112214285Y-68297619D01*
X112166666Y-68250000D01*
X112071428Y-68202380D01*
X111880952Y-68202380D01*
X111785714Y-68250000D01*
X111738095Y-68297619D01*
X111690476Y-68392857D01*
X111690476Y-68630952D01*
X111738095Y-68726190D01*
X111785714Y-68773809D01*
X111880952Y-68821428D01*
X112071428Y-68821428D01*
X112166666Y-68773809D01*
X112214285Y-68726190D01*
X112261904Y-68630952D01*
X34607142Y-32452380D02*
X34273809Y-31976190D01*
X34035714Y-32452380D02*
X34035714Y-31452380D01*
X34416666Y-31452380D01*
X34511904Y-31500000D01*
X34559523Y-31547619D01*
X34607142Y-31642857D01*
X34607142Y-31785714D01*
X34559523Y-31880952D01*
X34511904Y-31928571D01*
X34416666Y-31976190D01*
X34035714Y-31976190D01*
X34988095Y-31547619D02*
X35035714Y-31500000D01*
X35130952Y-31452380D01*
X35369047Y-31452380D01*
X35464285Y-31500000D01*
X35511904Y-31547619D01*
X35559523Y-31642857D01*
X35559523Y-31738095D01*
X35511904Y-31880952D01*
X34940476Y-32452380D01*
X35559523Y-32452380D01*
X35892857Y-31452380D02*
X36559523Y-31452380D01*
X36130952Y-32452380D01*
X34607142Y-22952380D02*
X34273809Y-22476190D01*
X34035714Y-22952380D02*
X34035714Y-21952380D01*
X34416666Y-21952380D01*
X34511904Y-22000000D01*
X34559523Y-22047619D01*
X34607142Y-22142857D01*
X34607142Y-22285714D01*
X34559523Y-22380952D01*
X34511904Y-22428571D01*
X34416666Y-22476190D01*
X34035714Y-22476190D01*
X34988095Y-22047619D02*
X35035714Y-22000000D01*
X35130952Y-21952380D01*
X35369047Y-21952380D01*
X35464285Y-22000000D01*
X35511904Y-22047619D01*
X35559523Y-22142857D01*
X35559523Y-22238095D01*
X35511904Y-22380952D01*
X34940476Y-22952380D01*
X35559523Y-22952380D01*
X36416666Y-21952380D02*
X36226190Y-21952380D01*
X36130952Y-22000000D01*
X36083333Y-22047619D01*
X35988095Y-22190476D01*
X35940476Y-22380952D01*
X35940476Y-22761904D01*
X35988095Y-22857142D01*
X36035714Y-22904761D01*
X36130952Y-22952380D01*
X36321428Y-22952380D01*
X36416666Y-22904761D01*
X36464285Y-22857142D01*
X36511904Y-22761904D01*
X36511904Y-22523809D01*
X36464285Y-22428571D01*
X36416666Y-22380952D01*
X36321428Y-22333333D01*
X36130952Y-22333333D01*
X36035714Y-22380952D01*
X35988095Y-22428571D01*
X35940476Y-22523809D01*
X35452380Y-43642857D02*
X34976190Y-43976190D01*
X35452380Y-44214285D02*
X34452380Y-44214285D01*
X34452380Y-43833333D01*
X34500000Y-43738095D01*
X34547619Y-43690476D01*
X34642857Y-43642857D01*
X34785714Y-43642857D01*
X34880952Y-43690476D01*
X34928571Y-43738095D01*
X34976190Y-43833333D01*
X34976190Y-44214285D01*
X34547619Y-43261904D02*
X34500000Y-43214285D01*
X34452380Y-43119047D01*
X34452380Y-42880952D01*
X34500000Y-42785714D01*
X34547619Y-42738095D01*
X34642857Y-42690476D01*
X34738095Y-42690476D01*
X34880952Y-42738095D01*
X35452380Y-43309523D01*
X35452380Y-42690476D01*
X34452380Y-41785714D02*
X34452380Y-42261904D01*
X34928571Y-42309523D01*
X34880952Y-42261904D01*
X34833333Y-42166666D01*
X34833333Y-41928571D01*
X34880952Y-41833333D01*
X34928571Y-41785714D01*
X35023809Y-41738095D01*
X35261904Y-41738095D01*
X35357142Y-41785714D01*
X35404761Y-41833333D01*
X35452380Y-41928571D01*
X35452380Y-42166666D01*
X35404761Y-42261904D01*
X35357142Y-42309523D01*
X28357142Y-41952380D02*
X28023809Y-41476190D01*
X27785714Y-41952380D02*
X27785714Y-40952380D01*
X28166666Y-40952380D01*
X28261904Y-41000000D01*
X28309523Y-41047619D01*
X28357142Y-41142857D01*
X28357142Y-41285714D01*
X28309523Y-41380952D01*
X28261904Y-41428571D01*
X28166666Y-41476190D01*
X27785714Y-41476190D01*
X28738095Y-41047619D02*
X28785714Y-41000000D01*
X28880952Y-40952380D01*
X29119047Y-40952380D01*
X29214285Y-41000000D01*
X29261904Y-41047619D01*
X29309523Y-41142857D01*
X29309523Y-41238095D01*
X29261904Y-41380952D01*
X28690476Y-41952380D01*
X29309523Y-41952380D01*
X30166666Y-41285714D02*
X30166666Y-41952380D01*
X29928571Y-40904761D02*
X29690476Y-41619047D01*
X30309523Y-41619047D01*
X58452380Y-52392857D02*
X57976190Y-52726190D01*
X58452380Y-52964285D02*
X57452380Y-52964285D01*
X57452380Y-52583333D01*
X57500000Y-52488095D01*
X57547619Y-52440476D01*
X57642857Y-52392857D01*
X57785714Y-52392857D01*
X57880952Y-52440476D01*
X57928571Y-52488095D01*
X57976190Y-52583333D01*
X57976190Y-52964285D01*
X57547619Y-52011904D02*
X57500000Y-51964285D01*
X57452380Y-51869047D01*
X57452380Y-51630952D01*
X57500000Y-51535714D01*
X57547619Y-51488095D01*
X57642857Y-51440476D01*
X57738095Y-51440476D01*
X57880952Y-51488095D01*
X58452380Y-52059523D01*
X58452380Y-51440476D01*
X57452380Y-51107142D02*
X57452380Y-50488095D01*
X57833333Y-50821428D01*
X57833333Y-50678571D01*
X57880952Y-50583333D01*
X57928571Y-50535714D01*
X58023809Y-50488095D01*
X58261904Y-50488095D01*
X58357142Y-50535714D01*
X58404761Y-50583333D01*
X58452380Y-50678571D01*
X58452380Y-50964285D01*
X58404761Y-51059523D01*
X58357142Y-51107142D01*
X41107142Y-78952380D02*
X40773809Y-78476190D01*
X40535714Y-78952380D02*
X40535714Y-77952380D01*
X40916666Y-77952380D01*
X41011904Y-78000000D01*
X41059523Y-78047619D01*
X41107142Y-78142857D01*
X41107142Y-78285714D01*
X41059523Y-78380952D01*
X41011904Y-78428571D01*
X40916666Y-78476190D01*
X40535714Y-78476190D01*
X41488095Y-78047619D02*
X41535714Y-78000000D01*
X41630952Y-77952380D01*
X41869047Y-77952380D01*
X41964285Y-78000000D01*
X42011904Y-78047619D01*
X42059523Y-78142857D01*
X42059523Y-78238095D01*
X42011904Y-78380952D01*
X41440476Y-78952380D01*
X42059523Y-78952380D01*
X42440476Y-78047619D02*
X42488095Y-78000000D01*
X42583333Y-77952380D01*
X42821428Y-77952380D01*
X42916666Y-78000000D01*
X42964285Y-78047619D01*
X43011904Y-78142857D01*
X43011904Y-78238095D01*
X42964285Y-78380952D01*
X42392857Y-78952380D01*
X43011904Y-78952380D01*
X52702380Y-49642857D02*
X52226190Y-49976190D01*
X52702380Y-50214285D02*
X51702380Y-50214285D01*
X51702380Y-49833333D01*
X51750000Y-49738095D01*
X51797619Y-49690476D01*
X51892857Y-49642857D01*
X52035714Y-49642857D01*
X52130952Y-49690476D01*
X52178571Y-49738095D01*
X52226190Y-49833333D01*
X52226190Y-50214285D01*
X51797619Y-49261904D02*
X51750000Y-49214285D01*
X51702380Y-49119047D01*
X51702380Y-48880952D01*
X51750000Y-48785714D01*
X51797619Y-48738095D01*
X51892857Y-48690476D01*
X51988095Y-48690476D01*
X52130952Y-48738095D01*
X52702380Y-49309523D01*
X52702380Y-48690476D01*
X52702380Y-47738095D02*
X52702380Y-48309523D01*
X52702380Y-48023809D02*
X51702380Y-48023809D01*
X51845238Y-48119047D01*
X51940476Y-48214285D01*
X51988095Y-48309523D01*
X59452380Y-77642857D02*
X58976190Y-77976190D01*
X59452380Y-78214285D02*
X58452380Y-78214285D01*
X58452380Y-77833333D01*
X58500000Y-77738095D01*
X58547619Y-77690476D01*
X58642857Y-77642857D01*
X58785714Y-77642857D01*
X58880952Y-77690476D01*
X58928571Y-77738095D01*
X58976190Y-77833333D01*
X58976190Y-78214285D01*
X58547619Y-77261904D02*
X58500000Y-77214285D01*
X58452380Y-77119047D01*
X58452380Y-76880952D01*
X58500000Y-76785714D01*
X58547619Y-76738095D01*
X58642857Y-76690476D01*
X58738095Y-76690476D01*
X58880952Y-76738095D01*
X59452380Y-77309523D01*
X59452380Y-76690476D01*
X58452380Y-76071428D02*
X58452380Y-75976190D01*
X58500000Y-75880952D01*
X58547619Y-75833333D01*
X58642857Y-75785714D01*
X58833333Y-75738095D01*
X59071428Y-75738095D01*
X59261904Y-75785714D01*
X59357142Y-75833333D01*
X59404761Y-75880952D01*
X59452380Y-75976190D01*
X59452380Y-76071428D01*
X59404761Y-76166666D01*
X59357142Y-76214285D01*
X59261904Y-76261904D01*
X59071428Y-76309523D01*
X58833333Y-76309523D01*
X58642857Y-76261904D01*
X58547619Y-76214285D01*
X58500000Y-76166666D01*
X58452380Y-76071428D01*
X64202380Y-74392857D02*
X63726190Y-74726190D01*
X64202380Y-74964285D02*
X63202380Y-74964285D01*
X63202380Y-74583333D01*
X63250000Y-74488095D01*
X63297619Y-74440476D01*
X63392857Y-74392857D01*
X63535714Y-74392857D01*
X63630952Y-74440476D01*
X63678571Y-74488095D01*
X63726190Y-74583333D01*
X63726190Y-74964285D01*
X64202380Y-73440476D02*
X64202380Y-74011904D01*
X64202380Y-73726190D02*
X63202380Y-73726190D01*
X63345238Y-73821428D01*
X63440476Y-73916666D01*
X63488095Y-74011904D01*
X64202380Y-72964285D02*
X64202380Y-72773809D01*
X64154761Y-72678571D01*
X64107142Y-72630952D01*
X63964285Y-72535714D01*
X63773809Y-72488095D01*
X63392857Y-72488095D01*
X63297619Y-72535714D01*
X63250000Y-72583333D01*
X63202380Y-72678571D01*
X63202380Y-72869047D01*
X63250000Y-72964285D01*
X63297619Y-73011904D01*
X63392857Y-73059523D01*
X63630952Y-73059523D01*
X63726190Y-73011904D01*
X63773809Y-72964285D01*
X63821428Y-72869047D01*
X63821428Y-72678571D01*
X63773809Y-72583333D01*
X63726190Y-72535714D01*
X63630952Y-72488095D01*
X64202380Y-70142857D02*
X63726190Y-70476190D01*
X64202380Y-70714285D02*
X63202380Y-70714285D01*
X63202380Y-70333333D01*
X63250000Y-70238095D01*
X63297619Y-70190476D01*
X63392857Y-70142857D01*
X63535714Y-70142857D01*
X63630952Y-70190476D01*
X63678571Y-70238095D01*
X63726190Y-70333333D01*
X63726190Y-70714285D01*
X64202380Y-69190476D02*
X64202380Y-69761904D01*
X64202380Y-69476190D02*
X63202380Y-69476190D01*
X63345238Y-69571428D01*
X63440476Y-69666666D01*
X63488095Y-69761904D01*
X63630952Y-68619047D02*
X63583333Y-68714285D01*
X63535714Y-68761904D01*
X63440476Y-68809523D01*
X63392857Y-68809523D01*
X63297619Y-68761904D01*
X63250000Y-68714285D01*
X63202380Y-68619047D01*
X63202380Y-68428571D01*
X63250000Y-68333333D01*
X63297619Y-68285714D01*
X63392857Y-68238095D01*
X63440476Y-68238095D01*
X63535714Y-68285714D01*
X63583333Y-68333333D01*
X63630952Y-68428571D01*
X63630952Y-68619047D01*
X63678571Y-68714285D01*
X63726190Y-68761904D01*
X63821428Y-68809523D01*
X64011904Y-68809523D01*
X64107142Y-68761904D01*
X64154761Y-68714285D01*
X64202380Y-68619047D01*
X64202380Y-68428571D01*
X64154761Y-68333333D01*
X64107142Y-68285714D01*
X64011904Y-68238095D01*
X63821428Y-68238095D01*
X63726190Y-68285714D01*
X63678571Y-68333333D01*
X63630952Y-68428571D01*
X53857142Y-43452380D02*
X53523809Y-42976190D01*
X53285714Y-43452380D02*
X53285714Y-42452380D01*
X53666666Y-42452380D01*
X53761904Y-42500000D01*
X53809523Y-42547619D01*
X53857142Y-42642857D01*
X53857142Y-42785714D01*
X53809523Y-42880952D01*
X53761904Y-42928571D01*
X53666666Y-42976190D01*
X53285714Y-42976190D01*
X54809523Y-43452380D02*
X54238095Y-43452380D01*
X54523809Y-43452380D02*
X54523809Y-42452380D01*
X54428571Y-42595238D01*
X54333333Y-42690476D01*
X54238095Y-42738095D01*
X55142857Y-42452380D02*
X55809523Y-42452380D01*
X55380952Y-43452380D01*
X47107142Y-78952380D02*
X46773809Y-78476190D01*
X46535714Y-78952380D02*
X46535714Y-77952380D01*
X46916666Y-77952380D01*
X47011904Y-78000000D01*
X47059523Y-78047619D01*
X47107142Y-78142857D01*
X47107142Y-78285714D01*
X47059523Y-78380952D01*
X47011904Y-78428571D01*
X46916666Y-78476190D01*
X46535714Y-78476190D01*
X48059523Y-78952380D02*
X47488095Y-78952380D01*
X47773809Y-78952380D02*
X47773809Y-77952380D01*
X47678571Y-78095238D01*
X47583333Y-78190476D01*
X47488095Y-78238095D01*
X48964285Y-77952380D02*
X48488095Y-77952380D01*
X48440476Y-78428571D01*
X48488095Y-78380952D01*
X48583333Y-78333333D01*
X48821428Y-78333333D01*
X48916666Y-78380952D01*
X48964285Y-78428571D01*
X49011904Y-78523809D01*
X49011904Y-78761904D01*
X48964285Y-78857142D01*
X48916666Y-78904761D01*
X48821428Y-78952380D01*
X48583333Y-78952380D01*
X48488095Y-78904761D01*
X48440476Y-78857142D01*
X54357142Y-79452380D02*
X54023809Y-78976190D01*
X53785714Y-79452380D02*
X53785714Y-78452380D01*
X54166666Y-78452380D01*
X54261904Y-78500000D01*
X54309523Y-78547619D01*
X54357142Y-78642857D01*
X54357142Y-78785714D01*
X54309523Y-78880952D01*
X54261904Y-78928571D01*
X54166666Y-78976190D01*
X53785714Y-78976190D01*
X55309523Y-79452380D02*
X54738095Y-79452380D01*
X55023809Y-79452380D02*
X55023809Y-78452380D01*
X54928571Y-78595238D01*
X54833333Y-78690476D01*
X54738095Y-78738095D01*
X56166666Y-78785714D02*
X56166666Y-79452380D01*
X55928571Y-78404761D02*
X55690476Y-79119047D01*
X56309523Y-79119047D01*
X45952380Y-34142857D02*
X45476190Y-34476190D01*
X45952380Y-34714285D02*
X44952380Y-34714285D01*
X44952380Y-34333333D01*
X45000000Y-34238095D01*
X45047619Y-34190476D01*
X45142857Y-34142857D01*
X45285714Y-34142857D01*
X45380952Y-34190476D01*
X45428571Y-34238095D01*
X45476190Y-34333333D01*
X45476190Y-34714285D01*
X45952380Y-33190476D02*
X45952380Y-33761904D01*
X45952380Y-33476190D02*
X44952380Y-33476190D01*
X45095238Y-33571428D01*
X45190476Y-33666666D01*
X45238095Y-33761904D01*
X44952380Y-32857142D02*
X44952380Y-32238095D01*
X45333333Y-32571428D01*
X45333333Y-32428571D01*
X45380952Y-32333333D01*
X45428571Y-32285714D01*
X45523809Y-32238095D01*
X45761904Y-32238095D01*
X45857142Y-32285714D01*
X45904761Y-32333333D01*
X45952380Y-32428571D01*
X45952380Y-32714285D01*
X45904761Y-32809523D01*
X45857142Y-32857142D01*
X50452380Y-34642857D02*
X49976190Y-34976190D01*
X50452380Y-35214285D02*
X49452380Y-35214285D01*
X49452380Y-34833333D01*
X49500000Y-34738095D01*
X49547619Y-34690476D01*
X49642857Y-34642857D01*
X49785714Y-34642857D01*
X49880952Y-34690476D01*
X49928571Y-34738095D01*
X49976190Y-34833333D01*
X49976190Y-35214285D01*
X50452380Y-33690476D02*
X50452380Y-34261904D01*
X50452380Y-33976190D02*
X49452380Y-33976190D01*
X49595238Y-34071428D01*
X49690476Y-34166666D01*
X49738095Y-34261904D01*
X49547619Y-33309523D02*
X49500000Y-33261904D01*
X49452380Y-33166666D01*
X49452380Y-32928571D01*
X49500000Y-32833333D01*
X49547619Y-32785714D01*
X49642857Y-32738095D01*
X49738095Y-32738095D01*
X49880952Y-32785714D01*
X50452380Y-33357142D01*
X50452380Y-32738095D01*
X38357142Y-78952380D02*
X38023809Y-78476190D01*
X37785714Y-78952380D02*
X37785714Y-77952380D01*
X38166666Y-77952380D01*
X38261904Y-78000000D01*
X38309523Y-78047619D01*
X38357142Y-78142857D01*
X38357142Y-78285714D01*
X38309523Y-78380952D01*
X38261904Y-78428571D01*
X38166666Y-78476190D01*
X37785714Y-78476190D01*
X39309523Y-78952380D02*
X38738095Y-78952380D01*
X39023809Y-78952380D02*
X39023809Y-77952380D01*
X38928571Y-78095238D01*
X38833333Y-78190476D01*
X38738095Y-78238095D01*
X40261904Y-78952380D02*
X39690476Y-78952380D01*
X39976190Y-78952380D02*
X39976190Y-77952380D01*
X39880952Y-78095238D01*
X39785714Y-78190476D01*
X39690476Y-78238095D01*
X35357142Y-78952380D02*
X35023809Y-78476190D01*
X34785714Y-78952380D02*
X34785714Y-77952380D01*
X35166666Y-77952380D01*
X35261904Y-78000000D01*
X35309523Y-78047619D01*
X35357142Y-78142857D01*
X35357142Y-78285714D01*
X35309523Y-78380952D01*
X35261904Y-78428571D01*
X35166666Y-78476190D01*
X34785714Y-78476190D01*
X36309523Y-78952380D02*
X35738095Y-78952380D01*
X36023809Y-78952380D02*
X36023809Y-77952380D01*
X35928571Y-78095238D01*
X35833333Y-78190476D01*
X35738095Y-78238095D01*
X36928571Y-77952380D02*
X37023809Y-77952380D01*
X37119047Y-78000000D01*
X37166666Y-78047619D01*
X37214285Y-78142857D01*
X37261904Y-78333333D01*
X37261904Y-78571428D01*
X37214285Y-78761904D01*
X37166666Y-78857142D01*
X37119047Y-78904761D01*
X37023809Y-78952380D01*
X36928571Y-78952380D01*
X36833333Y-78904761D01*
X36785714Y-78857142D01*
X36738095Y-78761904D01*
X36690476Y-78571428D01*
X36690476Y-78333333D01*
X36738095Y-78142857D01*
X36785714Y-78047619D01*
X36833333Y-78000000D01*
X36928571Y-77952380D01*
X110452380Y-56416666D02*
X109976190Y-56750000D01*
X110452380Y-56988095D02*
X109452380Y-56988095D01*
X109452380Y-56607142D01*
X109500000Y-56511904D01*
X109547619Y-56464285D01*
X109642857Y-56416666D01*
X109785714Y-56416666D01*
X109880952Y-56464285D01*
X109928571Y-56511904D01*
X109976190Y-56607142D01*
X109976190Y-56988095D01*
X110452380Y-55940476D02*
X110452380Y-55750000D01*
X110404761Y-55654761D01*
X110357142Y-55607142D01*
X110214285Y-55511904D01*
X110023809Y-55464285D01*
X109642857Y-55464285D01*
X109547619Y-55511904D01*
X109500000Y-55559523D01*
X109452380Y-55654761D01*
X109452380Y-55845238D01*
X109500000Y-55940476D01*
X109547619Y-55988095D01*
X109642857Y-56035714D01*
X109880952Y-56035714D01*
X109976190Y-55988095D01*
X110023809Y-55940476D01*
X110071428Y-55845238D01*
X110071428Y-55654761D01*
X110023809Y-55559523D01*
X109976190Y-55511904D01*
X109880952Y-55464285D01*
X108333333Y-59202380D02*
X108000000Y-58726190D01*
X107761904Y-59202380D02*
X107761904Y-58202380D01*
X108142857Y-58202380D01*
X108238095Y-58250000D01*
X108285714Y-58297619D01*
X108333333Y-58392857D01*
X108333333Y-58535714D01*
X108285714Y-58630952D01*
X108238095Y-58678571D01*
X108142857Y-58726190D01*
X107761904Y-58726190D01*
X108904761Y-58630952D02*
X108809523Y-58583333D01*
X108761904Y-58535714D01*
X108714285Y-58440476D01*
X108714285Y-58392857D01*
X108761904Y-58297619D01*
X108809523Y-58250000D01*
X108904761Y-58202380D01*
X109095238Y-58202380D01*
X109190476Y-58250000D01*
X109238095Y-58297619D01*
X109285714Y-58392857D01*
X109285714Y-58440476D01*
X109238095Y-58535714D01*
X109190476Y-58583333D01*
X109095238Y-58630952D01*
X108904761Y-58630952D01*
X108809523Y-58678571D01*
X108761904Y-58726190D01*
X108714285Y-58821428D01*
X108714285Y-59011904D01*
X108761904Y-59107142D01*
X108809523Y-59154761D01*
X108904761Y-59202380D01*
X109095238Y-59202380D01*
X109190476Y-59154761D01*
X109238095Y-59107142D01*
X109285714Y-59011904D01*
X109285714Y-58821428D01*
X109238095Y-58726190D01*
X109190476Y-58678571D01*
X109095238Y-58630952D01*
X60952380Y-36166666D02*
X60476190Y-36500000D01*
X60952380Y-36738095D02*
X59952380Y-36738095D01*
X59952380Y-36357142D01*
X60000000Y-36261904D01*
X60047619Y-36214285D01*
X60142857Y-36166666D01*
X60285714Y-36166666D01*
X60380952Y-36214285D01*
X60428571Y-36261904D01*
X60476190Y-36357142D01*
X60476190Y-36738095D01*
X59952380Y-35833333D02*
X59952380Y-35166666D01*
X60952380Y-35595238D01*
X66833333Y-46702380D02*
X66500000Y-46226190D01*
X66261904Y-46702380D02*
X66261904Y-45702380D01*
X66642857Y-45702380D01*
X66738095Y-45750000D01*
X66785714Y-45797619D01*
X66833333Y-45892857D01*
X66833333Y-46035714D01*
X66785714Y-46130952D01*
X66738095Y-46178571D01*
X66642857Y-46226190D01*
X66261904Y-46226190D01*
X67690476Y-45702380D02*
X67500000Y-45702380D01*
X67404761Y-45750000D01*
X67357142Y-45797619D01*
X67261904Y-45940476D01*
X67214285Y-46130952D01*
X67214285Y-46511904D01*
X67261904Y-46607142D01*
X67309523Y-46654761D01*
X67404761Y-46702380D01*
X67595238Y-46702380D01*
X67690476Y-46654761D01*
X67738095Y-46607142D01*
X67785714Y-46511904D01*
X67785714Y-46273809D01*
X67738095Y-46178571D01*
X67690476Y-46130952D01*
X67595238Y-46083333D01*
X67404761Y-46083333D01*
X67309523Y-46130952D01*
X67261904Y-46178571D01*
X67214285Y-46273809D01*
X59952380Y-40154761D02*
X59952380Y-39583333D01*
X60952380Y-39869047D02*
X59952380Y-39869047D01*
X60904761Y-38869047D02*
X60952380Y-38964285D01*
X60952380Y-39154761D01*
X60904761Y-39250000D01*
X60809523Y-39297619D01*
X60428571Y-39297619D01*
X60333333Y-39250000D01*
X60285714Y-39154761D01*
X60285714Y-38964285D01*
X60333333Y-38869047D01*
X60428571Y-38821428D01*
X60523809Y-38821428D01*
X60619047Y-39297619D01*
X60904761Y-38440476D02*
X60952380Y-38345238D01*
X60952380Y-38154761D01*
X60904761Y-38059523D01*
X60809523Y-38011904D01*
X60761904Y-38011904D01*
X60666666Y-38059523D01*
X60619047Y-38154761D01*
X60619047Y-38297619D01*
X60571428Y-38392857D01*
X60476190Y-38440476D01*
X60428571Y-38440476D01*
X60333333Y-38392857D01*
X60285714Y-38297619D01*
X60285714Y-38154761D01*
X60333333Y-38059523D01*
X60285714Y-37726190D02*
X60285714Y-37345238D01*
X59952380Y-37583333D02*
X60809523Y-37583333D01*
X60904761Y-37535714D01*
X60952380Y-37440476D01*
X60952380Y-37345238D01*
X59833333Y-34202380D02*
X59500000Y-33726190D01*
X59261904Y-34202380D02*
X59261904Y-33202380D01*
X59642857Y-33202380D01*
X59738095Y-33250000D01*
X59785714Y-33297619D01*
X59833333Y-33392857D01*
X59833333Y-33535714D01*
X59785714Y-33630952D01*
X59738095Y-33678571D01*
X59642857Y-33726190D01*
X59261904Y-33726190D01*
X60690476Y-33535714D02*
X60690476Y-34202380D01*
X60452380Y-33154761D02*
X60214285Y-33869047D01*
X60833333Y-33869047D01*
X61702380Y-42666666D02*
X61226190Y-43000000D01*
X61702380Y-43238095D02*
X60702380Y-43238095D01*
X60702380Y-42857142D01*
X60750000Y-42761904D01*
X60797619Y-42714285D01*
X60892857Y-42666666D01*
X61035714Y-42666666D01*
X61130952Y-42714285D01*
X61178571Y-42761904D01*
X61226190Y-42857142D01*
X61226190Y-43238095D01*
X60702380Y-42333333D02*
X60702380Y-41714285D01*
X61083333Y-42047619D01*
X61083333Y-41904761D01*
X61130952Y-41809523D01*
X61178571Y-41761904D01*
X61273809Y-41714285D01*
X61511904Y-41714285D01*
X61607142Y-41761904D01*
X61654761Y-41809523D01*
X61702380Y-41904761D01*
X61702380Y-42190476D01*
X61654761Y-42285714D01*
X61607142Y-42333333D01*
X97452380Y-43916666D02*
X96976190Y-44250000D01*
X97452380Y-44488095D02*
X96452380Y-44488095D01*
X96452380Y-44107142D01*
X96500000Y-44011904D01*
X96547619Y-43964285D01*
X96642857Y-43916666D01*
X96785714Y-43916666D01*
X96880952Y-43964285D01*
X96928571Y-44011904D01*
X96976190Y-44107142D01*
X96976190Y-44488095D01*
X96547619Y-43535714D02*
X96500000Y-43488095D01*
X96452380Y-43392857D01*
X96452380Y-43154761D01*
X96500000Y-43059523D01*
X96547619Y-43011904D01*
X96642857Y-42964285D01*
X96738095Y-42964285D01*
X96880952Y-43011904D01*
X97452380Y-43583333D01*
X97452380Y-42964285D01*
X97452380Y-38916666D02*
X96976190Y-39250000D01*
X97452380Y-39488095D02*
X96452380Y-39488095D01*
X96452380Y-39107142D01*
X96500000Y-39011904D01*
X96547619Y-38964285D01*
X96642857Y-38916666D01*
X96785714Y-38916666D01*
X96880952Y-38964285D01*
X96928571Y-39011904D01*
X96976190Y-39107142D01*
X96976190Y-39488095D01*
X97452380Y-37964285D02*
X97452380Y-38535714D01*
X97452380Y-38250000D02*
X96452380Y-38250000D01*
X96595238Y-38345238D01*
X96690476Y-38440476D01*
X96738095Y-38535714D01*
X75047619Y-38095238D02*
X75000000Y-38190476D01*
X74904761Y-38285714D01*
X74761904Y-38428571D01*
X74714285Y-38523809D01*
X74714285Y-38619047D01*
X74952380Y-38571428D02*
X74904761Y-38666666D01*
X74809523Y-38761904D01*
X74619047Y-38809523D01*
X74285714Y-38809523D01*
X74095238Y-38761904D01*
X74000000Y-38666666D01*
X73952380Y-38571428D01*
X73952380Y-38380952D01*
X74000000Y-38285714D01*
X74095238Y-38190476D01*
X74285714Y-38142857D01*
X74619047Y-38142857D01*
X74809523Y-38190476D01*
X74904761Y-38285714D01*
X74952380Y-38380952D01*
X74952380Y-38571428D01*
X73952380Y-37285714D02*
X73952380Y-37476190D01*
X74000000Y-37571428D01*
X74047619Y-37619047D01*
X74190476Y-37714285D01*
X74380952Y-37761904D01*
X74761904Y-37761904D01*
X74857142Y-37714285D01*
X74904761Y-37666666D01*
X74952380Y-37571428D01*
X74952380Y-37380952D01*
X74904761Y-37285714D01*
X74857142Y-37238095D01*
X74761904Y-37190476D01*
X74523809Y-37190476D01*
X74428571Y-37238095D01*
X74380952Y-37285714D01*
X74333333Y-37380952D01*
X74333333Y-37571428D01*
X74380952Y-37666666D01*
X74428571Y-37714285D01*
X74523809Y-37761904D01*
X39904761Y-32797619D02*
X39809523Y-32750000D01*
X39714285Y-32654761D01*
X39571428Y-32511904D01*
X39476190Y-32464285D01*
X39380952Y-32464285D01*
X39428571Y-32702380D02*
X39333333Y-32654761D01*
X39238095Y-32559523D01*
X39190476Y-32369047D01*
X39190476Y-32035714D01*
X39238095Y-31845238D01*
X39333333Y-31750000D01*
X39428571Y-31702380D01*
X39619047Y-31702380D01*
X39714285Y-31750000D01*
X39809523Y-31845238D01*
X39857142Y-32035714D01*
X39857142Y-32369047D01*
X39809523Y-32559523D01*
X39714285Y-32654761D01*
X39619047Y-32702380D01*
X39428571Y-32702380D01*
X40761904Y-31702380D02*
X40285714Y-31702380D01*
X40238095Y-32178571D01*
X40285714Y-32130952D01*
X40380952Y-32083333D01*
X40619047Y-32083333D01*
X40714285Y-32130952D01*
X40761904Y-32178571D01*
X40809523Y-32273809D01*
X40809523Y-32511904D01*
X40761904Y-32607142D01*
X40714285Y-32654761D01*
X40619047Y-32702380D01*
X40380952Y-32702380D01*
X40285714Y-32654761D01*
X40238095Y-32607142D01*
X46654761Y-41797619D02*
X46559523Y-41750000D01*
X46464285Y-41654761D01*
X46321428Y-41511904D01*
X46226190Y-41464285D01*
X46130952Y-41464285D01*
X46178571Y-41702380D02*
X46083333Y-41654761D01*
X45988095Y-41559523D01*
X45940476Y-41369047D01*
X45940476Y-41035714D01*
X45988095Y-40845238D01*
X46083333Y-40750000D01*
X46178571Y-40702380D01*
X46369047Y-40702380D01*
X46464285Y-40750000D01*
X46559523Y-40845238D01*
X46607142Y-41035714D01*
X46607142Y-41369047D01*
X46559523Y-41559523D01*
X46464285Y-41654761D01*
X46369047Y-41702380D01*
X46178571Y-41702380D01*
X47464285Y-41035714D02*
X47464285Y-41702380D01*
X47226190Y-40654761D02*
X46988095Y-41369047D01*
X47607142Y-41369047D01*
X54154761Y-21797619D02*
X54059523Y-21750000D01*
X53964285Y-21654761D01*
X53821428Y-21511904D01*
X53726190Y-21464285D01*
X53630952Y-21464285D01*
X53678571Y-21702380D02*
X53583333Y-21654761D01*
X53488095Y-21559523D01*
X53440476Y-21369047D01*
X53440476Y-21035714D01*
X53488095Y-20845238D01*
X53583333Y-20750000D01*
X53678571Y-20702380D01*
X53869047Y-20702380D01*
X53964285Y-20750000D01*
X54059523Y-20845238D01*
X54107142Y-21035714D01*
X54107142Y-21369047D01*
X54059523Y-21559523D01*
X53964285Y-21654761D01*
X53869047Y-21702380D01*
X53678571Y-21702380D01*
X54440476Y-20702380D02*
X55059523Y-20702380D01*
X54726190Y-21083333D01*
X54869047Y-21083333D01*
X54964285Y-21130952D01*
X55011904Y-21178571D01*
X55059523Y-21273809D01*
X55059523Y-21511904D01*
X55011904Y-21607142D01*
X54964285Y-21654761D01*
X54869047Y-21702380D01*
X54583333Y-21702380D01*
X54488095Y-21654761D01*
X54440476Y-21607142D01*
X63904761Y-32547619D02*
X63809523Y-32500000D01*
X63714285Y-32404761D01*
X63571428Y-32261904D01*
X63476190Y-32214285D01*
X63380952Y-32214285D01*
X63428571Y-32452380D02*
X63333333Y-32404761D01*
X63238095Y-32309523D01*
X63190476Y-32119047D01*
X63190476Y-31785714D01*
X63238095Y-31595238D01*
X63333333Y-31500000D01*
X63428571Y-31452380D01*
X63619047Y-31452380D01*
X63714285Y-31500000D01*
X63809523Y-31595238D01*
X63857142Y-31785714D01*
X63857142Y-32119047D01*
X63809523Y-32309523D01*
X63714285Y-32404761D01*
X63619047Y-32452380D01*
X63428571Y-32452380D01*
X64238095Y-31547619D02*
X64285714Y-31500000D01*
X64380952Y-31452380D01*
X64619047Y-31452380D01*
X64714285Y-31500000D01*
X64761904Y-31547619D01*
X64809523Y-31642857D01*
X64809523Y-31738095D01*
X64761904Y-31880952D01*
X64190476Y-32452380D01*
X64809523Y-32452380D01*
X70047619Y-38595238D02*
X70000000Y-38690476D01*
X69904761Y-38785714D01*
X69761904Y-38928571D01*
X69714285Y-39023809D01*
X69714285Y-39119047D01*
X69952380Y-39071428D02*
X69904761Y-39166666D01*
X69809523Y-39261904D01*
X69619047Y-39309523D01*
X69285714Y-39309523D01*
X69095238Y-39261904D01*
X69000000Y-39166666D01*
X68952380Y-39071428D01*
X68952380Y-38880952D01*
X69000000Y-38785714D01*
X69095238Y-38690476D01*
X69285714Y-38642857D01*
X69619047Y-38642857D01*
X69809523Y-38690476D01*
X69904761Y-38785714D01*
X69952380Y-38880952D01*
X69952380Y-39071428D01*
X69952380Y-37690476D02*
X69952380Y-38261904D01*
X69952380Y-37976190D02*
X68952380Y-37976190D01*
X69095238Y-38071428D01*
X69190476Y-38166666D01*
X69238095Y-38261904D01*
X40333333Y-52202380D02*
X39857142Y-52202380D01*
X39857142Y-51202380D01*
X41190476Y-52202380D02*
X40619047Y-52202380D01*
X40904761Y-52202380D02*
X40904761Y-51202380D01*
X40809523Y-51345238D01*
X40714285Y-51440476D01*
X40619047Y-51488095D01*
X65686380Y-73333333D02*
X66400666Y-73333333D01*
X66543523Y-73380952D01*
X66638761Y-73476190D01*
X66686380Y-73619047D01*
X66686380Y-73714285D01*
X65686380Y-72952380D02*
X65686380Y-72285714D01*
X66686380Y-72714285D01*
X80836380Y-73333333D02*
X81550666Y-73333333D01*
X81693523Y-73380952D01*
X81788761Y-73476190D01*
X81836380Y-73619047D01*
X81836380Y-73714285D01*
X80836380Y-72428571D02*
X80836380Y-72619047D01*
X80884000Y-72714285D01*
X80931619Y-72761904D01*
X81074476Y-72857142D01*
X81264952Y-72904761D01*
X81645904Y-72904761D01*
X81741142Y-72857142D01*
X81788761Y-72809523D01*
X81836380Y-72714285D01*
X81836380Y-72523809D01*
X81788761Y-72428571D01*
X81741142Y-72380952D01*
X81645904Y-72333333D01*
X81407809Y-72333333D01*
X81312571Y-72380952D01*
X81264952Y-72428571D01*
X81217333Y-72523809D01*
X81217333Y-72714285D01*
X81264952Y-72809523D01*
X81312571Y-72857142D01*
X81407809Y-72904761D01*
X58166666Y-34178571D02*
X57833333Y-34178571D01*
X57833333Y-34702380D02*
X57833333Y-33702380D01*
X58309523Y-33702380D01*
X59214285Y-34702380D02*
X58642857Y-34702380D01*
X58928571Y-34702380D02*
X58928571Y-33702380D01*
X58833333Y-33845238D01*
X58738095Y-33940476D01*
X58642857Y-33988095D01*
X96202380Y-57964285D02*
X95202380Y-57964285D01*
X95202380Y-57726190D01*
X95250000Y-57583333D01*
X95345238Y-57488095D01*
X95440476Y-57440476D01*
X95630952Y-57392857D01*
X95773809Y-57392857D01*
X95964285Y-57440476D01*
X96059523Y-57488095D01*
X96154761Y-57583333D01*
X96202380Y-57726190D01*
X96202380Y-57964285D01*
X96202380Y-56440476D02*
X96202380Y-57011904D01*
X96202380Y-56726190D02*
X95202380Y-56726190D01*
X95345238Y-56821428D01*
X95440476Y-56916666D01*
X95488095Y-57011904D01*
X96202380Y-55488095D02*
X96202380Y-56059523D01*
X96202380Y-55773809D02*
X95202380Y-55773809D01*
X95345238Y-55869047D01*
X95440476Y-55964285D01*
X95488095Y-56059523D01*
X96076656Y-52140666D02*
X95076656Y-52140666D01*
X95076656Y-51902571D01*
X95124276Y-51759714D01*
X95219514Y-51664476D01*
X95314752Y-51616857D01*
X95505228Y-51569238D01*
X95648085Y-51569238D01*
X95838561Y-51616857D01*
X95933799Y-51664476D01*
X96029037Y-51759714D01*
X96076656Y-51902571D01*
X96076656Y-52140666D01*
X96076656Y-50616857D02*
X96076656Y-51188285D01*
X96076656Y-50902571D02*
X95076656Y-50902571D01*
X95219514Y-50997809D01*
X95314752Y-51093047D01*
X95362371Y-51188285D01*
X95076656Y-49997809D02*
X95076656Y-49902571D01*
X95124276Y-49807333D01*
X95171895Y-49759714D01*
X95267133Y-49712095D01*
X95457609Y-49664476D01*
X95695704Y-49664476D01*
X95886180Y-49712095D01*
X95981418Y-49759714D01*
X96029037Y-49807333D01*
X96076656Y-49902571D01*
X96076656Y-49997809D01*
X96029037Y-50093047D01*
X95981418Y-50140666D01*
X95886180Y-50188285D01*
X95695704Y-50235904D01*
X95457609Y-50235904D01*
X95267133Y-50188285D01*
X95171895Y-50140666D01*
X95124276Y-50093047D01*
X95076656Y-49997809D01*
X32261904Y-48202380D02*
X32261904Y-47202380D01*
X32500000Y-47202380D01*
X32642857Y-47250000D01*
X32738095Y-47345238D01*
X32785714Y-47440476D01*
X32833333Y-47630952D01*
X32833333Y-47773809D01*
X32785714Y-47964285D01*
X32738095Y-48059523D01*
X32642857Y-48154761D01*
X32500000Y-48202380D01*
X32261904Y-48202380D01*
X33166666Y-47202380D02*
X33833333Y-47202380D01*
X33404761Y-48202380D01*
X27261904Y-48202380D02*
X27261904Y-47202380D01*
X27500000Y-47202380D01*
X27642857Y-47250000D01*
X27738095Y-47345238D01*
X27785714Y-47440476D01*
X27833333Y-47630952D01*
X27833333Y-47773809D01*
X27785714Y-47964285D01*
X27738095Y-48059523D01*
X27642857Y-48154761D01*
X27500000Y-48202380D01*
X27261904Y-48202380D01*
X28690476Y-47202380D02*
X28500000Y-47202380D01*
X28404761Y-47250000D01*
X28357142Y-47297619D01*
X28261904Y-47440476D01*
X28214285Y-47630952D01*
X28214285Y-48011904D01*
X28261904Y-48107142D01*
X28309523Y-48154761D01*
X28404761Y-48202380D01*
X28595238Y-48202380D01*
X28690476Y-48154761D01*
X28738095Y-48107142D01*
X28785714Y-48011904D01*
X28785714Y-47773809D01*
X28738095Y-47678571D01*
X28690476Y-47630952D01*
X28595238Y-47583333D01*
X28404761Y-47583333D01*
X28309523Y-47630952D01*
X28261904Y-47678571D01*
X28214285Y-47773809D01*
X60452380Y-47238095D02*
X59452380Y-47238095D01*
X59452380Y-47000000D01*
X59500000Y-46857142D01*
X59595238Y-46761904D01*
X59690476Y-46714285D01*
X59880952Y-46666666D01*
X60023809Y-46666666D01*
X60214285Y-46714285D01*
X60309523Y-46761904D01*
X60404761Y-46857142D01*
X60452380Y-47000000D01*
X60452380Y-47238095D01*
X59452380Y-45761904D02*
X59452380Y-46238095D01*
X59928571Y-46285714D01*
X59880952Y-46238095D01*
X59833333Y-46142857D01*
X59833333Y-45904761D01*
X59880952Y-45809523D01*
X59928571Y-45761904D01*
X60023809Y-45714285D01*
X60261904Y-45714285D01*
X60357142Y-45761904D01*
X60404761Y-45809523D01*
X60452380Y-45904761D01*
X60452380Y-46142857D01*
X60404761Y-46238095D01*
X60357142Y-46285714D01*
X58952380Y-47238095D02*
X57952380Y-47238095D01*
X57952380Y-47000000D01*
X58000000Y-46857142D01*
X58095238Y-46761904D01*
X58190476Y-46714285D01*
X58380952Y-46666666D01*
X58523809Y-46666666D01*
X58714285Y-46714285D01*
X58809523Y-46761904D01*
X58904761Y-46857142D01*
X58952380Y-47000000D01*
X58952380Y-47238095D01*
X57952380Y-46333333D02*
X57952380Y-45714285D01*
X58333333Y-46047619D01*
X58333333Y-45904761D01*
X58380952Y-45809523D01*
X58428571Y-45761904D01*
X58523809Y-45714285D01*
X58761904Y-45714285D01*
X58857142Y-45761904D01*
X58904761Y-45809523D01*
X58952380Y-45904761D01*
X58952380Y-46190476D01*
X58904761Y-46285714D01*
X58857142Y-46333333D01*
X58761904Y-68452380D02*
X58761904Y-67452380D01*
X59000000Y-67452380D01*
X59142857Y-67500000D01*
X59238095Y-67595238D01*
X59285714Y-67690476D01*
X59333333Y-67880952D01*
X59333333Y-68023809D01*
X59285714Y-68214285D01*
X59238095Y-68309523D01*
X59142857Y-68404761D01*
X59000000Y-68452380D01*
X58761904Y-68452380D01*
X59714285Y-67547619D02*
X59761904Y-67500000D01*
X59857142Y-67452380D01*
X60095238Y-67452380D01*
X60190476Y-67500000D01*
X60238095Y-67547619D01*
X60285714Y-67642857D01*
X60285714Y-67738095D01*
X60238095Y-67880952D01*
X59666666Y-68452380D01*
X60285714Y-68452380D01*
X51452380Y-40988095D02*
X50452380Y-40988095D01*
X50452380Y-40750000D01*
X50500000Y-40607142D01*
X50595238Y-40511904D01*
X50690476Y-40464285D01*
X50880952Y-40416666D01*
X51023809Y-40416666D01*
X51214285Y-40464285D01*
X51309523Y-40511904D01*
X51404761Y-40607142D01*
X51452380Y-40750000D01*
X51452380Y-40988095D01*
X51452380Y-39464285D02*
X51452380Y-40035714D01*
X51452380Y-39750000D02*
X50452380Y-39750000D01*
X50595238Y-39845238D01*
X50690476Y-39940476D01*
X50738095Y-40035714D01*
X31857142Y-67607142D02*
X31809523Y-67654761D01*
X31666666Y-67702380D01*
X31571428Y-67702380D01*
X31428571Y-67654761D01*
X31333333Y-67559523D01*
X31285714Y-67464285D01*
X31238095Y-67273809D01*
X31238095Y-67130952D01*
X31285714Y-66940476D01*
X31333333Y-66845238D01*
X31428571Y-66750000D01*
X31571428Y-66702380D01*
X31666666Y-66702380D01*
X31809523Y-66750000D01*
X31857142Y-66797619D01*
X32238095Y-66797619D02*
X32285714Y-66750000D01*
X32380952Y-66702380D01*
X32619047Y-66702380D01*
X32714285Y-66750000D01*
X32761904Y-66797619D01*
X32809523Y-66892857D01*
X32809523Y-66988095D01*
X32761904Y-67130952D01*
X32190476Y-67702380D01*
X32809523Y-67702380D01*
X33190476Y-66797619D02*
X33238095Y-66750000D01*
X33333333Y-66702380D01*
X33571428Y-66702380D01*
X33666666Y-66750000D01*
X33714285Y-66797619D01*
X33761904Y-66892857D01*
X33761904Y-66988095D01*
X33714285Y-67130952D01*
X33142857Y-67702380D01*
X33761904Y-67702380D01*
X31857142Y-61607142D02*
X31809523Y-61654761D01*
X31666666Y-61702380D01*
X31571428Y-61702380D01*
X31428571Y-61654761D01*
X31333333Y-61559523D01*
X31285714Y-61464285D01*
X31238095Y-61273809D01*
X31238095Y-61130952D01*
X31285714Y-60940476D01*
X31333333Y-60845238D01*
X31428571Y-60750000D01*
X31571428Y-60702380D01*
X31666666Y-60702380D01*
X31809523Y-60750000D01*
X31857142Y-60797619D01*
X32238095Y-60797619D02*
X32285714Y-60750000D01*
X32380952Y-60702380D01*
X32619047Y-60702380D01*
X32714285Y-60750000D01*
X32761904Y-60797619D01*
X32809523Y-60892857D01*
X32809523Y-60988095D01*
X32761904Y-61130952D01*
X32190476Y-61702380D01*
X32809523Y-61702380D01*
X33761904Y-61702380D02*
X33190476Y-61702380D01*
X33476190Y-61702380D02*
X33476190Y-60702380D01*
X33380952Y-60845238D01*
X33285714Y-60940476D01*
X33190476Y-60988095D01*
X107107142Y-48607142D02*
X107059523Y-48654761D01*
X106916666Y-48702380D01*
X106821428Y-48702380D01*
X106678571Y-48654761D01*
X106583333Y-48559523D01*
X106535714Y-48464285D01*
X106488095Y-48273809D01*
X106488095Y-48130952D01*
X106535714Y-47940476D01*
X106583333Y-47845238D01*
X106678571Y-47750000D01*
X106821428Y-47702380D01*
X106916666Y-47702380D01*
X107059523Y-47750000D01*
X107107142Y-47797619D01*
X107488095Y-47797619D02*
X107535714Y-47750000D01*
X107630952Y-47702380D01*
X107869047Y-47702380D01*
X107964285Y-47750000D01*
X108011904Y-47797619D01*
X108059523Y-47892857D01*
X108059523Y-47988095D01*
X108011904Y-48130952D01*
X107440476Y-48702380D01*
X108059523Y-48702380D01*
X108678571Y-47702380D02*
X108773809Y-47702380D01*
X108869047Y-47750000D01*
X108916666Y-47797619D01*
X108964285Y-47892857D01*
X109011904Y-48083333D01*
X109011904Y-48321428D01*
X108964285Y-48511904D01*
X108916666Y-48607142D01*
X108869047Y-48654761D01*
X108773809Y-48702380D01*
X108678571Y-48702380D01*
X108583333Y-48654761D01*
X108535714Y-48607142D01*
X108488095Y-48511904D01*
X108440476Y-48321428D01*
X108440476Y-48083333D01*
X108488095Y-47892857D01*
X108535714Y-47797619D01*
X108583333Y-47750000D01*
X108678571Y-47702380D01*
X84857142Y-60607142D02*
X84809523Y-60654761D01*
X84666666Y-60702380D01*
X84571428Y-60702380D01*
X84428571Y-60654761D01*
X84333333Y-60559523D01*
X84285714Y-60464285D01*
X84238095Y-60273809D01*
X84238095Y-60130952D01*
X84285714Y-59940476D01*
X84333333Y-59845238D01*
X84428571Y-59750000D01*
X84571428Y-59702380D01*
X84666666Y-59702380D01*
X84809523Y-59750000D01*
X84857142Y-59797619D01*
X85809523Y-60702380D02*
X85238095Y-60702380D01*
X85523809Y-60702380D02*
X85523809Y-59702380D01*
X85428571Y-59845238D01*
X85333333Y-59940476D01*
X85238095Y-59988095D01*
X86285714Y-60702380D02*
X86476190Y-60702380D01*
X86571428Y-60654761D01*
X86619047Y-60607142D01*
X86714285Y-60464285D01*
X86761904Y-60273809D01*
X86761904Y-59892857D01*
X86714285Y-59797619D01*
X86666666Y-59750000D01*
X86571428Y-59702380D01*
X86380952Y-59702380D01*
X86285714Y-59750000D01*
X86238095Y-59797619D01*
X86190476Y-59892857D01*
X86190476Y-60130952D01*
X86238095Y-60226190D01*
X86285714Y-60273809D01*
X86380952Y-60321428D01*
X86571428Y-60321428D01*
X86666666Y-60273809D01*
X86714285Y-60226190D01*
X86761904Y-60130952D01*
X84357142Y-48857142D02*
X84309523Y-48904761D01*
X84166666Y-48952380D01*
X84071428Y-48952380D01*
X83928571Y-48904761D01*
X83833333Y-48809523D01*
X83785714Y-48714285D01*
X83738095Y-48523809D01*
X83738095Y-48380952D01*
X83785714Y-48190476D01*
X83833333Y-48095238D01*
X83928571Y-48000000D01*
X84071428Y-47952380D01*
X84166666Y-47952380D01*
X84309523Y-48000000D01*
X84357142Y-48047619D01*
X85309523Y-48952380D02*
X84738095Y-48952380D01*
X85023809Y-48952380D02*
X85023809Y-47952380D01*
X84928571Y-48095238D01*
X84833333Y-48190476D01*
X84738095Y-48238095D01*
X85880952Y-48380952D02*
X85785714Y-48333333D01*
X85738095Y-48285714D01*
X85690476Y-48190476D01*
X85690476Y-48142857D01*
X85738095Y-48047619D01*
X85785714Y-48000000D01*
X85880952Y-47952380D01*
X86071428Y-47952380D01*
X86166666Y-48000000D01*
X86214285Y-48047619D01*
X86261904Y-48142857D01*
X86261904Y-48190476D01*
X86214285Y-48285714D01*
X86166666Y-48333333D01*
X86071428Y-48380952D01*
X85880952Y-48380952D01*
X85785714Y-48428571D01*
X85738095Y-48476190D01*
X85690476Y-48571428D01*
X85690476Y-48761904D01*
X85738095Y-48857142D01*
X85785714Y-48904761D01*
X85880952Y-48952380D01*
X86071428Y-48952380D01*
X86166666Y-48904761D01*
X86214285Y-48857142D01*
X86261904Y-48761904D01*
X86261904Y-48571428D01*
X86214285Y-48476190D01*
X86166666Y-48428571D01*
X86071428Y-48380952D01*
X48857142Y-23642857D02*
X48904761Y-23690476D01*
X48952380Y-23833333D01*
X48952380Y-23928571D01*
X48904761Y-24071428D01*
X48809523Y-24166666D01*
X48714285Y-24214285D01*
X48523809Y-24261904D01*
X48380952Y-24261904D01*
X48190476Y-24214285D01*
X48095238Y-24166666D01*
X48000000Y-24071428D01*
X47952380Y-23928571D01*
X47952380Y-23833333D01*
X48000000Y-23690476D01*
X48047619Y-23642857D01*
X48952380Y-22690476D02*
X48952380Y-23261904D01*
X48952380Y-22976190D02*
X47952380Y-22976190D01*
X48095238Y-23071428D01*
X48190476Y-23166666D01*
X48238095Y-23261904D01*
X47952380Y-22357142D02*
X47952380Y-21690476D01*
X48952380Y-22119047D01*
X112000761Y-59607142D02*
X111953142Y-59654761D01*
X111810285Y-59702380D01*
X111715047Y-59702380D01*
X111572190Y-59654761D01*
X111476952Y-59559523D01*
X111429333Y-59464285D01*
X111381714Y-59273809D01*
X111381714Y-59130952D01*
X111429333Y-58940476D01*
X111476952Y-58845238D01*
X111572190Y-58750000D01*
X111715047Y-58702380D01*
X111810285Y-58702380D01*
X111953142Y-58750000D01*
X112000761Y-58797619D01*
X112953142Y-59702380D02*
X112381714Y-59702380D01*
X112667428Y-59702380D02*
X112667428Y-58702380D01*
X112572190Y-58845238D01*
X112476952Y-58940476D01*
X112381714Y-58988095D01*
X113857904Y-58702380D02*
X113381714Y-58702380D01*
X113334095Y-59178571D01*
X113381714Y-59130952D01*
X113476952Y-59083333D01*
X113715047Y-59083333D01*
X113810285Y-59130952D01*
X113857904Y-59178571D01*
X113905523Y-59273809D01*
X113905523Y-59511904D01*
X113857904Y-59607142D01*
X113810285Y-59654761D01*
X113715047Y-59702380D01*
X113476952Y-59702380D01*
X113381714Y-59654761D01*
X113334095Y-59607142D01*
X102607142Y-46857142D02*
X102559523Y-46904761D01*
X102416666Y-46952380D01*
X102321428Y-46952380D01*
X102178571Y-46904761D01*
X102083333Y-46809523D01*
X102035714Y-46714285D01*
X101988095Y-46523809D01*
X101988095Y-46380952D01*
X102035714Y-46190476D01*
X102083333Y-46095238D01*
X102178571Y-46000000D01*
X102321428Y-45952380D01*
X102416666Y-45952380D01*
X102559523Y-46000000D01*
X102607142Y-46047619D01*
X103559523Y-46952380D02*
X102988095Y-46952380D01*
X103273809Y-46952380D02*
X103273809Y-45952380D01*
X103178571Y-46095238D01*
X103083333Y-46190476D01*
X102988095Y-46238095D01*
X104416666Y-46285714D02*
X104416666Y-46952380D01*
X104178571Y-45904761D02*
X103940476Y-46619047D01*
X104559523Y-46619047D01*
X90857142Y-40707142D02*
X90809523Y-40754761D01*
X90666666Y-40802380D01*
X90571428Y-40802380D01*
X90428571Y-40754761D01*
X90333333Y-40659523D01*
X90285714Y-40564285D01*
X90238095Y-40373809D01*
X90238095Y-40230952D01*
X90285714Y-40040476D01*
X90333333Y-39945238D01*
X90428571Y-39850000D01*
X90571428Y-39802380D01*
X90666666Y-39802380D01*
X90809523Y-39850000D01*
X90857142Y-39897619D01*
X91809523Y-40802380D02*
X91238095Y-40802380D01*
X91523809Y-40802380D02*
X91523809Y-39802380D01*
X91428571Y-39945238D01*
X91333333Y-40040476D01*
X91238095Y-40088095D01*
X92142857Y-39802380D02*
X92761904Y-39802380D01*
X92428571Y-40183333D01*
X92571428Y-40183333D01*
X92666666Y-40230952D01*
X92714285Y-40278571D01*
X92761904Y-40373809D01*
X92761904Y-40611904D01*
X92714285Y-40707142D01*
X92666666Y-40754761D01*
X92571428Y-40802380D01*
X92285714Y-40802380D01*
X92190476Y-40754761D01*
X92142857Y-40707142D01*
X31857142Y-78107142D02*
X31809523Y-78154761D01*
X31666666Y-78202380D01*
X31571428Y-78202380D01*
X31428571Y-78154761D01*
X31333333Y-78059523D01*
X31285714Y-77964285D01*
X31238095Y-77773809D01*
X31238095Y-77630952D01*
X31285714Y-77440476D01*
X31333333Y-77345238D01*
X31428571Y-77250000D01*
X31571428Y-77202380D01*
X31666666Y-77202380D01*
X31809523Y-77250000D01*
X31857142Y-77297619D01*
X32809523Y-78202380D02*
X32238095Y-78202380D01*
X32523809Y-78202380D02*
X32523809Y-77202380D01*
X32428571Y-77345238D01*
X32333333Y-77440476D01*
X32238095Y-77488095D01*
X33190476Y-77297619D02*
X33238095Y-77250000D01*
X33333333Y-77202380D01*
X33571428Y-77202380D01*
X33666666Y-77250000D01*
X33714285Y-77297619D01*
X33761904Y-77392857D01*
X33761904Y-77488095D01*
X33714285Y-77630952D01*
X33142857Y-78202380D01*
X33761904Y-78202380D01*
X37107142Y-56607142D02*
X37059523Y-56654761D01*
X36916666Y-56702380D01*
X36821428Y-56702380D01*
X36678571Y-56654761D01*
X36583333Y-56559523D01*
X36535714Y-56464285D01*
X36488095Y-56273809D01*
X36488095Y-56130952D01*
X36535714Y-55940476D01*
X36583333Y-55845238D01*
X36678571Y-55750000D01*
X36821428Y-55702380D01*
X36916666Y-55702380D01*
X37059523Y-55750000D01*
X37107142Y-55797619D01*
X38059523Y-56702380D02*
X37488095Y-56702380D01*
X37773809Y-56702380D02*
X37773809Y-55702380D01*
X37678571Y-55845238D01*
X37583333Y-55940476D01*
X37488095Y-55988095D01*
X39011904Y-56702380D02*
X38440476Y-56702380D01*
X38726190Y-56702380D02*
X38726190Y-55702380D01*
X38630952Y-55845238D01*
X38535714Y-55940476D01*
X38440476Y-55988095D01*
X34811428Y-58600952D02*
X34811428Y-57839047D01*
X35192380Y-58220000D02*
X34430476Y-58220000D01*
X44857142Y-68142857D02*
X44904761Y-68190476D01*
X44952380Y-68333333D01*
X44952380Y-68428571D01*
X44904761Y-68571428D01*
X44809523Y-68666666D01*
X44714285Y-68714285D01*
X44523809Y-68761904D01*
X44380952Y-68761904D01*
X44190476Y-68714285D01*
X44095238Y-68666666D01*
X44000000Y-68571428D01*
X43952380Y-68428571D01*
X43952380Y-68333333D01*
X44000000Y-68190476D01*
X44047619Y-68142857D01*
X44952380Y-67190476D02*
X44952380Y-67761904D01*
X44952380Y-67476190D02*
X43952380Y-67476190D01*
X44095238Y-67571428D01*
X44190476Y-67666666D01*
X44238095Y-67761904D01*
X43952380Y-66571428D02*
X43952380Y-66476190D01*
X44000000Y-66380952D01*
X44047619Y-66333333D01*
X44142857Y-66285714D01*
X44333333Y-66238095D01*
X44571428Y-66238095D01*
X44761904Y-66285714D01*
X44857142Y-66333333D01*
X44904761Y-66380952D01*
X44952380Y-66476190D01*
X44952380Y-66571428D01*
X44904761Y-66666666D01*
X44857142Y-66714285D01*
X44761904Y-66761904D01*
X44571428Y-66809523D01*
X44333333Y-66809523D01*
X44142857Y-66761904D01*
X44047619Y-66714285D01*
X44000000Y-66666666D01*
X43952380Y-66571428D01*
X44333333Y-78857142D02*
X44285714Y-78904761D01*
X44142857Y-78952380D01*
X44047619Y-78952380D01*
X43904761Y-78904761D01*
X43809523Y-78809523D01*
X43761904Y-78714285D01*
X43714285Y-78523809D01*
X43714285Y-78380952D01*
X43761904Y-78190476D01*
X43809523Y-78095238D01*
X43904761Y-78000000D01*
X44047619Y-77952380D01*
X44142857Y-77952380D01*
X44285714Y-78000000D01*
X44333333Y-78047619D01*
X44809523Y-78952380D02*
X45000000Y-78952380D01*
X45095238Y-78904761D01*
X45142857Y-78857142D01*
X45238095Y-78714285D01*
X45285714Y-78523809D01*
X45285714Y-78142857D01*
X45238095Y-78047619D01*
X45190476Y-78000000D01*
X45095238Y-77952380D01*
X44904761Y-77952380D01*
X44809523Y-78000000D01*
X44761904Y-78047619D01*
X44714285Y-78142857D01*
X44714285Y-78380952D01*
X44761904Y-78476190D01*
X44809523Y-78523809D01*
X44904761Y-78571428D01*
X45095238Y-78571428D01*
X45190476Y-78523809D01*
X45238095Y-78476190D01*
X45285714Y-78380952D01*
X57857142Y-76666666D02*
X57904761Y-76714285D01*
X57952380Y-76857142D01*
X57952380Y-76952380D01*
X57904761Y-77095238D01*
X57809523Y-77190476D01*
X57714285Y-77238095D01*
X57523809Y-77285714D01*
X57380952Y-77285714D01*
X57190476Y-77238095D01*
X57095238Y-77190476D01*
X57000000Y-77095238D01*
X56952380Y-76952380D01*
X56952380Y-76857142D01*
X57000000Y-76714285D01*
X57047619Y-76666666D01*
X57380952Y-76095238D02*
X57333333Y-76190476D01*
X57285714Y-76238095D01*
X57190476Y-76285714D01*
X57142857Y-76285714D01*
X57047619Y-76238095D01*
X57000000Y-76190476D01*
X56952380Y-76095238D01*
X56952380Y-75904761D01*
X57000000Y-75809523D01*
X57047619Y-75761904D01*
X57142857Y-75714285D01*
X57190476Y-75714285D01*
X57285714Y-75761904D01*
X57333333Y-75809523D01*
X57380952Y-75904761D01*
X57380952Y-76095238D01*
X57428571Y-76190476D01*
X57476190Y-76238095D01*
X57571428Y-76285714D01*
X57761904Y-76285714D01*
X57857142Y-76238095D01*
X57904761Y-76190476D01*
X57952380Y-76095238D01*
X57952380Y-75904761D01*
X57904761Y-75809523D01*
X57857142Y-75761904D01*
X57761904Y-75714285D01*
X57571428Y-75714285D01*
X57476190Y-75761904D01*
X57428571Y-75809523D01*
X57380952Y-75904761D01*
X52857142Y-76666666D02*
X52904761Y-76714285D01*
X52952380Y-76857142D01*
X52952380Y-76952380D01*
X52904761Y-77095238D01*
X52809523Y-77190476D01*
X52714285Y-77238095D01*
X52523809Y-77285714D01*
X52380952Y-77285714D01*
X52190476Y-77238095D01*
X52095238Y-77190476D01*
X52000000Y-77095238D01*
X51952380Y-76952380D01*
X51952380Y-76857142D01*
X52000000Y-76714285D01*
X52047619Y-76666666D01*
X51952380Y-76333333D02*
X51952380Y-75666666D01*
X52952380Y-76095238D01*
X74833333Y-47357142D02*
X74785714Y-47404761D01*
X74642857Y-47452380D01*
X74547619Y-47452380D01*
X74404761Y-47404761D01*
X74309523Y-47309523D01*
X74261904Y-47214285D01*
X74214285Y-47023809D01*
X74214285Y-46880952D01*
X74261904Y-46690476D01*
X74309523Y-46595238D01*
X74404761Y-46500000D01*
X74547619Y-46452380D01*
X74642857Y-46452380D01*
X74785714Y-46500000D01*
X74833333Y-46547619D01*
X75690476Y-46452380D02*
X75500000Y-46452380D01*
X75404761Y-46500000D01*
X75357142Y-46547619D01*
X75261904Y-46690476D01*
X75214285Y-46880952D01*
X75214285Y-47261904D01*
X75261904Y-47357142D01*
X75309523Y-47404761D01*
X75404761Y-47452380D01*
X75595238Y-47452380D01*
X75690476Y-47404761D01*
X75738095Y-47357142D01*
X75785714Y-47261904D01*
X75785714Y-47023809D01*
X75738095Y-46928571D01*
X75690476Y-46880952D01*
X75595238Y-46833333D01*
X75404761Y-46833333D01*
X75309523Y-46880952D01*
X75261904Y-46928571D01*
X75214285Y-47023809D01*
X37083333Y-47607142D02*
X37035714Y-47654761D01*
X36892857Y-47702380D01*
X36797619Y-47702380D01*
X36654761Y-47654761D01*
X36559523Y-47559523D01*
X36511904Y-47464285D01*
X36464285Y-47273809D01*
X36464285Y-47130952D01*
X36511904Y-46940476D01*
X36559523Y-46845238D01*
X36654761Y-46750000D01*
X36797619Y-46702380D01*
X36892857Y-46702380D01*
X37035714Y-46750000D01*
X37083333Y-46797619D01*
X37988095Y-46702380D02*
X37511904Y-46702380D01*
X37464285Y-47178571D01*
X37511904Y-47130952D01*
X37607142Y-47083333D01*
X37845238Y-47083333D01*
X37940476Y-47130952D01*
X37988095Y-47178571D01*
X38035714Y-47273809D01*
X38035714Y-47511904D01*
X37988095Y-47607142D01*
X37940476Y-47654761D01*
X37845238Y-47702380D01*
X37607142Y-47702380D01*
X37511904Y-47654761D01*
X37464285Y-47607142D01*
X36107142Y-71166666D02*
X36154761Y-71214285D01*
X36202380Y-71357142D01*
X36202380Y-71452380D01*
X36154761Y-71595238D01*
X36059523Y-71690476D01*
X35964285Y-71738095D01*
X35773809Y-71785714D01*
X35630952Y-71785714D01*
X35440476Y-71738095D01*
X35345238Y-71690476D01*
X35250000Y-71595238D01*
X35202380Y-71452380D01*
X35202380Y-71357142D01*
X35250000Y-71214285D01*
X35297619Y-71166666D01*
X35535714Y-70309523D02*
X36202380Y-70309523D01*
X35154761Y-70547619D02*
X35869047Y-70785714D01*
X35869047Y-70166666D01*
X41583333Y-68357142D02*
X41535714Y-68404761D01*
X41392857Y-68452380D01*
X41297619Y-68452380D01*
X41154761Y-68404761D01*
X41059523Y-68309523D01*
X41011904Y-68214285D01*
X40964285Y-68023809D01*
X40964285Y-67880952D01*
X41011904Y-67690476D01*
X41059523Y-67595238D01*
X41154761Y-67500000D01*
X41297619Y-67452380D01*
X41392857Y-67452380D01*
X41535714Y-67500000D01*
X41583333Y-67547619D01*
X41916666Y-67452380D02*
X42535714Y-67452380D01*
X42202380Y-67833333D01*
X42345238Y-67833333D01*
X42440476Y-67880952D01*
X42488095Y-67928571D01*
X42535714Y-68023809D01*
X42535714Y-68261904D01*
X42488095Y-68357142D01*
X42440476Y-68404761D01*
X42345238Y-68452380D01*
X42059523Y-68452380D01*
X41964285Y-68404761D01*
X41916666Y-68357142D01*
X45041418Y-80773047D02*
X45089037Y-80820666D01*
X45136656Y-80963523D01*
X45136656Y-81058761D01*
X45089037Y-81201619D01*
X44993799Y-81296857D01*
X44898561Y-81344476D01*
X44708085Y-81392095D01*
X44565228Y-81392095D01*
X44374752Y-81344476D01*
X44279514Y-81296857D01*
X44184276Y-81201619D01*
X44136656Y-81058761D01*
X44136656Y-80963523D01*
X44184276Y-80820666D01*
X44231895Y-80773047D01*
X44231895Y-80392095D02*
X44184276Y-80344476D01*
X44136656Y-80249238D01*
X44136656Y-80011142D01*
X44184276Y-79915904D01*
X44231895Y-79868285D01*
X44327133Y-79820666D01*
X44422371Y-79820666D01*
X44565228Y-79868285D01*
X45136656Y-80439714D01*
X45136656Y-79820666D01*
X70107142Y-42166666D02*
X70154761Y-42214285D01*
X70202380Y-42357142D01*
X70202380Y-42452380D01*
X70154761Y-42595238D01*
X70059523Y-42690476D01*
X69964285Y-42738095D01*
X69773809Y-42785714D01*
X69630952Y-42785714D01*
X69440476Y-42738095D01*
X69345238Y-42690476D01*
X69250000Y-42595238D01*
X69202380Y-42452380D01*
X69202380Y-42357142D01*
X69250000Y-42214285D01*
X69297619Y-42166666D01*
X70202380Y-41214285D02*
X70202380Y-41785714D01*
X70202380Y-41500000D02*
X69202380Y-41500000D01*
X69345238Y-41595238D01*
X69440476Y-41690476D01*
X69488095Y-41785714D01*
M02*
