%TF.GenerationSoftware,KiCad,Pcbnew,(5.1.4)-1*%
%TF.CreationDate,2021-05-17T23:16:04+08:00*%
%TF.ProjectId,power,706f7765-722e-46b6-9963-61645f706362,rev?*%
%TF.SameCoordinates,Original*%
%TF.FileFunction,Soldermask,Bot*%
%TF.FilePolarity,Negative*%
%FSLAX46Y46*%
G04 Gerber Fmt 4.6, Leading zero omitted, Abs format (unit mm)*
G04 Created by KiCad (PCBNEW (5.1.4)-1) date 2021-05-17 23:16:04*
%MOMM*%
%LPD*%
G04 APERTURE LIST*
%ADD10C,0.350000*%
G04 APERTURE END LIST*
D10*
G36*
X29336425Y-75992760D02*
G01*
X29336428Y-75992761D01*
X29336429Y-75992761D01*
X29515693Y-76047140D01*
X29515696Y-76047142D01*
X29515697Y-76047142D01*
X29680903Y-76135446D01*
X29825712Y-76254288D01*
X29944554Y-76399097D01*
X30032858Y-76564303D01*
X30032860Y-76564307D01*
X30087239Y-76743571D01*
X30087240Y-76743575D01*
X30105601Y-76930000D01*
X30087240Y-77116425D01*
X30087239Y-77116428D01*
X30087239Y-77116429D01*
X30032860Y-77295693D01*
X30032858Y-77295696D01*
X30032858Y-77295697D01*
X29944554Y-77460903D01*
X29825712Y-77605712D01*
X29680903Y-77724554D01*
X29515697Y-77812858D01*
X29515693Y-77812860D01*
X29336429Y-77867239D01*
X29336428Y-77867239D01*
X29336425Y-77867240D01*
X29196718Y-77881000D01*
X27303282Y-77881000D01*
X27163575Y-77867240D01*
X27163572Y-77867239D01*
X27163571Y-77867239D01*
X26984307Y-77812860D01*
X26984303Y-77812858D01*
X26819097Y-77724554D01*
X26674288Y-77605712D01*
X26555446Y-77460903D01*
X26467142Y-77295697D01*
X26467142Y-77295696D01*
X26467140Y-77295693D01*
X26412761Y-77116429D01*
X26412761Y-77116428D01*
X26412760Y-77116425D01*
X26394399Y-76930000D01*
X26412760Y-76743575D01*
X26412761Y-76743571D01*
X26467140Y-76564307D01*
X26467142Y-76564303D01*
X26555446Y-76399097D01*
X26674288Y-76254288D01*
X26819097Y-76135446D01*
X26984303Y-76047142D01*
X26984304Y-76047142D01*
X26984307Y-76047140D01*
X27163571Y-75992761D01*
X27163572Y-75992761D01*
X27163575Y-75992760D01*
X27303282Y-75979000D01*
X29196718Y-75979000D01*
X29336425Y-75992760D01*
X29336425Y-75992760D01*
G37*
G36*
X29336425Y-72182760D02*
G01*
X29336428Y-72182761D01*
X29336429Y-72182761D01*
X29515693Y-72237140D01*
X29515696Y-72237142D01*
X29515697Y-72237142D01*
X29680903Y-72325446D01*
X29825712Y-72444288D01*
X29944554Y-72589097D01*
X30032858Y-72754303D01*
X30032860Y-72754307D01*
X30087239Y-72933571D01*
X30087240Y-72933575D01*
X30105601Y-73120000D01*
X30087240Y-73306425D01*
X30087239Y-73306428D01*
X30087239Y-73306429D01*
X30032860Y-73485693D01*
X30032858Y-73485696D01*
X30032858Y-73485697D01*
X29944554Y-73650903D01*
X29825712Y-73795712D01*
X29680903Y-73914554D01*
X29515697Y-74002858D01*
X29515693Y-74002860D01*
X29336429Y-74057239D01*
X29336428Y-74057239D01*
X29336425Y-74057240D01*
X29196718Y-74071000D01*
X27303282Y-74071000D01*
X27163575Y-74057240D01*
X27163572Y-74057239D01*
X27163571Y-74057239D01*
X26984307Y-74002860D01*
X26984303Y-74002858D01*
X26819097Y-73914554D01*
X26674288Y-73795712D01*
X26555446Y-73650903D01*
X26467142Y-73485697D01*
X26467142Y-73485696D01*
X26467140Y-73485693D01*
X26412761Y-73306429D01*
X26412761Y-73306428D01*
X26412760Y-73306425D01*
X26394399Y-73120000D01*
X26412760Y-72933575D01*
X26412761Y-72933571D01*
X26467140Y-72754307D01*
X26467142Y-72754303D01*
X26555446Y-72589097D01*
X26674288Y-72444288D01*
X26819097Y-72325446D01*
X26984303Y-72237142D01*
X26984304Y-72237142D01*
X26984307Y-72237140D01*
X27163571Y-72182761D01*
X27163572Y-72182761D01*
X27163575Y-72182760D01*
X27303282Y-72169000D01*
X29196718Y-72169000D01*
X29336425Y-72182760D01*
X29336425Y-72182760D01*
G37*
G36*
X29336425Y-68372760D02*
G01*
X29336428Y-68372761D01*
X29336429Y-68372761D01*
X29515693Y-68427140D01*
X29515696Y-68427142D01*
X29515697Y-68427142D01*
X29680903Y-68515446D01*
X29825712Y-68634288D01*
X29944554Y-68779097D01*
X30032858Y-68944303D01*
X30032860Y-68944307D01*
X30087239Y-69123571D01*
X30087240Y-69123575D01*
X30105601Y-69310000D01*
X30087240Y-69496425D01*
X30087239Y-69496428D01*
X30087239Y-69496429D01*
X30032860Y-69675693D01*
X30032858Y-69675696D01*
X30032858Y-69675697D01*
X29944554Y-69840903D01*
X29825712Y-69985712D01*
X29680903Y-70104554D01*
X29515697Y-70192858D01*
X29515693Y-70192860D01*
X29336429Y-70247239D01*
X29336428Y-70247239D01*
X29336425Y-70247240D01*
X29196718Y-70261000D01*
X27303282Y-70261000D01*
X27163575Y-70247240D01*
X27163572Y-70247239D01*
X27163571Y-70247239D01*
X26984307Y-70192860D01*
X26984303Y-70192858D01*
X26819097Y-70104554D01*
X26674288Y-69985712D01*
X26555446Y-69840903D01*
X26467142Y-69675697D01*
X26467142Y-69675696D01*
X26467140Y-69675693D01*
X26412761Y-69496429D01*
X26412761Y-69496428D01*
X26412760Y-69496425D01*
X26394399Y-69310000D01*
X26412760Y-69123575D01*
X26412761Y-69123571D01*
X26467140Y-68944307D01*
X26467142Y-68944303D01*
X26555446Y-68779097D01*
X26674288Y-68634288D01*
X26819097Y-68515446D01*
X26984303Y-68427142D01*
X26984304Y-68427142D01*
X26984307Y-68427140D01*
X27163571Y-68372761D01*
X27163572Y-68372761D01*
X27163575Y-68372760D01*
X27303282Y-68359000D01*
X29196718Y-68359000D01*
X29336425Y-68372760D01*
X29336425Y-68372760D01*
G37*
G36*
X111139943Y-60566248D02*
G01*
X111695189Y-60796238D01*
X111867497Y-60911371D01*
X112194899Y-61130134D01*
X112619866Y-61555101D01*
X112619867Y-61555103D01*
X112953762Y-62054811D01*
X113183752Y-62610057D01*
X113301000Y-63199501D01*
X113301000Y-63800499D01*
X113183752Y-64389943D01*
X112953762Y-64945189D01*
X112891872Y-65037814D01*
X112619866Y-65444899D01*
X112194899Y-65869866D01*
X112120736Y-65919420D01*
X111695189Y-66203762D01*
X111139943Y-66433752D01*
X110550499Y-66551000D01*
X109949501Y-66551000D01*
X109360057Y-66433752D01*
X108804811Y-66203762D01*
X108379264Y-65919420D01*
X108305101Y-65869866D01*
X107880134Y-65444899D01*
X107608128Y-65037814D01*
X107546238Y-64945189D01*
X107316248Y-64389943D01*
X107199000Y-63800499D01*
X107199000Y-63199501D01*
X107316248Y-62610057D01*
X107546238Y-62054811D01*
X107880133Y-61555103D01*
X107880134Y-61555101D01*
X108305101Y-61130134D01*
X108632503Y-60911371D01*
X108804811Y-60796238D01*
X109360057Y-60566248D01*
X109949501Y-60449000D01*
X110550499Y-60449000D01*
X111139943Y-60566248D01*
X111139943Y-60566248D01*
G37*
G36*
X30101000Y-66451000D02*
G01*
X26399000Y-66451000D01*
X26399000Y-64549000D01*
X30101000Y-64549000D01*
X30101000Y-66451000D01*
X30101000Y-66451000D01*
G37*
G36*
X49889943Y-43066248D02*
G01*
X50445189Y-43296238D01*
X50617497Y-43411371D01*
X50944899Y-43630134D01*
X51369866Y-44055101D01*
X51369867Y-44055103D01*
X51703762Y-44554811D01*
X51933752Y-45110057D01*
X52051000Y-45699501D01*
X52051000Y-46300499D01*
X51933752Y-46889943D01*
X51703762Y-47445189D01*
X51660051Y-47510607D01*
X51369866Y-47944899D01*
X50944899Y-48369866D01*
X50870736Y-48419420D01*
X50445189Y-48703762D01*
X49889943Y-48933752D01*
X49300499Y-49051000D01*
X48699501Y-49051000D01*
X48110057Y-48933752D01*
X47554811Y-48703762D01*
X47129264Y-48419420D01*
X47055101Y-48369866D01*
X46630134Y-47944899D01*
X46339949Y-47510607D01*
X46296238Y-47445189D01*
X46066248Y-46889943D01*
X45949000Y-46300499D01*
X45949000Y-45699501D01*
X46066248Y-45110057D01*
X46296238Y-44554811D01*
X46630133Y-44055103D01*
X46630134Y-44055101D01*
X47055101Y-43630134D01*
X47382503Y-43411371D01*
X47554811Y-43296238D01*
X48110057Y-43066248D01*
X48699501Y-42949000D01*
X49300499Y-42949000D01*
X49889943Y-43066248D01*
X49889943Y-43066248D01*
G37*
G36*
X85053642Y-46229781D02*
G01*
X85199414Y-46290162D01*
X85199416Y-46290163D01*
X85330608Y-46377822D01*
X85442178Y-46489392D01*
X85529837Y-46620584D01*
X85529838Y-46620586D01*
X85590219Y-46766358D01*
X85621000Y-46921107D01*
X85621000Y-47078893D01*
X85590219Y-47233642D01*
X85554841Y-47319052D01*
X85529837Y-47379416D01*
X85442178Y-47510608D01*
X85330608Y-47622178D01*
X85199416Y-47709837D01*
X85199415Y-47709838D01*
X85199414Y-47709838D01*
X85053642Y-47770219D01*
X84898893Y-47801000D01*
X84741107Y-47801000D01*
X84586358Y-47770219D01*
X84440586Y-47709838D01*
X84440585Y-47709838D01*
X84440584Y-47709837D01*
X84309392Y-47622178D01*
X84197822Y-47510608D01*
X84110163Y-47379416D01*
X84085159Y-47319052D01*
X84049781Y-47233642D01*
X84019000Y-47078893D01*
X84019000Y-46921107D01*
X84049781Y-46766358D01*
X84110162Y-46620586D01*
X84110163Y-46620584D01*
X84197822Y-46489392D01*
X84309392Y-46377822D01*
X84440584Y-46290163D01*
X84440586Y-46290162D01*
X84586358Y-46229781D01*
X84741107Y-46199000D01*
X84898893Y-46199000D01*
X85053642Y-46229781D01*
X85053642Y-46229781D01*
G37*
G36*
X83143642Y-46229781D02*
G01*
X83289414Y-46290162D01*
X83289416Y-46290163D01*
X83420608Y-46377822D01*
X83532178Y-46489392D01*
X83619837Y-46620584D01*
X83619838Y-46620586D01*
X83680219Y-46766358D01*
X83711000Y-46921107D01*
X83711000Y-47078893D01*
X83680219Y-47233642D01*
X83644841Y-47319052D01*
X83619837Y-47379416D01*
X83532178Y-47510608D01*
X83420608Y-47622178D01*
X83289416Y-47709837D01*
X83289415Y-47709838D01*
X83289414Y-47709838D01*
X83143642Y-47770219D01*
X82988893Y-47801000D01*
X82831107Y-47801000D01*
X82676358Y-47770219D01*
X82530586Y-47709838D01*
X82530585Y-47709838D01*
X82530584Y-47709837D01*
X82399392Y-47622178D01*
X82287822Y-47510608D01*
X82200163Y-47379416D01*
X82175159Y-47319052D01*
X82139781Y-47233642D01*
X82109000Y-47078893D01*
X82109000Y-46921107D01*
X82139781Y-46766358D01*
X82200162Y-46620586D01*
X82200163Y-46620584D01*
X82287822Y-46489392D01*
X82399392Y-46377822D01*
X82530584Y-46290163D01*
X82530586Y-46290162D01*
X82676358Y-46229781D01*
X82831107Y-46199000D01*
X82988893Y-46199000D01*
X83143642Y-46229781D01*
X83143642Y-46229781D01*
G37*
G36*
X81801000Y-47801000D02*
G01*
X80199000Y-47801000D01*
X80199000Y-46199000D01*
X81801000Y-46199000D01*
X81801000Y-47801000D01*
X81801000Y-47801000D01*
G37*
G36*
X42748228Y-45431703D02*
G01*
X42903100Y-45495853D01*
X43042481Y-45588985D01*
X43161015Y-45707519D01*
X43254147Y-45846900D01*
X43318297Y-46001772D01*
X43351000Y-46166184D01*
X43351000Y-46333816D01*
X43318297Y-46498228D01*
X43254147Y-46653100D01*
X43161015Y-46792481D01*
X43042481Y-46911015D01*
X42903100Y-47004147D01*
X42748228Y-47068297D01*
X42583816Y-47101000D01*
X42416184Y-47101000D01*
X42251772Y-47068297D01*
X42096900Y-47004147D01*
X41957519Y-46911015D01*
X41838985Y-46792481D01*
X41745853Y-46653100D01*
X41681703Y-46498228D01*
X41649000Y-46333816D01*
X41649000Y-46166184D01*
X41681703Y-46001772D01*
X41745853Y-45846900D01*
X41838985Y-45707519D01*
X41957519Y-45588985D01*
X42096900Y-45495853D01*
X42251772Y-45431703D01*
X42416184Y-45399000D01*
X42583816Y-45399000D01*
X42748228Y-45431703D01*
X42748228Y-45431703D01*
G37*
G36*
X43351000Y-44601000D02*
G01*
X41649000Y-44601000D01*
X41649000Y-42899000D01*
X43351000Y-42899000D01*
X43351000Y-44601000D01*
X43351000Y-44601000D01*
G37*
G36*
X103556564Y-41739389D02*
G01*
X103747833Y-41818615D01*
X103747835Y-41818616D01*
X103919973Y-41933635D01*
X104066365Y-42080027D01*
X104181385Y-42252167D01*
X104260611Y-42443436D01*
X104301000Y-42646484D01*
X104301000Y-42853516D01*
X104260611Y-43056564D01*
X104204788Y-43191332D01*
X104181384Y-43247835D01*
X104066365Y-43419973D01*
X103919973Y-43566365D01*
X103747835Y-43681384D01*
X103747834Y-43681385D01*
X103747833Y-43681385D01*
X103556564Y-43760611D01*
X103353516Y-43801000D01*
X103146484Y-43801000D01*
X102943436Y-43760611D01*
X102752167Y-43681385D01*
X102752166Y-43681385D01*
X102752165Y-43681384D01*
X102580027Y-43566365D01*
X102433635Y-43419973D01*
X102318616Y-43247835D01*
X102295212Y-43191332D01*
X102239389Y-43056564D01*
X102199000Y-42853516D01*
X102199000Y-42646484D01*
X102239389Y-42443436D01*
X102318615Y-42252167D01*
X102433635Y-42080027D01*
X102580027Y-41933635D01*
X102752165Y-41818616D01*
X102752167Y-41818615D01*
X102943436Y-41739389D01*
X103146484Y-41699000D01*
X103353516Y-41699000D01*
X103556564Y-41739389D01*
X103556564Y-41739389D01*
G37*
G36*
X104301000Y-38801000D02*
G01*
X102199000Y-38801000D01*
X102199000Y-36699000D01*
X104301000Y-36699000D01*
X104301000Y-38801000D01*
X104301000Y-38801000D01*
G37*
G36*
X90008099Y-22593145D02*
G01*
X90583219Y-22767606D01*
X91113245Y-23050911D01*
X91577822Y-23432178D01*
X91959089Y-23896755D01*
X92242394Y-24426781D01*
X92416855Y-25001901D01*
X92475762Y-25600000D01*
X92416855Y-26198099D01*
X92242394Y-26773219D01*
X91959089Y-27303245D01*
X91577822Y-27767822D01*
X91113245Y-28149089D01*
X90583219Y-28432394D01*
X90008099Y-28606855D01*
X89559884Y-28651000D01*
X86260116Y-28651000D01*
X85811901Y-28606855D01*
X85236781Y-28432394D01*
X84706755Y-28149089D01*
X84242178Y-27767822D01*
X83860911Y-27303245D01*
X83577606Y-26773219D01*
X83403145Y-26198099D01*
X83344238Y-25600000D01*
X83403145Y-25001901D01*
X83577606Y-24426781D01*
X83860911Y-23896755D01*
X84242178Y-23432178D01*
X84706755Y-23050911D01*
X85236781Y-22767606D01*
X85811901Y-22593145D01*
X86260116Y-22549000D01*
X89559884Y-22549000D01*
X90008099Y-22593145D01*
X90008099Y-22593145D01*
G37*
G36*
X80008099Y-22593145D02*
G01*
X80583219Y-22767606D01*
X81113245Y-23050911D01*
X81577822Y-23432178D01*
X81959089Y-23896755D01*
X82242394Y-24426781D01*
X82416855Y-25001901D01*
X82475762Y-25600000D01*
X82416855Y-26198099D01*
X82242394Y-26773219D01*
X81959089Y-27303245D01*
X81577822Y-27767822D01*
X81113245Y-28149089D01*
X80583219Y-28432394D01*
X80008099Y-28606855D01*
X79559884Y-28651000D01*
X76260116Y-28651000D01*
X75811901Y-28606855D01*
X75236781Y-28432394D01*
X74706755Y-28149089D01*
X74242178Y-27767822D01*
X73860911Y-27303245D01*
X73577606Y-26773219D01*
X73403145Y-26198099D01*
X73344238Y-25600000D01*
X73403145Y-25001901D01*
X73577606Y-24426781D01*
X73860911Y-23896755D01*
X74242178Y-23432178D01*
X74706755Y-23050911D01*
X75236781Y-22767606D01*
X75811901Y-22593145D01*
X76260116Y-22549000D01*
X79559884Y-22549000D01*
X80008099Y-22593145D01*
X80008099Y-22593145D01*
G37*
M02*
