%TF.GenerationSoftware,KiCad,Pcbnew,(5.1.4)-1*%
%TF.CreationDate,2021-05-17T23:16:04+08:00*%
%TF.ProjectId,power,706f7765-722e-46b6-9963-61645f706362,rev?*%
%TF.SameCoordinates,Original*%
%TF.FileFunction,Copper,L2,Bot*%
%TF.FilePolarity,Positive*%
%FSLAX46Y46*%
G04 Gerber Fmt 4.6, Leading zero omitted, Abs format (unit mm)*
G04 Created by KiCad (PCBNEW (5.1.4)-1) date 2021-05-17 23:16:04*
%MOMM*%
%LPD*%
G04 APERTURE LIST*
%ADD10C,1.600000*%
%ADD11R,1.600000X1.600000*%
%ADD12O,9.000000X6.000000*%
%ADD13R,1.500000X1.500000*%
%ADD14C,1.500000*%
%ADD15C,0.800000*%
%ADD16C,0.800000*%
%ADD17C,6.000000*%
%ADD18O,3.600000X1.800000*%
%ADD19R,3.600000X1.800000*%
%ADD20C,2.000000*%
%ADD21R,2.000000X2.000000*%
%ADD22C,0.508000*%
%ADD23C,0.254000*%
%ADD24C,0.381000*%
%ADD25C,1.016000*%
%ADD26C,0.350000*%
%ADD27O,6.000000X2.000000*%
G04 APERTURE END LIST*
D10*
X42500000Y-46250000D03*
D11*
X42500000Y-43750000D03*
D12*
X77910000Y-25600000D03*
X87910000Y-25600000D03*
D13*
X81000000Y-47000000D03*
D14*
X84820000Y-47000000D03*
X82910000Y-47000000D03*
D15*
X81860000Y-24970000D03*
D16*
X81860000Y-24970000D02*
X81860000Y-24970000D01*
D15*
X81860000Y-26230000D03*
D16*
X81860000Y-26230000D02*
X81860000Y-26230000D01*
D15*
X81110000Y-27260000D03*
X81110000Y-23940000D03*
X73960000Y-24970000D03*
X73960000Y-26230000D03*
X74710000Y-27260000D03*
X74710000Y-23940000D03*
X78580000Y-27650000D03*
X77240000Y-27650000D03*
X79910000Y-27650000D03*
X75910000Y-27650000D03*
X78580000Y-23550000D03*
X77240000Y-23550000D03*
X75910000Y-23550000D03*
X79910000Y-23550000D03*
X84710000Y-27260000D03*
X84710000Y-23940000D03*
X83960000Y-26230000D03*
D16*
X83960000Y-26230000D02*
X83960000Y-26230000D01*
D15*
X83960000Y-24970000D03*
D16*
X83960000Y-24970000D02*
X83960000Y-24970000D01*
D15*
X91110000Y-27260000D03*
X91110000Y-23940000D03*
X91860000Y-24970000D03*
X89910000Y-27650000D03*
X88580000Y-27650000D03*
X87240000Y-27650000D03*
X85910000Y-27650000D03*
X89910000Y-23550000D03*
X88580000Y-23550000D03*
X87240000Y-23550000D03*
X85910000Y-23550000D03*
X91860000Y-26230000D03*
X112306810Y-62312500D03*
X112306810Y-64687500D03*
X110250000Y-65875000D03*
X108193190Y-64687500D03*
X108193190Y-62312500D03*
X110250000Y-61125000D03*
D17*
X110250000Y-63500000D03*
D15*
X51056810Y-44812500D03*
X51056810Y-47187500D03*
X49000000Y-48375000D03*
X46943190Y-47187500D03*
X46943190Y-44812500D03*
X49000000Y-43625000D03*
D17*
X49000000Y-46000000D03*
D18*
X28250000Y-76930000D03*
X28250000Y-73120000D03*
X28250000Y-69310000D03*
D19*
X28250000Y-65500000D03*
D20*
X103250000Y-42750000D03*
D21*
X103250000Y-37750000D03*
D15*
X115470000Y-31910000D03*
X112930000Y-31910000D03*
X110390000Y-31910000D03*
X105310000Y-31910000D03*
X102770000Y-31910000D03*
X100230000Y-31910000D03*
X100230000Y-29370000D03*
X102770000Y-29370000D03*
X105310000Y-29370000D03*
X112930000Y-29370000D03*
X110390000Y-29370000D03*
X115470000Y-29370000D03*
X115470000Y-26830000D03*
X112930000Y-26830000D03*
X110390000Y-26830000D03*
X105310000Y-26830000D03*
X102770000Y-26830000D03*
X100230000Y-26830000D03*
X100230000Y-24290000D03*
X102770000Y-24290000D03*
X105310000Y-24290000D03*
X110390000Y-24290000D03*
X112930000Y-24290000D03*
X115470000Y-24290000D03*
X49500000Y-72500000D03*
X49500000Y-73500000D03*
X49500000Y-74500000D03*
X48500000Y-74500000D03*
X48500000Y-73500000D03*
X48500000Y-72500000D03*
X105250000Y-50750000D03*
X116250000Y-50250000D03*
X111250000Y-46500000D03*
X112750000Y-46500000D03*
X114250000Y-46500000D03*
X116750000Y-46500000D03*
X118250000Y-46500000D03*
X118250000Y-45000000D03*
X118250000Y-43250000D03*
X109750000Y-45000000D03*
X109750000Y-43250000D03*
X109750000Y-41750000D03*
X109750000Y-40500000D03*
X118250000Y-40500000D03*
X118250000Y-41750000D03*
X109750000Y-46500000D03*
X111250000Y-45000000D03*
X116750000Y-45000000D03*
X115500000Y-46500000D03*
X111250000Y-43250000D03*
X111250000Y-41750000D03*
X112750000Y-41750000D03*
X114250000Y-41750000D03*
X115500000Y-41750000D03*
X116750000Y-41750000D03*
X116750000Y-40500000D03*
X115500000Y-40500000D03*
X114250000Y-40500000D03*
X112750000Y-40500000D03*
X111250000Y-40500000D03*
X116750000Y-43250000D03*
X96250000Y-44750000D03*
X93500000Y-42250000D03*
X93500000Y-44750000D03*
X105250000Y-65000000D03*
X114500000Y-57500000D03*
X92500000Y-58250000D03*
X85000000Y-60250000D03*
X83500000Y-50250000D03*
X78676702Y-53000000D03*
X76750000Y-48250000D03*
X69000000Y-44500000D03*
X69000000Y-41750000D03*
X68000000Y-38000000D03*
X59250000Y-40500000D03*
X48750000Y-39750000D03*
X33250000Y-41500000D03*
X25000000Y-51750000D03*
X58000000Y-49250000D03*
X92750000Y-55750000D03*
X36500000Y-81250000D03*
X44500000Y-82000000D03*
X53000000Y-82000000D03*
X113000000Y-49000000D03*
X32500000Y-62500000D03*
X32500000Y-71750000D03*
X32500000Y-73250000D03*
X61250000Y-61000000D03*
X61250000Y-57999998D03*
X48500000Y-75500000D03*
X49500000Y-75500000D03*
X67750000Y-63250000D03*
X70290000Y-63250000D03*
X72830000Y-63250000D03*
X75370000Y-63250000D03*
X77910000Y-63250000D03*
X80450000Y-63250000D03*
X82990000Y-63250000D03*
X85530000Y-63250000D03*
X88070000Y-63250000D03*
X90610000Y-63250000D03*
X93150000Y-63250000D03*
X95690000Y-63250000D03*
X67750000Y-65790000D03*
X70290000Y-65790000D03*
X72830000Y-65790000D03*
X75370000Y-65790000D03*
X77910000Y-65790000D03*
X80450000Y-65790000D03*
X82990000Y-65790000D03*
X85530000Y-65790000D03*
X88070000Y-65790000D03*
X90610000Y-65790000D03*
X93150000Y-65790000D03*
X95690000Y-65790000D03*
X67750000Y-68330000D03*
X70290000Y-68330000D03*
X72830000Y-68330000D03*
X75370000Y-68330000D03*
X77910000Y-68330000D03*
X80450000Y-68330000D03*
X82990000Y-68330000D03*
X85530000Y-68330000D03*
X88070000Y-68330000D03*
X90610000Y-68330000D03*
X93150000Y-68330000D03*
X95690000Y-68330000D03*
X67750000Y-70870000D03*
X70290000Y-70870000D03*
X72830000Y-70870000D03*
X75370000Y-70870000D03*
X77910000Y-70870000D03*
X80450000Y-70870000D03*
X82990000Y-70870000D03*
X85530000Y-70870000D03*
X88070000Y-70870000D03*
X90610000Y-70870000D03*
X93150000Y-70870000D03*
X95690000Y-70870000D03*
X67750000Y-73410000D03*
X70290000Y-73410000D03*
X72830000Y-73410000D03*
X75370000Y-73410000D03*
X77910000Y-73410000D03*
X80450000Y-73410000D03*
X82990000Y-73410000D03*
X85530000Y-73410000D03*
X88070000Y-73410000D03*
X90610000Y-73410000D03*
X93150000Y-73410000D03*
X95690000Y-73410000D03*
X67750000Y-75950000D03*
X70290000Y-75950000D03*
X72830000Y-75950000D03*
X75370000Y-75950000D03*
X77910000Y-75950000D03*
X80450000Y-75950000D03*
X82990000Y-75950000D03*
X85530000Y-75950000D03*
X88070000Y-75950000D03*
X90610000Y-75950000D03*
X93150000Y-75950000D03*
X95690000Y-75950000D03*
X67750000Y-78490000D03*
X70290000Y-78490000D03*
X72830000Y-78490000D03*
X75370000Y-78490000D03*
X77910000Y-78490000D03*
X80450000Y-78490000D03*
X82990000Y-78490000D03*
X85530000Y-78490000D03*
X88070000Y-78490000D03*
X90610000Y-78490000D03*
X93150000Y-78490000D03*
X95690000Y-78490000D03*
X67750000Y-81030000D03*
X70290000Y-81030000D03*
X72830000Y-81030000D03*
X75370000Y-81030000D03*
X77910000Y-81030000D03*
X80450000Y-81030000D03*
X82990000Y-81030000D03*
X85530000Y-81030000D03*
X88070000Y-81030000D03*
X90610000Y-81030000D03*
X93150000Y-81030000D03*
X95690000Y-81030000D03*
X67750000Y-83570000D03*
X70290000Y-83570000D03*
X72830000Y-83570000D03*
X75370000Y-83570000D03*
X77910000Y-83570000D03*
X80450000Y-83570000D03*
X82990000Y-83570000D03*
X85530000Y-83570000D03*
X88070000Y-83570000D03*
X90610000Y-83570000D03*
X93150000Y-83570000D03*
X95690000Y-83570000D03*
X97000000Y-72000000D03*
X99540000Y-72000000D03*
X102080000Y-72000000D03*
X104620000Y-72000000D03*
X107160000Y-72000000D03*
X109700000Y-72000000D03*
X112240000Y-72000000D03*
X114780000Y-72000000D03*
X117320000Y-72000000D03*
X97000000Y-74540000D03*
X99540000Y-74540000D03*
X102080000Y-74540000D03*
X104620000Y-74540000D03*
X107160000Y-74540000D03*
X109700000Y-74540000D03*
X112240000Y-74540000D03*
X114780000Y-74540000D03*
X117320000Y-74540000D03*
X97000000Y-77080000D03*
X99540000Y-77080000D03*
X102080000Y-77080000D03*
X104620000Y-77080000D03*
X107160000Y-77080000D03*
X109700000Y-77080000D03*
X112240000Y-77080000D03*
X114780000Y-77080000D03*
X117320000Y-77080000D03*
X97000000Y-79620000D03*
X99540000Y-79620000D03*
X102080000Y-79620000D03*
X104620000Y-79620000D03*
X107160000Y-79620000D03*
X109700000Y-79620000D03*
X112240000Y-79620000D03*
X114780000Y-79620000D03*
X117320000Y-79620000D03*
X97000000Y-82160000D03*
X99540000Y-82160000D03*
X102080000Y-82160000D03*
X104620000Y-82160000D03*
X107160000Y-82160000D03*
X109700000Y-82160000D03*
X112240000Y-82160000D03*
X114780000Y-82160000D03*
X117320000Y-82160000D03*
X37250000Y-46250000D03*
X48500000Y-29750000D03*
X33500000Y-24000002D03*
X32500000Y-24000000D03*
X31500000Y-24000000D03*
X30500000Y-24000000D03*
X53000000Y-42000000D03*
X54000000Y-42000000D03*
X55000000Y-42000000D03*
X56000000Y-41750000D03*
X52250000Y-41500000D03*
X87749990Y-60500000D03*
X74000000Y-39500008D03*
X83000004Y-59499996D03*
X111000000Y-59000008D03*
X46250000Y-70500000D03*
X51250000Y-70999994D03*
X60000000Y-54749994D03*
X40750000Y-55249998D03*
X33750000Y-76250018D03*
X31500000Y-80750000D03*
X84990000Y-21750000D03*
X87530000Y-21750000D03*
X90070000Y-21750000D03*
X90070000Y-21750000D03*
X92610000Y-21750000D03*
X95150000Y-21750000D03*
X97690000Y-21750000D03*
X100230000Y-21750000D03*
X102770000Y-21750000D03*
X105310000Y-21750000D03*
X107850000Y-21750000D03*
X110390000Y-21750000D03*
X112930000Y-21750000D03*
X115470000Y-21750000D03*
X118010000Y-21750000D03*
X118010000Y-24290000D03*
X107850000Y-24290000D03*
X97690000Y-24290000D03*
X95150000Y-24290000D03*
X92610000Y-24290000D03*
X92610000Y-26830000D03*
X95150000Y-26830000D03*
X97690000Y-26830000D03*
X107850000Y-26830000D03*
X118010000Y-26830000D03*
X118010000Y-29370000D03*
X107850000Y-29370000D03*
X97690000Y-29370000D03*
X95150000Y-29370000D03*
X92610000Y-29370000D03*
X90070000Y-29370000D03*
X87530000Y-29370000D03*
X84990000Y-29370000D03*
X84990000Y-31910000D03*
X87530000Y-31910000D03*
X90070000Y-31910000D03*
X92610000Y-31910000D03*
X95150000Y-31910000D03*
X97690000Y-31910000D03*
X107850000Y-31910000D03*
X118010000Y-31910000D03*
X118010000Y-34450000D03*
X110390000Y-34450000D03*
X112930000Y-34450000D03*
X115470000Y-34450000D03*
X107850000Y-34450000D03*
X105310000Y-34450000D03*
X102770000Y-34450000D03*
X100230000Y-34450000D03*
X97690000Y-34450000D03*
X95150000Y-34450000D03*
X90070000Y-34450000D03*
X92610000Y-34450000D03*
X87530000Y-34450000D03*
X84990000Y-34450000D03*
X100230000Y-36990000D03*
X105310000Y-36990000D03*
X107850000Y-36990000D03*
X110390000Y-36990000D03*
X118010000Y-36990000D03*
X64500000Y-40500000D03*
X69100000Y-40300000D03*
X98250000Y-52750000D03*
X69750000Y-46250000D03*
X81067240Y-51048269D03*
X75883716Y-49881701D03*
X109750000Y-57499996D03*
X107000000Y-58392790D03*
X108750000Y-55750000D03*
X114250000Y-55750000D03*
X105000000Y-60750000D03*
X107250000Y-60250000D03*
X88750000Y-45500000D03*
X91259805Y-46084165D03*
X35000000Y-63000000D03*
X35000000Y-54750000D03*
X34000000Y-54750000D03*
X33000000Y-54750000D03*
X35000000Y-62000000D03*
X35000000Y-64000000D03*
X45400000Y-41700000D03*
X49764658Y-41666938D03*
X26750000Y-35500000D03*
X27110004Y-41360004D03*
X31500000Y-41500000D03*
X31250000Y-34500000D03*
X82750000Y-49000000D03*
X89250000Y-49000000D03*
X74750000Y-44000000D03*
X77500000Y-49250006D03*
X81346883Y-54923434D03*
X69200002Y-56600000D03*
X81500000Y-58250000D03*
X72379000Y-46500000D03*
X80750000Y-52000000D03*
X83250000Y-52250000D03*
X74948396Y-48981069D03*
X69600000Y-59800000D03*
X88340492Y-56535589D03*
X69750000Y-21750000D03*
X69750000Y-24290000D03*
X69750000Y-26830000D03*
X69750000Y-29370000D03*
X69750000Y-31910000D03*
X69750000Y-34450000D03*
X72290000Y-34450000D03*
X72290000Y-31910000D03*
X72290000Y-29370000D03*
X72290000Y-26830000D03*
X72290000Y-24290000D03*
X72290000Y-21750000D03*
X74830000Y-21750000D03*
X74830000Y-29370000D03*
X74830000Y-31910000D03*
X74830000Y-34450000D03*
X77370000Y-34450000D03*
X77370000Y-31910000D03*
X77370000Y-29370000D03*
X79910000Y-29370000D03*
X79910000Y-31910000D03*
X79910000Y-34450000D03*
X77370000Y-21750000D03*
X79910000Y-21750000D03*
X67210000Y-34450000D03*
X67210000Y-31910000D03*
D22*
X83400003Y-59099997D02*
X89618655Y-59099997D01*
X89618655Y-59099997D02*
X89768658Y-59250000D01*
X83000004Y-59499996D02*
X83400003Y-59099997D01*
X110434315Y-59000008D02*
X111000000Y-59000008D01*
X89768658Y-59250000D02*
X108204078Y-59250000D01*
X108204078Y-59250000D02*
X108454070Y-59000008D01*
X108454070Y-59000008D02*
X110434315Y-59000008D01*
D23*
X46250000Y-70500000D02*
X46749994Y-70999994D01*
X50684315Y-70999994D02*
X51250000Y-70999994D01*
X46749994Y-70999994D02*
X50684315Y-70999994D01*
X40750000Y-55249998D02*
X40750000Y-53750000D01*
X40750000Y-53750000D02*
X41250000Y-53250000D01*
X58500006Y-53250000D02*
X60000000Y-54749994D01*
X41250000Y-53250000D02*
X58500006Y-53250000D01*
X31500000Y-80184315D02*
X31500000Y-80750000D01*
X31500000Y-77934333D02*
X31500000Y-80184315D01*
X33184315Y-76250018D02*
X31500000Y-77934333D01*
X33750000Y-76250018D02*
X33184315Y-76250018D01*
D24*
X65065685Y-40500000D02*
X65265685Y-40300000D01*
X64500000Y-40500000D02*
X65065685Y-40500000D01*
X65265685Y-40300000D02*
X69100000Y-40300000D01*
D23*
X96548269Y-51048269D02*
X81632925Y-51048269D01*
X98250000Y-52750000D02*
X96548269Y-51048269D01*
X81632925Y-51048269D02*
X81067240Y-51048269D01*
X69750000Y-46250000D02*
X73381701Y-49881701D01*
X73381701Y-49881701D02*
X75318031Y-49881701D01*
X75318031Y-49881701D02*
X75883716Y-49881701D01*
X107399999Y-57992791D02*
X107000000Y-58392790D01*
X109750000Y-57499996D02*
X107892794Y-57499996D01*
X107892794Y-57499996D02*
X107399999Y-57992791D01*
X108750000Y-55750000D02*
X114250000Y-55750000D01*
X106850001Y-60649999D02*
X107250000Y-60250000D01*
X106750000Y-60750000D02*
X106850001Y-60649999D01*
X105000000Y-60750000D02*
X106750000Y-60750000D01*
D24*
X84820000Y-47000000D02*
X87250000Y-47000000D01*
X87250000Y-47000000D02*
X88750000Y-45500000D01*
D23*
X88750000Y-45500000D02*
X90675640Y-45500000D01*
X90675640Y-45500000D02*
X90859806Y-45684166D01*
X90859806Y-45684166D02*
X91259805Y-46084165D01*
D25*
X35000000Y-54750000D02*
X33000000Y-54750000D01*
X35000000Y-62000000D02*
X35000000Y-63000000D01*
X35000000Y-54750000D02*
X35000000Y-64000000D01*
D22*
X49731596Y-41700000D02*
X49764658Y-41666938D01*
X45400000Y-41700000D02*
X49731596Y-41700000D01*
D24*
X26750000Y-35500000D02*
X26750000Y-41000000D01*
X26750000Y-41000000D02*
X27110004Y-41360004D01*
X31500000Y-41500000D02*
X31500000Y-34750000D01*
X31500000Y-34750000D02*
X31250000Y-34500000D01*
D23*
X82750000Y-49000000D02*
X89250000Y-49000000D01*
X76250006Y-49250006D02*
X77500000Y-49250006D01*
X74750000Y-47750000D02*
X76250006Y-49250006D01*
X74750000Y-44000000D02*
X74750000Y-47750000D01*
X81346883Y-54923434D02*
X79670317Y-56600000D01*
X79670317Y-56600000D02*
X69765687Y-56600000D01*
X69765687Y-56600000D02*
X69200002Y-56600000D01*
X80750000Y-52000000D02*
X82750000Y-52000000D01*
X82750000Y-52000000D02*
X83000000Y-52250000D01*
X83000000Y-52250000D02*
X83250000Y-52250000D01*
X72379000Y-46500000D02*
X74860069Y-48981069D01*
X74860069Y-48981069D02*
X74948396Y-48981069D01*
X70165685Y-59800000D02*
X69600000Y-59800000D01*
X79950000Y-59800000D02*
X70165685Y-59800000D01*
X81500000Y-58250000D02*
X79950000Y-59800000D01*
X87774807Y-56535589D02*
X88340492Y-56535589D01*
X83214411Y-56535589D02*
X87774807Y-56535589D01*
X81500000Y-58250000D02*
X83214411Y-56535589D01*
G36*
X96123000Y-71250000D02*
G01*
X96125440Y-71274776D01*
X96132667Y-71298601D01*
X96144403Y-71320557D01*
X96160197Y-71339803D01*
X96179443Y-71355597D01*
X96201399Y-71367333D01*
X96225224Y-71374560D01*
X96250000Y-71377000D01*
X118123000Y-71377000D01*
X118123000Y-84115000D01*
X67127000Y-84115000D01*
X67127000Y-62627000D01*
X96123000Y-62627000D01*
X96123000Y-71250000D01*
X96123000Y-71250000D01*
G37*
X96123000Y-71250000D02*
X96125440Y-71274776D01*
X96132667Y-71298601D01*
X96144403Y-71320557D01*
X96160197Y-71339803D01*
X96179443Y-71355597D01*
X96201399Y-71367333D01*
X96225224Y-71374560D01*
X96250000Y-71377000D01*
X118123000Y-71377000D01*
X118123000Y-84115000D01*
X67127000Y-84115000D01*
X67127000Y-62627000D01*
X96123000Y-62627000D01*
X96123000Y-71250000D01*
G36*
X64623000Y-35500000D02*
G01*
X64644655Y-35719867D01*
X64708788Y-35931284D01*
X64812934Y-36126128D01*
X64953091Y-36296909D01*
X65123872Y-36437066D01*
X65318716Y-36541212D01*
X65530133Y-36605345D01*
X65750000Y-36627000D01*
X82500000Y-36627000D01*
X82719867Y-36605345D01*
X82931284Y-36541212D01*
X83100394Y-36450821D01*
X83280133Y-36505345D01*
X83500000Y-36527000D01*
X97273000Y-36527000D01*
X97273000Y-39200000D01*
X97294655Y-39419867D01*
X97358788Y-39631284D01*
X97462934Y-39826128D01*
X97603091Y-39996909D01*
X97773872Y-40137066D01*
X97968716Y-40241212D01*
X98180133Y-40305345D01*
X98400000Y-40327000D01*
X119115000Y-40327000D01*
X119115001Y-84115000D01*
X108127000Y-84115000D01*
X108127000Y-70250000D01*
X108124560Y-70225224D01*
X108117333Y-70201399D01*
X108105597Y-70179443D01*
X108089803Y-70160197D01*
X108070557Y-70144403D01*
X108048601Y-70132667D01*
X108024776Y-70125440D01*
X108000000Y-70123000D01*
X98377000Y-70123000D01*
X98377000Y-61000000D01*
X98374560Y-60975224D01*
X98367333Y-60951399D01*
X98355597Y-60929443D01*
X98339803Y-60910197D01*
X98320557Y-60894403D01*
X98298601Y-60882667D01*
X98274776Y-60875440D01*
X98250000Y-60873000D01*
X66000000Y-60873000D01*
X65975224Y-60875440D01*
X65951399Y-60882667D01*
X65929443Y-60894403D01*
X65910197Y-60910197D01*
X65894403Y-60929443D01*
X65882667Y-60951399D01*
X65875440Y-60975224D01*
X65873000Y-61000000D01*
X65873000Y-84115000D01*
X20885000Y-84115000D01*
X20885000Y-80648061D01*
X30465000Y-80648061D01*
X30465000Y-80851939D01*
X30504774Y-81051898D01*
X30582795Y-81240256D01*
X30696063Y-81409774D01*
X30840226Y-81553937D01*
X31009744Y-81667205D01*
X31198102Y-81745226D01*
X31398061Y-81785000D01*
X31601939Y-81785000D01*
X31801898Y-81745226D01*
X31990256Y-81667205D01*
X32159774Y-81553937D01*
X32303937Y-81409774D01*
X32417205Y-81240256D01*
X32495226Y-81051898D01*
X32535000Y-80851939D01*
X32535000Y-80648061D01*
X32495226Y-80448102D01*
X32417205Y-80259744D01*
X32303937Y-80090226D01*
X32262000Y-80048289D01*
X32262000Y-78249963D01*
X33319846Y-77192118D01*
X33448102Y-77245244D01*
X33648061Y-77285018D01*
X33851939Y-77285018D01*
X34051898Y-77245244D01*
X34240256Y-77167223D01*
X34409774Y-77053955D01*
X34553937Y-76909792D01*
X34667205Y-76740274D01*
X34745226Y-76551916D01*
X34785000Y-76351957D01*
X34785000Y-76148079D01*
X34745226Y-75948120D01*
X34667205Y-75759762D01*
X34553937Y-75590244D01*
X34409774Y-75446081D01*
X34240256Y-75332813D01*
X34051898Y-75254792D01*
X33851939Y-75215018D01*
X33648061Y-75215018D01*
X33448102Y-75254792D01*
X33259744Y-75332813D01*
X33090226Y-75446081D01*
X33037517Y-75498790D01*
X33034937Y-75499044D01*
X32891300Y-75542616D01*
X32758923Y-75613373D01*
X32642893Y-75708596D01*
X32619036Y-75737666D01*
X30987654Y-77369049D01*
X30958578Y-77392911D01*
X30902983Y-77460655D01*
X30863355Y-77508941D01*
X30825535Y-77579698D01*
X30792598Y-77641319D01*
X30749026Y-77784956D01*
X30738000Y-77896907D01*
X30734314Y-77934333D01*
X30738000Y-77971757D01*
X30738001Y-80048288D01*
X30696063Y-80090226D01*
X30582795Y-80259744D01*
X30504774Y-80448102D01*
X30465000Y-80648061D01*
X20885000Y-80648061D01*
X20885000Y-77294740D01*
X25858964Y-77294740D01*
X25883245Y-77400087D01*
X26003138Y-77677204D01*
X26174790Y-77925606D01*
X26391604Y-78135748D01*
X26645249Y-78299554D01*
X26925977Y-78410729D01*
X27223000Y-78465000D01*
X28123000Y-78465000D01*
X28123000Y-77057000D01*
X28377000Y-77057000D01*
X28377000Y-78465000D01*
X29277000Y-78465000D01*
X29574023Y-78410729D01*
X29854751Y-78299554D01*
X30108396Y-78135748D01*
X30325210Y-77925606D01*
X30496862Y-77677204D01*
X30616755Y-77400087D01*
X30641036Y-77294740D01*
X30520378Y-77057000D01*
X28377000Y-77057000D01*
X28123000Y-77057000D01*
X25979622Y-77057000D01*
X25858964Y-77294740D01*
X20885000Y-77294740D01*
X20885000Y-76565260D01*
X25858964Y-76565260D01*
X25979622Y-76803000D01*
X28123000Y-76803000D01*
X28123000Y-75395000D01*
X28377000Y-75395000D01*
X28377000Y-76803000D01*
X30520378Y-76803000D01*
X30641036Y-76565260D01*
X30616755Y-76459913D01*
X30496862Y-76182796D01*
X30325210Y-75934394D01*
X30108396Y-75724252D01*
X29854751Y-75560446D01*
X29574023Y-75449271D01*
X29277000Y-75395000D01*
X28377000Y-75395000D01*
X28123000Y-75395000D01*
X27223000Y-75395000D01*
X26925977Y-75449271D01*
X26645249Y-75560446D01*
X26391604Y-75724252D01*
X26174790Y-75934394D01*
X26003138Y-76182796D01*
X25883245Y-76459913D01*
X25858964Y-76565260D01*
X20885000Y-76565260D01*
X20885000Y-73484740D01*
X25858964Y-73484740D01*
X25883245Y-73590087D01*
X26003138Y-73867204D01*
X26174790Y-74115606D01*
X26391604Y-74325748D01*
X26645249Y-74489554D01*
X26925977Y-74600729D01*
X27223000Y-74655000D01*
X28123000Y-74655000D01*
X28123000Y-73247000D01*
X28377000Y-73247000D01*
X28377000Y-74655000D01*
X29277000Y-74655000D01*
X29574023Y-74600729D01*
X29854751Y-74489554D01*
X30108396Y-74325748D01*
X30325210Y-74115606D01*
X30496862Y-73867204D01*
X30616755Y-73590087D01*
X30641036Y-73484740D01*
X30520378Y-73247000D01*
X28377000Y-73247000D01*
X28123000Y-73247000D01*
X25979622Y-73247000D01*
X25858964Y-73484740D01*
X20885000Y-73484740D01*
X20885000Y-72755260D01*
X25858964Y-72755260D01*
X25979622Y-72993000D01*
X28123000Y-72993000D01*
X28123000Y-71585000D01*
X28377000Y-71585000D01*
X28377000Y-72993000D01*
X30520378Y-72993000D01*
X30641036Y-72755260D01*
X30616755Y-72649913D01*
X30496862Y-72372796D01*
X30325210Y-72124394D01*
X30108396Y-71914252D01*
X29854751Y-71750446D01*
X29574023Y-71639271D01*
X29277000Y-71585000D01*
X28377000Y-71585000D01*
X28123000Y-71585000D01*
X27223000Y-71585000D01*
X26925977Y-71639271D01*
X26645249Y-71750446D01*
X26391604Y-71914252D01*
X26174790Y-72124394D01*
X26003138Y-72372796D01*
X25883245Y-72649913D01*
X25858964Y-72755260D01*
X20885000Y-72755260D01*
X20885000Y-69310000D01*
X25807573Y-69310000D01*
X25837210Y-69610913D01*
X25924983Y-69900261D01*
X26067519Y-70166927D01*
X26259339Y-70400661D01*
X26493073Y-70592481D01*
X26759739Y-70735017D01*
X27049087Y-70822790D01*
X27274592Y-70845000D01*
X29225408Y-70845000D01*
X29450913Y-70822790D01*
X29740261Y-70735017D01*
X30006927Y-70592481D01*
X30240661Y-70400661D01*
X30242794Y-70398061D01*
X45215000Y-70398061D01*
X45215000Y-70601939D01*
X45254774Y-70801898D01*
X45332795Y-70990256D01*
X45446063Y-71159774D01*
X45590226Y-71303937D01*
X45759744Y-71417205D01*
X45948102Y-71495226D01*
X46148061Y-71535000D01*
X46203307Y-71535000D01*
X46208572Y-71541416D01*
X46324602Y-71636639D01*
X46456979Y-71707396D01*
X46600616Y-71750968D01*
X46712568Y-71761994D01*
X46712570Y-71761994D01*
X46749993Y-71765680D01*
X46787416Y-71761994D01*
X50548289Y-71761994D01*
X50590226Y-71803931D01*
X50759744Y-71917199D01*
X50948102Y-71995220D01*
X51148061Y-72034994D01*
X51351939Y-72034994D01*
X51551898Y-71995220D01*
X51740256Y-71917199D01*
X51909774Y-71803931D01*
X52053937Y-71659768D01*
X52167205Y-71490250D01*
X52245226Y-71301892D01*
X52285000Y-71101933D01*
X52285000Y-70898055D01*
X52245226Y-70698096D01*
X52167205Y-70509738D01*
X52053937Y-70340220D01*
X51909774Y-70196057D01*
X51740256Y-70082789D01*
X51551898Y-70004768D01*
X51351939Y-69964994D01*
X51148061Y-69964994D01*
X50948102Y-70004768D01*
X50759744Y-70082789D01*
X50590226Y-70196057D01*
X50548289Y-70237994D01*
X47253161Y-70237994D01*
X47245226Y-70198102D01*
X47167205Y-70009744D01*
X47053937Y-69840226D01*
X46909774Y-69696063D01*
X46740256Y-69582795D01*
X46551898Y-69504774D01*
X46351939Y-69465000D01*
X46148061Y-69465000D01*
X45948102Y-69504774D01*
X45759744Y-69582795D01*
X45590226Y-69696063D01*
X45446063Y-69840226D01*
X45332795Y-70009744D01*
X45254774Y-70198102D01*
X45215000Y-70398061D01*
X30242794Y-70398061D01*
X30432481Y-70166927D01*
X30575017Y-69900261D01*
X30662790Y-69610913D01*
X30692427Y-69310000D01*
X30662790Y-69009087D01*
X30575017Y-68719739D01*
X30432481Y-68453073D01*
X30240661Y-68219339D01*
X30006927Y-68027519D01*
X29740261Y-67884983D01*
X29450913Y-67797210D01*
X29225408Y-67775000D01*
X27274592Y-67775000D01*
X27049087Y-67797210D01*
X26759739Y-67884983D01*
X26493073Y-68027519D01*
X26259339Y-68219339D01*
X26067519Y-68453073D01*
X25924983Y-68719739D01*
X25837210Y-69009087D01*
X25807573Y-69310000D01*
X20885000Y-69310000D01*
X20885000Y-64600000D01*
X25811928Y-64600000D01*
X25811928Y-66400000D01*
X25824188Y-66524482D01*
X25860498Y-66644180D01*
X25919463Y-66754494D01*
X25998815Y-66851185D01*
X26095506Y-66930537D01*
X26205820Y-66989502D01*
X26325518Y-67025812D01*
X26450000Y-67038072D01*
X30050000Y-67038072D01*
X30174482Y-67025812D01*
X30294180Y-66989502D01*
X30404494Y-66930537D01*
X30501185Y-66851185D01*
X30580537Y-66754494D01*
X30639502Y-66644180D01*
X30675812Y-66524482D01*
X30688072Y-66400000D01*
X30688072Y-64600000D01*
X30675812Y-64475518D01*
X30639502Y-64355820D01*
X30580537Y-64245506D01*
X30501185Y-64148815D01*
X30404494Y-64069463D01*
X30294180Y-64010498D01*
X30174482Y-63974188D01*
X30050000Y-63961928D01*
X26450000Y-63961928D01*
X26325518Y-63974188D01*
X26205820Y-64010498D01*
X26095506Y-64069463D01*
X25998815Y-64148815D01*
X25919463Y-64245506D01*
X25860498Y-64355820D01*
X25824188Y-64475518D01*
X25811928Y-64600000D01*
X20885000Y-64600000D01*
X20885000Y-54750000D01*
X31851470Y-54750000D01*
X31873539Y-54974067D01*
X31938897Y-55189523D01*
X32045032Y-55388089D01*
X32187867Y-55562133D01*
X32361911Y-55704968D01*
X32560477Y-55811103D01*
X32775933Y-55876461D01*
X32943854Y-55893000D01*
X33857000Y-55893000D01*
X33857001Y-61943847D01*
X33857000Y-61943855D01*
X33857000Y-63056146D01*
X33857001Y-63056155D01*
X33857001Y-64056146D01*
X33873540Y-64224067D01*
X33938898Y-64439523D01*
X34045033Y-64638089D01*
X34187868Y-64812133D01*
X34361912Y-64954968D01*
X34560478Y-65061103D01*
X34775934Y-65126461D01*
X35000000Y-65148530D01*
X35224067Y-65126461D01*
X35439523Y-65061103D01*
X35638089Y-64954968D01*
X35812133Y-64812133D01*
X35954968Y-64638089D01*
X36061103Y-64439523D01*
X36126461Y-64224067D01*
X36143000Y-64056146D01*
X36143000Y-59698061D01*
X68565000Y-59698061D01*
X68565000Y-59901939D01*
X68604774Y-60101898D01*
X68682795Y-60290256D01*
X68796063Y-60459774D01*
X68940226Y-60603937D01*
X69109744Y-60717205D01*
X69298102Y-60795226D01*
X69498061Y-60835000D01*
X69701939Y-60835000D01*
X69901898Y-60795226D01*
X70090256Y-60717205D01*
X70259774Y-60603937D01*
X70301711Y-60562000D01*
X79912577Y-60562000D01*
X79950000Y-60565686D01*
X79987423Y-60562000D01*
X79987426Y-60562000D01*
X80099378Y-60550974D01*
X80243015Y-60507402D01*
X80375392Y-60436645D01*
X80491422Y-60341422D01*
X80515284Y-60312346D01*
X81542631Y-59285000D01*
X81601939Y-59285000D01*
X81801898Y-59245226D01*
X81990256Y-59167205D01*
X82028029Y-59141966D01*
X82004778Y-59198098D01*
X81965004Y-59398057D01*
X81965004Y-59601935D01*
X82004778Y-59801894D01*
X82082799Y-59990252D01*
X82196067Y-60159770D01*
X82340230Y-60303933D01*
X82509748Y-60417201D01*
X82698106Y-60495222D01*
X82898065Y-60534996D01*
X83101943Y-60534996D01*
X83301902Y-60495222D01*
X83490260Y-60417201D01*
X83659778Y-60303933D01*
X83803941Y-60159770D01*
X83917209Y-59990252D01*
X83917729Y-59988997D01*
X89267790Y-59988997D01*
X89272367Y-59992753D01*
X89426807Y-60075303D01*
X89514481Y-60101898D01*
X89594383Y-60126136D01*
X89612731Y-60127943D01*
X89724991Y-60139000D01*
X89724997Y-60139000D01*
X89768657Y-60143300D01*
X89812317Y-60139000D01*
X104163473Y-60139000D01*
X104082795Y-60259744D01*
X104004774Y-60448102D01*
X103965000Y-60648061D01*
X103965000Y-60851939D01*
X104004774Y-61051898D01*
X104082795Y-61240256D01*
X104196063Y-61409774D01*
X104340226Y-61553937D01*
X104509744Y-61667205D01*
X104698102Y-61745226D01*
X104898061Y-61785000D01*
X105101939Y-61785000D01*
X105301898Y-61745226D01*
X105490256Y-61667205D01*
X105659774Y-61553937D01*
X105701711Y-61512000D01*
X106614838Y-61512000D01*
X106592700Y-61545132D01*
X106281598Y-62296198D01*
X106123000Y-63093526D01*
X106123000Y-63906474D01*
X106281598Y-64703802D01*
X106592700Y-65454868D01*
X107044350Y-66130809D01*
X107619191Y-66705650D01*
X108295132Y-67157300D01*
X109046198Y-67468402D01*
X109843526Y-67627000D01*
X110656474Y-67627000D01*
X111453802Y-67468402D01*
X112204868Y-67157300D01*
X112880809Y-66705650D01*
X113455650Y-66130809D01*
X113907300Y-65454868D01*
X114218402Y-64703802D01*
X114377000Y-63906474D01*
X114377000Y-63093526D01*
X114218402Y-62296198D01*
X113907300Y-61545132D01*
X113455650Y-60869191D01*
X112880809Y-60294350D01*
X112204868Y-59842700D01*
X111792025Y-59671694D01*
X111803937Y-59659782D01*
X111917205Y-59490264D01*
X111995226Y-59301906D01*
X112035000Y-59101947D01*
X112035000Y-58898069D01*
X111995226Y-58698110D01*
X111917205Y-58509752D01*
X111803937Y-58340234D01*
X111659774Y-58196071D01*
X111490256Y-58082803D01*
X111301898Y-58004782D01*
X111101939Y-57965008D01*
X110898061Y-57965008D01*
X110698102Y-58004782D01*
X110641957Y-58028038D01*
X110667205Y-57990252D01*
X110745226Y-57801894D01*
X110785000Y-57601935D01*
X110785000Y-57398057D01*
X110745226Y-57198098D01*
X110667205Y-57009740D01*
X110553937Y-56840222D01*
X110409774Y-56696059D01*
X110240256Y-56582791D01*
X110069353Y-56512000D01*
X113548289Y-56512000D01*
X113590226Y-56553937D01*
X113759744Y-56667205D01*
X113948102Y-56745226D01*
X114148061Y-56785000D01*
X114351939Y-56785000D01*
X114551898Y-56745226D01*
X114740256Y-56667205D01*
X114909774Y-56553937D01*
X115053937Y-56409774D01*
X115167205Y-56240256D01*
X115245226Y-56051898D01*
X115285000Y-55851939D01*
X115285000Y-55648061D01*
X115245226Y-55448102D01*
X115167205Y-55259744D01*
X115053937Y-55090226D01*
X114909774Y-54946063D01*
X114740256Y-54832795D01*
X114551898Y-54754774D01*
X114351939Y-54715000D01*
X114148061Y-54715000D01*
X113948102Y-54754774D01*
X113759744Y-54832795D01*
X113590226Y-54946063D01*
X113548289Y-54988000D01*
X109451711Y-54988000D01*
X109409774Y-54946063D01*
X109240256Y-54832795D01*
X109051898Y-54754774D01*
X108851939Y-54715000D01*
X108648061Y-54715000D01*
X108448102Y-54754774D01*
X108259744Y-54832795D01*
X108090226Y-54946063D01*
X107946063Y-55090226D01*
X107832795Y-55259744D01*
X107754774Y-55448102D01*
X107715000Y-55648061D01*
X107715000Y-55851939D01*
X107754774Y-56051898D01*
X107832795Y-56240256D01*
X107946063Y-56409774D01*
X108090226Y-56553937D01*
X108259744Y-56667205D01*
X108430647Y-56737996D01*
X107930216Y-56737996D01*
X107892793Y-56734310D01*
X107855370Y-56737996D01*
X107855368Y-56737996D01*
X107743416Y-56749022D01*
X107599779Y-56792594D01*
X107467402Y-56863351D01*
X107351372Y-56958574D01*
X107327510Y-56987650D01*
X106957370Y-57357790D01*
X106898061Y-57357790D01*
X106698102Y-57397564D01*
X106509744Y-57475585D01*
X106340226Y-57588853D01*
X106196063Y-57733016D01*
X106082795Y-57902534D01*
X106004774Y-58090892D01*
X105965000Y-58290851D01*
X105965000Y-58361000D01*
X90119523Y-58361000D01*
X90114946Y-58357244D01*
X89960506Y-58274694D01*
X89792929Y-58223861D01*
X89662322Y-58210997D01*
X89662315Y-58210997D01*
X89618655Y-58206697D01*
X89574995Y-58210997D01*
X83443662Y-58210997D01*
X83400002Y-58206697D01*
X83356342Y-58210997D01*
X83356336Y-58210997D01*
X83244076Y-58222054D01*
X83225728Y-58223861D01*
X83161277Y-58243412D01*
X83058152Y-58274694D01*
X82903712Y-58357244D01*
X82768344Y-58468338D01*
X82746315Y-58495181D01*
X82698106Y-58504770D01*
X82509748Y-58582791D01*
X82471975Y-58608030D01*
X82495226Y-58551898D01*
X82535000Y-58351939D01*
X82535000Y-58292630D01*
X83530042Y-57297589D01*
X87638781Y-57297589D01*
X87680718Y-57339526D01*
X87850236Y-57452794D01*
X88038594Y-57530815D01*
X88238553Y-57570589D01*
X88442431Y-57570589D01*
X88642390Y-57530815D01*
X88830748Y-57452794D01*
X89000266Y-57339526D01*
X89144429Y-57195363D01*
X89257697Y-57025845D01*
X89335718Y-56837487D01*
X89375492Y-56637528D01*
X89375492Y-56433650D01*
X89335718Y-56233691D01*
X89257697Y-56045333D01*
X89144429Y-55875815D01*
X89000266Y-55731652D01*
X88830748Y-55618384D01*
X88642390Y-55540363D01*
X88442431Y-55500589D01*
X88238553Y-55500589D01*
X88038594Y-55540363D01*
X87850236Y-55618384D01*
X87680718Y-55731652D01*
X87638781Y-55773589D01*
X83251833Y-55773589D01*
X83214410Y-55769903D01*
X83176987Y-55773589D01*
X83176985Y-55773589D01*
X83065033Y-55784615D01*
X82921396Y-55828187D01*
X82789019Y-55898944D01*
X82672989Y-55994167D01*
X82649132Y-56023237D01*
X81457370Y-57215000D01*
X81398061Y-57215000D01*
X81198102Y-57254774D01*
X81009744Y-57332795D01*
X80840226Y-57446063D01*
X80696063Y-57590226D01*
X80582795Y-57759744D01*
X80504774Y-57948102D01*
X80465000Y-58148061D01*
X80465000Y-58207369D01*
X79634370Y-59038000D01*
X70301711Y-59038000D01*
X70259774Y-58996063D01*
X70090256Y-58882795D01*
X69901898Y-58804774D01*
X69701939Y-58765000D01*
X69498061Y-58765000D01*
X69298102Y-58804774D01*
X69109744Y-58882795D01*
X68940226Y-58996063D01*
X68796063Y-59140226D01*
X68682795Y-59309744D01*
X68604774Y-59498102D01*
X68565000Y-59698061D01*
X36143000Y-59698061D01*
X36143000Y-56498061D01*
X68165002Y-56498061D01*
X68165002Y-56701939D01*
X68204776Y-56901898D01*
X68282797Y-57090256D01*
X68396065Y-57259774D01*
X68540228Y-57403937D01*
X68709746Y-57517205D01*
X68898104Y-57595226D01*
X69098063Y-57635000D01*
X69301941Y-57635000D01*
X69501900Y-57595226D01*
X69690258Y-57517205D01*
X69859776Y-57403937D01*
X69901713Y-57362000D01*
X79632894Y-57362000D01*
X79670317Y-57365686D01*
X79707740Y-57362000D01*
X79707743Y-57362000D01*
X79819695Y-57350974D01*
X79963332Y-57307402D01*
X80095709Y-57236645D01*
X80211739Y-57141422D01*
X80235601Y-57112346D01*
X81389514Y-55958434D01*
X81448822Y-55958434D01*
X81648781Y-55918660D01*
X81837139Y-55840639D01*
X82006657Y-55727371D01*
X82150820Y-55583208D01*
X82264088Y-55413690D01*
X82342109Y-55225332D01*
X82381883Y-55025373D01*
X82381883Y-54821495D01*
X82342109Y-54621536D01*
X82264088Y-54433178D01*
X82150820Y-54263660D01*
X82006657Y-54119497D01*
X81837139Y-54006229D01*
X81648781Y-53928208D01*
X81448822Y-53888434D01*
X81244944Y-53888434D01*
X81044985Y-53928208D01*
X80856627Y-54006229D01*
X80687109Y-54119497D01*
X80542946Y-54263660D01*
X80429678Y-54433178D01*
X80351657Y-54621536D01*
X80311883Y-54821495D01*
X80311883Y-54880803D01*
X79354687Y-55838000D01*
X69901713Y-55838000D01*
X69859776Y-55796063D01*
X69690258Y-55682795D01*
X69501900Y-55604774D01*
X69301941Y-55565000D01*
X69098063Y-55565000D01*
X68898104Y-55604774D01*
X68709746Y-55682795D01*
X68540228Y-55796063D01*
X68396065Y-55940226D01*
X68282797Y-56109744D01*
X68204776Y-56298102D01*
X68165002Y-56498061D01*
X36143000Y-56498061D01*
X36143000Y-55148059D01*
X39715000Y-55148059D01*
X39715000Y-55351937D01*
X39754774Y-55551896D01*
X39832795Y-55740254D01*
X39946063Y-55909772D01*
X40090226Y-56053935D01*
X40259744Y-56167203D01*
X40448102Y-56245224D01*
X40648061Y-56284998D01*
X40851939Y-56284998D01*
X41051898Y-56245224D01*
X41240256Y-56167203D01*
X41409774Y-56053935D01*
X41553937Y-55909772D01*
X41667205Y-55740254D01*
X41745226Y-55551896D01*
X41785000Y-55351937D01*
X41785000Y-55148059D01*
X41745226Y-54948100D01*
X41667205Y-54759742D01*
X41553937Y-54590224D01*
X41512000Y-54548287D01*
X41512000Y-54065630D01*
X41565630Y-54012000D01*
X58184376Y-54012000D01*
X58965000Y-54792625D01*
X58965000Y-54851933D01*
X59004774Y-55051892D01*
X59082795Y-55240250D01*
X59196063Y-55409768D01*
X59340226Y-55553931D01*
X59509744Y-55667199D01*
X59698102Y-55745220D01*
X59898061Y-55784994D01*
X60101939Y-55784994D01*
X60301898Y-55745220D01*
X60490256Y-55667199D01*
X60659774Y-55553931D01*
X60803937Y-55409768D01*
X60917205Y-55240250D01*
X60995226Y-55051892D01*
X61035000Y-54851933D01*
X61035000Y-54648055D01*
X60995226Y-54448096D01*
X60917205Y-54259738D01*
X60803937Y-54090220D01*
X60659774Y-53946057D01*
X60490256Y-53832789D01*
X60301898Y-53754768D01*
X60101939Y-53714994D01*
X60042631Y-53714994D01*
X59065290Y-52737654D01*
X59041428Y-52708578D01*
X58925398Y-52613355D01*
X58793021Y-52542598D01*
X58649384Y-52499026D01*
X58537432Y-52488000D01*
X58537429Y-52488000D01*
X58500006Y-52484314D01*
X58462583Y-52488000D01*
X41287423Y-52488000D01*
X41250000Y-52484314D01*
X41212577Y-52488000D01*
X41212574Y-52488000D01*
X41100622Y-52499026D01*
X40956985Y-52542598D01*
X40895364Y-52575535D01*
X40824607Y-52613355D01*
X40796229Y-52636645D01*
X40708578Y-52708578D01*
X40684716Y-52737654D01*
X40237649Y-53184721D01*
X40208579Y-53208578D01*
X40184722Y-53237648D01*
X40184721Y-53237649D01*
X40113355Y-53324608D01*
X40042599Y-53456985D01*
X39999027Y-53600622D01*
X39984314Y-53750000D01*
X39988001Y-53787433D01*
X39988000Y-54548287D01*
X39946063Y-54590224D01*
X39832795Y-54759742D01*
X39754774Y-54948100D01*
X39715000Y-55148059D01*
X36143000Y-55148059D01*
X36143000Y-54806146D01*
X36148530Y-54750000D01*
X36126461Y-54525933D01*
X36061103Y-54310477D01*
X35954968Y-54111911D01*
X35812133Y-53937867D01*
X35638089Y-53795032D01*
X35439523Y-53688897D01*
X35224067Y-53623539D01*
X35056146Y-53607000D01*
X35000000Y-53601470D01*
X34943854Y-53607000D01*
X32943854Y-53607000D01*
X32775933Y-53623539D01*
X32560477Y-53688897D01*
X32361911Y-53795032D01*
X32187867Y-53937867D01*
X32045032Y-54111911D01*
X31938897Y-54310477D01*
X31873539Y-54525933D01*
X31851470Y-54750000D01*
X20885000Y-54750000D01*
X20885000Y-51898061D01*
X79715000Y-51898061D01*
X79715000Y-52101939D01*
X79754774Y-52301898D01*
X79832795Y-52490256D01*
X79946063Y-52659774D01*
X80090226Y-52803937D01*
X80259744Y-52917205D01*
X80448102Y-52995226D01*
X80648061Y-53035000D01*
X80851939Y-53035000D01*
X81051898Y-52995226D01*
X81240256Y-52917205D01*
X81409774Y-52803937D01*
X81451711Y-52762000D01*
X82347324Y-52762000D01*
X82446063Y-52909774D01*
X82590226Y-53053937D01*
X82759744Y-53167205D01*
X82948102Y-53245226D01*
X83148061Y-53285000D01*
X83351939Y-53285000D01*
X83551898Y-53245226D01*
X83740256Y-53167205D01*
X83909774Y-53053937D01*
X84053937Y-52909774D01*
X84167205Y-52740256D01*
X84245226Y-52551898D01*
X84285000Y-52351939D01*
X84285000Y-52148061D01*
X84245226Y-51948102D01*
X84188133Y-51810269D01*
X96232639Y-51810269D01*
X97215000Y-52792631D01*
X97215000Y-52851939D01*
X97254774Y-53051898D01*
X97332795Y-53240256D01*
X97446063Y-53409774D01*
X97590226Y-53553937D01*
X97759744Y-53667205D01*
X97948102Y-53745226D01*
X98148061Y-53785000D01*
X98351939Y-53785000D01*
X98551898Y-53745226D01*
X98740256Y-53667205D01*
X98909774Y-53553937D01*
X99053937Y-53409774D01*
X99167205Y-53240256D01*
X99245226Y-53051898D01*
X99285000Y-52851939D01*
X99285000Y-52648061D01*
X99245226Y-52448102D01*
X99167205Y-52259744D01*
X99053937Y-52090226D01*
X98909774Y-51946063D01*
X98740256Y-51832795D01*
X98551898Y-51754774D01*
X98351939Y-51715000D01*
X98292631Y-51715000D01*
X97113553Y-50535923D01*
X97089691Y-50506847D01*
X96973661Y-50411624D01*
X96841284Y-50340867D01*
X96697647Y-50297295D01*
X96585695Y-50286269D01*
X96585692Y-50286269D01*
X96548269Y-50282583D01*
X96510846Y-50286269D01*
X81768951Y-50286269D01*
X81727014Y-50244332D01*
X81557496Y-50131064D01*
X81369138Y-50053043D01*
X81169179Y-50013269D01*
X80965301Y-50013269D01*
X80765342Y-50053043D01*
X80576984Y-50131064D01*
X80407466Y-50244332D01*
X80263303Y-50388495D01*
X80150035Y-50558013D01*
X80072014Y-50746371D01*
X80032240Y-50946330D01*
X80032240Y-51150208D01*
X80049468Y-51236821D01*
X79946063Y-51340226D01*
X79832795Y-51509744D01*
X79754774Y-51698102D01*
X79715000Y-51898061D01*
X20885000Y-51898061D01*
X20885000Y-47242702D01*
X41686903Y-47242702D01*
X41758486Y-47486671D01*
X42013996Y-47607571D01*
X42288184Y-47676300D01*
X42570512Y-47690217D01*
X42850130Y-47648787D01*
X43116292Y-47553603D01*
X43241514Y-47486671D01*
X43313097Y-47242702D01*
X42500000Y-46429605D01*
X41686903Y-47242702D01*
X20885000Y-47242702D01*
X20885000Y-46320512D01*
X41059783Y-46320512D01*
X41101213Y-46600130D01*
X41196397Y-46866292D01*
X41263329Y-46991514D01*
X41507298Y-47063097D01*
X42320395Y-46250000D01*
X42679605Y-46250000D01*
X43492702Y-47063097D01*
X43736671Y-46991514D01*
X43857571Y-46736004D01*
X43926300Y-46461816D01*
X43940217Y-46179488D01*
X43898787Y-45899870D01*
X43803603Y-45633708D01*
X43736671Y-45508486D01*
X43492702Y-45436903D01*
X42679605Y-46250000D01*
X42320395Y-46250000D01*
X41507298Y-45436903D01*
X41263329Y-45508486D01*
X41142429Y-45763996D01*
X41073700Y-46038184D01*
X41059783Y-46320512D01*
X20885000Y-46320512D01*
X20885000Y-42950000D01*
X41061928Y-42950000D01*
X41061928Y-44550000D01*
X41074188Y-44674482D01*
X41110498Y-44794180D01*
X41169463Y-44904494D01*
X41248815Y-45001185D01*
X41345506Y-45080537D01*
X41455820Y-45139502D01*
X41575518Y-45175812D01*
X41700000Y-45188072D01*
X41707215Y-45188072D01*
X41686903Y-45257298D01*
X42500000Y-46070395D01*
X43313097Y-45257298D01*
X43292785Y-45188072D01*
X43300000Y-45188072D01*
X43424482Y-45175812D01*
X43544180Y-45139502D01*
X43654494Y-45080537D01*
X43751185Y-45001185D01*
X43830537Y-44904494D01*
X43889502Y-44794180D01*
X43925812Y-44674482D01*
X43938072Y-44550000D01*
X43938072Y-42950000D01*
X43925812Y-42825518D01*
X43889502Y-42705820D01*
X43830537Y-42595506D01*
X43751185Y-42498815D01*
X43654494Y-42419463D01*
X43544180Y-42360498D01*
X43424482Y-42324188D01*
X43300000Y-42311928D01*
X41700000Y-42311928D01*
X41575518Y-42324188D01*
X41455820Y-42360498D01*
X41345506Y-42419463D01*
X41248815Y-42498815D01*
X41169463Y-42595506D01*
X41110498Y-42705820D01*
X41074188Y-42825518D01*
X41061928Y-42950000D01*
X20885000Y-42950000D01*
X20885000Y-35398061D01*
X25715000Y-35398061D01*
X25715000Y-35601939D01*
X25754774Y-35801898D01*
X25832795Y-35990256D01*
X25924500Y-36127503D01*
X25924501Y-40959440D01*
X25920506Y-41000000D01*
X25936445Y-41161826D01*
X25983647Y-41317433D01*
X26060301Y-41460842D01*
X26079419Y-41484137D01*
X26114778Y-41661902D01*
X26192799Y-41850260D01*
X26306067Y-42019778D01*
X26450230Y-42163941D01*
X26619748Y-42277209D01*
X26808106Y-42355230D01*
X27008065Y-42395004D01*
X27211943Y-42395004D01*
X27411902Y-42355230D01*
X27600260Y-42277209D01*
X27769778Y-42163941D01*
X27913941Y-42019778D01*
X28027209Y-41850260D01*
X28105230Y-41661902D01*
X28145004Y-41461943D01*
X28145004Y-41258065D01*
X28105230Y-41058106D01*
X28027209Y-40869748D01*
X27913941Y-40700230D01*
X27769778Y-40556067D01*
X27600260Y-40442799D01*
X27575500Y-40432543D01*
X27575500Y-36127503D01*
X27667205Y-35990256D01*
X27745226Y-35801898D01*
X27785000Y-35601939D01*
X27785000Y-35398061D01*
X27745226Y-35198102D01*
X27667205Y-35009744D01*
X27553937Y-34840226D01*
X27409774Y-34696063D01*
X27240256Y-34582795D01*
X27051898Y-34504774D01*
X26851939Y-34465000D01*
X26648061Y-34465000D01*
X26448102Y-34504774D01*
X26259744Y-34582795D01*
X26090226Y-34696063D01*
X25946063Y-34840226D01*
X25832795Y-35009744D01*
X25754774Y-35198102D01*
X25715000Y-35398061D01*
X20885000Y-35398061D01*
X20885000Y-34398061D01*
X30215000Y-34398061D01*
X30215000Y-34601939D01*
X30254774Y-34801898D01*
X30332795Y-34990256D01*
X30446063Y-35159774D01*
X30590226Y-35303937D01*
X30674501Y-35360248D01*
X30674500Y-40872497D01*
X30582795Y-41009744D01*
X30504774Y-41198102D01*
X30465000Y-41398061D01*
X30465000Y-41601939D01*
X30504774Y-41801898D01*
X30582795Y-41990256D01*
X30696063Y-42159774D01*
X30840226Y-42303937D01*
X31009744Y-42417205D01*
X31198102Y-42495226D01*
X31398061Y-42535000D01*
X31601939Y-42535000D01*
X31801898Y-42495226D01*
X31990256Y-42417205D01*
X32159774Y-42303937D01*
X32303937Y-42159774D01*
X32417205Y-41990256D01*
X32495226Y-41801898D01*
X32535000Y-41601939D01*
X32535000Y-41598061D01*
X44365000Y-41598061D01*
X44365000Y-41801939D01*
X44404774Y-42001898D01*
X44482795Y-42190256D01*
X44596063Y-42359774D01*
X44740226Y-42503937D01*
X44909744Y-42617205D01*
X45098102Y-42695226D01*
X45298061Y-42735000D01*
X45501939Y-42735000D01*
X45701898Y-42695226D01*
X45890256Y-42617205D01*
X45932468Y-42589000D01*
X46676519Y-42589000D01*
X46369191Y-42794350D01*
X45794350Y-43369191D01*
X45342700Y-44045132D01*
X45031598Y-44796198D01*
X44873000Y-45593526D01*
X44873000Y-46406474D01*
X45031598Y-47203802D01*
X45342700Y-47954868D01*
X45794350Y-48630809D01*
X46369191Y-49205650D01*
X47045132Y-49657300D01*
X47796198Y-49968402D01*
X48593526Y-50127000D01*
X49406474Y-50127000D01*
X50203802Y-49968402D01*
X50954868Y-49657300D01*
X51630809Y-49205650D01*
X52205650Y-48630809D01*
X52657300Y-47954868D01*
X52968402Y-47203802D01*
X53127000Y-46406474D01*
X53127000Y-46148061D01*
X68715000Y-46148061D01*
X68715000Y-46351939D01*
X68754774Y-46551898D01*
X68832795Y-46740256D01*
X68946063Y-46909774D01*
X69090226Y-47053937D01*
X69259744Y-47167205D01*
X69448102Y-47245226D01*
X69648061Y-47285000D01*
X69707370Y-47285000D01*
X72816422Y-50394053D01*
X72840279Y-50423123D01*
X72869349Y-50446980D01*
X72956308Y-50518346D01*
X72999580Y-50541475D01*
X73088686Y-50589103D01*
X73232323Y-50632675D01*
X73344275Y-50643701D01*
X73344278Y-50643701D01*
X73381701Y-50647387D01*
X73419124Y-50643701D01*
X75182005Y-50643701D01*
X75223942Y-50685638D01*
X75393460Y-50798906D01*
X75581818Y-50876927D01*
X75781777Y-50916701D01*
X75985655Y-50916701D01*
X76185614Y-50876927D01*
X76373972Y-50798906D01*
X76543490Y-50685638D01*
X76687653Y-50541475D01*
X76800921Y-50371957D01*
X76878942Y-50183599D01*
X76897164Y-50091988D01*
X77009744Y-50167211D01*
X77198102Y-50245232D01*
X77398061Y-50285006D01*
X77601939Y-50285006D01*
X77801898Y-50245232D01*
X77990256Y-50167211D01*
X78159774Y-50053943D01*
X78303937Y-49909780D01*
X78417205Y-49740262D01*
X78495226Y-49551904D01*
X78535000Y-49351945D01*
X78535000Y-49148067D01*
X78495226Y-48948108D01*
X78417205Y-48759750D01*
X78303937Y-48590232D01*
X78159774Y-48446069D01*
X77990256Y-48332801D01*
X77801898Y-48254780D01*
X77601939Y-48215006D01*
X77398061Y-48215006D01*
X77198102Y-48254780D01*
X77009744Y-48332801D01*
X76840226Y-48446069D01*
X76798289Y-48488006D01*
X76565637Y-48488006D01*
X75512000Y-47434370D01*
X75512000Y-46250000D01*
X79611928Y-46250000D01*
X79611928Y-47750000D01*
X79624188Y-47874482D01*
X79660498Y-47994180D01*
X79719463Y-48104494D01*
X79798815Y-48201185D01*
X79895506Y-48280537D01*
X80005820Y-48339502D01*
X80125518Y-48375812D01*
X80250000Y-48388072D01*
X81750000Y-48388072D01*
X81874482Y-48375812D01*
X81934438Y-48357625D01*
X81832795Y-48509744D01*
X81754774Y-48698102D01*
X81715000Y-48898061D01*
X81715000Y-49101939D01*
X81754774Y-49301898D01*
X81832795Y-49490256D01*
X81946063Y-49659774D01*
X82090226Y-49803937D01*
X82259744Y-49917205D01*
X82448102Y-49995226D01*
X82648061Y-50035000D01*
X82851939Y-50035000D01*
X83051898Y-49995226D01*
X83240256Y-49917205D01*
X83409774Y-49803937D01*
X83451711Y-49762000D01*
X88548289Y-49762000D01*
X88590226Y-49803937D01*
X88759744Y-49917205D01*
X88948102Y-49995226D01*
X89148061Y-50035000D01*
X89351939Y-50035000D01*
X89551898Y-49995226D01*
X89740256Y-49917205D01*
X89909774Y-49803937D01*
X90053937Y-49659774D01*
X90167205Y-49490256D01*
X90245226Y-49301898D01*
X90285000Y-49101939D01*
X90285000Y-48898061D01*
X90245226Y-48698102D01*
X90167205Y-48509744D01*
X90053937Y-48340226D01*
X89909774Y-48196063D01*
X89740256Y-48082795D01*
X89551898Y-48004774D01*
X89351939Y-47965000D01*
X89148061Y-47965000D01*
X88948102Y-48004774D01*
X88759744Y-48082795D01*
X88590226Y-48196063D01*
X88548289Y-48238000D01*
X85450382Y-48238000D01*
X85476043Y-48227371D01*
X85702886Y-48075799D01*
X85895799Y-47882886D01*
X85934143Y-47825500D01*
X87209450Y-47825500D01*
X87250000Y-47829494D01*
X87290550Y-47825500D01*
X87290553Y-47825500D01*
X87411826Y-47813556D01*
X87567434Y-47766353D01*
X87710842Y-47689699D01*
X87836541Y-47586541D01*
X87862398Y-47555034D01*
X88890004Y-46527428D01*
X89051898Y-46495226D01*
X89240256Y-46417205D01*
X89409774Y-46303937D01*
X89451711Y-46262000D01*
X90239902Y-46262000D01*
X90264579Y-46386063D01*
X90342600Y-46574421D01*
X90455868Y-46743939D01*
X90600031Y-46888102D01*
X90769549Y-47001370D01*
X90957907Y-47079391D01*
X91157866Y-47119165D01*
X91361744Y-47119165D01*
X91561703Y-47079391D01*
X91750061Y-47001370D01*
X91919579Y-46888102D01*
X92063742Y-46743939D01*
X92177010Y-46574421D01*
X92255031Y-46386063D01*
X92294805Y-46186104D01*
X92294805Y-45982226D01*
X92255031Y-45782267D01*
X92177010Y-45593909D01*
X92063742Y-45424391D01*
X91919579Y-45280228D01*
X91750061Y-45166960D01*
X91561703Y-45088939D01*
X91361744Y-45049165D01*
X91302435Y-45049165D01*
X91240924Y-44987654D01*
X91217062Y-44958578D01*
X91101032Y-44863355D01*
X90968655Y-44792598D01*
X90825018Y-44749026D01*
X90713066Y-44738000D01*
X90713063Y-44738000D01*
X90675640Y-44734314D01*
X90638217Y-44738000D01*
X89451711Y-44738000D01*
X89409774Y-44696063D01*
X89240256Y-44582795D01*
X89051898Y-44504774D01*
X88851939Y-44465000D01*
X88648061Y-44465000D01*
X88448102Y-44504774D01*
X88259744Y-44582795D01*
X88090226Y-44696063D01*
X87946063Y-44840226D01*
X87832795Y-45009744D01*
X87754774Y-45198102D01*
X87722572Y-45359996D01*
X86908068Y-46174500D01*
X85934143Y-46174500D01*
X85895799Y-46117114D01*
X85702886Y-45924201D01*
X85476043Y-45772629D01*
X85223989Y-45668225D01*
X84956411Y-45615000D01*
X84683589Y-45615000D01*
X84416011Y-45668225D01*
X84163957Y-45772629D01*
X83937114Y-45924201D01*
X83869305Y-45992011D01*
X83803843Y-45926549D01*
X83687387Y-46043005D01*
X83621863Y-45804140D01*
X83374884Y-45688240D01*
X83110040Y-45622750D01*
X82837508Y-45610188D01*
X82567762Y-45651035D01*
X82311168Y-45743723D01*
X82203293Y-45801384D01*
X82201185Y-45798815D01*
X82104494Y-45719463D01*
X81994180Y-45660498D01*
X81874482Y-45624188D01*
X81750000Y-45611928D01*
X80250000Y-45611928D01*
X80125518Y-45624188D01*
X80005820Y-45660498D01*
X79895506Y-45719463D01*
X79798815Y-45798815D01*
X79719463Y-45895506D01*
X79660498Y-46005820D01*
X79624188Y-46125518D01*
X79611928Y-46250000D01*
X75512000Y-46250000D01*
X75512000Y-44701711D01*
X75553937Y-44659774D01*
X75667205Y-44490256D01*
X75745226Y-44301898D01*
X75785000Y-44101939D01*
X75785000Y-43898061D01*
X75782485Y-43885413D01*
X102294192Y-43885413D01*
X102389956Y-44149814D01*
X102679571Y-44290704D01*
X102991108Y-44372384D01*
X103312595Y-44391718D01*
X103631675Y-44347961D01*
X103936088Y-44242795D01*
X104110044Y-44149814D01*
X104205808Y-43885413D01*
X103250000Y-42929605D01*
X102294192Y-43885413D01*
X75782485Y-43885413D01*
X75745226Y-43698102D01*
X75667205Y-43509744D01*
X75553937Y-43340226D01*
X75409774Y-43196063D01*
X75240256Y-43082795D01*
X75051898Y-43004774D01*
X74851939Y-42965000D01*
X74648061Y-42965000D01*
X74448102Y-43004774D01*
X74259744Y-43082795D01*
X74090226Y-43196063D01*
X73946063Y-43340226D01*
X73832795Y-43509744D01*
X73754774Y-43698102D01*
X73715000Y-43898061D01*
X73715000Y-44101939D01*
X73754774Y-44301898D01*
X73832795Y-44490256D01*
X73946063Y-44659774D01*
X73988000Y-44701711D01*
X73988001Y-47031370D01*
X73414000Y-46457370D01*
X73414000Y-46398061D01*
X73374226Y-46198102D01*
X73296205Y-46009744D01*
X73182937Y-45840226D01*
X73038774Y-45696063D01*
X72869256Y-45582795D01*
X72680898Y-45504774D01*
X72480939Y-45465000D01*
X72277061Y-45465000D01*
X72077102Y-45504774D01*
X71888744Y-45582795D01*
X71719226Y-45696063D01*
X71575063Y-45840226D01*
X71461795Y-46009744D01*
X71383774Y-46198102D01*
X71344000Y-46398061D01*
X71344000Y-46601939D01*
X71383774Y-46801898D01*
X71386776Y-46809146D01*
X70785000Y-46207370D01*
X70785000Y-46148061D01*
X70745226Y-45948102D01*
X70667205Y-45759744D01*
X70553937Y-45590226D01*
X70409774Y-45446063D01*
X70240256Y-45332795D01*
X70051898Y-45254774D01*
X69851939Y-45215000D01*
X69648061Y-45215000D01*
X69448102Y-45254774D01*
X69259744Y-45332795D01*
X69090226Y-45446063D01*
X68946063Y-45590226D01*
X68832795Y-45759744D01*
X68754774Y-45948102D01*
X68715000Y-46148061D01*
X53127000Y-46148061D01*
X53127000Y-45593526D01*
X52968402Y-44796198D01*
X52657300Y-44045132D01*
X52205650Y-43369191D01*
X51649054Y-42812595D01*
X101608282Y-42812595D01*
X101652039Y-43131675D01*
X101757205Y-43436088D01*
X101850186Y-43610044D01*
X102114587Y-43705808D01*
X103070395Y-42750000D01*
X103429605Y-42750000D01*
X104385413Y-43705808D01*
X104649814Y-43610044D01*
X104790704Y-43320429D01*
X104872384Y-43008892D01*
X104891718Y-42687405D01*
X104847961Y-42368325D01*
X104742795Y-42063912D01*
X104649814Y-41889956D01*
X104385413Y-41794192D01*
X103429605Y-42750000D01*
X103070395Y-42750000D01*
X102114587Y-41794192D01*
X101850186Y-41889956D01*
X101709296Y-42179571D01*
X101627616Y-42491108D01*
X101608282Y-42812595D01*
X51649054Y-42812595D01*
X51630809Y-42794350D01*
X50954868Y-42342700D01*
X50643961Y-42213918D01*
X50681863Y-42157194D01*
X50759884Y-41968836D01*
X50799658Y-41768877D01*
X50799658Y-41614587D01*
X102294192Y-41614587D01*
X103250000Y-42570395D01*
X104205808Y-41614587D01*
X104110044Y-41350186D01*
X103820429Y-41209296D01*
X103508892Y-41127616D01*
X103187405Y-41108282D01*
X102868325Y-41152039D01*
X102563912Y-41257205D01*
X102389956Y-41350186D01*
X102294192Y-41614587D01*
X50799658Y-41614587D01*
X50799658Y-41564999D01*
X50759884Y-41365040D01*
X50681863Y-41176682D01*
X50568595Y-41007164D01*
X50424432Y-40863001D01*
X50254914Y-40749733D01*
X50066556Y-40671712D01*
X49866597Y-40631938D01*
X49662719Y-40631938D01*
X49462760Y-40671712D01*
X49274402Y-40749733D01*
X49182709Y-40811000D01*
X45932468Y-40811000D01*
X45890256Y-40782795D01*
X45701898Y-40704774D01*
X45501939Y-40665000D01*
X45298061Y-40665000D01*
X45098102Y-40704774D01*
X44909744Y-40782795D01*
X44740226Y-40896063D01*
X44596063Y-41040226D01*
X44482795Y-41209744D01*
X44404774Y-41398102D01*
X44365000Y-41598061D01*
X32535000Y-41598061D01*
X32535000Y-41398061D01*
X32495226Y-41198102D01*
X32417205Y-41009744D01*
X32325500Y-40872497D01*
X32325500Y-40398061D01*
X63465000Y-40398061D01*
X63465000Y-40601939D01*
X63504774Y-40801898D01*
X63582795Y-40990256D01*
X63696063Y-41159774D01*
X63840226Y-41303937D01*
X64009744Y-41417205D01*
X64198102Y-41495226D01*
X64398061Y-41535000D01*
X64601939Y-41535000D01*
X64801898Y-41495226D01*
X64990256Y-41417205D01*
X65131179Y-41323044D01*
X65227511Y-41313556D01*
X65383119Y-41266353D01*
X65526527Y-41189699D01*
X65604754Y-41125500D01*
X68472497Y-41125500D01*
X68609744Y-41217205D01*
X68798102Y-41295226D01*
X68998061Y-41335000D01*
X69201939Y-41335000D01*
X69401898Y-41295226D01*
X69590256Y-41217205D01*
X69759774Y-41103937D01*
X69903937Y-40959774D01*
X70017205Y-40790256D01*
X70095226Y-40601898D01*
X70135000Y-40401939D01*
X70135000Y-40198061D01*
X70095226Y-39998102D01*
X70017205Y-39809744D01*
X69903937Y-39640226D01*
X69759774Y-39496063D01*
X69590256Y-39382795D01*
X69401898Y-39304774D01*
X69201939Y-39265000D01*
X68998061Y-39265000D01*
X68798102Y-39304774D01*
X68609744Y-39382795D01*
X68472497Y-39474500D01*
X65306235Y-39474500D01*
X65265685Y-39470506D01*
X65225134Y-39474500D01*
X65225132Y-39474500D01*
X65103859Y-39486444D01*
X64948251Y-39533647D01*
X64914787Y-39551534D01*
X64801898Y-39504774D01*
X64601939Y-39465000D01*
X64398061Y-39465000D01*
X64198102Y-39504774D01*
X64009744Y-39582795D01*
X63840226Y-39696063D01*
X63696063Y-39840226D01*
X63582795Y-40009744D01*
X63504774Y-40198102D01*
X63465000Y-40398061D01*
X32325500Y-40398061D01*
X32325500Y-34790542D01*
X32329493Y-34749999D01*
X32325500Y-34709456D01*
X32325500Y-34709447D01*
X32313556Y-34588174D01*
X32285000Y-34494037D01*
X32285000Y-34398061D01*
X32245226Y-34198102D01*
X32167205Y-34009744D01*
X32053937Y-33840226D01*
X31909774Y-33696063D01*
X31740256Y-33582795D01*
X31551898Y-33504774D01*
X31351939Y-33465000D01*
X31148061Y-33465000D01*
X30948102Y-33504774D01*
X30759744Y-33582795D01*
X30590226Y-33696063D01*
X30446063Y-33840226D01*
X30332795Y-34009744D01*
X30254774Y-34198102D01*
X30215000Y-34398061D01*
X20885000Y-34398061D01*
X20885000Y-20885000D01*
X64623000Y-20885000D01*
X64623000Y-35500000D01*
X64623000Y-35500000D01*
G37*
X64623000Y-35500000D02*
X64644655Y-35719867D01*
X64708788Y-35931284D01*
X64812934Y-36126128D01*
X64953091Y-36296909D01*
X65123872Y-36437066D01*
X65318716Y-36541212D01*
X65530133Y-36605345D01*
X65750000Y-36627000D01*
X82500000Y-36627000D01*
X82719867Y-36605345D01*
X82931284Y-36541212D01*
X83100394Y-36450821D01*
X83280133Y-36505345D01*
X83500000Y-36527000D01*
X97273000Y-36527000D01*
X97273000Y-39200000D01*
X97294655Y-39419867D01*
X97358788Y-39631284D01*
X97462934Y-39826128D01*
X97603091Y-39996909D01*
X97773872Y-40137066D01*
X97968716Y-40241212D01*
X98180133Y-40305345D01*
X98400000Y-40327000D01*
X119115000Y-40327000D01*
X119115001Y-84115000D01*
X108127000Y-84115000D01*
X108127000Y-70250000D01*
X108124560Y-70225224D01*
X108117333Y-70201399D01*
X108105597Y-70179443D01*
X108089803Y-70160197D01*
X108070557Y-70144403D01*
X108048601Y-70132667D01*
X108024776Y-70125440D01*
X108000000Y-70123000D01*
X98377000Y-70123000D01*
X98377000Y-61000000D01*
X98374560Y-60975224D01*
X98367333Y-60951399D01*
X98355597Y-60929443D01*
X98339803Y-60910197D01*
X98320557Y-60894403D01*
X98298601Y-60882667D01*
X98274776Y-60875440D01*
X98250000Y-60873000D01*
X66000000Y-60873000D01*
X65975224Y-60875440D01*
X65951399Y-60882667D01*
X65929443Y-60894403D01*
X65910197Y-60910197D01*
X65894403Y-60929443D01*
X65882667Y-60951399D01*
X65875440Y-60975224D01*
X65873000Y-61000000D01*
X65873000Y-84115000D01*
X20885000Y-84115000D01*
X20885000Y-80648061D01*
X30465000Y-80648061D01*
X30465000Y-80851939D01*
X30504774Y-81051898D01*
X30582795Y-81240256D01*
X30696063Y-81409774D01*
X30840226Y-81553937D01*
X31009744Y-81667205D01*
X31198102Y-81745226D01*
X31398061Y-81785000D01*
X31601939Y-81785000D01*
X31801898Y-81745226D01*
X31990256Y-81667205D01*
X32159774Y-81553937D01*
X32303937Y-81409774D01*
X32417205Y-81240256D01*
X32495226Y-81051898D01*
X32535000Y-80851939D01*
X32535000Y-80648061D01*
X32495226Y-80448102D01*
X32417205Y-80259744D01*
X32303937Y-80090226D01*
X32262000Y-80048289D01*
X32262000Y-78249963D01*
X33319846Y-77192118D01*
X33448102Y-77245244D01*
X33648061Y-77285018D01*
X33851939Y-77285018D01*
X34051898Y-77245244D01*
X34240256Y-77167223D01*
X34409774Y-77053955D01*
X34553937Y-76909792D01*
X34667205Y-76740274D01*
X34745226Y-76551916D01*
X34785000Y-76351957D01*
X34785000Y-76148079D01*
X34745226Y-75948120D01*
X34667205Y-75759762D01*
X34553937Y-75590244D01*
X34409774Y-75446081D01*
X34240256Y-75332813D01*
X34051898Y-75254792D01*
X33851939Y-75215018D01*
X33648061Y-75215018D01*
X33448102Y-75254792D01*
X33259744Y-75332813D01*
X33090226Y-75446081D01*
X33037517Y-75498790D01*
X33034937Y-75499044D01*
X32891300Y-75542616D01*
X32758923Y-75613373D01*
X32642893Y-75708596D01*
X32619036Y-75737666D01*
X30987654Y-77369049D01*
X30958578Y-77392911D01*
X30902983Y-77460655D01*
X30863355Y-77508941D01*
X30825535Y-77579698D01*
X30792598Y-77641319D01*
X30749026Y-77784956D01*
X30738000Y-77896907D01*
X30734314Y-77934333D01*
X30738000Y-77971757D01*
X30738001Y-80048288D01*
X30696063Y-80090226D01*
X30582795Y-80259744D01*
X30504774Y-80448102D01*
X30465000Y-80648061D01*
X20885000Y-80648061D01*
X20885000Y-77294740D01*
X25858964Y-77294740D01*
X25883245Y-77400087D01*
X26003138Y-77677204D01*
X26174790Y-77925606D01*
X26391604Y-78135748D01*
X26645249Y-78299554D01*
X26925977Y-78410729D01*
X27223000Y-78465000D01*
X28123000Y-78465000D01*
X28123000Y-77057000D01*
X28377000Y-77057000D01*
X28377000Y-78465000D01*
X29277000Y-78465000D01*
X29574023Y-78410729D01*
X29854751Y-78299554D01*
X30108396Y-78135748D01*
X30325210Y-77925606D01*
X30496862Y-77677204D01*
X30616755Y-77400087D01*
X30641036Y-77294740D01*
X30520378Y-77057000D01*
X28377000Y-77057000D01*
X28123000Y-77057000D01*
X25979622Y-77057000D01*
X25858964Y-77294740D01*
X20885000Y-77294740D01*
X20885000Y-76565260D01*
X25858964Y-76565260D01*
X25979622Y-76803000D01*
X28123000Y-76803000D01*
X28123000Y-75395000D01*
X28377000Y-75395000D01*
X28377000Y-76803000D01*
X30520378Y-76803000D01*
X30641036Y-76565260D01*
X30616755Y-76459913D01*
X30496862Y-76182796D01*
X30325210Y-75934394D01*
X30108396Y-75724252D01*
X29854751Y-75560446D01*
X29574023Y-75449271D01*
X29277000Y-75395000D01*
X28377000Y-75395000D01*
X28123000Y-75395000D01*
X27223000Y-75395000D01*
X26925977Y-75449271D01*
X26645249Y-75560446D01*
X26391604Y-75724252D01*
X26174790Y-75934394D01*
X26003138Y-76182796D01*
X25883245Y-76459913D01*
X25858964Y-76565260D01*
X20885000Y-76565260D01*
X20885000Y-73484740D01*
X25858964Y-73484740D01*
X25883245Y-73590087D01*
X26003138Y-73867204D01*
X26174790Y-74115606D01*
X26391604Y-74325748D01*
X26645249Y-74489554D01*
X26925977Y-74600729D01*
X27223000Y-74655000D01*
X28123000Y-74655000D01*
X28123000Y-73247000D01*
X28377000Y-73247000D01*
X28377000Y-74655000D01*
X29277000Y-74655000D01*
X29574023Y-74600729D01*
X29854751Y-74489554D01*
X30108396Y-74325748D01*
X30325210Y-74115606D01*
X30496862Y-73867204D01*
X30616755Y-73590087D01*
X30641036Y-73484740D01*
X30520378Y-73247000D01*
X28377000Y-73247000D01*
X28123000Y-73247000D01*
X25979622Y-73247000D01*
X25858964Y-73484740D01*
X20885000Y-73484740D01*
X20885000Y-72755260D01*
X25858964Y-72755260D01*
X25979622Y-72993000D01*
X28123000Y-72993000D01*
X28123000Y-71585000D01*
X28377000Y-71585000D01*
X28377000Y-72993000D01*
X30520378Y-72993000D01*
X30641036Y-72755260D01*
X30616755Y-72649913D01*
X30496862Y-72372796D01*
X30325210Y-72124394D01*
X30108396Y-71914252D01*
X29854751Y-71750446D01*
X29574023Y-71639271D01*
X29277000Y-71585000D01*
X28377000Y-71585000D01*
X28123000Y-71585000D01*
X27223000Y-71585000D01*
X26925977Y-71639271D01*
X26645249Y-71750446D01*
X26391604Y-71914252D01*
X26174790Y-72124394D01*
X26003138Y-72372796D01*
X25883245Y-72649913D01*
X25858964Y-72755260D01*
X20885000Y-72755260D01*
X20885000Y-69310000D01*
X25807573Y-69310000D01*
X25837210Y-69610913D01*
X25924983Y-69900261D01*
X26067519Y-70166927D01*
X26259339Y-70400661D01*
X26493073Y-70592481D01*
X26759739Y-70735017D01*
X27049087Y-70822790D01*
X27274592Y-70845000D01*
X29225408Y-70845000D01*
X29450913Y-70822790D01*
X29740261Y-70735017D01*
X30006927Y-70592481D01*
X30240661Y-70400661D01*
X30242794Y-70398061D01*
X45215000Y-70398061D01*
X45215000Y-70601939D01*
X45254774Y-70801898D01*
X45332795Y-70990256D01*
X45446063Y-71159774D01*
X45590226Y-71303937D01*
X45759744Y-71417205D01*
X45948102Y-71495226D01*
X46148061Y-71535000D01*
X46203307Y-71535000D01*
X46208572Y-71541416D01*
X46324602Y-71636639D01*
X46456979Y-71707396D01*
X46600616Y-71750968D01*
X46712568Y-71761994D01*
X46712570Y-71761994D01*
X46749993Y-71765680D01*
X46787416Y-71761994D01*
X50548289Y-71761994D01*
X50590226Y-71803931D01*
X50759744Y-71917199D01*
X50948102Y-71995220D01*
X51148061Y-72034994D01*
X51351939Y-72034994D01*
X51551898Y-71995220D01*
X51740256Y-71917199D01*
X51909774Y-71803931D01*
X52053937Y-71659768D01*
X52167205Y-71490250D01*
X52245226Y-71301892D01*
X52285000Y-71101933D01*
X52285000Y-70898055D01*
X52245226Y-70698096D01*
X52167205Y-70509738D01*
X52053937Y-70340220D01*
X51909774Y-70196057D01*
X51740256Y-70082789D01*
X51551898Y-70004768D01*
X51351939Y-69964994D01*
X51148061Y-69964994D01*
X50948102Y-70004768D01*
X50759744Y-70082789D01*
X50590226Y-70196057D01*
X50548289Y-70237994D01*
X47253161Y-70237994D01*
X47245226Y-70198102D01*
X47167205Y-70009744D01*
X47053937Y-69840226D01*
X46909774Y-69696063D01*
X46740256Y-69582795D01*
X46551898Y-69504774D01*
X46351939Y-69465000D01*
X46148061Y-69465000D01*
X45948102Y-69504774D01*
X45759744Y-69582795D01*
X45590226Y-69696063D01*
X45446063Y-69840226D01*
X45332795Y-70009744D01*
X45254774Y-70198102D01*
X45215000Y-70398061D01*
X30242794Y-70398061D01*
X30432481Y-70166927D01*
X30575017Y-69900261D01*
X30662790Y-69610913D01*
X30692427Y-69310000D01*
X30662790Y-69009087D01*
X30575017Y-68719739D01*
X30432481Y-68453073D01*
X30240661Y-68219339D01*
X30006927Y-68027519D01*
X29740261Y-67884983D01*
X29450913Y-67797210D01*
X29225408Y-67775000D01*
X27274592Y-67775000D01*
X27049087Y-67797210D01*
X26759739Y-67884983D01*
X26493073Y-68027519D01*
X26259339Y-68219339D01*
X26067519Y-68453073D01*
X25924983Y-68719739D01*
X25837210Y-69009087D01*
X25807573Y-69310000D01*
X20885000Y-69310000D01*
X20885000Y-64600000D01*
X25811928Y-64600000D01*
X25811928Y-66400000D01*
X25824188Y-66524482D01*
X25860498Y-66644180D01*
X25919463Y-66754494D01*
X25998815Y-66851185D01*
X26095506Y-66930537D01*
X26205820Y-66989502D01*
X26325518Y-67025812D01*
X26450000Y-67038072D01*
X30050000Y-67038072D01*
X30174482Y-67025812D01*
X30294180Y-66989502D01*
X30404494Y-66930537D01*
X30501185Y-66851185D01*
X30580537Y-66754494D01*
X30639502Y-66644180D01*
X30675812Y-66524482D01*
X30688072Y-66400000D01*
X30688072Y-64600000D01*
X30675812Y-64475518D01*
X30639502Y-64355820D01*
X30580537Y-64245506D01*
X30501185Y-64148815D01*
X30404494Y-64069463D01*
X30294180Y-64010498D01*
X30174482Y-63974188D01*
X30050000Y-63961928D01*
X26450000Y-63961928D01*
X26325518Y-63974188D01*
X26205820Y-64010498D01*
X26095506Y-64069463D01*
X25998815Y-64148815D01*
X25919463Y-64245506D01*
X25860498Y-64355820D01*
X25824188Y-64475518D01*
X25811928Y-64600000D01*
X20885000Y-64600000D01*
X20885000Y-54750000D01*
X31851470Y-54750000D01*
X31873539Y-54974067D01*
X31938897Y-55189523D01*
X32045032Y-55388089D01*
X32187867Y-55562133D01*
X32361911Y-55704968D01*
X32560477Y-55811103D01*
X32775933Y-55876461D01*
X32943854Y-55893000D01*
X33857000Y-55893000D01*
X33857001Y-61943847D01*
X33857000Y-61943855D01*
X33857000Y-63056146D01*
X33857001Y-63056155D01*
X33857001Y-64056146D01*
X33873540Y-64224067D01*
X33938898Y-64439523D01*
X34045033Y-64638089D01*
X34187868Y-64812133D01*
X34361912Y-64954968D01*
X34560478Y-65061103D01*
X34775934Y-65126461D01*
X35000000Y-65148530D01*
X35224067Y-65126461D01*
X35439523Y-65061103D01*
X35638089Y-64954968D01*
X35812133Y-64812133D01*
X35954968Y-64638089D01*
X36061103Y-64439523D01*
X36126461Y-64224067D01*
X36143000Y-64056146D01*
X36143000Y-59698061D01*
X68565000Y-59698061D01*
X68565000Y-59901939D01*
X68604774Y-60101898D01*
X68682795Y-60290256D01*
X68796063Y-60459774D01*
X68940226Y-60603937D01*
X69109744Y-60717205D01*
X69298102Y-60795226D01*
X69498061Y-60835000D01*
X69701939Y-60835000D01*
X69901898Y-60795226D01*
X70090256Y-60717205D01*
X70259774Y-60603937D01*
X70301711Y-60562000D01*
X79912577Y-60562000D01*
X79950000Y-60565686D01*
X79987423Y-60562000D01*
X79987426Y-60562000D01*
X80099378Y-60550974D01*
X80243015Y-60507402D01*
X80375392Y-60436645D01*
X80491422Y-60341422D01*
X80515284Y-60312346D01*
X81542631Y-59285000D01*
X81601939Y-59285000D01*
X81801898Y-59245226D01*
X81990256Y-59167205D01*
X82028029Y-59141966D01*
X82004778Y-59198098D01*
X81965004Y-59398057D01*
X81965004Y-59601935D01*
X82004778Y-59801894D01*
X82082799Y-59990252D01*
X82196067Y-60159770D01*
X82340230Y-60303933D01*
X82509748Y-60417201D01*
X82698106Y-60495222D01*
X82898065Y-60534996D01*
X83101943Y-60534996D01*
X83301902Y-60495222D01*
X83490260Y-60417201D01*
X83659778Y-60303933D01*
X83803941Y-60159770D01*
X83917209Y-59990252D01*
X83917729Y-59988997D01*
X89267790Y-59988997D01*
X89272367Y-59992753D01*
X89426807Y-60075303D01*
X89514481Y-60101898D01*
X89594383Y-60126136D01*
X89612731Y-60127943D01*
X89724991Y-60139000D01*
X89724997Y-60139000D01*
X89768657Y-60143300D01*
X89812317Y-60139000D01*
X104163473Y-60139000D01*
X104082795Y-60259744D01*
X104004774Y-60448102D01*
X103965000Y-60648061D01*
X103965000Y-60851939D01*
X104004774Y-61051898D01*
X104082795Y-61240256D01*
X104196063Y-61409774D01*
X104340226Y-61553937D01*
X104509744Y-61667205D01*
X104698102Y-61745226D01*
X104898061Y-61785000D01*
X105101939Y-61785000D01*
X105301898Y-61745226D01*
X105490256Y-61667205D01*
X105659774Y-61553937D01*
X105701711Y-61512000D01*
X106614838Y-61512000D01*
X106592700Y-61545132D01*
X106281598Y-62296198D01*
X106123000Y-63093526D01*
X106123000Y-63906474D01*
X106281598Y-64703802D01*
X106592700Y-65454868D01*
X107044350Y-66130809D01*
X107619191Y-66705650D01*
X108295132Y-67157300D01*
X109046198Y-67468402D01*
X109843526Y-67627000D01*
X110656474Y-67627000D01*
X111453802Y-67468402D01*
X112204868Y-67157300D01*
X112880809Y-66705650D01*
X113455650Y-66130809D01*
X113907300Y-65454868D01*
X114218402Y-64703802D01*
X114377000Y-63906474D01*
X114377000Y-63093526D01*
X114218402Y-62296198D01*
X113907300Y-61545132D01*
X113455650Y-60869191D01*
X112880809Y-60294350D01*
X112204868Y-59842700D01*
X111792025Y-59671694D01*
X111803937Y-59659782D01*
X111917205Y-59490264D01*
X111995226Y-59301906D01*
X112035000Y-59101947D01*
X112035000Y-58898069D01*
X111995226Y-58698110D01*
X111917205Y-58509752D01*
X111803937Y-58340234D01*
X111659774Y-58196071D01*
X111490256Y-58082803D01*
X111301898Y-58004782D01*
X111101939Y-57965008D01*
X110898061Y-57965008D01*
X110698102Y-58004782D01*
X110641957Y-58028038D01*
X110667205Y-57990252D01*
X110745226Y-57801894D01*
X110785000Y-57601935D01*
X110785000Y-57398057D01*
X110745226Y-57198098D01*
X110667205Y-57009740D01*
X110553937Y-56840222D01*
X110409774Y-56696059D01*
X110240256Y-56582791D01*
X110069353Y-56512000D01*
X113548289Y-56512000D01*
X113590226Y-56553937D01*
X113759744Y-56667205D01*
X113948102Y-56745226D01*
X114148061Y-56785000D01*
X114351939Y-56785000D01*
X114551898Y-56745226D01*
X114740256Y-56667205D01*
X114909774Y-56553937D01*
X115053937Y-56409774D01*
X115167205Y-56240256D01*
X115245226Y-56051898D01*
X115285000Y-55851939D01*
X115285000Y-55648061D01*
X115245226Y-55448102D01*
X115167205Y-55259744D01*
X115053937Y-55090226D01*
X114909774Y-54946063D01*
X114740256Y-54832795D01*
X114551898Y-54754774D01*
X114351939Y-54715000D01*
X114148061Y-54715000D01*
X113948102Y-54754774D01*
X113759744Y-54832795D01*
X113590226Y-54946063D01*
X113548289Y-54988000D01*
X109451711Y-54988000D01*
X109409774Y-54946063D01*
X109240256Y-54832795D01*
X109051898Y-54754774D01*
X108851939Y-54715000D01*
X108648061Y-54715000D01*
X108448102Y-54754774D01*
X108259744Y-54832795D01*
X108090226Y-54946063D01*
X107946063Y-55090226D01*
X107832795Y-55259744D01*
X107754774Y-55448102D01*
X107715000Y-55648061D01*
X107715000Y-55851939D01*
X107754774Y-56051898D01*
X107832795Y-56240256D01*
X107946063Y-56409774D01*
X108090226Y-56553937D01*
X108259744Y-56667205D01*
X108430647Y-56737996D01*
X107930216Y-56737996D01*
X107892793Y-56734310D01*
X107855370Y-56737996D01*
X107855368Y-56737996D01*
X107743416Y-56749022D01*
X107599779Y-56792594D01*
X107467402Y-56863351D01*
X107351372Y-56958574D01*
X107327510Y-56987650D01*
X106957370Y-57357790D01*
X106898061Y-57357790D01*
X106698102Y-57397564D01*
X106509744Y-57475585D01*
X106340226Y-57588853D01*
X106196063Y-57733016D01*
X106082795Y-57902534D01*
X106004774Y-58090892D01*
X105965000Y-58290851D01*
X105965000Y-58361000D01*
X90119523Y-58361000D01*
X90114946Y-58357244D01*
X89960506Y-58274694D01*
X89792929Y-58223861D01*
X89662322Y-58210997D01*
X89662315Y-58210997D01*
X89618655Y-58206697D01*
X89574995Y-58210997D01*
X83443662Y-58210997D01*
X83400002Y-58206697D01*
X83356342Y-58210997D01*
X83356336Y-58210997D01*
X83244076Y-58222054D01*
X83225728Y-58223861D01*
X83161277Y-58243412D01*
X83058152Y-58274694D01*
X82903712Y-58357244D01*
X82768344Y-58468338D01*
X82746315Y-58495181D01*
X82698106Y-58504770D01*
X82509748Y-58582791D01*
X82471975Y-58608030D01*
X82495226Y-58551898D01*
X82535000Y-58351939D01*
X82535000Y-58292630D01*
X83530042Y-57297589D01*
X87638781Y-57297589D01*
X87680718Y-57339526D01*
X87850236Y-57452794D01*
X88038594Y-57530815D01*
X88238553Y-57570589D01*
X88442431Y-57570589D01*
X88642390Y-57530815D01*
X88830748Y-57452794D01*
X89000266Y-57339526D01*
X89144429Y-57195363D01*
X89257697Y-57025845D01*
X89335718Y-56837487D01*
X89375492Y-56637528D01*
X89375492Y-56433650D01*
X89335718Y-56233691D01*
X89257697Y-56045333D01*
X89144429Y-55875815D01*
X89000266Y-55731652D01*
X88830748Y-55618384D01*
X88642390Y-55540363D01*
X88442431Y-55500589D01*
X88238553Y-55500589D01*
X88038594Y-55540363D01*
X87850236Y-55618384D01*
X87680718Y-55731652D01*
X87638781Y-55773589D01*
X83251833Y-55773589D01*
X83214410Y-55769903D01*
X83176987Y-55773589D01*
X83176985Y-55773589D01*
X83065033Y-55784615D01*
X82921396Y-55828187D01*
X82789019Y-55898944D01*
X82672989Y-55994167D01*
X82649132Y-56023237D01*
X81457370Y-57215000D01*
X81398061Y-57215000D01*
X81198102Y-57254774D01*
X81009744Y-57332795D01*
X80840226Y-57446063D01*
X80696063Y-57590226D01*
X80582795Y-57759744D01*
X80504774Y-57948102D01*
X80465000Y-58148061D01*
X80465000Y-58207369D01*
X79634370Y-59038000D01*
X70301711Y-59038000D01*
X70259774Y-58996063D01*
X70090256Y-58882795D01*
X69901898Y-58804774D01*
X69701939Y-58765000D01*
X69498061Y-58765000D01*
X69298102Y-58804774D01*
X69109744Y-58882795D01*
X68940226Y-58996063D01*
X68796063Y-59140226D01*
X68682795Y-59309744D01*
X68604774Y-59498102D01*
X68565000Y-59698061D01*
X36143000Y-59698061D01*
X36143000Y-56498061D01*
X68165002Y-56498061D01*
X68165002Y-56701939D01*
X68204776Y-56901898D01*
X68282797Y-57090256D01*
X68396065Y-57259774D01*
X68540228Y-57403937D01*
X68709746Y-57517205D01*
X68898104Y-57595226D01*
X69098063Y-57635000D01*
X69301941Y-57635000D01*
X69501900Y-57595226D01*
X69690258Y-57517205D01*
X69859776Y-57403937D01*
X69901713Y-57362000D01*
X79632894Y-57362000D01*
X79670317Y-57365686D01*
X79707740Y-57362000D01*
X79707743Y-57362000D01*
X79819695Y-57350974D01*
X79963332Y-57307402D01*
X80095709Y-57236645D01*
X80211739Y-57141422D01*
X80235601Y-57112346D01*
X81389514Y-55958434D01*
X81448822Y-55958434D01*
X81648781Y-55918660D01*
X81837139Y-55840639D01*
X82006657Y-55727371D01*
X82150820Y-55583208D01*
X82264088Y-55413690D01*
X82342109Y-55225332D01*
X82381883Y-55025373D01*
X82381883Y-54821495D01*
X82342109Y-54621536D01*
X82264088Y-54433178D01*
X82150820Y-54263660D01*
X82006657Y-54119497D01*
X81837139Y-54006229D01*
X81648781Y-53928208D01*
X81448822Y-53888434D01*
X81244944Y-53888434D01*
X81044985Y-53928208D01*
X80856627Y-54006229D01*
X80687109Y-54119497D01*
X80542946Y-54263660D01*
X80429678Y-54433178D01*
X80351657Y-54621536D01*
X80311883Y-54821495D01*
X80311883Y-54880803D01*
X79354687Y-55838000D01*
X69901713Y-55838000D01*
X69859776Y-55796063D01*
X69690258Y-55682795D01*
X69501900Y-55604774D01*
X69301941Y-55565000D01*
X69098063Y-55565000D01*
X68898104Y-55604774D01*
X68709746Y-55682795D01*
X68540228Y-55796063D01*
X68396065Y-55940226D01*
X68282797Y-56109744D01*
X68204776Y-56298102D01*
X68165002Y-56498061D01*
X36143000Y-56498061D01*
X36143000Y-55148059D01*
X39715000Y-55148059D01*
X39715000Y-55351937D01*
X39754774Y-55551896D01*
X39832795Y-55740254D01*
X39946063Y-55909772D01*
X40090226Y-56053935D01*
X40259744Y-56167203D01*
X40448102Y-56245224D01*
X40648061Y-56284998D01*
X40851939Y-56284998D01*
X41051898Y-56245224D01*
X41240256Y-56167203D01*
X41409774Y-56053935D01*
X41553937Y-55909772D01*
X41667205Y-55740254D01*
X41745226Y-55551896D01*
X41785000Y-55351937D01*
X41785000Y-55148059D01*
X41745226Y-54948100D01*
X41667205Y-54759742D01*
X41553937Y-54590224D01*
X41512000Y-54548287D01*
X41512000Y-54065630D01*
X41565630Y-54012000D01*
X58184376Y-54012000D01*
X58965000Y-54792625D01*
X58965000Y-54851933D01*
X59004774Y-55051892D01*
X59082795Y-55240250D01*
X59196063Y-55409768D01*
X59340226Y-55553931D01*
X59509744Y-55667199D01*
X59698102Y-55745220D01*
X59898061Y-55784994D01*
X60101939Y-55784994D01*
X60301898Y-55745220D01*
X60490256Y-55667199D01*
X60659774Y-55553931D01*
X60803937Y-55409768D01*
X60917205Y-55240250D01*
X60995226Y-55051892D01*
X61035000Y-54851933D01*
X61035000Y-54648055D01*
X60995226Y-54448096D01*
X60917205Y-54259738D01*
X60803937Y-54090220D01*
X60659774Y-53946057D01*
X60490256Y-53832789D01*
X60301898Y-53754768D01*
X60101939Y-53714994D01*
X60042631Y-53714994D01*
X59065290Y-52737654D01*
X59041428Y-52708578D01*
X58925398Y-52613355D01*
X58793021Y-52542598D01*
X58649384Y-52499026D01*
X58537432Y-52488000D01*
X58537429Y-52488000D01*
X58500006Y-52484314D01*
X58462583Y-52488000D01*
X41287423Y-52488000D01*
X41250000Y-52484314D01*
X41212577Y-52488000D01*
X41212574Y-52488000D01*
X41100622Y-52499026D01*
X40956985Y-52542598D01*
X40895364Y-52575535D01*
X40824607Y-52613355D01*
X40796229Y-52636645D01*
X40708578Y-52708578D01*
X40684716Y-52737654D01*
X40237649Y-53184721D01*
X40208579Y-53208578D01*
X40184722Y-53237648D01*
X40184721Y-53237649D01*
X40113355Y-53324608D01*
X40042599Y-53456985D01*
X39999027Y-53600622D01*
X39984314Y-53750000D01*
X39988001Y-53787433D01*
X39988000Y-54548287D01*
X39946063Y-54590224D01*
X39832795Y-54759742D01*
X39754774Y-54948100D01*
X39715000Y-55148059D01*
X36143000Y-55148059D01*
X36143000Y-54806146D01*
X36148530Y-54750000D01*
X36126461Y-54525933D01*
X36061103Y-54310477D01*
X35954968Y-54111911D01*
X35812133Y-53937867D01*
X35638089Y-53795032D01*
X35439523Y-53688897D01*
X35224067Y-53623539D01*
X35056146Y-53607000D01*
X35000000Y-53601470D01*
X34943854Y-53607000D01*
X32943854Y-53607000D01*
X32775933Y-53623539D01*
X32560477Y-53688897D01*
X32361911Y-53795032D01*
X32187867Y-53937867D01*
X32045032Y-54111911D01*
X31938897Y-54310477D01*
X31873539Y-54525933D01*
X31851470Y-54750000D01*
X20885000Y-54750000D01*
X20885000Y-51898061D01*
X79715000Y-51898061D01*
X79715000Y-52101939D01*
X79754774Y-52301898D01*
X79832795Y-52490256D01*
X79946063Y-52659774D01*
X80090226Y-52803937D01*
X80259744Y-52917205D01*
X80448102Y-52995226D01*
X80648061Y-53035000D01*
X80851939Y-53035000D01*
X81051898Y-52995226D01*
X81240256Y-52917205D01*
X81409774Y-52803937D01*
X81451711Y-52762000D01*
X82347324Y-52762000D01*
X82446063Y-52909774D01*
X82590226Y-53053937D01*
X82759744Y-53167205D01*
X82948102Y-53245226D01*
X83148061Y-53285000D01*
X83351939Y-53285000D01*
X83551898Y-53245226D01*
X83740256Y-53167205D01*
X83909774Y-53053937D01*
X84053937Y-52909774D01*
X84167205Y-52740256D01*
X84245226Y-52551898D01*
X84285000Y-52351939D01*
X84285000Y-52148061D01*
X84245226Y-51948102D01*
X84188133Y-51810269D01*
X96232639Y-51810269D01*
X97215000Y-52792631D01*
X97215000Y-52851939D01*
X97254774Y-53051898D01*
X97332795Y-53240256D01*
X97446063Y-53409774D01*
X97590226Y-53553937D01*
X97759744Y-53667205D01*
X97948102Y-53745226D01*
X98148061Y-53785000D01*
X98351939Y-53785000D01*
X98551898Y-53745226D01*
X98740256Y-53667205D01*
X98909774Y-53553937D01*
X99053937Y-53409774D01*
X99167205Y-53240256D01*
X99245226Y-53051898D01*
X99285000Y-52851939D01*
X99285000Y-52648061D01*
X99245226Y-52448102D01*
X99167205Y-52259744D01*
X99053937Y-52090226D01*
X98909774Y-51946063D01*
X98740256Y-51832795D01*
X98551898Y-51754774D01*
X98351939Y-51715000D01*
X98292631Y-51715000D01*
X97113553Y-50535923D01*
X97089691Y-50506847D01*
X96973661Y-50411624D01*
X96841284Y-50340867D01*
X96697647Y-50297295D01*
X96585695Y-50286269D01*
X96585692Y-50286269D01*
X96548269Y-50282583D01*
X96510846Y-50286269D01*
X81768951Y-50286269D01*
X81727014Y-50244332D01*
X81557496Y-50131064D01*
X81369138Y-50053043D01*
X81169179Y-50013269D01*
X80965301Y-50013269D01*
X80765342Y-50053043D01*
X80576984Y-50131064D01*
X80407466Y-50244332D01*
X80263303Y-50388495D01*
X80150035Y-50558013D01*
X80072014Y-50746371D01*
X80032240Y-50946330D01*
X80032240Y-51150208D01*
X80049468Y-51236821D01*
X79946063Y-51340226D01*
X79832795Y-51509744D01*
X79754774Y-51698102D01*
X79715000Y-51898061D01*
X20885000Y-51898061D01*
X20885000Y-47242702D01*
X41686903Y-47242702D01*
X41758486Y-47486671D01*
X42013996Y-47607571D01*
X42288184Y-47676300D01*
X42570512Y-47690217D01*
X42850130Y-47648787D01*
X43116292Y-47553603D01*
X43241514Y-47486671D01*
X43313097Y-47242702D01*
X42500000Y-46429605D01*
X41686903Y-47242702D01*
X20885000Y-47242702D01*
X20885000Y-46320512D01*
X41059783Y-46320512D01*
X41101213Y-46600130D01*
X41196397Y-46866292D01*
X41263329Y-46991514D01*
X41507298Y-47063097D01*
X42320395Y-46250000D01*
X42679605Y-46250000D01*
X43492702Y-47063097D01*
X43736671Y-46991514D01*
X43857571Y-46736004D01*
X43926300Y-46461816D01*
X43940217Y-46179488D01*
X43898787Y-45899870D01*
X43803603Y-45633708D01*
X43736671Y-45508486D01*
X43492702Y-45436903D01*
X42679605Y-46250000D01*
X42320395Y-46250000D01*
X41507298Y-45436903D01*
X41263329Y-45508486D01*
X41142429Y-45763996D01*
X41073700Y-46038184D01*
X41059783Y-46320512D01*
X20885000Y-46320512D01*
X20885000Y-42950000D01*
X41061928Y-42950000D01*
X41061928Y-44550000D01*
X41074188Y-44674482D01*
X41110498Y-44794180D01*
X41169463Y-44904494D01*
X41248815Y-45001185D01*
X41345506Y-45080537D01*
X41455820Y-45139502D01*
X41575518Y-45175812D01*
X41700000Y-45188072D01*
X41707215Y-45188072D01*
X41686903Y-45257298D01*
X42500000Y-46070395D01*
X43313097Y-45257298D01*
X43292785Y-45188072D01*
X43300000Y-45188072D01*
X43424482Y-45175812D01*
X43544180Y-45139502D01*
X43654494Y-45080537D01*
X43751185Y-45001185D01*
X43830537Y-44904494D01*
X43889502Y-44794180D01*
X43925812Y-44674482D01*
X43938072Y-44550000D01*
X43938072Y-42950000D01*
X43925812Y-42825518D01*
X43889502Y-42705820D01*
X43830537Y-42595506D01*
X43751185Y-42498815D01*
X43654494Y-42419463D01*
X43544180Y-42360498D01*
X43424482Y-42324188D01*
X43300000Y-42311928D01*
X41700000Y-42311928D01*
X41575518Y-42324188D01*
X41455820Y-42360498D01*
X41345506Y-42419463D01*
X41248815Y-42498815D01*
X41169463Y-42595506D01*
X41110498Y-42705820D01*
X41074188Y-42825518D01*
X41061928Y-42950000D01*
X20885000Y-42950000D01*
X20885000Y-35398061D01*
X25715000Y-35398061D01*
X25715000Y-35601939D01*
X25754774Y-35801898D01*
X25832795Y-35990256D01*
X25924500Y-36127503D01*
X25924501Y-40959440D01*
X25920506Y-41000000D01*
X25936445Y-41161826D01*
X25983647Y-41317433D01*
X26060301Y-41460842D01*
X26079419Y-41484137D01*
X26114778Y-41661902D01*
X26192799Y-41850260D01*
X26306067Y-42019778D01*
X26450230Y-42163941D01*
X26619748Y-42277209D01*
X26808106Y-42355230D01*
X27008065Y-42395004D01*
X27211943Y-42395004D01*
X27411902Y-42355230D01*
X27600260Y-42277209D01*
X27769778Y-42163941D01*
X27913941Y-42019778D01*
X28027209Y-41850260D01*
X28105230Y-41661902D01*
X28145004Y-41461943D01*
X28145004Y-41258065D01*
X28105230Y-41058106D01*
X28027209Y-40869748D01*
X27913941Y-40700230D01*
X27769778Y-40556067D01*
X27600260Y-40442799D01*
X27575500Y-40432543D01*
X27575500Y-36127503D01*
X27667205Y-35990256D01*
X27745226Y-35801898D01*
X27785000Y-35601939D01*
X27785000Y-35398061D01*
X27745226Y-35198102D01*
X27667205Y-35009744D01*
X27553937Y-34840226D01*
X27409774Y-34696063D01*
X27240256Y-34582795D01*
X27051898Y-34504774D01*
X26851939Y-34465000D01*
X26648061Y-34465000D01*
X26448102Y-34504774D01*
X26259744Y-34582795D01*
X26090226Y-34696063D01*
X25946063Y-34840226D01*
X25832795Y-35009744D01*
X25754774Y-35198102D01*
X25715000Y-35398061D01*
X20885000Y-35398061D01*
X20885000Y-34398061D01*
X30215000Y-34398061D01*
X30215000Y-34601939D01*
X30254774Y-34801898D01*
X30332795Y-34990256D01*
X30446063Y-35159774D01*
X30590226Y-35303937D01*
X30674501Y-35360248D01*
X30674500Y-40872497D01*
X30582795Y-41009744D01*
X30504774Y-41198102D01*
X30465000Y-41398061D01*
X30465000Y-41601939D01*
X30504774Y-41801898D01*
X30582795Y-41990256D01*
X30696063Y-42159774D01*
X30840226Y-42303937D01*
X31009744Y-42417205D01*
X31198102Y-42495226D01*
X31398061Y-42535000D01*
X31601939Y-42535000D01*
X31801898Y-42495226D01*
X31990256Y-42417205D01*
X32159774Y-42303937D01*
X32303937Y-42159774D01*
X32417205Y-41990256D01*
X32495226Y-41801898D01*
X32535000Y-41601939D01*
X32535000Y-41598061D01*
X44365000Y-41598061D01*
X44365000Y-41801939D01*
X44404774Y-42001898D01*
X44482795Y-42190256D01*
X44596063Y-42359774D01*
X44740226Y-42503937D01*
X44909744Y-42617205D01*
X45098102Y-42695226D01*
X45298061Y-42735000D01*
X45501939Y-42735000D01*
X45701898Y-42695226D01*
X45890256Y-42617205D01*
X45932468Y-42589000D01*
X46676519Y-42589000D01*
X46369191Y-42794350D01*
X45794350Y-43369191D01*
X45342700Y-44045132D01*
X45031598Y-44796198D01*
X44873000Y-45593526D01*
X44873000Y-46406474D01*
X45031598Y-47203802D01*
X45342700Y-47954868D01*
X45794350Y-48630809D01*
X46369191Y-49205650D01*
X47045132Y-49657300D01*
X47796198Y-49968402D01*
X48593526Y-50127000D01*
X49406474Y-50127000D01*
X50203802Y-49968402D01*
X50954868Y-49657300D01*
X51630809Y-49205650D01*
X52205650Y-48630809D01*
X52657300Y-47954868D01*
X52968402Y-47203802D01*
X53127000Y-46406474D01*
X53127000Y-46148061D01*
X68715000Y-46148061D01*
X68715000Y-46351939D01*
X68754774Y-46551898D01*
X68832795Y-46740256D01*
X68946063Y-46909774D01*
X69090226Y-47053937D01*
X69259744Y-47167205D01*
X69448102Y-47245226D01*
X69648061Y-47285000D01*
X69707370Y-47285000D01*
X72816422Y-50394053D01*
X72840279Y-50423123D01*
X72869349Y-50446980D01*
X72956308Y-50518346D01*
X72999580Y-50541475D01*
X73088686Y-50589103D01*
X73232323Y-50632675D01*
X73344275Y-50643701D01*
X73344278Y-50643701D01*
X73381701Y-50647387D01*
X73419124Y-50643701D01*
X75182005Y-50643701D01*
X75223942Y-50685638D01*
X75393460Y-50798906D01*
X75581818Y-50876927D01*
X75781777Y-50916701D01*
X75985655Y-50916701D01*
X76185614Y-50876927D01*
X76373972Y-50798906D01*
X76543490Y-50685638D01*
X76687653Y-50541475D01*
X76800921Y-50371957D01*
X76878942Y-50183599D01*
X76897164Y-50091988D01*
X77009744Y-50167211D01*
X77198102Y-50245232D01*
X77398061Y-50285006D01*
X77601939Y-50285006D01*
X77801898Y-50245232D01*
X77990256Y-50167211D01*
X78159774Y-50053943D01*
X78303937Y-49909780D01*
X78417205Y-49740262D01*
X78495226Y-49551904D01*
X78535000Y-49351945D01*
X78535000Y-49148067D01*
X78495226Y-48948108D01*
X78417205Y-48759750D01*
X78303937Y-48590232D01*
X78159774Y-48446069D01*
X77990256Y-48332801D01*
X77801898Y-48254780D01*
X77601939Y-48215006D01*
X77398061Y-48215006D01*
X77198102Y-48254780D01*
X77009744Y-48332801D01*
X76840226Y-48446069D01*
X76798289Y-48488006D01*
X76565637Y-48488006D01*
X75512000Y-47434370D01*
X75512000Y-46250000D01*
X79611928Y-46250000D01*
X79611928Y-47750000D01*
X79624188Y-47874482D01*
X79660498Y-47994180D01*
X79719463Y-48104494D01*
X79798815Y-48201185D01*
X79895506Y-48280537D01*
X80005820Y-48339502D01*
X80125518Y-48375812D01*
X80250000Y-48388072D01*
X81750000Y-48388072D01*
X81874482Y-48375812D01*
X81934438Y-48357625D01*
X81832795Y-48509744D01*
X81754774Y-48698102D01*
X81715000Y-48898061D01*
X81715000Y-49101939D01*
X81754774Y-49301898D01*
X81832795Y-49490256D01*
X81946063Y-49659774D01*
X82090226Y-49803937D01*
X82259744Y-49917205D01*
X82448102Y-49995226D01*
X82648061Y-50035000D01*
X82851939Y-50035000D01*
X83051898Y-49995226D01*
X83240256Y-49917205D01*
X83409774Y-49803937D01*
X83451711Y-49762000D01*
X88548289Y-49762000D01*
X88590226Y-49803937D01*
X88759744Y-49917205D01*
X88948102Y-49995226D01*
X89148061Y-50035000D01*
X89351939Y-50035000D01*
X89551898Y-49995226D01*
X89740256Y-49917205D01*
X89909774Y-49803937D01*
X90053937Y-49659774D01*
X90167205Y-49490256D01*
X90245226Y-49301898D01*
X90285000Y-49101939D01*
X90285000Y-48898061D01*
X90245226Y-48698102D01*
X90167205Y-48509744D01*
X90053937Y-48340226D01*
X89909774Y-48196063D01*
X89740256Y-48082795D01*
X89551898Y-48004774D01*
X89351939Y-47965000D01*
X89148061Y-47965000D01*
X88948102Y-48004774D01*
X88759744Y-48082795D01*
X88590226Y-48196063D01*
X88548289Y-48238000D01*
X85450382Y-48238000D01*
X85476043Y-48227371D01*
X85702886Y-48075799D01*
X85895799Y-47882886D01*
X85934143Y-47825500D01*
X87209450Y-47825500D01*
X87250000Y-47829494D01*
X87290550Y-47825500D01*
X87290553Y-47825500D01*
X87411826Y-47813556D01*
X87567434Y-47766353D01*
X87710842Y-47689699D01*
X87836541Y-47586541D01*
X87862398Y-47555034D01*
X88890004Y-46527428D01*
X89051898Y-46495226D01*
X89240256Y-46417205D01*
X89409774Y-46303937D01*
X89451711Y-46262000D01*
X90239902Y-46262000D01*
X90264579Y-46386063D01*
X90342600Y-46574421D01*
X90455868Y-46743939D01*
X90600031Y-46888102D01*
X90769549Y-47001370D01*
X90957907Y-47079391D01*
X91157866Y-47119165D01*
X91361744Y-47119165D01*
X91561703Y-47079391D01*
X91750061Y-47001370D01*
X91919579Y-46888102D01*
X92063742Y-46743939D01*
X92177010Y-46574421D01*
X92255031Y-46386063D01*
X92294805Y-46186104D01*
X92294805Y-45982226D01*
X92255031Y-45782267D01*
X92177010Y-45593909D01*
X92063742Y-45424391D01*
X91919579Y-45280228D01*
X91750061Y-45166960D01*
X91561703Y-45088939D01*
X91361744Y-45049165D01*
X91302435Y-45049165D01*
X91240924Y-44987654D01*
X91217062Y-44958578D01*
X91101032Y-44863355D01*
X90968655Y-44792598D01*
X90825018Y-44749026D01*
X90713066Y-44738000D01*
X90713063Y-44738000D01*
X90675640Y-44734314D01*
X90638217Y-44738000D01*
X89451711Y-44738000D01*
X89409774Y-44696063D01*
X89240256Y-44582795D01*
X89051898Y-44504774D01*
X88851939Y-44465000D01*
X88648061Y-44465000D01*
X88448102Y-44504774D01*
X88259744Y-44582795D01*
X88090226Y-44696063D01*
X87946063Y-44840226D01*
X87832795Y-45009744D01*
X87754774Y-45198102D01*
X87722572Y-45359996D01*
X86908068Y-46174500D01*
X85934143Y-46174500D01*
X85895799Y-46117114D01*
X85702886Y-45924201D01*
X85476043Y-45772629D01*
X85223989Y-45668225D01*
X84956411Y-45615000D01*
X84683589Y-45615000D01*
X84416011Y-45668225D01*
X84163957Y-45772629D01*
X83937114Y-45924201D01*
X83869305Y-45992011D01*
X83803843Y-45926549D01*
X83687387Y-46043005D01*
X83621863Y-45804140D01*
X83374884Y-45688240D01*
X83110040Y-45622750D01*
X82837508Y-45610188D01*
X82567762Y-45651035D01*
X82311168Y-45743723D01*
X82203293Y-45801384D01*
X82201185Y-45798815D01*
X82104494Y-45719463D01*
X81994180Y-45660498D01*
X81874482Y-45624188D01*
X81750000Y-45611928D01*
X80250000Y-45611928D01*
X80125518Y-45624188D01*
X80005820Y-45660498D01*
X79895506Y-45719463D01*
X79798815Y-45798815D01*
X79719463Y-45895506D01*
X79660498Y-46005820D01*
X79624188Y-46125518D01*
X79611928Y-46250000D01*
X75512000Y-46250000D01*
X75512000Y-44701711D01*
X75553937Y-44659774D01*
X75667205Y-44490256D01*
X75745226Y-44301898D01*
X75785000Y-44101939D01*
X75785000Y-43898061D01*
X75782485Y-43885413D01*
X102294192Y-43885413D01*
X102389956Y-44149814D01*
X102679571Y-44290704D01*
X102991108Y-44372384D01*
X103312595Y-44391718D01*
X103631675Y-44347961D01*
X103936088Y-44242795D01*
X104110044Y-44149814D01*
X104205808Y-43885413D01*
X103250000Y-42929605D01*
X102294192Y-43885413D01*
X75782485Y-43885413D01*
X75745226Y-43698102D01*
X75667205Y-43509744D01*
X75553937Y-43340226D01*
X75409774Y-43196063D01*
X75240256Y-43082795D01*
X75051898Y-43004774D01*
X74851939Y-42965000D01*
X74648061Y-42965000D01*
X74448102Y-43004774D01*
X74259744Y-43082795D01*
X74090226Y-43196063D01*
X73946063Y-43340226D01*
X73832795Y-43509744D01*
X73754774Y-43698102D01*
X73715000Y-43898061D01*
X73715000Y-44101939D01*
X73754774Y-44301898D01*
X73832795Y-44490256D01*
X73946063Y-44659774D01*
X73988000Y-44701711D01*
X73988001Y-47031370D01*
X73414000Y-46457370D01*
X73414000Y-46398061D01*
X73374226Y-46198102D01*
X73296205Y-46009744D01*
X73182937Y-45840226D01*
X73038774Y-45696063D01*
X72869256Y-45582795D01*
X72680898Y-45504774D01*
X72480939Y-45465000D01*
X72277061Y-45465000D01*
X72077102Y-45504774D01*
X71888744Y-45582795D01*
X71719226Y-45696063D01*
X71575063Y-45840226D01*
X71461795Y-46009744D01*
X71383774Y-46198102D01*
X71344000Y-46398061D01*
X71344000Y-46601939D01*
X71383774Y-46801898D01*
X71386776Y-46809146D01*
X70785000Y-46207370D01*
X70785000Y-46148061D01*
X70745226Y-45948102D01*
X70667205Y-45759744D01*
X70553937Y-45590226D01*
X70409774Y-45446063D01*
X70240256Y-45332795D01*
X70051898Y-45254774D01*
X69851939Y-45215000D01*
X69648061Y-45215000D01*
X69448102Y-45254774D01*
X69259744Y-45332795D01*
X69090226Y-45446063D01*
X68946063Y-45590226D01*
X68832795Y-45759744D01*
X68754774Y-45948102D01*
X68715000Y-46148061D01*
X53127000Y-46148061D01*
X53127000Y-45593526D01*
X52968402Y-44796198D01*
X52657300Y-44045132D01*
X52205650Y-43369191D01*
X51649054Y-42812595D01*
X101608282Y-42812595D01*
X101652039Y-43131675D01*
X101757205Y-43436088D01*
X101850186Y-43610044D01*
X102114587Y-43705808D01*
X103070395Y-42750000D01*
X103429605Y-42750000D01*
X104385413Y-43705808D01*
X104649814Y-43610044D01*
X104790704Y-43320429D01*
X104872384Y-43008892D01*
X104891718Y-42687405D01*
X104847961Y-42368325D01*
X104742795Y-42063912D01*
X104649814Y-41889956D01*
X104385413Y-41794192D01*
X103429605Y-42750000D01*
X103070395Y-42750000D01*
X102114587Y-41794192D01*
X101850186Y-41889956D01*
X101709296Y-42179571D01*
X101627616Y-42491108D01*
X101608282Y-42812595D01*
X51649054Y-42812595D01*
X51630809Y-42794350D01*
X50954868Y-42342700D01*
X50643961Y-42213918D01*
X50681863Y-42157194D01*
X50759884Y-41968836D01*
X50799658Y-41768877D01*
X50799658Y-41614587D01*
X102294192Y-41614587D01*
X103250000Y-42570395D01*
X104205808Y-41614587D01*
X104110044Y-41350186D01*
X103820429Y-41209296D01*
X103508892Y-41127616D01*
X103187405Y-41108282D01*
X102868325Y-41152039D01*
X102563912Y-41257205D01*
X102389956Y-41350186D01*
X102294192Y-41614587D01*
X50799658Y-41614587D01*
X50799658Y-41564999D01*
X50759884Y-41365040D01*
X50681863Y-41176682D01*
X50568595Y-41007164D01*
X50424432Y-40863001D01*
X50254914Y-40749733D01*
X50066556Y-40671712D01*
X49866597Y-40631938D01*
X49662719Y-40631938D01*
X49462760Y-40671712D01*
X49274402Y-40749733D01*
X49182709Y-40811000D01*
X45932468Y-40811000D01*
X45890256Y-40782795D01*
X45701898Y-40704774D01*
X45501939Y-40665000D01*
X45298061Y-40665000D01*
X45098102Y-40704774D01*
X44909744Y-40782795D01*
X44740226Y-40896063D01*
X44596063Y-41040226D01*
X44482795Y-41209744D01*
X44404774Y-41398102D01*
X44365000Y-41598061D01*
X32535000Y-41598061D01*
X32535000Y-41398061D01*
X32495226Y-41198102D01*
X32417205Y-41009744D01*
X32325500Y-40872497D01*
X32325500Y-40398061D01*
X63465000Y-40398061D01*
X63465000Y-40601939D01*
X63504774Y-40801898D01*
X63582795Y-40990256D01*
X63696063Y-41159774D01*
X63840226Y-41303937D01*
X64009744Y-41417205D01*
X64198102Y-41495226D01*
X64398061Y-41535000D01*
X64601939Y-41535000D01*
X64801898Y-41495226D01*
X64990256Y-41417205D01*
X65131179Y-41323044D01*
X65227511Y-41313556D01*
X65383119Y-41266353D01*
X65526527Y-41189699D01*
X65604754Y-41125500D01*
X68472497Y-41125500D01*
X68609744Y-41217205D01*
X68798102Y-41295226D01*
X68998061Y-41335000D01*
X69201939Y-41335000D01*
X69401898Y-41295226D01*
X69590256Y-41217205D01*
X69759774Y-41103937D01*
X69903937Y-40959774D01*
X70017205Y-40790256D01*
X70095226Y-40601898D01*
X70135000Y-40401939D01*
X70135000Y-40198061D01*
X70095226Y-39998102D01*
X70017205Y-39809744D01*
X69903937Y-39640226D01*
X69759774Y-39496063D01*
X69590256Y-39382795D01*
X69401898Y-39304774D01*
X69201939Y-39265000D01*
X68998061Y-39265000D01*
X68798102Y-39304774D01*
X68609744Y-39382795D01*
X68472497Y-39474500D01*
X65306235Y-39474500D01*
X65265685Y-39470506D01*
X65225134Y-39474500D01*
X65225132Y-39474500D01*
X65103859Y-39486444D01*
X64948251Y-39533647D01*
X64914787Y-39551534D01*
X64801898Y-39504774D01*
X64601939Y-39465000D01*
X64398061Y-39465000D01*
X64198102Y-39504774D01*
X64009744Y-39582795D01*
X63840226Y-39696063D01*
X63696063Y-39840226D01*
X63582795Y-40009744D01*
X63504774Y-40198102D01*
X63465000Y-40398061D01*
X32325500Y-40398061D01*
X32325500Y-34790542D01*
X32329493Y-34749999D01*
X32325500Y-34709456D01*
X32325500Y-34709447D01*
X32313556Y-34588174D01*
X32285000Y-34494037D01*
X32285000Y-34398061D01*
X32245226Y-34198102D01*
X32167205Y-34009744D01*
X32053937Y-33840226D01*
X31909774Y-33696063D01*
X31740256Y-33582795D01*
X31551898Y-33504774D01*
X31351939Y-33465000D01*
X31148061Y-33465000D01*
X30948102Y-33504774D01*
X30759744Y-33582795D01*
X30590226Y-33696063D01*
X30446063Y-33840226D01*
X30332795Y-34009744D01*
X30254774Y-34198102D01*
X30215000Y-34398061D01*
X20885000Y-34398061D01*
X20885000Y-20885000D01*
X64623000Y-20885000D01*
X64623000Y-35500000D01*
G36*
X83103748Y-46985858D02*
G01*
X83089605Y-47000000D01*
X83103748Y-47014143D01*
X82924143Y-47193748D01*
X82910000Y-47179605D01*
X82895858Y-47193748D01*
X82716253Y-47014143D01*
X82730395Y-47000000D01*
X82716253Y-46985858D01*
X82895858Y-46806253D01*
X82910000Y-46820395D01*
X82924143Y-46806253D01*
X83103748Y-46985858D01*
X83103748Y-46985858D01*
G37*
X83103748Y-46985858D02*
X83089605Y-47000000D01*
X83103748Y-47014143D01*
X82924143Y-47193748D01*
X82910000Y-47179605D01*
X82895858Y-47193748D01*
X82716253Y-47014143D01*
X82730395Y-47000000D01*
X82716253Y-46985858D01*
X82895858Y-46806253D01*
X82910000Y-46820395D01*
X82924143Y-46806253D01*
X83103748Y-46985858D01*
G36*
X118623000Y-39017278D02*
G01*
X118400396Y-38973000D01*
X118099604Y-38973000D01*
X117804590Y-39031681D01*
X117704838Y-39073000D01*
X117295162Y-39073000D01*
X117195410Y-39031681D01*
X116900396Y-38973000D01*
X116599604Y-38973000D01*
X116304590Y-39031681D01*
X116204838Y-39073000D01*
X116045162Y-39073000D01*
X115945410Y-39031681D01*
X115650396Y-38973000D01*
X115349604Y-38973000D01*
X115054590Y-39031681D01*
X114954838Y-39073000D01*
X114795162Y-39073000D01*
X114695410Y-39031681D01*
X114400396Y-38973000D01*
X114099604Y-38973000D01*
X113804590Y-39031681D01*
X113704838Y-39073000D01*
X113295162Y-39073000D01*
X113195410Y-39031681D01*
X112900396Y-38973000D01*
X112599604Y-38973000D01*
X112304590Y-39031681D01*
X112204838Y-39073000D01*
X111795162Y-39073000D01*
X111695410Y-39031681D01*
X111400396Y-38973000D01*
X111099604Y-38973000D01*
X110804590Y-39031681D01*
X110704838Y-39073000D01*
X110295162Y-39073000D01*
X110195410Y-39031681D01*
X109900396Y-38973000D01*
X109599604Y-38973000D01*
X109304590Y-39031681D01*
X109204838Y-39073000D01*
X98527000Y-39073000D01*
X98527000Y-35400000D01*
X98524560Y-35375224D01*
X98517333Y-35351399D01*
X98505597Y-35329443D01*
X98489803Y-35310197D01*
X98470557Y-35294403D01*
X98448601Y-35282667D01*
X98424776Y-35275440D01*
X98400000Y-35273000D01*
X83627000Y-35273000D01*
X83627000Y-21377000D01*
X118623000Y-21377000D01*
X118623000Y-39017278D01*
X118623000Y-39017278D01*
G37*
X118623000Y-39017278D02*
X118400396Y-38973000D01*
X118099604Y-38973000D01*
X117804590Y-39031681D01*
X117704838Y-39073000D01*
X117295162Y-39073000D01*
X117195410Y-39031681D01*
X116900396Y-38973000D01*
X116599604Y-38973000D01*
X116304590Y-39031681D01*
X116204838Y-39073000D01*
X116045162Y-39073000D01*
X115945410Y-39031681D01*
X115650396Y-38973000D01*
X115349604Y-38973000D01*
X115054590Y-39031681D01*
X114954838Y-39073000D01*
X114795162Y-39073000D01*
X114695410Y-39031681D01*
X114400396Y-38973000D01*
X114099604Y-38973000D01*
X113804590Y-39031681D01*
X113704838Y-39073000D01*
X113295162Y-39073000D01*
X113195410Y-39031681D01*
X112900396Y-38973000D01*
X112599604Y-38973000D01*
X112304590Y-39031681D01*
X112204838Y-39073000D01*
X111795162Y-39073000D01*
X111695410Y-39031681D01*
X111400396Y-38973000D01*
X111099604Y-38973000D01*
X110804590Y-39031681D01*
X110704838Y-39073000D01*
X110295162Y-39073000D01*
X110195410Y-39031681D01*
X109900396Y-38973000D01*
X109599604Y-38973000D01*
X109304590Y-39031681D01*
X109204838Y-39073000D01*
X98527000Y-39073000D01*
X98527000Y-35400000D01*
X98524560Y-35375224D01*
X98517333Y-35351399D01*
X98505597Y-35329443D01*
X98489803Y-35310197D01*
X98470557Y-35294403D01*
X98448601Y-35282667D01*
X98424776Y-35275440D01*
X98400000Y-35273000D01*
X83627000Y-35273000D01*
X83627000Y-21377000D01*
X118623000Y-21377000D01*
X118623000Y-39017278D01*
G36*
X82373000Y-24691131D02*
G01*
X82342715Y-24790967D01*
X82263032Y-25600000D01*
X82342715Y-26409033D01*
X82373000Y-26508869D01*
X82373000Y-35373000D01*
X65877000Y-35373000D01*
X65877000Y-21377000D01*
X82373000Y-21377000D01*
X82373000Y-24691131D01*
X82373000Y-24691131D01*
G37*
X82373000Y-24691131D02*
X82342715Y-24790967D01*
X82263032Y-25600000D01*
X82342715Y-26409033D01*
X82373000Y-26508869D01*
X82373000Y-35373000D01*
X65877000Y-35373000D01*
X65877000Y-21377000D01*
X82373000Y-21377000D01*
X82373000Y-24691131D01*
D26*
X115470000Y-31910000D03*
X112930000Y-31910000D03*
X110390000Y-31910000D03*
X105310000Y-31910000D03*
X102770000Y-31910000D03*
X100230000Y-31910000D03*
X100230000Y-29370000D03*
X102770000Y-29370000D03*
X105310000Y-29370000D03*
X112930000Y-29370000D03*
X110390000Y-29370000D03*
X115470000Y-29370000D03*
X115470000Y-26830000D03*
X112930000Y-26830000D03*
X110390000Y-26830000D03*
X105310000Y-26830000D03*
X102770000Y-26830000D03*
X100230000Y-26830000D03*
X100230000Y-24290000D03*
X102770000Y-24290000D03*
X105310000Y-24290000D03*
X110390000Y-24290000D03*
X112930000Y-24290000D03*
X115470000Y-24290000D03*
X49500000Y-72500000D03*
X49500000Y-73500000D03*
X49500000Y-74500000D03*
X48500000Y-74500000D03*
X48500000Y-73500000D03*
X48500000Y-72500000D03*
X105250000Y-50750000D03*
X116250000Y-50250000D03*
X111250000Y-46500000D03*
X112750000Y-46500000D03*
X114250000Y-46500000D03*
X116750000Y-46500000D03*
X118250000Y-46500000D03*
X118250000Y-45000000D03*
X118250000Y-43250000D03*
X109750000Y-45000000D03*
X109750000Y-43250000D03*
X109750000Y-41750000D03*
X109750000Y-40500000D03*
X118250000Y-40500000D03*
X118250000Y-41750000D03*
X109750000Y-46500000D03*
X111250000Y-45000000D03*
X116750000Y-45000000D03*
X115500000Y-46500000D03*
X111250000Y-43250000D03*
X111250000Y-41750000D03*
X112750000Y-41750000D03*
X114250000Y-41750000D03*
X115500000Y-41750000D03*
X116750000Y-41750000D03*
X116750000Y-40500000D03*
X115500000Y-40500000D03*
X114250000Y-40500000D03*
X112750000Y-40500000D03*
X111250000Y-40500000D03*
X116750000Y-43250000D03*
X96250000Y-44750000D03*
X93500000Y-42250000D03*
X93500000Y-44750000D03*
X105250000Y-65000000D03*
X114500000Y-57500000D03*
X92500000Y-58250000D03*
X85000000Y-60250000D03*
X83500000Y-50250000D03*
X78676702Y-53000000D03*
X76750000Y-48250000D03*
X69000000Y-44500000D03*
X69000000Y-41750000D03*
X68000000Y-38000000D03*
X59250000Y-40500000D03*
X48750000Y-39750000D03*
X33250000Y-41500000D03*
X25000000Y-51750000D03*
X58000000Y-49250000D03*
X92750000Y-55750000D03*
X36500000Y-81250000D03*
X44500000Y-82000000D03*
X53000000Y-82000000D03*
X113000000Y-49000000D03*
X32500000Y-62500000D03*
X32500000Y-71750000D03*
X32500000Y-73250000D03*
X61250000Y-61000000D03*
X61250000Y-57999998D03*
X48500000Y-75500000D03*
X49500000Y-75500000D03*
X67750000Y-63250000D03*
X70290000Y-63250000D03*
X72830000Y-63250000D03*
X75370000Y-63250000D03*
X77910000Y-63250000D03*
X80450000Y-63250000D03*
X82990000Y-63250000D03*
X85530000Y-63250000D03*
X88070000Y-63250000D03*
X90610000Y-63250000D03*
X93150000Y-63250000D03*
X95690000Y-63250000D03*
X67750000Y-65790000D03*
X70290000Y-65790000D03*
X72830000Y-65790000D03*
X75370000Y-65790000D03*
X77910000Y-65790000D03*
X80450000Y-65790000D03*
X82990000Y-65790000D03*
X85530000Y-65790000D03*
X88070000Y-65790000D03*
X90610000Y-65790000D03*
X93150000Y-65790000D03*
X95690000Y-65790000D03*
X67750000Y-68330000D03*
X70290000Y-68330000D03*
X72830000Y-68330000D03*
X75370000Y-68330000D03*
X77910000Y-68330000D03*
X80450000Y-68330000D03*
X82990000Y-68330000D03*
X85530000Y-68330000D03*
X88070000Y-68330000D03*
X90610000Y-68330000D03*
X93150000Y-68330000D03*
X95690000Y-68330000D03*
X67750000Y-70870000D03*
X70290000Y-70870000D03*
X72830000Y-70870000D03*
X75370000Y-70870000D03*
X77910000Y-70870000D03*
X80450000Y-70870000D03*
X82990000Y-70870000D03*
X85530000Y-70870000D03*
X88070000Y-70870000D03*
X90610000Y-70870000D03*
X93150000Y-70870000D03*
X95690000Y-70870000D03*
X67750000Y-73410000D03*
X70290000Y-73410000D03*
X72830000Y-73410000D03*
X75370000Y-73410000D03*
X77910000Y-73410000D03*
X80450000Y-73410000D03*
X82990000Y-73410000D03*
X85530000Y-73410000D03*
X88070000Y-73410000D03*
X90610000Y-73410000D03*
X93150000Y-73410000D03*
X95690000Y-73410000D03*
X67750000Y-75950000D03*
X70290000Y-75950000D03*
X72830000Y-75950000D03*
X75370000Y-75950000D03*
X77910000Y-75950000D03*
X80450000Y-75950000D03*
X82990000Y-75950000D03*
X85530000Y-75950000D03*
X88070000Y-75950000D03*
X90610000Y-75950000D03*
X93150000Y-75950000D03*
X95690000Y-75950000D03*
X67750000Y-78490000D03*
X70290000Y-78490000D03*
X72830000Y-78490000D03*
X75370000Y-78490000D03*
X77910000Y-78490000D03*
X80450000Y-78490000D03*
X82990000Y-78490000D03*
X85530000Y-78490000D03*
X88070000Y-78490000D03*
X90610000Y-78490000D03*
X93150000Y-78490000D03*
X95690000Y-78490000D03*
X67750000Y-81030000D03*
X70290000Y-81030000D03*
X72830000Y-81030000D03*
X75370000Y-81030000D03*
X77910000Y-81030000D03*
X80450000Y-81030000D03*
X82990000Y-81030000D03*
X85530000Y-81030000D03*
X88070000Y-81030000D03*
X90610000Y-81030000D03*
X93150000Y-81030000D03*
X95690000Y-81030000D03*
X67750000Y-83570000D03*
X70290000Y-83570000D03*
X72830000Y-83570000D03*
X75370000Y-83570000D03*
X77910000Y-83570000D03*
X80450000Y-83570000D03*
X82990000Y-83570000D03*
X85530000Y-83570000D03*
X88070000Y-83570000D03*
X90610000Y-83570000D03*
X93150000Y-83570000D03*
X95690000Y-83570000D03*
X97000000Y-72000000D03*
X99540000Y-72000000D03*
X102080000Y-72000000D03*
X104620000Y-72000000D03*
X107160000Y-72000000D03*
X109700000Y-72000000D03*
X112240000Y-72000000D03*
X114780000Y-72000000D03*
X117320000Y-72000000D03*
X97000000Y-74540000D03*
X99540000Y-74540000D03*
X102080000Y-74540000D03*
X104620000Y-74540000D03*
X107160000Y-74540000D03*
X109700000Y-74540000D03*
X112240000Y-74540000D03*
X114780000Y-74540000D03*
X117320000Y-74540000D03*
X97000000Y-77080000D03*
X99540000Y-77080000D03*
X102080000Y-77080000D03*
X104620000Y-77080000D03*
X107160000Y-77080000D03*
X109700000Y-77080000D03*
X112240000Y-77080000D03*
X114780000Y-77080000D03*
X117320000Y-77080000D03*
X97000000Y-79620000D03*
X99540000Y-79620000D03*
X102080000Y-79620000D03*
X104620000Y-79620000D03*
X107160000Y-79620000D03*
X109700000Y-79620000D03*
X112240000Y-79620000D03*
X114780000Y-79620000D03*
X117320000Y-79620000D03*
X97000000Y-82160000D03*
X99540000Y-82160000D03*
X102080000Y-82160000D03*
X104620000Y-82160000D03*
X107160000Y-82160000D03*
X109700000Y-82160000D03*
X112240000Y-82160000D03*
X114780000Y-82160000D03*
X117320000Y-82160000D03*
X37250000Y-46250000D03*
X48500000Y-29750000D03*
X33500000Y-24000002D03*
X32500000Y-24000000D03*
X31500000Y-24000000D03*
X30500000Y-24000000D03*
X53000000Y-42000000D03*
X54000000Y-42000000D03*
X55000000Y-42000000D03*
X56000000Y-41750000D03*
X52250000Y-41500000D03*
X87749990Y-60500000D03*
X74000000Y-39500008D03*
X83000004Y-59499996D03*
X111000000Y-59000008D03*
X46250000Y-70500000D03*
X51250000Y-70999994D03*
X60000000Y-54749994D03*
X40750000Y-55249998D03*
X33750000Y-76250018D03*
X31500000Y-80750000D03*
X84990000Y-21750000D03*
X87530000Y-21750000D03*
X90070000Y-21750000D03*
X90070000Y-21750000D03*
X92610000Y-21750000D03*
X95150000Y-21750000D03*
X97690000Y-21750000D03*
X100230000Y-21750000D03*
X102770000Y-21750000D03*
X105310000Y-21750000D03*
X107850000Y-21750000D03*
X110390000Y-21750000D03*
X112930000Y-21750000D03*
X115470000Y-21750000D03*
X118010000Y-21750000D03*
X118010000Y-24290000D03*
X107850000Y-24290000D03*
X97690000Y-24290000D03*
X95150000Y-24290000D03*
X92610000Y-24290000D03*
X92610000Y-26830000D03*
X95150000Y-26830000D03*
X97690000Y-26830000D03*
X107850000Y-26830000D03*
X118010000Y-26830000D03*
X118010000Y-29370000D03*
X107850000Y-29370000D03*
X97690000Y-29370000D03*
X95150000Y-29370000D03*
X92610000Y-29370000D03*
X90070000Y-29370000D03*
X87530000Y-29370000D03*
X84990000Y-29370000D03*
X84990000Y-31910000D03*
X87530000Y-31910000D03*
X90070000Y-31910000D03*
X92610000Y-31910000D03*
X95150000Y-31910000D03*
X97690000Y-31910000D03*
X107850000Y-31910000D03*
X118010000Y-31910000D03*
X118010000Y-34450000D03*
X110390000Y-34450000D03*
X112930000Y-34450000D03*
X115470000Y-34450000D03*
X107850000Y-34450000D03*
X105310000Y-34450000D03*
X102770000Y-34450000D03*
X100230000Y-34450000D03*
X97690000Y-34450000D03*
X95150000Y-34450000D03*
X90070000Y-34450000D03*
X92610000Y-34450000D03*
X87530000Y-34450000D03*
X84990000Y-34450000D03*
X100230000Y-36990000D03*
X105310000Y-36990000D03*
X107850000Y-36990000D03*
X110390000Y-36990000D03*
X118010000Y-36990000D03*
X64500000Y-40500000D03*
X69100000Y-40300000D03*
X98250000Y-52750000D03*
X69750000Y-46250000D03*
X81067240Y-51048269D03*
X75883716Y-49881701D03*
X109750000Y-57499996D03*
X107000000Y-58392790D03*
X108750000Y-55750000D03*
X114250000Y-55750000D03*
X105000000Y-60750000D03*
X107250000Y-60250000D03*
X88750000Y-45500000D03*
X91259805Y-46084165D03*
X35000000Y-63000000D03*
X35000000Y-54750000D03*
X34000000Y-54750000D03*
X33000000Y-54750000D03*
X35000000Y-62000000D03*
X35000000Y-64000000D03*
X45400000Y-41700000D03*
X49764658Y-41666938D03*
X26750000Y-35500000D03*
X27110004Y-41360004D03*
X31500000Y-41500000D03*
X31250000Y-34500000D03*
X82750000Y-49000000D03*
X89250000Y-49000000D03*
X74750000Y-44000000D03*
X77500000Y-49250006D03*
X81346883Y-54923434D03*
X69200002Y-56600000D03*
X81500000Y-58250000D03*
X72379000Y-46500000D03*
X80750000Y-52000000D03*
X83250000Y-52250000D03*
X74948396Y-48981069D03*
X69600000Y-59800000D03*
X88340492Y-56535589D03*
X69750000Y-21750000D03*
X69750000Y-24290000D03*
X69750000Y-26830000D03*
X69750000Y-29370000D03*
X69750000Y-31910000D03*
X69750000Y-34450000D03*
X72290000Y-34450000D03*
X72290000Y-31910000D03*
X72290000Y-29370000D03*
X72290000Y-26830000D03*
X72290000Y-24290000D03*
X72290000Y-21750000D03*
X74830000Y-21750000D03*
X74830000Y-29370000D03*
X74830000Y-31910000D03*
X74830000Y-34450000D03*
X77370000Y-34450000D03*
X77370000Y-31910000D03*
X77370000Y-29370000D03*
X79910000Y-29370000D03*
X79910000Y-31910000D03*
X79910000Y-34450000D03*
X77370000Y-21750000D03*
X79910000Y-21750000D03*
X67210000Y-34450000D03*
X67210000Y-31910000D03*
X42500000Y-46250000D03*
X42500000Y-43750000D03*
D27*
X77910000Y-25600000D03*
X87910000Y-25600000D03*
D26*
X81000000Y-47000000D03*
X84820000Y-47000000D03*
X82910000Y-47000000D03*
X81860000Y-24970000D03*
X81860000Y-26230000D03*
X81110000Y-27260000D03*
X81110000Y-23940000D03*
X73960000Y-24970000D03*
X73960000Y-26230000D03*
X74710000Y-27260000D03*
X74710000Y-23940000D03*
X78580000Y-27650000D03*
X77240000Y-27650000D03*
X79910000Y-27650000D03*
X75910000Y-27650000D03*
X78580000Y-23550000D03*
X77240000Y-23550000D03*
X75910000Y-23550000D03*
X79910000Y-23550000D03*
X84710000Y-27260000D03*
X84710000Y-23940000D03*
X83960000Y-26230000D03*
X83960000Y-24970000D03*
X91110000Y-27260000D03*
X91110000Y-23940000D03*
X91860000Y-24970000D03*
X89910000Y-27650000D03*
X88580000Y-27650000D03*
X87240000Y-27650000D03*
X85910000Y-27650000D03*
X89910000Y-23550000D03*
X88580000Y-23550000D03*
X87240000Y-23550000D03*
X85910000Y-23550000D03*
X91860000Y-26230000D03*
X112306810Y-62312500D03*
X112306810Y-64687500D03*
X110250000Y-65875000D03*
X108193190Y-64687500D03*
X108193190Y-62312500D03*
X110250000Y-61125000D03*
X110250000Y-63500000D03*
X51056810Y-44812500D03*
X51056810Y-47187500D03*
X49000000Y-48375000D03*
X46943190Y-47187500D03*
X46943190Y-44812500D03*
X49000000Y-43625000D03*
X49000000Y-46000000D03*
X28250000Y-76930000D03*
X28250000Y-73120000D03*
X28250000Y-69310000D03*
X28250000Y-65500000D03*
X103250000Y-42750000D03*
X103250000Y-37750000D03*
M02*
